<svg viewBox="0 0 209 209" xmlns="http://www.w3.org/2000/svg" fill-rule="evenodd" clip-rule="evenodd" stroke-linecap="round" stroke-linejoin="round" stroke-miterlimit="1.5">
    <g fill="none" stroke="#38332a" stroke-width="8.33">
        <path d="M37.18 150c-.2.06 3.61-4.98 4.23-5.94 3.05-4.6 5.92-9.25 9.1-13.73 9.03-12.68 18.78-24.75 27.6-37.57 13.81-20.12 22.4-42.73 33.43-64.29 2.45-4.8 4.28-10.12 6.14-15.14.23-.59 1.13-4.73 1.89-4.98.06 0 1.27 1.57 1.35 1.69a40.27 40.27 0 005.5 4.73c7.04 5.22 15.16 8.9 23.11 12.57 5.97 2.82 11.78 6.2 17.87 8.8 1.4.62 6.54.81 7.47 1.91.05.06-1.78 1.78-1.86 1.9a31.35 31.35 0 00-3.05 3.66c-2.82 3.86-5.21 8.06-7.72 12.12a747.86 747.86 0 00-22.6 38.44c-6.85 12.57-13.45 25.22-20.18 37.82-3.95 7.3-8.69 14.2-12.07 21.8-2.98 6.76-3.72 12.25-7.52 18.76-.45.73-2.06 4.88-2.88 5.22-1.89.79-8.57-2.15-10.48-2.63-11.67-2.9-21.34-10.73-32.56-14.8-4.67-1.68-9.4-3.04-14-4.84a6.73 6.73 0 01-3.27-3.1c-.09-.14-1.07-2.34-.54-2.06"/>
        <path d="M33.46 146.88c4.77-2.54 5.39 53.01 5.72 53.1 2.26.56 55.7-22 57.67-22.08m7.64-130.35c6.85 1.05 52.34 19.7 49.07 21.37m-93.74 80.13c10.34-28.7 41.7-55.95 45.46-83.66"/>
    </g>
</svg>
