<svg viewBox="0 0 871 871" xmlns="http://www.w3.org/2000/svg" fill-rule="evenodd" clip-rule="evenodd" stroke-linecap="round" stroke-linejoin="round" stroke-miterlimit="1.5">
    <path d="M140.6 787.57c0-127.83 21.7-520.2 26-521.36 81.26-22.04 555.5-3.1 571.7 0 3 .58-15.98 503.2-21.6 521.36 0 0-471.2 5.4-569.94 5.4" fill="none" stroke="#38332a" stroke-width="34.71"/>
    <path d="M619.5 787.57c-1.5-4.46 21.47-393.06 20.75-400.65-.28-3.08-133.6-6.25-172.83 12.4-2.38 1.13-2.5 368.98-14.97 388.25M166.6 266.2c1.6-11.69 248.46-214.7 264.57-221.22 7.48-3.02 305.86 219.17 307.13 221.23M233.54 420.13s13.72-.29 32.83-.55c42-.58 110.04-1.07 115.72 1.77 2.27 1.14-6.15 164.77-11.83 207.82-.28 2.1-132.36-4.67-136.72-7.96-2.55-1.92-2.72-190.2 0-201.09zm340 196.93c0-1.19-.59-.62-1.43.22" fill="none" stroke="#38332a" stroke-width="34.71"/>
</svg>
