<svg viewBox="0 0 1738 1738" xmlns="http://www.w3.org/2000/svg" fill-rule="evenodd" clip-rule="evenodd" stroke-linecap="round" stroke-linejoin="round" stroke-miterlimit="1.5">
    <g fill="none" stroke="#38332a">
        <path d="M451.63 1638.88s53.04-697.2 20.04-687c-158.09 49.25-273.04-600.04-231.75-676.2 1.2-2.22 428.75-33.76 582.83 0 36.04 7.9-33.75 667.9-228.2 676.24-29.84 1.25 31.87 613.25 31.87 686.96 0 4.67-174.8 1.17-174.8 0z" stroke-width="86.79"/>
        <path d="M437.5 791.08c-20.58-117.37-60.08-290-90-404.75m188.2-.08c1.26 41.96-2.5 298.04-4.04 404.83m175.5-397.6s-50.91 167.69-77.5 397.6" stroke-width="52.08"/>
    </g>
    <g fill="none" stroke="#38332a">
        <path d="M1072.38 1594.33c11.33 60.83 182.8 55.63 182.3 23.13-.13-8.13 3.74-366.3-.43-374.46-18.74-37.25-54.2-168.34-48.62-168.34 56.25 0 217.46 4.92 219.67 1.67 61.46-90.92-7.92-760.2-167.71-964.83-2-2.59-142.42 140-176.75 183.12 0 89.21-8.46 1173.58-8.46 1299.71z" stroke-width="86.79"/>
        <path d="M1172.92 244.3c135.8 488.08 87.04 822.07 87.04 820.2m-71.12.08c-22.63 16.96-82.5 34.25-116.46-25.16m116.46 110c-22.63 17-82.5 34.29-116.46-25.13M580.5 977.9c-5.96 29.46-61.67 59.42-95.63 0m99.8 89c-31.55 41.4-65.25 52.11-103.96-8.33" stroke-width="52.08"/>
    </g>
</svg>
