<svg viewBox="0 0 100 100" xmlns="http://www.w3.org/2000/svg" fill-rule="evenodd" clip-rule="evenodd" stroke-linecap="round" stroke-linejoin="round" stroke-miterlimit="1.5"><path d="M37.13 32.74c1.1-.44-1.27-2.46-1.64-2.72-2.16-1.52-4.85-1.92-7.45-1.84-7.82.26-8.94 8.57-6.79 14.54.64 1.77 1.16 3.73 2.71 4.94 6.96 5.42 17.32-1.5 15.28-9.82a21.7 21.7 0 0 0-2.57-5.8c-.3-.53-.94-1.66-1.66-1.36M18.11 58.3c0-1.41 2.45-2.92 3.36-3.63 4.18-3.24 8.78-4.24 13.6-1.6 4.81 2.63 7.1 7.09 6.98 12.53-.05 2.14-.64 4.27-.87 6.4-.2 1.75-.5 3.53-.31 5.3.03.28.5 3 .24 3.12" fill="none" stroke="#38332a" stroke-width="3"/><path d="M18.96 57.29c-1.59 1 .19 5.36.47 6.61 1.04 4.65 1.62 9.1 1 13.84-.15 1.1.03 2.58-.4 3.62M55.07 22.53c-.36 0 .73.26.9.27.73.08 1.48.07 2.22.1 2.06.06 4.31 1.1 6.3.44 1.84-.61 3.48.3 5.35.27 1.83-.05 3.84.1 5.65-.17 1.35-.2 2.67-.91 4.03-.98.41-.02.73.33 1.14.3.74-.04 1.25-.57 2.04-.57.67 0 1.65.23 2.24-.19M54.85 37.69c.7.46 1.45.3 2.2.05 2.18-.75 5.07-.42 7.37-.36 1.18.03 2.36-.18 3.53-.1 1.13.07 2.19.47 3.34.29 2-.32 3.94-1.21 5.94-1.5 1.75-.23 3.93.13 5.52.52 1 .25 1.88-.56 2.96-.05M55 52c.74-.15 3.08-.82 3.83-.92 1.1-.14 2.21.5 3.32.5 1.75 0 3.74-.5 5.52-.66 2.23-.2 4.3-1.26 6.44-1.73.63-.13 1.28.26 1.9.3.76.03 1.32-.45 2.04-.49.58-.03 1.12.31 1.72.3 1.15-.04 3.98-.53 4.8.7M55.02 64.43c1.99.92 3.72.05 5.69.68 1.37.43 2.82-.2 4.29-.11 1.31.08 2.33.94 3.6.7.95-.17 1.95-.02 2.88-.3.83-.26 1.52-.92 2.37-1.08.74-.14 1.53.25 2.28.27.87.03 1.7-.21 2.57-.24.75-.02 1.46.31 2.2.25.66-.06 1.22-.6 1.86-.6.58 0 1.42.93 2.02.32M54 75c0 1.63.86.18 1.53.26.78.1 1.3.96 2.07 1.15.78.19 1.55-.2 2.35 0 1.4.36 2.5 1.4 4 1.5 1.58.1 4.01-.23 5.55-.6.77-.2 1.48-.72 2.28-.8 1.59-.13 3.27.83 4.85 1 1.02.1 1.61-.4 2.54-.57.67-.12 1.08.63 1.74.62 1.07-.01 2.35-.9 3.52-1.04.2-.02 1.53.24 1.59.14" fill="none" stroke="#38332a" stroke-width="3"/><path d="M6 6c2 0 16.9-.05 19 0 2.9.07 18.67.73 22 0 4.29-.94 19.47-.03 23 0 2.9.02 6.45-.24 9.36-.05C81.84 6.1 91.74 5.67 92 6c.16.2-.22 8.16-.14 10.18.2 4.82.54 9.7.45 14.53-.09 4.5.08 39.29.54 42.76C93.34 77.15 94.32 93.5 94 94c-.02.03-22.34 1.16-26.68 1.06A387.1 387.1 0 0 0 52 95c-4.4.15-18.84.41-23 0-3.41-.34-17.48-1.78-19.11-1.7-.46.03-3.49.05-3.89-.3-1.45-1.26.35-13.4.21-17.64-.09-2.62-.4-14.8-.13-18.3.28-3.68.33-19-.05-22.92-.37-3.74-.42-7.5-.53-11.27C5.4 19.26 6 6 6 6z" fill="none" stroke="#38332a" stroke-width="5"/><path d="M13.17 18.06c7.06 0 13.26.04 15.83-.06 1.42-.05 18.84-.49 19.17-.18.63.6.8 10.38.37 13.86-.75 6.23-.35 12.31-.26 18.56.08 5.7-.34 11.38-.18 17.09.07 2.24.09 4.48.27 6.72.18 2.2.98 6.48-1.37 7.95-1.82 1.14-9.32.1-10.93.4-5.8 1.07-11.28.6-16.98-.59-1.73-.36-3.46-.75-5.2-1.09-.22-.04-1.02-13.33-.89-16.72.11-2.86.38-20.81 0-25-.13-1.46.02-15.74-.04-16.24-.02-.1.2-4.7.2-4.7z" fill="none" stroke="#38332a" stroke-width="5"/></svg>