<?xml version="1.0" encoding="UTF-8" standalone="no"?><!DOCTYPE svg PUBLIC "-//W3C//DTD SVG 1.1//EN" "http://www.w3.org/Graphics/SVG/1.1/DTD/svg11.dtd"><svg width="100%" height="100%" viewBox="0 0 3334 2000" version="1.1" xmlns="http://www.w3.org/2000/svg" xmlns:xlink="http://www.w3.org/1999/xlink" xml:space="preserve" xmlns:serif="http://www.serif.com/" style="fill-rule:evenodd;clip-rule:evenodd;stroke-linecap:round;stroke-linejoin:round;stroke-miterlimit:1.5;"><g id="Swooshing-baseball" serif:id="Swooshing baseball"><g><path d="M1586.63,1197.05c18.993,-6.793 92.204,7.435 96.098,109.532c4.555,-110.64 -34.395,-138.65 -46.839,-148.04" style="fill:none;stroke:#38332a;stroke-width:10.42px;"/><path d="M1676.31,1260.61c-6.488,-59.366 -49.801,-86.729 -57.669,-86.885" style="fill:none;stroke:#38332a;stroke-width:10.42px;"/></g><g id="Baseball"><path d="M1593.28,1087.9c-7.064,-4.268 -52.561,-15.379 -78.365,19.075c-13.64,18.213 -5.315,51.576 11.636,66.061c5.577,4.766 11.693,7.626 18.075,9.05c14.535,3.243 30.445,-0.961 44.49,-7.047c14.054,-6.09 28.551,-17.656 28.347,-50.714c-0.136,-22.126 -17.672,-31.957 -24.183,-36.425Z" style="fill:none;stroke:#38332a;stroke-width:10.42px;"/><path d="M1520.83,1100.36c11.878,0 27.824,4.18 34.016,16.563c9.411,18.823 -1.411,48.517 -13.984,61.099" style="fill:none;stroke:#38332a;stroke-width:10.42px;"/><path d="M1598.04,1093.43c0.075,-0.15 -6.543,11.916 -8.04,17.005c-4.233,14.392 -5.696,35.094 11.445,53.759" style="fill:none;stroke:#38332a;stroke-width:10.42px;"/></g></g><g id="Text"><g transform="matrix(0.997231,-0.0743616,0.0743616,0.997231,-68.4579,-52.4678)"><text x="502.259px" y="1136.75px" style="font-family:'PatuaOne-Regular', 'Patua One';font-size:113.035px;fill:#38332a;">zach</text></g><g transform="matrix(0.999676,0.0254647,-0.0254647,0.999676,16.9746,3.95539)"><text x="999.326px" y="968.157px" style="font-family:'PatuaOne-Regular', 'Patua One';font-size:113.035px;fill:#38332a;">morrisse<tspan x="1434.4px " y="968.157px ">y</tspan></text></g><g transform="matrix(0.998325,0.0578547,-0.0578547,0.998325,44.9241,-9.69175)"><text x="1749.86px" y="926.74px" style="font-family:'PatuaOne-Regular', 'Patua One';font-size:113.035px;fill:#38332a;">softw<tspan x="2037.19px " y="926.74px ">a</tspan>re</text></g><g transform="matrix(0.9976,-0.0692436,0.0692436,0.9976,-60.828,10.9353)"><text x="2352.47px" y="1183.65px" style="font-family:'PatuaOne-Regular', 'Patua One';font-size:113.035px;fill:#38332a;">engineer</text></g></g><g id="Sunsplash"><path d="M2551.44,849.208c3.747,1.25 7.996,0.023 11.45,2.9c15.649,13.039 -21.304,37.905 -23.5,11.55c-0.227,-2.726 0.304,-7.062 2.6,-8.9c0.83,-0.663 6.35,-2.47 6.35,-3.35" style="fill:none;stroke:#38332a;stroke-width:10.42px;"/><path d="M2550.09,836.808c0,1.086 -0.922,-2.34 -0.85,-3.2c0.239,-2.863 0.282,-5.731 0.6,-8.6c0.929,-8.362 0.718,-16.679 1.55,-25c1.743,-17.423 3.984,-33.182 3,-50.9c-0.963,-17.34 1.024,-30.147 -21.35,-27.35c-12.687,1.587 -13.858,12.758 -12.9,23.3c1.901,20.911 9.173,37.97 17.5,56.7c2.515,5.658 12.554,29.616 12.7,29.25" style="fill:none;stroke:#38332a;stroke-width:10.42px;"/><path d="M2571.64,839.008c4.007,-4.005 6.113,-15.854 8.9,-21.15c3.18,-6.041 5.327,-12.14 7.85,-18.45c2.041,-5.102 4.117,-10.027 6.95,-14.75c9.791,-16.316 31.003,-58.727 56.1,-38.65c7.795,6.236 9.658,18.831 2,25.9c-16.595,15.319 -37.973,25.221 -54,41.25c-5.877,5.879 -10.765,12.243 -17.75,16.9c-1.413,0.943 -11.395,9.647 -7.2,6.85" style="fill:none;stroke:#38332a;stroke-width:10.42px;"/><path d="M2578.89,862.308c28.193,-18.792 61.131,-34.625 94.75,-41.35c18.119,-3.624 31.714,19.64 15.9,31.5c-9.862,7.397 -24.694,4.8 -36.05,4.8c-22.704,0 -52.311,-1.869 -72.95,8.45" style="fill:none;stroke:#38332a;stroke-width:10.42px;"/><path d="M2528.64,847.658c-2.485,1.243 -4.159,-2.869 -5,-4.55c-3.411,-6.823 -7.57,-13.098 -12,-19.3c-15.035,-21.049 -23.583,-60.6 -54.45,-60.6c-7.25,0 -15.75,1.451 -20.75,7.45c-5.362,6.434 3.083,17.233 7.6,21.75c14.694,14.694 38.075,17.342 54.65,30.15c7.182,5.55 14.934,10.139 22.3,15.4c2.358,1.684 4.903,3.538 6.85,5.7c0.806,0.896 2.546,4.066 2,2.7" style="fill:none;stroke:#38332a;stroke-width:10.42px;"/><path d="M2523.19,874.408c1.42,-0.709 -6.16,-6.306 -6.6,-6.6c-7.498,-4.998 -16.532,-7.562 -25.25,-9.5c-19.681,-4.373 -40.106,-9.3 -60.4,-9.3c-11.023,0 -21.828,3.094 -22.75,16c-0.741,10.39 10.644,12.564 18.55,11.55c21.92,-2.81 43.147,-8.354 65.35,-10c8.421,-0.623 16.071,0.73 24.15,2.75c1.517,0.38 12.866,2.246 6.9,3.95" style="fill:none;stroke:#38332a;stroke-width:10.42px;"/></g><g id="Triangles"><path d="M994.794,1053.12c0.429,-0.429 78.849,0.557 78.746,1.177c-0.638,3.827 -87.54,75.319 -87.68,75.249c-0.89,-0.445 8.226,-78.077 8.934,-76.426Z" style="fill:none;stroke:#38332a;stroke-width:10.42px;"/><path d="M1119,1062.5c30.628,-0 120.536,-0.002 120.775,0.477c0.137,0.275 -126.783,107.231 -126.783,107.231c-0,-0 5.896,-107.971 6.008,-107.708Z" style="fill:none;stroke:#38332a;stroke-width:10.42px;"/><path d="M1287.3,1068.09c0,0.482 149.895,3.688 149.895,3.688c0,-0 -153.917,136.748 -154.028,136.638c-0.64,-0.641 4.133,-141.881 4.133,-140.326Z" style="fill:none;stroke:#38332a;stroke-width:10.42px;"/><path d="M985.419,1159.98c29.955,-21.194 76.56,-63.97 91.029,-78.1" style="fill:none;stroke:#38332a;stroke-width:10.42px;"/><path d="M1112.99,1200.16c8.241,0 136.3,-106.671 133.628,-105.334" style="fill:none;stroke:#38332a;stroke-width:10.42px;"/><path d="M1283.04,1246.61c46.531,-46.515 160.826,-143.224 154.16,-139.891" style="fill:none;stroke:#38332a;stroke-width:10.42px;"/></g><path id="Arrow" d="M2091.78,220.093c42.455,-52.373 106.092,-12.536 134.181,-26.299c0.769,-0.377 2.032,-0.055 2.52,-1.01c1.217,-2.384 -20.056,-25.58 -20.393,-25.251c-3,2.939 19.856,19.371 21.539,22.67c2.071,4.061 -25.256,40.28 -26.923,39.055" style="fill:none;stroke:#38332a;stroke-width:10.42px;"/><g id="U-Curve"><path d="M2118.08,1076.36c-3.532,31.026 5.081,65.773 16.461,78.1c28.706,31.096 61.934,38.264 102.473,39.953c63.415,2.641 173.284,-0.492 176.052,-125.928" style="fill:none;stroke:#38332a;stroke-width:10.42px;"/><path d="M2383.52,1068.48c-17.521,81.43 -84.777,82.1 -120.912,85.712c-28.655,2.864 -110.546,2.866 -110.792,-73.914" style="fill:none;stroke:#38332a;stroke-width:10.42px;"/></g><g id="Downward-Arrows" serif:id="Downward Arrows"><path d="M1563.75,846.423c0.491,-1.967 1.616,-0.756 1.817,1.25c0.381,3.816 0.92,7.642 0.95,11.483c0.085,10.895 -1.626,21.833 -1.734,32.767c-0.025,2.54 -1.191,9.518 0.4,11.816c0.722,1.044 5.928,-0.717 6.817,-0.883c8.014,-1.495 16.048,-2.823 23.983,-4.717c4.791,-1.143 9.528,-2.576 14.2,-4.133c0.826,-0.275 4.508,-0.956 3.65,-2.1" style="fill:none;stroke:#38332a;stroke-width:10.42px;"/><path d="M1673.25,882.039c0.226,0.454 5.592,2.483 6.217,2.8c5.94,3.021 11.363,6.612 17.066,10.05c1.255,0.757 5.659,4.497 7.184,2.834c2.289,-2.499 3.128,-7.067 4.283,-10.117c2.953,-7.8 5.784,-15.652 9,-23.35c1.529,-3.662 3.241,-7.244 4.783,-10.9c0.303,-0.717 2.785,-6.367 1.8,-4.767" style="fill:none;stroke:#38332a;stroke-width:10.42px;"/><path d="M1568.25,901.606c1.536,0.921 15.989,-17.836 20.883,-24.55c13.917,-19.091 27.973,-38.562 37.8,-60.117c3.354,-7.356 6.622,-15.079 8.717,-22.9c0.614,-2.293 1.306,-9.489 1.633,-9.816c0.398,-0.398 3.638,12.45 4.717,16.083c2.942,9.903 7.41,20.885 12.783,29.767c6.249,10.33 14.98,18.781 23.05,27.633c4.38,4.803 26.95,37.803 26.867,37.783" style="fill:none;stroke:#38332a;stroke-width:10.42px;"/><path d="M1598.42,809.421c2.954,-2.955 13.813,-15.319 23.508,-43.966c4.684,-13.841 12.75,-44.084 13.742,-44.084c0.486,0 18.098,39.637 24.275,53.225c3.05,6.711 16.235,33.695 23.975,34.825" style="fill:none;stroke:#38332a;stroke-width:10.42px;"/></g><g id="Bursting-Star" serif:id="Bursting Star"><g><path d="M968.481,780.258c37.081,-0 65.035,-25.22 73.411,-40.869c5.474,-10.228 23.767,-64.076 23.994,-63.962c5.214,2.603 -2.466,51.913 18.059,77.588c10.081,12.611 70.794,22.154 72.068,23.428c0.232,0.231 -52.679,6.458 -65.251,15.03c-18.244,12.439 -27.347,36.925 -32.745,57.612c-1.689,6.474 -6.04,29.725 -6.04,29.725c-0,0 3.304,-59.573 -22.625,-75.769c-22.427,-14.008 -62.99,-22.783 -60.871,-22.783Z" style="fill:none;stroke:#38332a;stroke-width:10.42px;"/><path d="M1060.55,765.678c3.88,-1.108 -6.263,-2.857 -7.895,-2.517c-10.731,2.236 -14.582,14.376 -5.113,21.353c1.4,1.032 3.341,1.972 5.087,2.146c8.537,0.854 9.616,-5.592 9.616,-12.319c0,-2.41 -1.553,-8.186 -4.556,-8.186" style="fill:none;stroke:#38332a;stroke-width:10.42px;"/><path d="M1006.61,732.112c-9.788,-10.583 -11.935,-14.288 -15.949,-18.2" style="fill:none;stroke:#38332a;stroke-width:10.42px;"/><path d="M1096.18,739.874c6.144,-2.586 26.39,-15.043 26.175,-15.074" style="fill:none;stroke:#38332a;stroke-width:10.42px;"/><path d="M1094.14,815.14c6.11,7.97 13.26,16.729 17.538,20.558" style="fill:none;stroke:#38332a;stroke-width:10.42px;"/><path d="M1010.05,815.113c0.008,-0.202 -5.629,5.528 -19.207,21.194" style="fill:none;stroke:#38332a;stroke-width:10.42px;"/></g><g><path d="M969.126,750.774l0.039,-0" style="fill:none;stroke:#38332a;stroke-width:10.42px;"/><path d="M1028.18,691.881c-0.272,-0.68 0.059,-1.869 -0.12,-2.226" style="fill:none;stroke:#38332a;stroke-width:10.42px;"/><path d="M1105.11,681.628c-0.275,0.183 -0.278,0.292 -0.278,0.596" style="fill:none;stroke:#38332a;stroke-width:10.42px;"/><path d="M1142.86,754.946c0.692,0.346 2.01,0.08 2.782,0.08" style="fill:none;stroke:#38332a;stroke-width:10.42px;"/><path d="M1144.77,816.065c0.177,0.177 0.202,0.554 -0.039,0.675" style="fill:none;stroke:#38332a;stroke-width:10.42px;"/><path d="M1088.78,853.459c0.592,-0.338 0.949,-0.398 1.63,-0.398" style="fill:none;stroke:#38332a;stroke-width:10.42px;"/><path d="M1018.48,859.738c0.306,0.122 0.72,0.322 0.954,0.556" style="fill:none;stroke:#38332a;stroke-width:10.42px;"/><path d="M970.715,807.719c0.592,0 1.025,-0.048 1.471,0.398" style="fill:none;stroke:#38332a;stroke-width:10.42px;"/><path d="M952.555,714.731c-0.1,-0 -0.689,0.026 -0.557,-0.239" style="fill:none;stroke:#38332a;stroke-width:10.42px;"/><path d="M1025.2,640.459c-0.424,-0.122 -0.472,-0.164 -0.198,-0.437" style="fill:none;stroke:#38332a;stroke-width:10.42px;"/><path d="M1170.12,711.114c-0.538,0.269 -0.324,0.591 0.039,0.954" style="fill:none;stroke:#38332a;stroke-width:10.42px;"/><path d="M1146.08,861.804c0.2,0.067 0.405,0.127 0.556,0.278" style="fill:none;stroke:#38332a;stroke-width:10.42px;"/><path d="M930.341,849.723c0.118,-0.059 0.231,-0.116 0.357,-0.159" style="fill:none;stroke:#38332a;stroke-width:10.42px;"/></g></g><g><path d="M1420.11,927.942c0.796,0 -13.714,-30.568 -12.481,-30.568" style="fill:none;stroke:#38332a;stroke-width:10.42px;"/><path d="M1501.9,934.285c8.567,-14.13 22.949,-34.32 21.574,-33.496" style="fill:none;stroke:#38332a;stroke-width:10.42px;"/><path d="M1413.97,914.493c19.535,-29.164 82.64,-15.958 98.632,-2.067" style="fill:none;stroke:#38332a;stroke-width:10.42px;"/></g><g id="WiFi-Symbol" serif:id="WiFi Symbol"><path d="M1793.14,942.648c11.202,-12.497 45.139,-9.725 52.798,0" style="fill:none;stroke:#38332a;stroke-width:10.42px;"/><path d="M1780.64,922.597c23.702,-16.663 57.639,-13.891 77.798,0" style="fill:none;stroke:#38332a;stroke-width:10.42px;"/><path d="M1768.14,904.068c32.309,-24.735 79.9,-15.5 106.965,-0" style="fill:none;stroke:#38332a;stroke-width:10.42px;"/></g><g id="Squiggly-Underlines" serif:id="Squiggly Underlines"><path d="M1867.81,1067.47c8.826,20.302 0.307,31.114 -4.037,39.802c-3.761,7.521 -12.364,13.031 -13.384,21.873c-1.814,15.717 20.302,25.768 16.499,40.978c-2.64,10.562 -13.917,13.693 -18.661,22.127c-3.54,6.294 2.255,16.234 5.404,21.236c1.583,2.515 5.002,7.063 7.726,8.425" style="fill:none;stroke:#38332a;stroke-width:10.42px;"/><path d="M1906.4,1067.47c10.785,23.103 -14.792,53.708 -17.263,59.163c-6.752,14.905 9.861,26.19 13.161,40.057c2.782,11.689 -8.542,17.521 -8.996,27.531c-0.51,11.224 6.426,21.3 13.098,27.181" style="fill:none;stroke:#38332a;stroke-width:10.42px;"/><path d="M1840.12,1082.24c-1.982,-2.975 -20.542,-36.691 -54.013,-9.929c-11.631,9.301 -22.061,22.334 -39.084,20.124c-17.203,-2.233 -22.109,-24.947 -37.348,-26.676c-10.714,-1.215 -20.657,9.739 -26.574,17.063" style="fill:none;stroke:#38332a;stroke-width:10.42px;"/><path d="M1938.25,1090.72c0,-0.402 -6.652,-31.002 32.074,-22.969c19.875,4.122 21.777,29.126 39.966,32.007c20.176,3.195 32.262,-30.147 57.556,-14.106c11.522,7.307 15.999,25.806 19.097,38.124c5.128,20.387 10.237,44.605 23.955,60.788c23.369,27.569 59.913,29.433 59.659,28.823" style="fill:none;stroke:#38332a;stroke-width:10.42px;"/></g><g id="Swooshy-Plant" serif:id="Swooshy Plant"><path d="M523.983,885.967c8.346,10.75 33.08,26.407 32.48,26.227c-3.798,-1.139 -20.676,-12.465 -40.401,-34.305c-9.895,-10.954 -14.755,-26.092 -15.869,-30.866c-5.195,-22.264 0.003,-46.234 -5.696,-68.404c-5.256,-20.443 -25.857,-41.117 -25.857,-41.117c-0,0 14.423,6.776 18.439,8.849c11.484,5.927 25.564,13.999 34.202,23.87c21.192,24.22 -4.418,56.743 -5.219,82.392c-0.336,10.733 1.355,24.898 7.921,33.354Z" style="fill:none;stroke:#38332a;stroke-width:10.42px;"/><path d="M515.991,878.74c-24.731,-34.176 -53.898,-38.532 -82.712,-29.984" style="fill:none;stroke:#38332a;stroke-width:10.42px;"/><path d="M475.184,828.875c-1.172,-10.597 -25.606,-21.673 -28.992,-23.366c-23.105,-11.551 -22.898,-24.771 -48.128,-32.798c-11.266,-3.584 -24.41,-5.01 -36.004,-2.305c-14.934,3.485 -31.026,10.843 -46.759,10.306c-20.289,-0.693 -32.93,-25.248 -32.93,-25.248c-0,0 5.301,38.374 44.613,50.045c16.843,5 31.672,0.755 47.634,-3.365c13.218,-3.411 27.294,-5.555 40.984,-4.186c17.565,1.757 15.049,-0.306 30.59,7.551c16.291,8.236 22.548,14.363 28.992,23.366Z" style="fill:none;stroke:#38332a;stroke-width:10.42px;"/><path d="M441.847,773.517c-26.063,-28.736 -59.279,-20.853 -63.07,-36.015c-2.971,-11.886 12.843,-51.035 -46.282,-69.622" style="fill:none;stroke:#38332a;stroke-width:8.33px;"/><path d="M490.749,930.277c-24.726,-15.955 -34.787,-32.043 -41.354,-36.772c-15.275,-10.998 -40.954,-18.199 -59.132,-13.087c-16.596,4.667 -29.888,16.451 -46.229,22.068c-5.231,1.798 -19.214,3.833 -26.678,-6.464" style="fill:none;stroke:#38332a;stroke-width:10.42px;"/><path d="M338.285,922.394c29.733,0 51.372,-39.571 94.578,-17.02" style="fill:none;stroke:#38332a;stroke-width:8.33px;"/><path d="M685.359,899.24c-106.654,12.765 -128.326,-21.323 -132.893,-33.439c-9.928,-26.344 8.811,-63.082 11.849,-85.753c3.027,-22.592 -19.925,-40.334 -39.963,-48.3" style="fill:none;stroke:#38332a;stroke-width:8.33px;"/></g><g id="Windy-swooshes" serif:id="Windy swooshes"><path d="M2794.76,1067.57c51.008,-7.634 80.177,-5.515 97.887,-0c26.444,8.234 42.48,22.638 42.48,17.803c-0,-5.723 -25.711,0.162 -31.95,-61.357c-2.098,-20.684 3.528,-31.21 -0.08,-51.502" style="fill:none;stroke:#38332a;stroke-width:10.42px;"/><path d="M2854.02,1093.04c22.529,-11.269 53.05,-3.462 72.89,7.875c8.249,4.714 40.76,24.877 40.798,24.839c0.589,-0.589 -10.929,-3.591 -18.359,-46.296c-2.627,-15.101 0,-58.46 0,-64.893" style="fill:none;stroke:#38332a;stroke-width:10.42px;"/><path d="M2906.01,1130.08c26.658,-6.667 44.377,-0.465 71.08,26.038c8.666,8.601 29.897,39.049 29.963,38.383c1.853,-18.588 -17.729,-58.268 -18.2,-60.153c-4.679,-18.716 -13.649,-38.514 10.332,-66.772" style="fill:none;stroke:#38332a;stroke-width:10.42px;"/><path d="M3018.58,1112.53c-9.241,6.162 -1.476,27.203 1.113,34.97c8.541,25.623 14.052,78.771 39.58,96.247c38.414,26.299 49.977,-40.795 28.316,-54.335c-17.458,-10.914 -32.319,8.753 -14.129,29.782" style="fill:none;stroke:#38332a;stroke-width:10.42px;"/><path d="M2977.09,1189.41c24.112,32.145 80.065,55.703 73.278,142.901c-2.138,27.479 -37.054,38.37 -38.785,69.543c-0.608,10.958 1.102,23.284 8.663,31.791c10.888,12.248 27.27,16.942 29.01,36.083c1.627,17.9 -26.825,28.236 -33.973,11.559c-3.624,-8.456 0.321,-17.351 11.798,-12.275" style="fill:none;stroke:#38332a;stroke-width:10.42px;"/></g><g id="Operators"><path d="M2460.55,1122.12c4.748,-0 50.513,-15.702 66.895,-19.833" style="fill:none;stroke:#38332a;stroke-width:10.42px;"/><path d="M2487.25,1082.7c2.893,9.64 13.562,56.798 16.269,60.708" style="fill:none;stroke:#38332a;stroke-width:10.42px;"/><path d="M2568.4,1098.48c-2.042,0 59.642,-14.571 63.488,-15.878" style="fill:none;stroke:#38332a;stroke-width:10.42px;"/><path d="M2494.92,1218.49c-0,-2.49 65.47,-24.172 70.784,-28.6" style="fill:none;stroke:#38332a;stroke-width:10.42px;"/><path d="M2520.12,1168.78c-8.682,-0 -15.722,14.505 -4.576,14.841c8.718,0.263 15.361,-14.141 4.007,-14.583" style="fill:none;stroke:#38332a;stroke-width:10.42px;"/><path d="M2545.55,1227.75c-6.978,-6.974 -15.634,8.385 -8.139,13.774c6.874,4.943 12.701,-9.213 8.139,-13.774Z" style="fill:none;stroke:#38332a;stroke-width:10.42px;"/><path d="M2619.62,1198.5c7.828,-12.394 29.195,-52.868 32.042,-60.115" style="fill:none;stroke:#38332a;stroke-width:10.42px;"/><path d="M2599.59,1153.52c8.216,2.738 80.471,25.122 82.835,28.775" style="fill:none;stroke:#38332a;stroke-width:10.42px;"/></g><g id="Paisley"><path d="M1585.33,770.913c20,-34.456 29.508,-50.409 36.75,-71.1c19.453,-55.578 15.405,-115.724 -4.05,-170.85c-9.102,-25.789 -30.959,-69.006 -64.65,-66.9c-32.756,2.048 -42.264,45.379 -31.5,69.3c21.135,46.973 62.216,47.335 82.1,103.25c19.172,53.915 -18.65,140.288 -18.65,136.3Z" style="fill:none;stroke:#38332a;stroke-width:10.42px;"/><path d="M1679.68,665.463c-23.336,-30.03 -44.919,-161.762 12.75,-228.3c18.355,-21.178 56.023,-47.613 81,-25.3c57.043,50.961 -48.671,118.08 -76.5,171.85c-13.859,26.778 -24.303,61.394 -17.25,81.75Z" style="fill:none;stroke:#38332a;stroke-width:10.42px;"/><path d="M1746.35,436.839c-6.514,-6.666 -25.482,4.871 -33.12,20.147c-2.941,5.883 -10.265,34.084 0,35.623c5.022,0.754 18.237,-10.205 26.623,-22.29c11.964,-17.238 13.011,-26.813 6.497,-33.48Z" style="fill:none;stroke:#38332a;stroke-width:8.33px;"/><path d="M1552.16,506.616c-3.16,9.93 -0.087,33.502 16.92,26.19c6.184,-2.659 13.401,-6.848 4.17,-27c-6.489,-14.168 -18.05,-8.743 -21.09,0.81Z" style="fill:none;stroke:#38332a;stroke-width:8.33px;"/><path d="M1651.31,667.883c0.162,-0.324 -2.629,25.381 10.2,53.488c6.966,15.262 20.93,28.739 26.216,44.025" style="fill:none;stroke:#38332a;stroke-width:10.42px;"/></g><g id="Stars"><path d="M2262.62,662.961l133.068,-89.397l-170.845,3.861l127.968,76.266c-0,0 -33.948,-121.187 -40.488,-125.484c-3.21,-2.109 -49.703,134.754 -49.703,134.754Z" style="fill:none;stroke:#38332a;stroke-width:10.42px;"/><path d="M2205.98,690.696l35.479,30.678l-8.053,-35.883l-20.73,24.376c-0,0 39.63,-3.276 40.825,-4.51c0.586,-0.605 -47.521,-14.661 -47.521,-14.661Z" style="fill:none;stroke:#38332a;stroke-width:8.33px;"/><path d="M2386.7,526.102l24.21,-8.284l-18.887,-5.994l5.443,16.358c-0,0 9.656,-19.476 9.422,-20.372c-0.115,-0.44 -20.188,18.292 -20.188,18.292Z" style="fill:none;stroke:#38332a;stroke-width:8.33px;"/><path d="M2391.12,683.717l88.299,-24.694l-88.948,-28.982l61.74,91.333c0,-0 -1.264,-113.256 -3.691,-116.798c-1.191,-1.738 -57.4,79.141 -57.4,79.141Z" style="fill:none;stroke:#38332a;stroke-width:10.42px;"/><path d="M2214.73,534.18l38.774,-28.107l-57.334,-19.688l43.008,44.568c0,0 0.081,-58.841 -1.736,-61.391c-0.892,-1.251 -22.712,64.618 -22.712,64.618Z" style="fill:none;stroke:#38332a;stroke-width:8.33px;"/></g><g id="Boxes"><g id="Boxes1" serif:id="Boxes"><path d="M701.325,1089.34l-40.234,2.966l2.767,37.534l40.234,-2.966l-2.767,-37.534Z" style="fill:none;stroke:#38332a;stroke-width:8.33px;"/></g><g id="Boxes2" serif:id="Boxes"><path d="M611.455,1096.27l-40.234,2.966l2.767,37.535l40.234,-2.966l-2.767,-37.535Z" style="fill:none;stroke:#38332a;stroke-width:8.33px;"/></g></g><g id="Exclamation-point" serif:id="Exclamation point"><path d="M2817.33,898.021c0.817,0.739 28.751,75.2 28.136,73.692c-1.053,-2.581 8.185,-82.193 5.658,-82.848c-2.131,-0.553 -27.122,1.726 -33.794,9.156Z" style="fill:none;stroke:#38332a;stroke-width:10.42px;"/><path d="M2849.09,992.377c-3.503,-0.742 -8.432,14.683 -0.159,13.543c7.574,-1.044 8.472,-13.543 0.159,-13.543Z" style="fill:none;stroke:#38332a;stroke-width:10.42px;"/></g><g id="Airplane"><path d="M2723.75,183.944c1.338,-0 9.938,10.69 10.38,10.47c2.116,-1.058 19.414,-19.826 18.507,-19.977" style="fill:none;stroke:#38332a;stroke-width:10.42px;"/><path d="M2494.07,355.217c-3.333,-4.117 -34.365,-32.585 -35.571,-32.786c-1.911,-0.318 -21.427,13.005 -22.179,13.757c-0.915,0.916 24.193,45.855 24.193,45.129" style="fill:none;stroke:#38332a;stroke-width:10.42px;"/><path d="M2461.12,383.46c-23.126,-0 -85.966,1.627 -87.3,2.85c-2.085,1.91 -9.314,11.489 -7.95,11.528c3.964,0.114 52.047,6.386 77.712,8.936" style="fill:none;stroke:#38332a;stroke-width:10.42px;"/><path d="M2465.19,411.061c8.808,1.191 59.223,11.515 60.323,9.299c0.736,-1.485 3.834,-10.202 3.278,-10.758c-0.852,-0.853 -16.604,-7.717 -20.742,-8.978" style="fill:none;stroke:#38332a;stroke-width:10.42px;"/><path d="M2631.87,275.526c3.685,0 -53.683,45.421 -54.084,45.903c-0.839,1.011 -69.446,-6.268 -93.037,-10.503c-27.4,-4.918 -55.061,-8.359 -82.237,-14.587c-13.06,-2.993 -69.988,-18.187 -73.677,-20.813c-1.649,-1.174 -19.46,-17.829 -18.911,-20.025c0.092,-0.367 3.512,-5.635 6.352,-4.137c3.778,1.991 12.878,8.724 19.343,9.313c23.823,2.171 296.781,14.673 296.251,14.849Z" style="fill:none;stroke:#38332a;stroke-width:10.42px;"/><path d="M2681.24,281.864c1.682,-0 112.559,65.557 113.513,67.462c0.146,0.293 -21.34,11.887 -21.788,11.663c-6.738,-3.372 -145.547,-29.71 -146.438,-30.6c-0.004,-0.004 51.159,-44.968 54.713,-48.525Z" style="fill:none;stroke:#38332a;stroke-width:10.42px;"/><path d="M2610.25,272.41c9.187,-6.667 48.575,-40.662 58.771,-50.321c16.89,-16 39.439,-37.011 62.846,-42.863c11.915,-2.978 22.888,-6.787 35.363,-6.787c3.263,-0 10.601,-0.38 12.3,3.3c3.121,6.764 -2.368,15.528 -5.85,21c-5.105,8.021 -198.609,171.704 -208.876,178.762c-10.915,7.505 -21.293,14.769 -33.937,18.488c-23.964,7.048 -46.342,7.876 -69.717,16.646c-6.82,2.558 -18.571,-7.247 -18.571,-7.247c0,-0 99.984,-82.199 96.63,-81.864" style="fill:none;stroke:#38332a;stroke-width:10.42px;"/><path d="M2703.08,212.663c-0.322,-0.703 -0.903,0.821 -1,0.716c-0.046,-0.049 0.226,-1.049 0.607,-0.64" style="fill:none;stroke:#38332a;stroke-width:10.42px;"/><path d="M2681.68,229.691c0.005,-0.173 -0.094,-0.339 -0.088,-0.513" style="fill:none;stroke:#38332a;stroke-width:10.42px;"/><path d="M2664.73,245.34c-0.18,-0.291 -1.051,0.017 -1.04,-0.32" style="fill:none;stroke:#38332a;stroke-width:10.42px;"/><path d="M2646.55,260.077c-0.236,0.146 -0.635,0.087 -0.501,-0.272" style="fill:none;stroke:#38332a;stroke-width:10.42px;"/><path d="M2550.72,336.195c0.098,-0.146 -0.525,-0.194 -0.525,-0.019" style="fill:none;stroke:#38332a;stroke-width:10.42px;"/><path d="M2532.94,350.951c0.307,-0.367 0.789,-1.368 1.35,-1.368" style="fill:none;stroke:#38332a;stroke-width:10.42px;"/></g><g id="Space-needle" serif:id="Space needle"><path d="M2018.81,471.21c2.422,-4.844 43.374,181.578 7.025,401.966" style="fill:none;stroke:#38332a;stroke-width:10.42px;"/><path d="M2092.46,470.436c-7.151,21.454 -34.184,191.344 9.238,402.74" style="fill:none;stroke:#38332a;stroke-width:10.42px;"/><path d="M2044.15,473.294c1.882,2.448 0.146,396.498 -2.018,402.991" style="fill:none;stroke:#38332a;stroke-width:10.42px;"/><path d="M2071.38,471.21c3.49,1.396 -7.506,397.337 -2.287,407.775" style="fill:none;stroke:#38332a;stroke-width:10.42px;"/><path d="M1980.86,454.86c-3.238,3.978 53.543,16.45 75.963,15.576c44.951,-1.754 79.593,-13.264 77.825,-14.526c-8.876,-6.332 -149.272,-6.598 -153.788,-1.05Z" style="fill:none;stroke:#38332a;stroke-width:10.42px;"/><path d="M1991.73,450.917l0,-9.578c3.536,-5.381 133.16,-8.114 134.275,-0c-0,-0 -2.001,9.697 -2.277,9.697" style="fill:none;stroke:#38332a;stroke-width:10.42px;"/><path d="M1988.51,445.645c-39.482,-4.167 -7.468,-10.982 -7.468,-10.982c-4.488,-13.62 4.384,-19.212 74.969,-22.176c99.561,-4.182 77.152,14.428 77.152,14.428c0,0 39.411,8.397 -4.521,11.808" style="fill:none;stroke:#38332a;stroke-width:10.42px;"/><path d="M2027.42,412.473c11.15,-1.303 5.853,-22.051 0,-21.826c17.77,-8.67 38.609,-9.086 62.016,-2.592c-6.506,1.577 -6.967,21.324 0,23.819" style="fill:none;stroke:#38332a;stroke-width:10.42px;"/><path d="M2056.01,382.11c0,-7.583 -0.767,-56.979 0,-57.917" style="fill:none;stroke:#38332a;stroke-width:10.42px;"/></g><g id="Coffee-Cup" serif:id="Coffee Cup"><path d="M1388.15,733.113c8.039,2.647 35.77,10.395 63.423,-0c6.214,-2.336 12.683,-8.662 8.974,-10.383c-14.247,-6.611 -65.283,-6.518 -77.044,-0c-3.211,1.78 -4.787,5.091 -0.96,7.77c1.752,1.226 5.836,2.67 5.607,2.613Z" style="fill:none;stroke:#38332a;stroke-width:10.42px;"/><path d="M1380.51,729c0.244,-0 -2.43,74.199 0.42,78c3.663,4.883 13.342,6.472 18.9,6.9c16.069,1.235 32.515,1.445 48.42,-1.32c4.175,-0.726 13.405,-2.603 15.63,-7.05c0.389,-0.778 -1.588,-81.076 -3.24,-80.25" style="fill:none;stroke:#38332a;stroke-width:10.42px;"/><path d="M1466.96,739.62c2.588,-2.738 22.993,-5.072 27.24,-1.41c2.192,1.889 0.698,52.908 0,54.09c-1.714,2.901 -24.471,-2.191 -29.519,-0" style="fill:none;stroke:#38332a;stroke-width:10.42px;"/><path d="M1401.82,700.743c2.815,-16.289 -20.776,-11.95 -21.48,-22.08c-0.963,-13.853 17.199,-15.775 19.05,-24.72c2.333,-11.278 -11.781,-13.956 -13.654,-24.447c-0.724,-4.058 1.779,-10.713 6.394,-14.343" style="fill:none;stroke:#38332a;stroke-width:10.42px;"/><path d="M1436.87,700.743c9.04,-11.172 -13.233,-13.356 -14.25,-24.75c-0.677,-7.59 10.724,-9.233 13.77,-14.31c5.575,-9.292 -3.676,-24.552 -8.55,-28.53" style="fill:none;stroke:#38332a;stroke-width:10.42px;"/></g><g id="Parachute"><path d="M815.663,395.05c1.925,-1.924 -8.73,-36.59 39.117,-84.81c34.312,-34.579 84.997,-56.398 134.19,-52.23c20.114,1.705 92.41,2.256 135.933,97.04c22.641,49.308 2.607,102.534 2.607,102.534c-0,-0 3.861,-14.236 -7.501,-21.906c-9.199,-6.21 -21.419,-3.278 -21.419,-3.278c-0,0 1.322,-26.02 -17.997,-37.35c-17.809,-10.444 -49.224,-7.62 -49.224,-7.62c2.443,1.134 -20.737,-31.342 -45.905,-35.533c-22.475,-3.742 -54.394,12.073 -54.394,12.073c-0,0 -24.56,-12.642 -46.657,-8.92c-22.34,3.764 -32.903,22.6 -32.903,22.6c1.531,-0.59 -10.229,-4.891 -20.25,0.204c-12.328,6.268 -14.531,19.506 -15.597,17.196Z" style="fill:none;stroke:#38332a;stroke-width:10.42px;"/><path d="M818.75,399.07c1.208,-2.417 115.815,192.029 116.01,191.25" style="fill:none;stroke:#38332a;stroke-width:10.42px;"/><path d="M936.71,591.64c-0,-9.329 -79.721,-192.949 -85.2,-214.86" style="fill:none;stroke:#38332a;stroke-width:10.42px;"/><path d="M934.76,590.32c-4.186,-20.904 -5.002,-215.171 -5.67,-224.444" style="fill:none;stroke:#38332a;stroke-width:10.42px;"/><path d="M939.56,588.13c6.558,-9.539 92.845,-196.205 91.8,-196.38" style="fill:none;stroke:#38332a;stroke-width:10.42px;"/><path d="M939.2,590.86c14.859,-18.575 162.316,-158.46 158.433,-158.46" style="fill:none;stroke:#38332a;stroke-width:10.42px;"/><path d="M936.71,590.32c6.348,-2.72 188.494,-132.736 188.193,-132.736" style="fill:none;stroke:#38332a;stroke-width:10.42px;"/><path d="M938.02,587.664c0,-0.206 -10.28,36.619 -12.866,46.967c-0.087,0.348 37.426,19.811 38.35,19.35c0.494,-0.247 12.156,-47.207 11.816,-47.433c-3.333,-2.222 -37.533,-18.961 -37.3,-18.884Z" style="fill:none;stroke:#38332a;stroke-width:10.42px;"/><path d="M933.72,585.998c0,-0.587 -41.769,-0.797 -42.366,-0.2c-1.939,1.938 -11.039,46.174 -10.15,47.95c0.07,0.141 42.493,0.062 41.85,0.383" style="fill:none;stroke:#38332a;stroke-width:10.42px;"/><path d="M880.687,634.075c2.603,-0.744 36.155,24.353 38.933,24.189c10.895,-0.641 42.891,-4.356 42.85,-4.275" style="fill:none;stroke:#38332a;stroke-width:10.42px;"/></g><path id="Cloud" d="M1317.48,102.589c-6.351,-6.666 -34.272,-30.39 -59.25,-32.925c-33.983,-3.448 -98.3,28.364 -85.991,57.542c-0,0 -15.85,-36.822 -48.859,-27.767c-58.381,16.015 -47.325,114.45 -47.325,114.45l335.475,-3.131c0,0 5.625,-40.047 5.625,-48.169c0,-31.65 -16.319,-67.802 -52.875,-71.325c-41.633,-4.011 -71.24,28.5 -75.591,48.5" style="fill:none;stroke:#38332a;stroke-width:10.42px;"/><g id="Cool-sun" serif:id="Cool sun"><circle cx="625.32" cy="210.345" r="79.35" style="fill:none;stroke:#38332a;stroke-width:10.42px;"/><path d="M661.976,197.376c-0.156,-0 41.803,-26.074 41.179,-25.918" style="fill:none;stroke:#38332a;stroke-width:10.42px;"/><path d="M662.669,197.376c7.859,-0.085 -8.728,3.325 -105.854,-6.118" style="fill:none;stroke:#38332a;stroke-width:10.42px;"/><path d="M614.325,197.408c-2.525,-1.082 0.015,25.74 3.084,27.34c3.548,1.852 37.543,1.939 39.633,-0.674c1.946,-2.432 7.098,-17.014 5.223,-25.556" style="fill:#38332a;stroke:#38332a;stroke-width:10.42px;"/><path d="M599.805,197.341c-0.461,-1.842 -2.969,23.852 -6.99,26.437c-2.074,1.333 -18.65,1.024 -29.656,-3.125c-5.488,-2.069 -1.154,-24.882 0,-28.516" style="fill:#38332a;stroke:#38332a;stroke-width:10.42px;"/><path d="M570.098,153.631c0,-11.883 -12.211,-52.742 -11.34,-53.614c1.463,-1.463 55.991,31.352 56.74,30.978c3.108,-1.555 45.488,-46.152 46.802,-45.363c3.182,1.909 15.036,62.596 17.671,64.353c3.49,2.326 82.512,4.311 82.745,5.008c0.87,2.612 -56.811,52.883 -58.045,55.352c-1.005,2.009 49.429,45.111 48.187,47.589c-2.478,4.945 -71.061,7.937 -72.887,9.764c-1.302,1.301 11.728,68.969 10.578,69.735c-1.585,1.056 -70.449,-46.587 -75.051,-47.738c-4.737,-1.185 -58.7,40.609 -59.825,39.484c-0.931,-0.931 10.834,-62.246 9.109,-65.698c-1.071,-2.143 -53.3,-13.071 -56.633,-16.406c-0.089,-0.09 38.558,-27.877 37.821,-30.821c-0.906,-3.621 -48.72,-67.95 -48.72,-69.275c0,-1.378 73.507,5.663 72.848,6.652Z" style="fill:none;stroke:#38332a;stroke-width:10.42px;"/></g><g id="Bubbles"><circle cx="1610.62" cy="442.389" r="15.494" style="fill:none;stroke:#38332a;stroke-width:10.42px;"/><ellipse cx="1636.97" cy="487.741" rx="6.865" ry="7.161" style="fill:none;stroke:#38332a;stroke-width:10.42px;"/><circle cx="1643.84" cy="380.575" r="22.812" style="fill:none;stroke:#38332a;stroke-width:10.42px;"/><circle cx="1561.38" cy="336.839" r="43.737" style="fill:none;stroke:#38332a;stroke-width:10.42px;"/><path d="M1682.55,154.867c35.893,8.058 57.281,49.138 47.731,91.679c-9.55,42.542 -46.445,70.538 -82.339,62.48c-35.893,-8.058 -57.281,-49.138 -47.731,-91.679c9.55,-42.542 46.445,-70.538 82.339,-62.48Z" style="fill:none;stroke:#38332a;stroke-width:10.42px;"/><path d="M1562.34,310.307c11.533,-0 20.711,1.484 24.877,17.625" style="fill:none;stroke:#38332a;stroke-width:8.33px;"/><path d="M1647.91,370.917c4.028,1.186 7.126,6.268 5.948,10.273" style="fill:none;stroke:#38332a;stroke-width:8.33px;"/><path d="M1669.44,203.59c7.018,-3.467 13.216,-0.477 16.213,8.713" style="fill:none;stroke:#38332a;stroke-width:8.33px;"/><path d="M1704.46,193.92c-8.333,4.005 -4.954,16.537 -2.943,16.537" style="fill:none;stroke:#38332a;stroke-width:8.33px;"/><path d="M1665.29,188.695c8.542,-3.134 7.348,-8.172 4.348,-14.838" style="fill:none;stroke:#38332a;stroke-width:8.33px;"/><path d="M1685.67,170.72c-0.492,8.979 8.235,11.822 13.435,8.395" style="fill:none;stroke:#38332a;stroke-width:8.33px;"/></g><path id="Lightning-Bolt" serif:id="Lightning Bolt" d="M1280.1,244.878l64.675,-0c-0,-0 33.315,105.524 33.175,105.734c-3.961,5.955 -53.57,3.338 -53.57,3.338c-0,-0 42.57,99.996 41.954,102.161c-0.354,1.245 -32.336,0.995 -41.954,0.995c-0.601,-0 32.652,89.479 32.652,89.479c-0,-0 -88.123,-100.152 -87.847,-100.552c1.361,-1.976 48.789,-17.094 48.946,-18.714c1.7,-17.578 -52.152,-89.858 -50.406,-90.646c10.941,-4.941 42.813,-4.758 42.833,-4.863c1.404,-7.43 -30.458,-79.238 -30.458,-86.932Z" style="fill:none;stroke:#38332a;stroke-width:10.42px;"/><g id="Rain"><path d="M1113.79,234.33l-0,14.586" style="fill:none;stroke:#38332a;stroke-width:8.33px;"/><path d="M1174.15,247.257l0,32.966" style="fill:none;stroke:#38332a;stroke-width:8.33px;"/><path d="M1215.19,320.901c0,11.05 0.32,22.002 0.32,33.074" style="fill:none;stroke:#38332a;stroke-width:8.33px;"/><path d="M1232.96,258.621l0,27.277" style="fill:none;stroke:#38332a;stroke-width:8.33px;"/><path d="M1259.4,299.04l-0,13.842" style="fill:none;stroke:#38332a;stroke-width:8.33px;"/><path d="M1252.74,386.153l-0,11.698" style="fill:none;stroke:#38332a;stroke-width:8.33px;"/><path d="M1403.56,244.308l0,10.642" style="fill:none;stroke:#38332a;stroke-width:8.33px;"/><path d="M1437.48,289.047l-0,40.909" style="fill:none;stroke:#38332a;stroke-width:8.33px;"/><path d="M1395.77,387.011l-0,10.883" style="fill:none;stroke:#38332a;stroke-width:8.33px;"/></g><path id="Squiggly-boi" serif:id="Squiggly boi" d="M1141.21,531.542c-8.334,124.441 68.325,94.751 77.635,80.145c20.286,-31.824 -17.806,-59.33 -31.97,-14.387c-18.358,58.244 37.323,67.295 65.117,67.295c76.194,-0 29.156,-82.603 1.906,-21.639c-5.656,12.653 -31.206,48.617 7.113,77.055c17.968,13.334 57.71,5.598 45.461,-18.483c-3.121,-6.136 -15.785,-11.562 -32.299,3.346c-33.145,29.923 -7.826,76.382 -11.363,109.595c-5.52,51.846 -45.674,38.384 -45.674,39.057" style="fill:none;stroke:#38332a;stroke-width:10.42px;"/><path id="Diamond" d="M2214.12,862.662c39.75,-1.062 50.857,-43.329 51.283,-71.76c8.454,49.64 10.784,69.679 54.682,80.035c-38.502,4.611 -42.546,19.723 -58.225,63.348c0,-0 0.994,-50.79 -47.74,-71.623Z" style="fill:none;stroke:#38332a;stroke-width:10.42px;"/><g id="Pointing-Hand" serif:id="Pointing Hand"><path d="M917.552,1300.63c-36.092,-40.858 -49.744,-13.7 -80.475,-42.884c-4.098,-3.892 -23.96,-19.148 -27.265,-24.594c-2.192,-3.613 -10.01,-7.31 -11.302,-11.359c-1.795,-5.629 12.21,-17.414 12.187,-17.849c-0.2,-3.888 -6.68,-12.423 -6.68,-12.423c-0,0 6.32,-8.036 9.077,-12.349c1.416,-2.215 4.444,-6.513 4.444,-6.513c0,-0 33.655,25.115 28.489,36.219c-5.294,11.378 -22.786,-1.291 -28.228,-6.2c-1.253,-1.129 -13.782,-11.157 -13.782,-11.157c-0,0 12.128,9.793 12.522,10.285c6.358,7.929 10.55,9.466 11.696,15.727c0.613,3.344 -5.802,9.902 -8.581,12.111c-1.56,1.241 -3.093,3.321 -9.842,3.508" style="fill:none;stroke:#38332a;stroke-width:10.42px;"/><path d="M869.861,1243.84c-3.443,-3.105 -4.765,-8.438 -6.53,-12.497c-5.593,-12.861 -8.256,-24.068 -0.342,-36.712c2.881,-4.603 11.708,-10.297 11.389,-16.451c-0.137,-2.637 -6.887,-7.117 -8.829,-8.595c-10.192,-7.762 -21.985,-9.806 -33.805,-6.38c-25.935,7.518 -25.65,-20.143 -25.637,-19.884c0.018,0.339 23.072,-2.278 29.297,-4.842c15.266,-6.289 29.169,-6.65 44.458,0.542c5.445,2.561 10.931,5.059 15.325,9.278c15.06,14.463 18.315,36.17 29.755,53.186c5.456,8.116 36.749,24.064 36.572,24.109" style="fill:none;stroke:#38332a;stroke-width:10.42px;"/><path d="M824.996,1138.01c-5.685,-5.129 -26.816,-22.992 -30.623,-27.624c-3.833,-4.663 -4.577,-19.396 1.94,-20.765c7.905,-1.662 15.93,2.823 59.488,40.613" style="fill:none;stroke:#38332a;stroke-width:10.42px;"/><path d="M823.411,1166.15c-0.68,0.035 7.881,15.218 9.543,17.174c4.104,4.83 10.239,11.922 16.913,13.135c4.874,0.885 12.968,-3.959 15.404,-8.914c4.439,-9.031 -6.247,-19.712 -13.618,-24.95" style="fill:none;stroke:#38332a;stroke-width:10.42px;"/></g><g id="Game-Boy" serif:id="Game Boy"><path d="M2703.01,1513.69c14.46,-3.702 125.49,-2.614 129.735,-0.521c4.115,2.029 8.599,200.103 8.243,200.142c-41.237,4.504 -148.51,-5.561 -149.248,-6.706c-0.641,-0.994 10.572,-196.868 11.27,-192.915Z" style="fill:none;stroke:#38332a;stroke-width:10.42px;"/><path d="M2723.42,1532.36c0.903,-0.582 -12.936,72.913 -5.984,80.087c2.698,2.784 100.042,1.601 101.059,-0.116c1.794,-3.029 -0.282,-75.116 -7.385,-79.909c-3.885,-2.621 -78.925,0.06 -87.69,-0.062Z" style="fill:none;stroke:#38332a;stroke-width:10.42px;"/><path d="M2709.59,1651.99c11.299,2.444 19.682,2.231 19.682,2.231l-0.184,-18.859l15.661,1.777l-2.03,18.181l18.603,0.315l-2.725,14.374l-14.416,1.017l0.326,16.525l-20.001,-0.063l2.801,-18.173c0,0 -16.269,-0.411 -16.892,-3.654c-1.085,-5.652 -2.495,-11.78 -0.825,-13.671Z" style="fill:none;stroke:#38332a;stroke-width:8.33px;"/><path d="M2795.42,1657.9c-5.464,-6.994 -20.245,2.147 -9.372,13.767c8.531,9.117 13.79,-6.909 9.372,-13.767Z" style="fill:none;stroke:#38332a;stroke-width:8.33px;"/><path d="M2817.42,1636.1c-6.343,-5.094 -16.652,6.117 -11.517,12.152c7.942,9.335 17.076,-3.523 11.517,-12.152Z" style="fill:none;stroke:#38332a;stroke-width:8.33px;"/><path d="M2757.67,1696.93c0.229,0.05 0.457,0.099 0.686,0.149" style="fill:none;stroke:#38332a;stroke-width:8.33px;"/><path d="M2774.96,1697.56c0.228,0.05 0.456,0.099 0.685,0.148" style="fill:none;stroke:#38332a;stroke-width:8.33px;"/></g><g id="Plane-Swooshes" serif:id="Plane Swooshes"><path d="M2498.24,220.533c21.394,-15.245 43.773,-29.204 62.875,-45.875" style="fill:none;stroke:#38332a;stroke-width:8.33px;"/><path d="M2642.86,180.158c24.999,-19.34 49.486,-39.346 74.624,-58.5" style="fill:none;stroke:#38332a;stroke-width:8.33px;"/><path d="M2833.74,276.158c30.276,-23.464 59.081,-48.547 88.125,-73.5" style="fill:none;stroke:#38332a;stroke-width:8.33px;"/><path d="M2277.49,392.283c17.81,-15.739 36.247,-30.664 54.5,-45.875" style="fill:none;stroke:#38332a;stroke-width:8.33px;"/><path d="M2653.21,374.687c-0.931,1.774 -16.721,17.065 -19.882,21.044" style="fill:none;stroke:#38332a;stroke-width:8.33px;"/></g><g id="Hockey-Stick" serif:id="Hockey Stick"><path d="M664.771,629.518c2.469,-1.763 124.839,211.927 131.99,214.719c14.789,5.774 43.187,-13.291 88.791,-8c3.024,0.351 9.489,37.042 7.532,38.781c-4.437,3.944 -98.162,0.725 -100.532,-4.218c-9.529,-19.885 -136.614,-232.813 -136.614,-232.813c-0,0 1.915,-3.528 8.833,-8.469Z" style="fill:none;stroke:#38332a;stroke-width:10.42px;"/><path d="M824.334,843.529c-0,-1.317 0.858,28.14 1.031,29.614c0.083,0.707 -0.1,2.762 0.219,2.125" style="fill:none;stroke:#38332a;stroke-width:8.33px;"/><path d="M846.896,838.018c1.06,-1.059 1.715,38.011 1.719,38" style="fill:none;stroke:#38332a;stroke-width:8.33px;"/><path d="M871.177,839.362c5.648,16.667 2.469,35.624 2.469,34.469" style="fill:none;stroke:#38332a;stroke-width:8.33px;"/></g><g id="Puck"><path d="M725.538,901.395c15.511,-21.752 59.495,-6.872 55.227,2.052c0.232,11.147 -54.732,11.939 -55.227,-2.052Z" style="fill:none;stroke:#38332a;stroke-width:10.42px;"/><path d="M725.538,904.611c0.938,-0.937 -0.276,13.966 1.945,16.26c9.388,9.699 40.693,9.607 50.476,0c0.543,-0.533 3.934,-16.26 2.419,-16.26" style="fill:none;stroke:#38332a;stroke-width:10.42px;"/></g><g id="Musical-Notes" serif:id="Musical Notes"><path d="M490.158,530.133c0,6.236 42.086,93.553 38.766,100.641c-13.244,28.272 -49.92,33.214 -58.854,21.75c-26.964,-34.596 26.741,-48.193 30.067,-51.516c1.129,-1.126 -47.781,-124.131 -44.948,-125.39c10.132,-4.503 94.922,-0 94.922,-0c0,-0 40.534,110.378 45.177,119.052c23.789,44.437 -43.12,84.455 -51.606,31.516c-6.059,-37.797 34.02,-29.589 34.501,-31.516c0.927,-3.709 -21.697,-64.537 -21.697,-64.537c0,0 -67.83,-1 -66.328,0Z" style="fill:none;stroke:#38332a;stroke-width:10.42px;"/><path d="M476.518,497.415l62.77,-0l4.167,12.656c-20.249,2.315 -40.729,1.347 -61.265,-0.422c-0,0 -5.151,-10.676 -5.672,-12.234Z" style="fill:none;stroke:#38332a;stroke-width:10.42px;"/><path d="M619.041,391.236c1.014,-1.014 13.42,-3.964 13.42,-3.964c-0,0 49.106,36.015 59.116,47.304c29.758,33.558 -0,69.848 -0,69.848c1.698,-52.582 -16.12,-72.418 -47.292,-69.848l25.595,100.419c-13.198,29.542 -62.314,31.751 -62.31,1.459c0.004,-31.949 41.132,-24.791 40.882,-27.295c-0.948,-9.482 -30.773,-117.166 -29.411,-117.923Z" style="fill:#38332a;stroke:#38332a;stroke-width:10.42px;"/></g><g id="Guitar"><path d="M127.315,309.857c-12.163,-11.045 -12.102,-20 -16.486,-29.985c-3.082,-7.022 -16.386,-9.83 -21.87,-14.539c-8.607,-7.391 -7.578,-25.297 -18.919,-28.416c-12.712,-3.496 -38.696,26.374 -38.343,31.957c1.183,18.718 16.83,13.095 32.537,28.387c8.55,8.324 6.089,8.965 14.865,17.449c7.83,7.568 15.282,2.78 25.903,14.947" style="fill:none;stroke:#38332a;stroke-width:10.42px;"/><path d="M259.043,454.763c-2.779,-6.746 -128.973,-146.257 -133.042,-145.144c-2.431,0.664 -15.85,18.183 -21.363,21.864c-0.164,0.109 131.542,137.107 131.854,135.544" style="fill:none;stroke:#38332a;stroke-width:10.42px;"/><path d="M279.929,455.626c-21.682,-4.329 -42.493,8.223 -46.445,28.014c-3.952,19.791 10.443,39.373 32.125,43.702c21.682,4.33 42.493,-8.223 46.445,-28.014c3.952,-19.79 -10.443,-39.373 -32.125,-43.702Z" style="fill:none;stroke:#38332a;stroke-width:10.42px;"/><path d="M276.481,472.895c-10.394,-2.076 -20.496,4.569 -22.545,14.829c-2.049,10.259 4.727,20.274 15.121,22.35c10.394,2.075 20.496,-4.57 22.545,-14.829c2.049,-10.26 -4.727,-20.275 -15.121,-22.35Z" style="fill:none;stroke:#38332a;stroke-width:8.33px;"/><path d="M230.645,418.125c18.493,-21.422 41.29,-24.289 53.812,-19.774c25.005,9.014 28.475,40.914 47.392,56.981c9.002,7.646 28.053,14.222 38.652,18.379c18.951,7.434 46.314,25.07 32.162,63.255c-2.683,7.24 -24.898,64.422 -92.67,90.084c-28.458,10.776 -55.086,-16.932 -59.405,-24.479c-14.691,-25.672 -6.044,-47.956 -19.489,-66.273c-9.048,-12.326 -33.729,-4.201 -51.91,-42.96c-9.315,-19.859 22.831,-55.019 27.782,-54.031" style="fill:none;stroke:#38332a;stroke-width:10.42px;"/></g><g id="X-s" serif:id="X&apos;s"><path d="M770.71,599.297c3.944,-9.511 25.513,-43.307 26.928,-43.307" style="fill:none;stroke:#38332a;stroke-width:10.42px;"/><path d="M753.297,563.965c15.964,4.167 50.848,18.911 60.561,24.457" style="fill:none;stroke:#38332a;stroke-width:10.42px;"/><path d="M797.638,651.898c4.166,-7.448 9.622,-14.266 9.622,-20.874" style="fill:none;stroke:#38332a;stroke-width:10.42px;"/><path d="M784.174,636.421c14.921,-0 18.213,4.782 32.415,8.948" style="fill:none;stroke:#38332a;stroke-width:10.42px;"/><path d="M816.589,674.037c1.987,-0 10.795,3.45 14.962,1.76" style="fill:none;stroke:#38332a;stroke-width:8.33px;"/><path d="M823.676,682.649c0,-4.038 0.394,-8.076 0.394,-12.114" style="fill:none;stroke:#38332a;stroke-width:8.33px;"/></g><g id="Fitted-Hat" serif:id="Fitted Hat"><path d="M2946.58,913.085c21.383,-71.153 94.371,-63.132 105.027,-60.495c58.508,14.48 75.184,82.448 71.096,100.24c-3.176,13.828 -26.592,44.607 -27.6,44.76c-2.393,0.363 -92.168,-27.928 -116.598,-46.335c-8.996,-6.777 -31.925,-38.17 -31.925,-38.17Z" style="fill:none;stroke:#38332a;stroke-width:10.42px;"/><path d="M3070.01,860.875c-44.179,-3.987 -69.068,28.072 -97.894,81.19" style="fill:none;stroke:#38332a;stroke-width:10.42px;"/><path d="M2979.19,952.097c11.934,13.223 49.152,45.49 58.19,50.788c20.136,11.801 74.555,35.032 103.078,28.577c6.2,-1.404 -43.043,-34.133 -45.442,-33.77" style="fill:none;stroke:#38332a;stroke-width:10.42px;"/><path d="M3057.64,847.193c0.29,0.411 2.495,-2.712 7.949,3.64" style="fill:none;stroke:#38332a;stroke-width:10.42px;"/><path d="M3055.19,902.16c10.888,4.004 -0.015,16.522 -1.46,21.478c-2.127,7.297 -9.774,4.53 -9.774,4.53c0,0 5.595,5.202 5.073,7.195c-2.753,10.504 -4.959,18.132 -14.959,19.317" style="fill:none;stroke:#38332a;stroke-width:8.33px;"/><path d="M3043.25,952.081c-1.536,3.186 10.76,11.404 15.914,10.71c17.084,-2.3 15.744,-22.87 -5.46,-32.035c5.854,7.306 35.74,-1.4 24.363,-17.176c-3.337,-4.627 -9.334,-11.531 -16.666,-6.362" style="fill:none;stroke:#38332a;stroke-width:8.33px;"/></g><path id="Heart" d="M1861.72,565.169c5.562,-11.871 -3.476,-25.602 -9.15,-39.806c-2.374,-5.944 -4.16,-11.972 -4.04,-17.98c0.411,-20.571 9.337,-27.728 20.421,-26.96c13.68,0.948 11.404,24.754 11.404,24.754c-0,-0 18.684,-19.57 27.737,-3.511c4.35,7.717 2.095,21.154 -4.47,27.124c-11.67,10.612 -26.123,8.58 -41.902,36.379Z" style="fill:#38332a;stroke:#38332a;stroke-width:10.42px;"/><g id="Football"><path d="M1817.42,327.987c-10.618,-31.308 -0.858,-73.734 6.198,-91.066c30.972,-76.072 86.448,-97.009 117.261,-106.937c50.197,-16.175 74.598,-6.49 80.34,-0c18.202,20.575 13.177,79.089 -18.348,126.14c-19.231,28.702 -60.113,53.986 -92.258,66.914c-22.21,8.932 -49.112,15.627 -73.172,14.227c-6.846,-0.399 -17.658,-2.313 -20.021,-9.278Z" style="fill:none;stroke:#38332a;stroke-width:10.42px;"/><path d="M1819.03,325.926c14.49,-68.571 144.29,-188.257 198.381,-195.942" style="fill:none;stroke:#38332a;stroke-width:10.42px;"/><path d="M1867.95,225.388c0.095,-0.047 7.558,13.175 15.747,17.404" style="fill:none;stroke:#38332a;stroke-width:8.33px;"/><path d="M1880.82,210.908c-0.172,-0.519 14.845,17.047 14.268,17.047" style="fill:none;stroke:#38332a;stroke-width:8.33px;"/><path d="M1891.8,199.724c0.093,-0.279 17.856,19.722 17.715,19.702" style="fill:none;stroke:#38332a;stroke-width:8.33px;"/><path d="M1906.36,187.832c2.52,4.202 15.786,18.16 15.866,18" style="fill:none;stroke:#38332a;stroke-width:8.33px;"/><path d="M1916.49,176.912c3.549,4.259 15.315,16.092 15.084,16.149" style="fill:none;stroke:#38332a;stroke-width:8.33px;"/><path d="M1929.81,165.284c4.903,2.7 15.403,14.676 17.679,19.223" style="fill:none;stroke:#38332a;stroke-width:8.33px;"/><path d="M1941.54,158.036c3.977,4.271 20.044,15.864 19.968,15.864" style="fill:none;stroke:#38332a;stroke-width:8.33px;"/><path d="M1954.18,150.08c6.956,4.367 14.527,6.529 19.584,13.272" style="fill:none;stroke:#38332a;stroke-width:8.33px;"/><path d="M1827.24,234.898c13.875,-9.97 77.59,56.275 82.277,87.929" style="fill:none;stroke:#38332a;stroke-width:8.33px;"/><path d="M1819.03,258.096c18.042,10.864 46.709,33.774 63.896,73.762" style="fill:none;stroke:#38332a;stroke-width:8.33px;"/><path d="M1951.53,129.984c18.92,-0.292 53.574,31.586 74.408,77.086" style="fill:none;stroke:#38332a;stroke-width:8.33px;"/><path d="M1973.76,125.293c18.92,8.042 36.223,13.713 57.056,59.214" style="fill:none;stroke:#38332a;stroke-width:8.33px;"/></g><g id="Mountain-Scene" serif:id="Mountain Scene"><g id="Mountains"><path d="M2589.33,591.526c24.858,-9.852 102.36,-141.219 120.443,-142.433c5.5,-0.37 137.029,112.634 175.931,133.851" style="fill:none;stroke:#38332a;stroke-width:10.42px;"/><path d="M2841.83,551.653c19.425,-4.856 21.659,-19.715 48.758,-38.432c13.993,-9.664 38.595,-13.073 56.37,-21.788c19.543,-9.581 31.702,-24.013 32.713,-23.811c8.375,1.675 70.828,78.642 89.731,92.197c6.699,4.803 15.159,6.755 21.458,12.266c2.969,2.599 2.473,12.145 6.082,13.136" style="fill:none;stroke:#38332a;stroke-width:10.42px;"/><path d="M2778.2,497.576c9.574,-0 30.228,-13.631 42.869,-29.956c22.664,-29.267 12.055,-14.517 33.661,-45.125c8.252,-11.691 55.228,-56.746 56.919,-56.746c1.043,-0 21.729,16.216 21.788,16.289c11.112,13.676 22.515,27.258 34.19,40.457c10.989,12.422 30.97,15.157 43.061,26.597c16.256,15.379 26.407,28.831 49.742,37.257c15.737,5.682 14.364,23.72 27.359,33.96c2.871,2.262 22.715,8.717 26.898,10.642c7.288,3.355 19.658,25.74 27.011,25.74" style="fill:none;stroke:#38332a;stroke-width:10.42px;"/><path d="M2548.92,597.62c23.572,-11.256 288.118,-15.847 474.399,-12.399c100.741,1.864 178.592,7.002 183.059,12.61" style="fill:none;stroke:#38332a;stroke-width:10.42px;"/><path d="M2695.88,492.48c-0,15.124 -19.229,21.689 -19.229,35.597" style="fill:none;stroke:#38332a;stroke-width:8.33px;"/><path d="M2670.75,544.707c1.21,15.373 -11.05,21.145 -11.798,21.265" style="fill:none;stroke:#38332a;stroke-width:8.33px;"/><path d="M2711.33,503.354c-0,5.708 6.48,12.643 10.647,18.352" style="fill:none;stroke:#38332a;stroke-width:8.33px;"/><path d="M2726.6,491.047c8.408,4.167 8.064,7.577 10.446,10.983c7.042,10.069 9.865,3.03 14.791,7.776c4.323,4.166 3.079,10.766 3.079,14.026" style="fill:none;stroke:#38332a;stroke-width:8.33px;"/><path d="M2732.42,538.649c0.993,4.785 10.31,15.61 10.31,16.691" style="fill:none;stroke:#38332a;stroke-width:8.33px;"/><path d="M2861.55,415.38c5.443,-0 9.65,-1.729 14.946,-3.053c6.254,-1.564 9.085,7.375 9.085,7.375c14.644,-10.416 26.165,-13.389 32.634,-4.322c-0,-0 2.062,-8.977 8.896,-9.26c14.795,-0.613 19.635,1.748 29.155,1.748" style="fill:none;stroke:#38332a;stroke-width:8.33px;"/><path d="M2866.04,440.833c-7.958,5.158 -12.12,22.893 -12.793,26.934c-0.881,5.283 14.648,11.26 -19.776,36.26" style="fill:none;stroke:#38332a;stroke-width:8.33px;"/><path d="M2895.01,447.384c-5.113,-0 -8.844,7.991 -8.844,12.327" style="fill:none;stroke:#38332a;stroke-width:8.33px;"/><path d="M2922.97,433.77c0,9.058 7.656,12.437 8.769,20.625c1.063,7.812 -1.83,14.046 -1.83,21.093" style="fill:none;stroke:#38332a;stroke-width:8.33px;"/><path d="M2939.7,421.025c5.47,5.471 13.656,7.982 19.191,13.518c1.099,1.098 2.891,2.414 3.444,4.02c0.503,1.461 -0.649,5.408 0.397,6.454c4.457,4.457 16.163,9.796 22.385,9.796" style="fill:none;stroke:#38332a;stroke-width:8.33px;"/><path d="M2922.97,534.328c4.974,-11.759 20.229,-16.189 25.849,-24.522" style="fill:none;stroke:#38332a;stroke-width:8.33px;"/><path d="M2927.98,567.937c9.777,0 19.693,-12.063 19.693,-21.711c0,-3.306 -2.121,-10.784 -0.237,-13.296c4.926,-6.567 13.771,-9.636 19.157,-16.011c6.405,-7.581 1.917,-12.892 2.786,-12.892" style="fill:none;stroke:#38332a;stroke-width:8.33px;"/><path d="M2966.58,538.13c2.507,-0.873 16.287,-11.607 14.4,-17.821c-1.778,-5.859 7.078,-11.145 10.12,-10.503" style="fill:none;stroke:#38332a;stroke-width:8.33px;"/><path d="M3004.57,526.42c5.363,0 15.231,0.876 18.586,5.994c3.131,4.776 5.729,15.045 14.062,17.425" style="fill:none;stroke:#38332a;stroke-width:8.33px;"/><path d="M2676.64,485.138c6.143,-4.027 12.99,-6.023 20.325,-6.023c3.123,0 8.518,3.902 8.518,3.902c-0,0 2.243,-1.943 3.454,-2.795c1.874,-1.319 3.984,-2.219 5.995,-3.259c6.094,-3.15 11.526,-2.828 18.187,-2.828c0.46,-0 9.366,-0.347 9.366,0.614" style="fill:none;stroke:#38332a;stroke-width:8.33px;"/><path d="M2957.39,490.206c11.746,0 25.61,-2.19 37.2,0c3.231,0.611 6.734,1.992 9.977,1.992" style="fill:none;stroke:#38332a;stroke-width:8.33px;"/></g><g id="Road"><path d="M2783.1,585.221c-19.428,19.382 -42.807,76.917 -19.022,107.863c13.851,18.021 80.824,6.879 97.917,23.972c14.444,14.445 14.281,56.518 34.401,62.777c23.678,7.365 44.219,-5.699 75.616,10.967c3.503,1.86 17.274,13.518 17.274,17.886" style="fill:none;stroke:#38332a;stroke-width:8.33px;"/><path d="M2841.83,585.221c-15.24,0 -54.395,58.051 -46.394,74.054c14.232,28.464 58.208,22.709 78.808,26.664c47.354,9.093 33.134,39.658 64.971,67.705c15.18,13.373 82.866,15.044 97.4,12.611c35.787,-5.992 61.126,22.16 66.689,22.16" style="fill:none;stroke:#38332a;stroke-width:8.33px;"/></g><g id="Trees"><g><path d="M2967.73,614.311c0,36.151 0.478,72.556 4.077,108.543" style="fill:none;stroke:#38332a;stroke-width:8.33px;"/><path d="M2968.07,613.254c-1.795,-0 -17.559,16.239 -24.197,23.568" style="fill:none;stroke:#38332a;stroke-width:8.33px;"/><path d="M2967.49,613.418c2.7,-0 17.814,17.412 26.611,23.404" style="fill:none;stroke:#38332a;stroke-width:8.33px;"/><path d="M2967.45,638.043c-3.129,4.693 -21.316,22.324 -29.651,30.539" style="fill:none;stroke:#38332a;stroke-width:8.33px;"/><path d="M2968.09,639.841c1.592,0.158 30.767,21.266 34.009,24.936" style="fill:none;stroke:#38332a;stroke-width:8.33px;"/><path d="M2968.43,666.807c-1.566,3.639 -29.272,27.389 -38.616,36.016" style="fill:none;stroke:#38332a;stroke-width:8.33px;"/><path d="M2969.18,667.745c12.882,7.864 25.729,13.984 43.687,29.208" style="fill:none;stroke:#38332a;stroke-width:8.33px;"/></g><g><path d="M2562.86,522.402c-0,23.821 0.315,47.81 2.686,71.523" style="fill:none;stroke:#38332a;stroke-width:8.33px;"/><path d="M2563.09,521.706c-1.184,-0 -11.571,10.7 -15.945,15.529" style="fill:none;stroke:#38332a;stroke-width:8.33px;"/><path d="M2562.7,521.813c1.779,0 11.739,11.474 17.535,15.422" style="fill:none;stroke:#38332a;stroke-width:8.33px;"/><path d="M2562.68,538.04c-2.062,3.093 -14.046,14.71 -19.539,20.123" style="fill:none;stroke:#38332a;stroke-width:8.33px;"/><path d="M2563.1,539.225c1.049,0.104 20.273,14.013 22.41,16.431" style="fill:none;stroke:#38332a;stroke-width:8.33px;"/><path d="M2563.32,556.994c-1.032,2.397 -19.288,18.047 -25.445,23.732" style="fill:none;stroke:#38332a;stroke-width:8.33px;"/><path d="M2563.82,557.612c8.488,5.182 16.953,9.214 28.787,19.246" style="fill:none;stroke:#38332a;stroke-width:8.33px;"/></g><g><path d="M2662.28,698.684c16.717,0 59.395,0 59.395,0l-20.297,-26.449l11.065,-0l-16.557,-23.565l9.659,-0c-9.481,-6.442 -15.574,-21.613 -18.861,-35.245c-5.917,15.161 -6.432,25.727 -15.611,36.142l9.707,0l-14.194,23.504l10.057,0c0,0 -12.946,19.943 -14.363,25.613Z" style="fill:#38332a;stroke:#38332a;stroke-width:8.33px;"/><path d="M2691.76,701.226c-0,6.568 -0.096,13.171 0.44,19.723" style="fill:none;stroke:#38332a;stroke-width:8.33px;"/></g><g><path d="M2853.05,645.99c9.189,-0 32.648,-0 32.648,-0l-16.446,-14.539l11.372,-0l-11.25,-12.953l7.458,-0c-5.211,-3.541 -8.561,-11.88 -10.367,-19.373c-3.253,8.333 -3.536,14.141 -8.581,19.866l8.581,0l-11.048,12.92l9.695,-0c0,-0 -11.283,10.962 -12.062,14.079Z" style="fill:#38332a;stroke:#38332a;stroke-width:8.33px;"/><path d="M2869.26,647.387c0,3.61 -0.052,7.24 0.242,10.841" style="fill:#38332a;stroke:#38332a;stroke-width:8.33px;"/></g><g><path d="M3161.39,571.677c11.78,0 41.854,0 41.854,0l-20.77,-18.638l14.264,-0l-14.578,-16.606l9.718,0c-6.681,-4.539 -10.975,-15.23 -13.291,-24.836c-4.17,10.683 -4.532,18.129 -11.001,25.469l11.001,-0l-14.163,16.562l14.163,0c-0,0 -16.199,14.054 -17.197,18.049Z" style="fill:#38332a;stroke:#38332a;stroke-width:8.33px;"/><path d="M3182.16,573.468c0,4.629 -0.067,9.282 0.31,13.899" style="fill:#38332a;stroke:#38332a;stroke-width:8.33px;"/></g><g><path d="M3049.76,737.045c26.657,0 94.715,0 94.715,0l-32.366,-42.178l17.643,0l-26.402,-37.577l15.403,-0c-15.118,-10.273 -24.835,-34.466 -30.076,-56.204c-9.436,24.176 -10.257,41.025 -24.895,57.635l15.479,-0l-22.635,37.48l16.039,0c-0,0 -20.645,31.802 -22.905,40.844Z" style="fill:#38332a;stroke:#38332a;stroke-width:8.33px;"/><path d="M3096.78,741.098c-0,10.474 -0.152,21.004 0.702,31.451" style="fill:none;stroke:#38332a;stroke-width:8.33px;"/></g></g><g id="Birds"><path d="M2988.4,335.341c7.84,-7.822 19.57,12.101 15.616,12.607c-1.61,-0.311 1.68,-18.627 8.987,-21.003" style="fill:none;stroke:#38332a;stroke-width:8.33px;"/><path d="M3025.6,370.084c4.838,-9.076 18.719,-0.607 15.902,2.404c-3.361,3.592 3.494,-11.195 9.584,-13.6" style="fill:none;stroke:#38332a;stroke-width:8.33px;"/><path d="M3056.53,321.542c6.804,-4.167 14.379,10.276 14.993,10.166c5.106,-0.921 -2.802,-16.227 9.319,-17.145" style="fill:none;stroke:#38332a;stroke-width:8.33px;"/></g></g><g id="Diamonds-between-Text" serif:id="Diamonds between Text"><path d="M1643.12,987.337l-17.677,-19.002l-18.349,17.07l17.677,19.002l18.349,-17.07Z" style="fill:#38332a;stroke:#38332a;stroke-width:8.33px;"/><path d="M889.853,978.443l-20.026,-16.509l-15.942,19.338l20.026,16.509l15.942,-19.338Z" style="fill:#38332a;stroke:#38332a;stroke-width:8.33px;"/><path d="M2295.53,1014.85l-18.352,-18.352l-17.721,17.722l18.352,18.351l17.721,-17.721Z" style="fill:#38332a;stroke:#38332a;stroke-width:8.33px;"/></g><path id="Triangle" d="M1424.71,525.889l22.39,-36.824l15.412,57.52l-37.802,-20.696Z" style="fill:#38332a;stroke:#38332a;stroke-width:8.33px;"/><g id="Pineapple"><path d="M382.283,1098.35c38.495,-9.166 78.732,21.117 89.797,67.585c6.434,27.021 10.565,64.451 -5.584,86.914c-6.843,9.519 -72.423,26.044 -81.553,19.421c-16.244,-11.784 -41.293,-26.649 -52.359,-73.117c-11.065,-46.468 11.204,-91.636 49.699,-100.803Z" style="fill:none;stroke:#38332a;stroke-width:10.42px;"/><path d="M354.364,1110.67c-9.049,-22.751 -38.015,-36.644 -60.69,-36.423c13.414,-16.724 57.623,-3.916 57.623,-3.916c-8.137,-15.242 -34.077,-36.771 -66.628,-33.901c23.733,-15.605 34.318,-19.373 71.002,5.393c-6.25,-23.026 -21.963,-39.315 -43.945,-51.139c26.656,-3.795 45.164,2.328 61.807,40.152c4.935,-36.802 30.299,-44.765 37.375,-41.979c-10.618,-1.425 -24.351,58.107 -18.883,48.81c4.972,-8.452 45.507,-29.863 45.679,-15.378c-24.671,14.192 -24.678,24.904 -31.261,43.256c-0,-0 29.233,-20.879 38.715,-11.952c-9.75,-2.878 -40.632,29.18 -31.341,42.92" style="fill:none;stroke:#38332a;stroke-width:10.42px;"/><path d="M338.991,1218.36c6.77,-42.756 38.449,-105.427 49.577,-120.149" style="fill:none;stroke:#38332a;stroke-width:8.33px;"/><path d="M378.091,1266.08c4.367,-50.792 52.13,-149.318 55.566,-157.146" style="fill:none;stroke:#38332a;stroke-width:8.33px;"/><path d="M428.775,1267.06c7.573,-11.855 30.507,-88.921 34.329,-123.028" style="fill:none;stroke:#38332a;stroke-width:8.33px;"/><path d="M359.372,1111.96c22.598,2.602 91.812,29.425 109.334,39.807" style="fill:none;stroke:#38332a;stroke-width:8.33px;"/><path d="M334.531,1153.19c27.454,7.301 134.414,55.619 143.027,57.64" style="fill:none;stroke:#38332a;stroke-width:8.33px;"/><path d="M335.7,1207.56c34.417,21.711 73.237,38.244 114.662,50.554" style="fill:none;stroke:#38332a;stroke-width:8.33px;"/></g><g id="Trail-of-Circles" serif:id="Trail of Circles"><path d="M483.747,1315.32c-0.482,1.808 -2.306,2.892 -4.072,2.422c-1.766,-0.471 -2.808,-2.321 -2.326,-4.128c0.482,-1.807 2.306,-2.892 4.072,-2.421c1.766,0.471 2.808,2.32 2.326,4.127Z" style="fill:#38332a;stroke:#38332a;stroke-width:8.33px;"/><path d="M397.382,1337.45c-0.816,3.061 -3.907,4.899 -6.899,4.101c-2.991,-0.797 -4.756,-3.93 -3.94,-6.992c0.816,-3.061 3.907,-4.899 6.899,-4.101c2.991,0.797 4.756,3.93 3.94,6.992Z" style="fill:#38332a;stroke:#38332a;stroke-width:8.33px;"/><path d="M318.139,1290.06c-1.222,4.581 -5.847,7.331 -10.323,6.137c-4.475,-1.193 -7.117,-5.881 -5.896,-10.462c1.222,-4.58 5.847,-7.33 10.323,-6.137c4.475,1.194 7.117,5.881 5.896,10.462Z" style="fill:#38332a;stroke:#38332a;stroke-width:8.33px;"/><path d="M278.951,1203.32c-1.468,5.505 -7.027,8.81 -12.406,7.375c-5.379,-1.434 -8.554,-7.068 -7.086,-12.573c1.468,-5.505 7.027,-8.81 12.406,-7.376c5.379,1.434 8.554,7.068 7.086,12.574Z" style="fill:#38332a;stroke:#38332a;stroke-width:8.33px;"/><path d="M223.749,1137.81c-2.04,7.648 -9.762,12.24 -17.235,10.247c-7.473,-1.992 -11.884,-9.82 -9.845,-17.468c2.039,-7.648 9.762,-12.24 17.235,-10.247c7.473,1.992 11.884,9.819 9.845,17.468Z" style="fill:#38332a;stroke:#38332a;stroke-width:8.33px;"/><path d="M122.551,1124.66c-2.701,10.128 -12.927,16.208 -22.822,13.57c-9.896,-2.639 -15.737,-13.004 -13.036,-23.131c2.7,-10.128 12.926,-16.208 22.822,-13.57c9.895,2.639 15.736,13.003 13.036,23.131Z" style="fill:#38332a;stroke:#38332a;stroke-width:8.33px;"/></g><g id="Diamond-Design" serif:id="Diamond Design"><path d="M1059.81,1301.38c-13.339,11.832 -18.65,30.497 -13.537,47.581l13.537,-47.581Zm43.735,78.516l-47.581,-13.537c11.832,13.339 30.497,18.649 47.581,13.537Zm31.113,-56.661l-13.242,46.544c12.835,-11.711 17.99,-29.833 13.242,-46.544Zm-10.295,-18.482c-11.711,-12.835 -29.833,-17.991 -46.545,-13.242l46.545,13.242Z" style="fill:#38332a;stroke:#38332a;stroke-width:8.33px;"/><path d="M1011.11,1379.94l8.589,-30.19c1.42,7.209 3.979,14.324 7.748,21.089c3.769,6.766 8.47,12.687 13.853,17.69l-30.19,-8.589Zm65.275,-114.732c-7.21,1.42 -14.324,3.98 -21.09,7.748c-6.766,3.769 -12.687,8.471 -17.69,13.853l8.59,-30.19l30.19,8.589Zm58.045,149.817l-30.19,-8.59c7.21,-1.42 14.324,-3.979 21.09,-7.748c6.766,-3.769 12.687,-8.47 17.689,-13.852l-8.589,30.19Zm26.496,-93.131c-1.42,-7.21 -3.98,-14.324 -7.748,-21.09c-3.769,-6.766 -8.471,-12.686 -13.853,-17.689l30.19,8.589l-8.589,30.19Z" style="fill:none;stroke:#38332a;stroke-width:8.33px;"/><g><path d="M1183.39,1362.31c-0.589,2.069 -2.746,3.271 -4.815,2.682c-2.069,-0.589 -3.27,-2.746 -2.682,-4.815c0.589,-2.069 2.746,-3.27 4.815,-2.682c2.069,0.589 3.271,2.746 2.682,4.815Z" style="fill:#38332a;stroke:#38332a;stroke-width:8.33px;"/><path d="M1004.74,1311.48c-0.589,2.069 -2.746,3.271 -4.815,2.682c-2.069,-0.588 -3.271,-2.746 -2.682,-4.814c0.588,-2.069 2.746,-3.271 4.815,-2.682c2.068,0.588 3.27,2.746 2.682,4.814Z" style="fill:#38332a;stroke:#38332a;stroke-width:8.33px;"/><path d="M1118.34,1251.58c-0.589,2.069 -2.746,3.27 -4.815,2.682c-2.069,-0.589 -3.271,-2.746 -2.682,-4.815c0.589,-2.069 2.746,-3.271 4.815,-2.682c2.069,0.588 3.27,2.746 2.682,4.815Z" style="fill:#38332a;stroke:#38332a;stroke-width:8.33px;"/><path d="M1069.79,1422.21c-0.589,2.068 -2.746,3.27 -4.815,2.682c-2.069,-0.589 -3.27,-2.746 -2.682,-4.815c0.589,-2.069 2.746,-3.271 4.815,-2.682c2.069,0.588 3.271,2.746 2.682,4.815Z" style="fill:#38332a;stroke:#38332a;stroke-width:8.33px;"/></g></g><g id="Orange"><path d="M150.822,818.96c0.551,0.156 1.105,0.32 1.66,0.49c42.003,12.875 65.651,57.429 52.776,99.433c-12.876,42.003 -57.43,65.651 -99.433,52.775c-0.555,-0.17 -1.106,-0.345 -1.649,-0.525l46.646,-152.173Z" style="fill:none;stroke:#38332a;stroke-width:8.33px;"/><path d="M182.815,838.772c-4.263,9.915 -48.806,56.278 -48.76,53.7" style="fill:none;stroke:#38332a;stroke-width:8.33px;"/><path d="M203.392,877.316c-5.147,6.016 -68.222,22.979 -72.982,21.993" style="fill:none;stroke:#38332a;stroke-width:8.33px;"/><path d="M135.392,898.986c13.482,5.551 59.931,18.819 69.614,20.717" style="fill:none;stroke:#38332a;stroke-width:8.33px;"/><path d="M131.296,900.585c1.77,-0.809 39.255,46.112 43.832,56.112" style="fill:none;stroke:#38332a;stroke-width:8.33px;"/><path d="M129.076,899.003c0.285,3.07 10.906,69.546 11.403,73.337" style="fill:none;stroke:#38332a;stroke-width:8.33px;"/><path d="M154.868,805.761c48.203,14.776 77.624,67.562 62.518,116.839c-15.105,49.278 -69.054,76.508 -117.256,61.732" style="fill:none;stroke:#38332a;stroke-width:8.33px;"/><circle cx="254.296" cy="838.772" r="8.333" style="fill:none;stroke:#38332a;stroke-width:8.33px;"/></g><g id="Salmon"><path d="M1758.48,1309.69c0,-0 20.376,-11.011 29.7,-15.447c34.113,-16.231 65.005,-25.907 81.049,-27.445c34.142,-3.273 145.365,-4.653 182.224,-4.167c22.04,0.291 80.831,6.6 99.673,13.832c8.806,3.38 23.066,7.197 32.005,12.067c7.474,4.071 0.355,45.693 -5.57,44.151c-71.311,63.974 -364.834,69.366 -423.845,0.606c-0,0 33.553,1.594 34.464,-0.606c0.612,-1.48 -24.707,-15.235 -29.7,-22.991Z" style="fill:none;stroke:#38332a;stroke-width:10.42px;"/><path d="M1944.92,1259.68c0.283,-1.317 57.846,-46.911 57.846,-46.911l24.334,17.816c-0,0 -1.697,10.766 -1.216,11.049c2.648,1.56 10.389,-3.572 10.389,-3.572c-0,0 15.397,8.591 16.126,10.267c0.425,0.978 -4.115,7.01 -6.162,10.947" style="fill:none;stroke:#38332a;stroke-width:8.33px;"/><path d="M2185.55,1287.7c4.046,-2.983 17.18,-10.831 32.192,-19.575c25.916,-15.094 57.427,-32.856 57.427,-32.856c-0,-0 -25.288,53.373 -27.795,70.896c-0.729,5.097 -2.357,10.944 -1.932,16.128c1.21,14.771 26.007,65.247 26.007,65.247c-16.34,0.666 -88.87,-32.089 -90.563,-50.901" style="fill:none;stroke:#38332a;stroke-width:10.42px;"/><path d="M1997.45,1385.33c35.116,37.181 65.084,34.567 28.33,-5.408" style="fill:none;stroke:#38332a;stroke-width:8.33px;"/><path d="M2096.59,1368.12c17.939,16.836 46.585,27.993 46.982,27.661c0.236,-0.198 -7.173,-19.056 -2.7,-42.472" style="fill:none;stroke:#38332a;stroke-width:8.33px;"/><path d="M2127.19,1270.23c3.581,-3.985 24.145,-9.99 26.329,-7.526c0.077,0.086 -2.003,7.843 -2.469,9.318" style="fill:none;stroke:#38332a;stroke-width:8.33px;"/><path d="M1899.05,1327.53c185.504,-20.833 268.212,-17.666 285.011,-17.666" style="fill:none;stroke:#38332a;stroke-width:8.33px;"/><path d="M1873.17,1281.22c18.501,28.853 -4.972,62.061 -26.4,60.323" style="fill:none;stroke:#38332a;stroke-width:8.33px;"/><ellipse cx="1846.77" cy="1295.97" rx="6.168" ry="7.11" style="fill:#38332a;stroke:#38332a;stroke-width:8.33px;"/><path d="M1872.36,1357.82c4.329,12.233 57.428,10.982 53.957,1.087c-0.376,-1.072 -24.556,-6.051 -29.467,-6.465" style="fill:none;stroke:#38332a;stroke-width:8.33px;"/></g><g id="Curved-Arrows" serif:id="Curved Arrows"><path d="M2747.92,1149.99c-0,49.526 -0,161.485 -0,161.485c-0.658,69.633 63.928,57.849 111.339,59.384l-0,44.531l67.882,-66.135l-67.882,-66.859l-0,46.025c-38.353,-0.062 -65.764,6.853 -67.015,-46.025l0,-132.406c0,-0 -36.429,-0.402 -44.324,-0Z" style="fill:none;stroke:#38332a;stroke-width:10.42px;"/><path d="M2894.15,1316.77l32.988,32.491l-32.988,32.139l-0,34.2l67.882,-66.135l-67.882,-66.859l-0,34.164Z" style="fill:#38332a;stroke:#38332a;stroke-width:8.33px;"/></g><g id="Bike"><path d="M1431.2,1244.63c21.931,14.78 97.15,89.813 105.002,95.377" style="fill:none;stroke:#38332a;stroke-width:10.42px;"/><path d="M1464.15,1273.12c-7.553,1.136 -100.471,42.662 -100.471,42.662l-21.999,110.536l92.283,-48.707c-0,-0 25.874,-92.303 30.187,-104.491Z" style="fill:none;stroke:#38332a;stroke-width:10.42px;"/><ellipse cx="1433.96" cy="1377.61" rx="16.667" ry="16.726" style="fill:none;stroke:#38332a;stroke-width:8.33px;"/><path d="M1341.59,1298.49c2.546,-5.087 38.675,-25.589 27.741,-34.861c-5.257,-4.458 -18.02,20.277 -56.923,20.731c-5.682,0.066 -14.353,-0.832 -17.603,5.356c-2.598,4.945 12.483,15.91 17.603,17.82c4.664,1.741 21.86,-2.222 29.182,-9.046Z" style="fill:none;stroke:#38332a;stroke-width:8.33px;"/><path d="M1341.68,1302.66c5.437,-0 77.722,58.654 82.682,60.899" style="fill:none;stroke:#38332a;stroke-width:10.42px;"/><path d="M1408.96,1244.63c26.359,8.333 59.571,-27.305 64.354,-25.743c2.552,0.834 22.399,24.846 -0,32.67" style="fill:none;stroke:#38332a;stroke-width:10.42px;"/><ellipse cx="1534.45" cy="1340.01" rx="61.141" ry="61.828" style="fill:none;stroke:#38332a;stroke-width:10.42px;"/><ellipse cx="1341.59" cy="1425.38" rx="61.141" ry="61.828" style="fill:none;stroke:#38332a;stroke-width:10.42px;"/><circle cx="1534.45" cy="1339.04" r="13.991" style="fill:none;stroke:#38332a;stroke-width:8.33px;"/><circle cx="1341.59" cy="1425.38" r="13.991" style="fill:none;stroke:#38332a;stroke-width:8.33px;"/></g><g id="Tiki-Drink" serif:id="Tiki Drink"><path d="M2420.77,1551.82l0,-60.977c-74.781,-56.881 -35.809,-92.356 -32.715,-122.109c2.008,-19.322 -9.794,-39.855 -8.316,-41.094c2.023,-1.695 97.041,-0 97.041,-0c0,-0 -11.137,22.809 -9.139,41.094c3.467,31.722 39.57,63.582 -27.016,122.109l-0,60.977c18.054,0.123 33.315,2.198 34.423,15.631l-86.993,-0c-0,-0 3.687,-15.458 32.715,-15.631Z" style="fill:none;stroke:#38332a;stroke-width:8.33px;"/><path d="M2394.27,1242.56c0,9.474 42.343,200.966 46.95,221.242" style="fill:none;stroke:#38332a;stroke-width:10.42px;"/><path d="M2412.75,1416.89l-23.89,8.207l8.619,25.086l23.889,-8.208l-8.618,-25.085Z" style="fill:none;stroke:#38332a;stroke-width:8.33px;"/><path d="M2454.44,1453.84l-23.909,-8.151l-8.558,25.107l23.908,8.15l8.559,-25.106Z" style="fill:none;stroke:#38332a;stroke-width:8.33px;"/><path d="M2450.81,1406.63l-22.975,10.497l11.024,24.126l22.975,-10.498l-11.024,-24.125Z" style="fill:none;stroke:#38332a;stroke-width:8.33px;"/><path d="M2426,1384.28l-24.88,-4.366l-4.584,26.126l24.88,4.366l4.584,-26.126Z" style="fill:none;stroke:#38332a;stroke-width:8.33px;"/><path d="M2389.53,1348.14c17.562,-0 18.86,5.036 26.828,5.036c10.071,0 13.879,-10.454 28.475,-10.587c13.4,-0.122 10.453,6.723 21.725,5.839" style="fill:none;stroke:#38332a;stroke-width:8.33px;"/><path d="M2438.23,1320.44c-0.815,-19.521 17.464,-36.927 38.975,-36.927c21.511,-0 37.852,16.574 38.975,36.927c1.169,21.201 -11.104,41.425 -43.772,41.023l5.554,-39.122c0,0 -19.769,-1.701 -39.732,-1.901Z" style="fill:#38332a;stroke:#38332a;stroke-width:8.33px;"/></g><g id="Martini"><path d="M2575.12,1565.97l0,-110.992c-12.421,-13.709 -71.757,-64.616 -71.757,-64.616l144.556,0c-0,0 -68.572,58.854 -72.799,64.616l0,110.992c18.055,0.123 47.707,-0.139 58.408,-0l-114.275,-0c0,-0 26.839,0.173 55.867,-0Z" style="fill:none;stroke:#38332a;stroke-width:8.33px;"/><path d="M2561.97,1429.83c11.502,-8.551 60.634,-48.343 83.556,-65.22" style="fill:none;stroke:#38332a;stroke-width:8.33px;"/><circle cx="2578.95" cy="1418.28" r="11.549" style="fill:#38332a;stroke:#38332a;stroke-width:8.33px;"/></g><g id="Boombox"><path d="M918.026,1452.49l-294.396,-136.057l-65.312,141.321c95.417,47.506 190.73,95.094 294.396,136.057c19.907,-47.107 39.57,-94.214 65.312,-141.321Z" style="fill:none;stroke:#38332a;stroke-width:10.42px;"/><path d="M701.041,1423.54c9.401,4.345 71.595,33.088 83.644,38.657" style="fill:none;stroke:#38332a;stroke-width:8.33px;"/><path d="M730.557,1412.62c-2.585,5.592 -5.661,12.248 -8.229,17.804" style="fill:none;stroke:#38332a;stroke-width:8.33px;"/><path d="M751.593,1422.34c-2.479,5.364 -4.858,10.776 -7.336,16.138" style="fill:none;stroke:#38332a;stroke-width:8.33px;"/><path d="M773.002,1432.23c-2.76,5.973 -5.48,11.858 -8.228,17.805" style="fill:none;stroke:#38332a;stroke-width:8.33px;"/><path d="M608.583,1354.51c54.562,24.176 245.098,111.555 288.465,133.315" style="fill:none;stroke:#38332a;stroke-width:10.42px;"/><path d="M708.522,1404.63l-45.019,95.642" style="fill:none;stroke:#38332a;stroke-width:10.42px;"/><path d="M794.426,1442.13c-15.108,32.691 -30.315,65.594 -45.472,98.391" style="fill:none;stroke:#38332a;stroke-width:10.42px;"/><path d="M766.093,1470.47l-58.979,-27.257l-17.335,37.51l58.979,27.257c4.162,-12.951 9.896,-25.466 17.335,-37.51Z" style="fill:none;stroke:#38332a;stroke-width:8.33px;"/><path d="M687.528,1498.81c4.985,2.304 35.906,17.213 46.727,21.596" style="fill:none;stroke:#38332a;stroke-width:8.33px;"/><path d="M650.254,1341.52c4.297,1.986 6.259,6.9 4.38,10.966c-1.88,4.067 -6.894,5.756 -11.19,3.77c-4.297,-1.985 -6.259,-6.899 -4.38,-10.965c1.88,-4.067 6.894,-5.756 11.19,-3.771Z" style="fill:none;stroke:#38332a;stroke-width:8.33px;"/><path d="M678.166,1354.42c4.297,1.986 6.259,6.899 4.38,10.966c-1.88,4.066 -6.894,5.756 -11.19,3.77c-4.296,-1.985 -6.259,-6.899 -4.38,-10.966c1.88,-4.066 6.894,-5.755 11.19,-3.77Z" style="fill:none;stroke:#38332a;stroke-width:8.33px;"/><path d="M706.079,1367.32c4.296,1.986 6.258,6.899 4.379,10.966c-1.879,4.066 -6.893,5.756 -11.19,3.77c-4.296,-1.986 -6.259,-6.899 -4.379,-10.966c1.879,-4.066 6.893,-5.756 11.19,-3.77Z" style="fill:none;stroke:#38332a;stroke-width:8.33px;"/><path d="M759.937,1403.48c15.939,7.366 90.994,42.053 90.994,42.053" style="fill:none;stroke:#38332a;stroke-width:8.33px;"/><path d="M779.254,1404.9c3.025,1.398 5.969,2.876 9.033,4.174" style="fill:none;stroke:#38332a;stroke-width:8.33px;"/><path d="M651.568,1391.53c21.408,9.894 30.757,35.307 20.863,56.715c-9.894,21.408 -35.308,30.757 -56.716,20.863c-21.408,-9.894 -30.756,-35.308 -20.862,-56.716c9.894,-21.408 35.307,-30.756 56.715,-20.862Zm-5.356,11.588c15.013,6.938 21.568,24.759 14.63,39.771c-6.938,15.013 -24.759,21.568 -39.771,14.63c-15.012,-6.938 -21.568,-24.759 -14.63,-39.771c6.938,-15.012 24.759,-21.568 39.771,-14.63Z" style="fill:#38332a;stroke:#38332a;stroke-width:8.33px;"/><path d="M841.285,1479.21c21.409,9.894 30.757,35.308 20.863,56.716c-9.894,21.408 -35.307,30.756 -56.716,20.862c-21.408,-9.894 -30.756,-35.307 -20.862,-56.715c9.894,-21.408 35.307,-30.756 56.715,-20.863Zm-5.355,11.589c15.012,6.938 21.567,24.759 14.629,39.771c-6.938,15.012 -24.759,21.568 -39.771,14.63c-15.012,-6.938 -21.567,-24.759 -14.629,-39.771c6.938,-15.013 24.758,-21.568 39.771,-14.63Z" style="fill:#38332a;stroke:#38332a;stroke-width:8.33px;"/><path d="M877.006,1401.92c-41.865,-23.892 -113.932,-55.321 -189.717,-87.678l-9.2,19.907l189.717,87.679l9.2,-19.908Z" style="fill:none;stroke:#38332a;stroke-width:8.33px;"/><g id="Right-Sound-waves" serif:id="Right Sound waves"><path d="M884.177,1585.68c10.679,13.763 17.864,23.554 26.66,34.358" style="fill:none;stroke:#38332a;stroke-width:8.33px;"/><path d="M918.026,1520.64c17.42,-0 29.56,0.326 43.488,-0" style="fill:none;stroke:#38332a;stroke-width:8.33px;"/><path d="M910.837,1557.21c15.086,8.71 25.437,15.062 37.662,21.744" style="fill:none;stroke:#38332a;stroke-width:8.33px;"/></g><g id="Left-Sound-waves" serif:id="Left Sound waves"><path d="M537.207,1435.99c-17.41,-0.589 -29.554,-0.674 -43.463,-1.471" style="fill:none;stroke:#38332a;stroke-width:8.33px;"/><path d="M570.079,1370.44c-10.207,-14.116 -17.585,-23.762 -25.483,-35.24" style="fill:none;stroke:#38332a;stroke-width:8.33px;"/><path d="M544.654,1397.7c-15.898,-7.121 -27.11,-11.786 -39.688,-17.778" style="fill:none;stroke:#38332a;stroke-width:8.33px;"/></g></g><g id="_--" serif:id="?!"><path d="M2474.09,1664.8c0,-14.656 22.372,-25.957 27.075,-7.612c2.17,8.467 3.344,20.514 -0.816,28.632c-2.198,4.288 -6.069,3.127 -8.812,5.964c-3.445,3.565 -0.723,11.843 -0.054,15.948" style="fill:none;stroke:#38332a;stroke-width:10.42px;"/><path d="M2492.61,1731.95c0.541,-0.76 2.838,-0.758 3.642,-0.893" style="fill:none;stroke:#38332a;stroke-width:10.42px;"/><path d="M2519.47,1647.67c1.766,15.253 3.571,30.496 5.774,45.694" style="fill:none;stroke:#38332a;stroke-width:10.42px;"/><path d="M2528.24,1723.37c4.167,-3.027 0.886,0.673 0.844,0.781" style="fill:none;stroke:#38332a;stroke-width:10.42px;"/></g><g id="Bottom-Border" serif:id="Bottom Border"><rect x="828.534" y="1780.82" width="1678.04" height="0.239" style="fill:#38332a;stroke:#38332a;stroke-width:10.42px;"/><rect x="1166.03" y="1808.77" width="1003.04" height="0.239" style="fill:#38332a;stroke:#38332a;stroke-width:10.42px;"/></g><g id="Squiggly-Snowflakes" serif:id="Squiggly Snowflakes"><g><path d="M437.945,1562.58c17.127,-8.564 28.33,-24.919 42.584,-36.902" style="fill:none;stroke:#38332a;stroke-width:8.33px;"/><path d="M430.946,1530.77c15.43,4.053 33.232,24.388 44.8,35.365" style="fill:none;stroke:#38332a;stroke-width:8.33px;"/><path d="M452.779,1582.64c-0,-25.868 -1.446,-52.305 1.766,-78.022" style="fill:none;stroke:#38332a;stroke-width:8.33px;"/><path d="M426.166,1551.15c19.232,0 38.468,0.207 57.692,-0.344" style="fill:none;stroke:#38332a;stroke-width:8.33px;"/></g><g><path d="M511.937,1651.36c-0,-24.418 29.318,-49.254 42.312,-68.051" style="fill:none;stroke:#38332a;stroke-width:8.33px;"/><path d="M500.156,1598.71c5.268,0.553 12.334,5.716 16.943,7.963c15.132,7.377 30.057,15.176 44.899,23.117" style="fill:none;stroke:#38332a;stroke-width:8.33px;"/><path d="M539.115,1643.53c0,-21.597 -6.575,-41.879 -10.233,-62.787" style="fill:none;stroke:#38332a;stroke-width:8.33px;"/><path d="M491.102,1623.79c30.221,0 59.31,-9.918 88.835,-14.679" style="fill:none;stroke:#38332a;stroke-width:8.33px;"/></g><g><path d="M429.172,1648.89c-0,-7.211 3.577,-14.978 5.79,-21.712" style="fill:none;stroke:#38332a;stroke-width:8.33px;"/><path d="M415.186,1632.24c12.806,0 23.683,1.417 35.884,5.218" style="fill:none;stroke:#38332a;stroke-width:8.33px;"/><path d="M440.555,1649.26c-6.382,-6.382 -17.889,-14.255 -20.464,-23.099" style="fill:none;stroke:#38332a;stroke-width:8.33px;"/></g><g><path d="M510.891,1536.59c7.814,-0 21.909,10.836 27.381,16.104" style="fill:none;stroke:#38332a;stroke-width:8.33px;"/><path d="M518.605,1556.94c-0,-10.477 5.718,-22.327 8.964,-32.227" style="fill:none;stroke:#38332a;stroke-width:8.33px;"/><path d="M506.673,1547.39c12.504,-0 25.387,-2.003 37.607,-4.507" style="fill:none;stroke:#38332a;stroke-width:8.33px;"/></g></g><g id="Moy"><path d="M1797.75,687.477c-3.261,-11.932 8.246,-62.616 17.106,-63.449c9.465,-0.89 29.741,55.699 31.607,59.654c0.457,0.969 22.184,3.344 23.174,1.933c5.723,-8.153 5.61,-54.277 16.283,-55.428c13.522,-1.459 29.007,38.562 31.687,50.129" style="fill:none;stroke:#38332a;stroke-width:10.42px;"/><path d="M1933.37,696.505c9.566,-1.97 22.307,-1.072 24.612,3.538c0.989,1.976 -13.072,11.315 -10.999,15.459c1.017,2.033 16.845,2.609 16.845,5c-0,1.617 -24.387,7.891 -23.681,12.124c0.597,3.583 25.304,12.722 23.681,15.971c-1.396,2.793 -22.629,10.055 -23.681,14.268c-0.41,1.638 17.437,9.39 16.844,11.759c-1.229,4.91 -20.167,-4.609 -19.152,1.479c0.443,2.657 9.142,13.814 8.845,15.596c-0.105,0.635 -18.871,-7.059 -20.151,-7.059" style="fill:none;stroke:#38332a;stroke-width:8.33px;"/><path d="M1786.42,700.273c-7.667,-1.898 -25.404,3.211 -24.151,6.971c1.152,3.457 19.485,11.294 19.151,12.628c-0.876,3.509 -24.155,10.515 -22.612,13.6c4.757,9.513 23.251,0.59 27.612,9.307c0.336,0.671 -25.135,18.078 -20.305,21.92c5.488,4.366 32.311,-5.37 34.996,0c0.645,1.291 -22.913,23.115 -19.691,29.564c3.503,7.009 23.715,-8.262 27.55,-12.093" style="fill:none;stroke:#38332a;stroke-width:8.33px;"/><path d="M1826.95,754.008c-0,-2.424 1.643,4.587 2.846,6.692c2.585,4.523 4.273,9.674 7.307,13.921c9.156,12.819 17.369,35.707 34.534,39.996c11.652,2.911 22.668,-36.647 25.843,-42.996c2.217,-4.432 7.18,-20.664 6.461,-20.305" style="fill:none;stroke:#38332a;stroke-width:10.42px;"/><circle cx="1875.28" cy="797.782" r="10.427" style="fill:#38332a;stroke:#38332a;stroke-width:10.42px;"/><path d="M1847.87,729.857l-0,0.615" style="fill:none;stroke:#38332a;stroke-width:10.42px;"/><path d="M1878.87,732.626l0,1.692" style="fill:none;stroke:#38332a;stroke-width:10.42px;"/></g><g id="Bar-Chart" serif:id="Bar Chart"><path d="M1063.45,1724.7c17.926,-6.806 146.894,-5.97 259.811,0" style="fill:none;stroke:#38332a;stroke-width:10.42px;"/><path d="M1099.07,1648.04c1.712,-8.255 27.065,-38.542 27.107,-38.501c5.034,5.036 21.683,20.346 21.838,20.191c2.253,-2.254 14.913,-70.725 18.359,-74.171c0.192,-0.191 5.534,30.012 9.735,34.214c0.732,0.733 9.239,-15.279 9.249,-15.269c0.762,0.761 3.268,35.839 3.268,35.839c0,-0 25.047,-13.776 26.451,-12.372c2.648,2.648 5.887,21.743 6.404,21.743c0.854,-0 33.611,-103.989 33.611,-102.741c-0,20.951 22.036,160.884 24.741,163.589c0.55,0.55 9.551,-24.778 9.551,-24.778l24.417,5.717c0,0 6.731,-28.088 26.477,-28.088" style="fill:none;stroke:#38332a;stroke-width:10.42px;stroke-linejoin:bevel;"/><path d="M1067.56,1682.67c5.955,-46.826 6.969,-169.68 -0,-190.441" style="fill:none;stroke:#38332a;stroke-width:10.42px;"/><path d="M1067.56,1489.71c-8.177,8.333 -9.047,10.651 -17.302,18.906" style="fill:none;stroke:#38332a;stroke-width:10.42px;"/><path d="M1067.56,1489.71c8.177,8.333 8.834,10.651 17.089,18.906" style="fill:none;stroke:#38332a;stroke-width:10.42px;"/><path d="M1332.71,1724.81c-8.333,-8.177 -10.651,-9.047 -18.907,-17.303" style="fill:none;stroke:#38332a;stroke-width:10.42px;"/><path d="M1332.71,1724.81c-8.333,8.176 -10.651,8.834 -18.907,17.089" style="fill:none;stroke:#38332a;stroke-width:10.42px;"/><path d="M1096.08,1689.46c90.917,-6.662 226.818,-91.363 226.455,-96.789" style="fill:none;stroke:#38332a;stroke-width:10.42px;stroke-linecap:butt;stroke-linejoin:bevel;stroke-dasharray:20.83,31.25,0,0;"/></g><g id="Tongue-Face" serif:id="Tongue Face"><path d="M1422.42,1518.95c30.135,-11.805 65.996,7.699 80.032,43.528c14.035,35.829 0.965,74.502 -29.17,86.307c-30.135,11.805 -65.995,-7.699 -80.031,-43.528c-14.036,-35.829 -0.966,-74.502 29.169,-86.307Z" style="fill:none;stroke:#38332a;stroke-width:10.42px;"/><path d="M1404.69,1558.76c6.437,1.464 15.408,5.888 22.941,3.451c-6.124,4.81 -13.475,9.999 -17.538,16.762" style="fill:none;stroke:#38332a;stroke-width:8.33px;"/><path d="M1465.64,1544.34c-9.66,-0 -19.578,8.629 -20.359,6.387c0,-6.924 6.17,-11.45 7.273,-22.073" style="fill:none;stroke:#38332a;stroke-width:8.33px;"/><path d="M1411.69,1601.72c40.724,-0 66.327,-18.47 72.595,-40.494" style="fill:none;stroke:#38332a;stroke-width:10.42px;"/><path d="M1478.57,1598.87c10.499,-10.377 15.12,-24.061 5.721,-37.636" style="fill:none;stroke:#38332a;stroke-width:10.42px;"/><path d="M1411.69,1601.43c5.407,15.468 23.113,17.943 40.258,12.82" style="fill:none;stroke:#38332a;stroke-width:10.42px;"/><path d="M1444.54,1599.05c-0.001,5.739 12.72,29.234 25.424,21.961c9.04,-5.176 12.631,-17.766 3.782,-39.531" style="fill:none;stroke:#38332a;stroke-width:10.42px;"/><path d="M1458.79,1594.42c0.236,2.237 1.651,4.919 2.55,7.016" style="fill:none;stroke:#38332a;stroke-width:8.33px;"/></g><path id="Squiggly" d="M373.563,170.931c-14.446,6.902 -100.186,77.228 -100.017,88.288c0.049,3.181 116.648,-22.187 120.239,-14.87c0.894,1.821 -68.847,43.309 -67.47,46.045c1.979,3.931 68.644,-10.819 82.66,3.403c13.825,14.029 -33.361,36.693 -29.449,48.33c3.195,9.508 37.616,-4.704 45.634,1.358c9.049,6.842 -15.154,22.526 -12.159,30.254c1.772,4.572 35.24,7.557 33.107,13.594" style="fill:none;stroke:#38332a;stroke-width:10.42px;"/><path d="M674.345,1669.63c37.291,-12.098 71.135,-18.015 108.091,-0.509c22.065,10.452 43.574,34.521 68.59,36.898c27.125,2.577 56.683,-29.617 81.691,-21.879c33.053,10.227 21.327,55.895 63.009,52.732" style="fill:none;stroke:#38332a;stroke-width:10.42px;"/><path d="M537.443,1164.76c23.054,4.962 44.228,44.811 68.624,48.014c65.942,8.658 91.254,-56.59 145.467,6.068" style="fill:none;stroke:#38332a;stroke-width:10.42px;"/><g id="Pin"><path d="M2959.87,1507.34c-4.03,-10.605 -46.246,12.627 -45.05,21.371l8.414,17.707c-0,-0 13.308,4.021 14.3,5.558c2.094,3.247 9.027,13.691 9.619,17.899c0.204,1.447 -7.105,8.861 -9.803,11.079c-8.702,7.155 -5.554,20.952 1.59,28.73c9.63,-20.128 52.493,-38.768 69.928,-34.785c0,0 -4.744,-18.982 -24.62,-15.092c-2.795,0.547 -8.94,3.369 -11.049,0.859c-4.312,-5.13 -9.373,-13.959 -12.186,-19.972c-1.039,-2.221 7.304,-19.197 7.304,-19.197c0,0 -6.407,-11.035 -8.447,-14.157Z" style="fill:none;stroke:#38332a;stroke-width:10.42px;"/><path d="M2987.3,1596.68c10.248,-6.09 18.675,-13.69 21.78,-21.663" style="fill:none;stroke:#38332a;stroke-width:10.42px;"/><path d="M2939.15,1609.8c7.5,1.478 18.839,-0.484 30.281,-4.674" style="fill:none;stroke:#38332a;stroke-width:10.42px;"/><path d="M2979.18,1582.48c0.986,0.317 28.698,52.236 29.286,55.249c0.651,3.335 1.106,23.467 0.584,24.09c-0.821,0.981 -13.758,-11.015 -17.433,-17.126c-3.527,-5.864 -23.458,-42.855 -30.345,-53.129" style="fill:none;stroke:#38332a;stroke-width:10.42px;"/></g><g id="Sailboat"><path d="M1746.68,1455.25c0,23.075 -10.882,176.324 -20.04,228.986" style="fill:none;stroke:#38332a;stroke-width:10.42px;"/><path d="M1745.9,1477.61c-0,1.315 113.7,205.345 115.941,210.546" style="fill:none;stroke:#38332a;stroke-width:10.42px;"/><path d="M1562.02,1648.68c27.757,15.18 115.264,28.761 127.764,31.387c48.819,10.257 191.329,8.291 191.847,9.405c0.236,0.508 -14.765,30.778 -24.267,35.259c-4.499,2.121 -216.058,2.683 -223.331,-0.854c-4.411,-2.145 -40.828,-55.327 -42.846,-64.287" style="fill:none;stroke:#38332a;stroke-width:10.42px;"/><path d="M1732.25,1648.68c39.383,4.166 68.616,4.876 108.869,4.471" style="fill:none;stroke:#38332a;stroke-width:10.42px;"/><path d="M1595.88,1658.88c33.333,-75.335 102.838,-148.295 150.054,-183.787" style="fill:none;stroke:#38332a;stroke-width:10.42px;"/><path d="M1703.86,1510.77c-12.5,28.61 -27.572,90.581 28.389,137.906" style="fill:none;stroke:#38332a;stroke-width:10.42px;"/><path d="M1602.25,1650.57c34.77,-14.228 122.43,-3.29 130.588,-1.49" style="fill:none;stroke:#38332a;stroke-width:10.42px;"/><path d="M1745.46,1482.91c-2.523,2.523 -43.862,67.747 -53.334,86.832" style="fill:none;stroke:#38332a;stroke-width:8.33px;"/><path d="M1649.88,1644.62c-4.167,6.965 -6.423,16.282 -10.026,22.209" style="fill:none;stroke:#38332a;stroke-width:8.33px;"/><path d="M1876.09,1701.8c-194.971,-0 -250.099,-16.626 -275.106,-24.661" style="fill:none;stroke:#38332a;stroke-width:8.33px;"/><g id="Waves"><path d="M1497.74,1732.42c9.72,0 16.517,-1.877 24.462,-8.252c2.303,-1.847 8.893,-11.065 11.775,-11.225c0.92,-0.051 0.48,4.685 0.468,5.166c-0.095,3.917 -1.361,11.988 3.349,13.892c8.059,3.258 17.817,-0.236 24.995,-4.069c0.875,-0.467 8.494,-7.066 8.977,-6.814c0.813,0.425 0.831,4.556 0.934,5.332c0.949,7.105 0.773,14.369 9.855,12.393c1.732,-0.377 3.371,-0.943 4.924,-1.806c2.15,-1.195 3.989,-2.787 5.729,-4.508" style="fill:none;stroke:#38332a;stroke-width:8.33px;"/><path d="M1700.99,1746.05c0,2.315 3.983,4.838 5.547,5.934c8.445,5.922 19.109,3.209 28.439,0.813c5.675,-1.457 16.424,-8.63 22.256,-7.515c2.647,0.507 1.955,4.982 3.898,6.485c4.22,3.264 12.213,2.328 17.015,1.653c6.298,-0.884 12.474,-3.096 18.031,-6.169c1.61,-0.89 6.063,-5.341 7.933,-5.218c2.303,0.151 7.89,5.393 10.403,6.519c10.152,4.547 20.028,1.865 29.674,-3.213" style="fill:none;stroke:#38332a;stroke-width:8.33px;"/><path d="M1878.99,1705.35c8.451,1.151 13.782,2.224 21.452,-3.339c2.811,-2.038 8.671,-10.76 12.011,-11.059c1.141,-0.102 1.198,3.027 1.277,3.659c0.456,3.619 0.568,8.192 3.562,10.783c7.578,6.556 25.685,-0.118 32.588,-4.801" style="fill:none;stroke:#38332a;stroke-width:8.33px;"/></g></g><g id="Flowers"><path d="M2255.53,1561.07c20.84,-1.185 28.292,8.592 29.771,17.292c0.116,0.683 0.277,1.221 0.289,1.607c0.267,8.227 -6.218,18.983 -16.231,20.763c-11.365,2.02 -23.478,0.762 -30.957,-7.916c-11.192,-12.985 0.852,-30.82 17.128,-31.746Z" style="fill:#38332a;"/><path d="M2069.29,1545.58c0.228,-10.916 11.735,-20.127 23.222,-16.214c7.559,2.574 9.667,10.468 10.047,13.629c0.857,7.138 -2.35,17.437 -14.735,18.545c-7.8,0.698 -18.732,-6.505 -18.534,-15.96Z" style="fill:#38332a;"/><path d="M2146.69,1680.16c-6.494,-2.376 -9.503,-11.634 -4.648,-18.199c1.105,-1.494 2.449,-2.44 3.816,-3.021c2.586,-1.101 5.255,-0.898 6.549,-0.635c4.467,0.909 9.941,5.069 7.9,13.234c-1.285,5.143 -7.991,10.679 -13.617,8.621Z" style="fill:#38332a;"/><path d="M2228.27,1555.23c0,-10.723 -0.857,-21.355 0.835,-32.017c1.311,-8.257 3.892,-14.467 13.229,-15.152c13.752,-1.007 16.39,39.902 16.39,39.902c-0,-0 3.764,-31.578 15.655,-35.693c3.168,-1.096 7.41,-3.086 10.706,-1.331c8.045,4.285 -1.768,35.758 -1.768,35.758c-0,0 23.621,-18.849 35.534,-13.842c12.759,5.363 -19.925,33.301 -19.925,33.301c-0,-0 36.38,8.752 32.437,21.325c-2.764,8.814 -29.504,8.153 -29.504,8.153c-0,0 31.972,24.5 20.47,40.959c-6.208,8.883 -36.075,7.2 -43.704,-18.698c-0.082,-0.28 -0.344,-0.285 -0.344,-0.285c-0,-0 8.6,34.417 -26.686,35.663c-16.427,0.58 -17.856,-22.154 -13.753,-38.725c-0,0 -26.187,27.467 -35.728,8.517c-9.508,-18.884 17.641,-30.833 17.641,-30.833c-0,0 -33.536,0.57 -28.84,-31.063c4.207,-28.343 32.853,-7.43 37.355,-5.939Z" style="fill:none;stroke:#38332a;stroke-width:8.33px;"/><path d="M2056.11,1530.8c0,-2.806 -20.877,-23.364 -0.209,-39.612c21.686,-17.048 25.988,19.38 25.988,19.38c0,-0 5.376,-25.917 24.779,-19.38c19.74,6.65 -1.352,27.34 -1.352,27.34c0,-0 22.278,-13.929 30.64,-0c10.048,16.737 -12.9,18.421 -12.9,18.421c0,0 29.743,3.788 27.79,19.025c-1.664,12.98 -30.775,4.241 -30.775,4.241c0,-0 31.331,11.233 21.047,25.095c-13.837,18.649 -35.986,-12.661 -35.986,-12.661c0,-0 6.792,31.763 -3.574,35.325c-12.65,4.346 -14.702,-25.937 -14.702,-25.937c-0,-0 -24.216,22.552 -38.867,13.627c-11.484,-6.997 10.937,-23.793 10.937,-23.793c0,-0 -26.937,9.398 -31.916,-11.713c-5.774,-24.479 26.108,-29.121 29.1,-29.358Z" style="fill:none;stroke:#38332a;stroke-width:8.33px;"/><path d="M2127.21,1656.39c-0,-1.834 -13.561,-15.269 -0.136,-25.888c14.086,-11.142 25.213,13.292 25.213,13.292c0,-0 22.08,-12.86 27.511,-3.758c6.526,10.938 -9.104,20.373 -9.104,20.373c-0,-0 27.652,-1.692 26.383,8.266c-1.08,8.483 -28.322,6.938 -28.322,6.938c-0,0 17.723,14.791 11.043,23.85c-8.988,12.188 -28.451,-7.45 -28.451,-7.45c-0,0 -6.275,20.933 -15.791,15.1c-7.46,-4.572 -6.517,-23.882 -6.517,-23.882c0,-0 -17.497,6.142 -20.731,-7.655c-3.75,-15.998 16.958,-19.031 18.902,-19.186Z" style="fill:none;stroke:#38332a;stroke-width:8.33px;"/><path d="M2244.6,1684.33c-6.973,6.921 -5.205,37.884 2.819,47.618c5.277,-8.249 7.949,-32.671 -2.819,-47.618Z" style="fill:#38332a;stroke:#38332a;stroke-width:8.33px;"/><path d="M2099.82,1711.69c-7.455,-3.543 -27.546,6.596 -30.857,15.672c7.665,1.832 25.147,-2.959 30.857,-15.672Z" style="fill:#38332a;stroke:#38332a;stroke-width:8.33px;"/><path d="M2037.56,1486.65c4.286,-5.451 0.647,-27.808 -5.665,-34.377c-3.009,6.309 -2.954,24.194 5.665,34.377Z" style="fill:#38332a;stroke:#38332a;stroke-width:8.33px;"/><path d="M2183.62,1493.31c14.243,0.131 31.931,-25.4 27.063,-39.345c-12.739,2.247 -32.37,19.163 -27.063,39.345Z" style="fill:#38332a;stroke:#38332a;stroke-width:8.33px;"/><path d="M2014.44,1668.5c10.736,-1.399 31.142,-30.335 31.298,-44.571c-10.253,3.754 -29.756,23.779 -31.298,44.571Z" style="fill:#38332a;stroke:#38332a;stroke-width:8.33px;"/><path d="M2317.02,1662.78c1.038,6.324 20.056,22.061 29.292,24.164c-2.56,-6.381 -15.787,-20.342 -29.292,-24.164Z" style="fill:#38332a;stroke:#38332a;stroke-width:8.33px;"/></g><path d="M1836.96,1466.12c40.771,-12.5 67.308,16.6 99.529,0" style="fill:none;stroke:#38332a;stroke-width:8.33px;"/><path d="M1867.18,1545.4c21.482,-8.334 34.636,17.832 51.95,9.675" style="fill:none;stroke:#38332a;stroke-width:8.33px;"/><path d="M1611.41,1435.9c36.632,16.667 56.594,-12.36 84.892,0.372" style="fill:none;stroke:#38332a;stroke-width:8.33px;"/><path d="M1555.42,1514.46c28.908,-12.5 45.971,16.666 66.546,-0" style="fill:none;stroke:#38332a;stroke-width:8.33px;"/></svg>