<svg viewBox="0 0 447 205" xmlns="http://www.w3.org/2000/svg" fill-rule="evenodd" clip-rule="evenodd" stroke-linecap="round" stroke-linejoin="round" stroke-miterlimit="1.5"><path d="M271.5 29.93c38.57-2.22 80.68-8.2 113.64 16.82 21 15.94 31.07 37.96 40.18 62.03a582.59 582.59 0 0 1 8.13 22.92 1233.19 1233.19 0 0 1 3.51 10.78c.13.4.73 1.39.38 1.17-3.36-2.1-6.5-4.52-9.79-6.72-1.07-.71-2.16-1.4-3.25-2.09-.56-.34-2.04-1.57-1.68-1.02 8.11 12.5 20.63-2.38 25.6-9.69" fill="none" stroke="#38332a" stroke-width="7.06" transform="matrix(.61111 0 0 1.03441 152.52 -21.75)"/><path d="M358.05 179c.2 0-2.61 3.39-2.8 3.54a33.93 33.93 0 0 1-8.1 4.82c-8.3 3.74-17.28 5.98-26.17 7.77-26.17 5.27-52.7 4.5-79.2 5.8a459.42 459.42 0 0 1-68-1.7c-11.94-1.17-25.34-2.05-36.56-6.67-8.67-3.58-15.68-10.1-21.58-17.23-2.1-2.54-4.16-5.12-6.08-7.8-.37-.5-1.34-2.58-2-2.72-.3-.07.49 6.15.55 6.52.64 4.3 1.4 8.6 2.33 12.85.26 1.16.57 2.3.8 3.47.02.13.23 1.84.18 1.82-.46-.15-.7-2.75-.77-3.12-.67-3.13-1.47-6.23-2.35-9.3-.52-1.84-3.5-7.32-2.75-9.26.17-.45 7.66-1.47 8.37-1.64 9.19-2.11 19.3-3.88 28.75-3.88" fill="none" stroke="#38332a" stroke-width="6"/><path d="M78.12 133.03c0-10.68 5.4-22.84 9.6-32.35 13.6-30.83 36.63-58.64 68.58-70.68 14.91-5.62 30.61-10.63 46.74-9.93 4.96.22 10.52.52 15.14 2.53 3.66 1.6 6.45 5.98 4.6 2.3" fill="none" stroke="#38332a" stroke-width="9.05" transform="matrix(.52242 0 0 .77885 26.75 -1.7)"/><path d="M146.5 12.8c-4.12-7.69 1.88 1.98 3.66 4.26.38.48 1.95 2 1.54 2.69-.7 1.16-4.29 1.47-5.44 1.81-4.96 1.46-9.8 3.5-14.82 4.77" fill="none" stroke="#38332a" stroke-width="6"/><g fill-rule="nonzero"><path d="M176.26 13.25h-7.18l-1.68 4.39h-2.02l6.17-15.84h2.28l6.15 15.84h-2.04l-1.68-4.4zm-.7-1.8l-2.14-5.62-.74-2.2h-.05l-.7 2.13-2.15 5.69h5.78zM183.8 3.34c-.44 0-.79-.14-1.05-.4-.27-.26-.4-.61-.4-1.04 0-.44.13-.78.4-1.05.26-.26.6-.4 1.04-.4.43 0 .78.14 1.05.4.26.27.4.61.4 1.05 0 .43-.14.78-.4 1.04-.27.26-.62.4-1.05.4zm.95 14.3h-1.92v-12h1.92v12zM194.88 5.4c.58 0 1.02.08 1.32.24l-.38 1.87a3.17 3.17 0 0 0-3.02.13c-.48.3-.88.75-1.2 1.35-.3.6-.46 1.32-.46 2.17v6.48h-1.92v-12h1.56l.26 1.97c.67-1.47 1.95-2.21 3.84-2.21zM201.86 5.64h4.01V7.3h-4v10.34h-1.93V7.3h-2.4V5.64h2.4V3.62c0-1.1.34-1.98 1.01-2.64.67-.65 1.65-.98 2.93-.98.43 0 .83.05 1.19.14.36.1.64.24.85.41l-.5 1.56a2.53 2.53 0 0 0-1.37-.36c-1.46 0-2.19.69-2.19 2.07v1.82zm8.4 8.78c0 .61.1 1.03.28 1.26.18.24.52.35 1.02.35a4.66 4.66 0 0 0 1.75-.33l-.31 1.84a4.5 4.5 0 0 1-1.78.34c-.97 0-1.7-.26-2.17-.8-.47-.52-.7-1.33-.7-2.42V.12h1.91v14.3zM220.85 5.4c1.8 0 3.23.55 4.26 1.66 1.03 1.1 1.55 2.63 1.55 4.58 0 1.95-.52 3.48-1.55 4.58a5.55 5.55 0 0 1-4.26 1.66c-1.81 0-3.23-.55-4.26-1.66-1.03-1.1-1.55-2.63-1.55-4.58 0-1.95.52-3.48 1.55-4.58a5.55 5.55 0 0 1 4.26-1.66zm0 1.66c-1.22 0-2.17.4-2.86 1.22a5.05 5.05 0 0 0-1.03 3.36c0 1.42.34 2.54 1.03 3.36a3.53 3.53 0 0 0 2.86 1.22c1.21 0 2.17-.4 2.85-1.22a5.05 5.05 0 0 0 1.04-3.36c0-1.42-.35-2.54-1.04-3.36a3.53 3.53 0 0 0-2.85-1.22zM247.42 5.64l-4.18 12h-1.92l-3.38-9.55-3.2 9.55h-1.92l-4.17-12h2.13l3.03 9.77 3.26-9.77H239l3.27 9.77 3.02-9.77h2.14zM265.06 16.8a4.45 4.45 0 0 1-3.1 1.08c-.98 0-1.77-.26-2.39-.8-.61-.52-.93-1.33-.95-2.42V7.3h-2.4V5.64h2.4V2.76l1.92-.53v3.41h4.44V7.3h-4.44v7.03c0 .57.17 1.01.5 1.3.32.3.76.45 1.3.45.77 0 1.45-.3 2.04-.89l.68 1.61zM277.6 16.25c.33 0 .65-.04.97-.12l-.12 1.51c-.45.16-.93.24-1.44.24a2.4 2.4 0 0 1-1.48-.4c-.36-.28-.59-.74-.68-1.38-.37.56-.91 1-1.62 1.31-.71.31-1.46.47-2.25.47a4.9 4.9 0 0 1-2.92-.83 2.76 2.76 0 0 1-1.16-2.39c0-.9.4-1.7 1.2-2.36a7.3 7.3 0 0 1 3.48-1.38l3.2-.53v-.67c0-.8-.25-1.44-.75-1.92a2.84 2.84 0 0 0-2.06-.72c-.8 0-1.5.2-2.08.58a3.7 3.7 0 0 0-1.35 1.7l-1.42-1.03c.32-.9.92-1.61 1.79-2.14a5.8 5.8 0 0 1 3.06-.79c1.42 0 2.57.34 3.43 1.03.86.69 1.3 1.7 1.3 3.05v5.9c0 .3.07.5.21.65.15.15.38.22.7.22zm-6.52-.05c1 0 1.88-.24 2.6-.72.73-.48 1.1-1.1 1.1-1.87v-1.66l-2.7.5c-1.06.2-1.86.47-2.4.83-.52.36-.78.82-.78 1.38 0 .5.19.88.57 1.14.39.27.92.4 1.6.4zM285.43 17.88c-1.15 0-2.2-.23-3.12-.68a4.3 4.3 0 0 1-2.04-2.03l1.56-1.08c.27.7.75 1.23 1.42 1.58.67.35 1.46.53 2.37.53.95 0 1.67-.17 2.16-.5.5-.34.75-.76.75-1.28 0-.46-.23-.83-.7-1.11a7.8 7.8 0 0 0-2.45-.73 12.5 12.5 0 0 1-2.73-.76 3.29 3.29 0 0 1-1.47-1.13 2.98 2.98 0 0 1-.45-1.69c0-.66.19-1.26.57-1.8a4 4 0 0 1 1.66-1.3c.72-.34 1.55-.5 2.5-.5 1.28 0 2.3.24 3.08.7.78.48 1.33 1.2 1.67 2.18l-1.63.96a3.01 3.01 0 0 0-1.17-1.66 3.54 3.54 0 0 0-1.95-.5c-.79 0-1.45.18-2 .53-.54.35-.81.76-.81 1.22 0 .53.23.94.7 1.23.48.28 1.32.53 2.54.74 1.66.27 2.84.68 3.53 1.22a2.77 2.77 0 0 1 1.03 2.3c0 .7-.2 1.3-.61 1.84a4 4 0 0 1-1.76 1.26 7.1 7.1 0 0 1-2.65.46zM298.46 11.71l-2.54 2.55v3.38H294V.12h1.92v11.74l6.22-6.22h2.4l-4.68 4.68 4.96 7.32h-2.32l-4.04-5.93z"/></g><g fill-rule="nonzero"><path d="M6.53 122.25c2.83 0 4.87 1.12 6.12 3.36l-1.66 1.35a5.16 5.16 0 0 0-1.71-2.25 4.88 4.88 0 0 0-2.73-.66 4.8 4.8 0 0 0-2.87.76 2.3 2.3 0 0 0-1.04 1.93c0 .51.14.94.4 1.27.28.34.73.63 1.36.88.64.25 1.51.47 2.63.66 2.1.35 3.58.88 4.45 1.58.88.7 1.31 1.68 1.31 2.93 0 .9-.25 1.68-.75 2.36-.5.68-1.22 1.21-2.15 1.59-.93.37-2 .56-3.22.56-1.6 0-2.96-.31-4.09-.93a6.52 6.52 0 0 1-2.58-2.5l1.66-1.34a4.92 4.92 0 0 0 1.9 2.2c.84.51 1.9.77 3.16.77 1.25 0 2.24-.23 2.98-.68.73-.46 1.1-1.1 1.1-1.93 0-.7-.32-1.27-.96-1.68a9.91 9.91 0 0 0-3.4-1.06c-2.12-.37-3.62-.9-4.5-1.58a3.45 3.45 0 0 1-1.32-2.88c0-.85.24-1.64.72-2.36a4.95 4.95 0 0 1 2.07-1.71c.9-.43 1.93-.64 3.12-.64zM26.74 126.33v12h-1.68l-.12-1.82c-.8 1.37-2.24 2.06-4.3 2.06-1.3 0-2.36-.36-3.18-1.08-.82-.72-1.24-1.82-1.24-3.31v-7.85h1.92v7.35c0 1.16.24 2 .72 2.48.48.49 1.19.73 2.12.73a3.9 3.9 0 0 0 2.74-1c.73-.68 1.1-1.69 1.1-3.03v-6.53h1.92zM37.1 126.1c1.68 0 3.02.55 4 1.66.98 1.11 1.48 2.64 1.48 4.57 0 1.94-.5 3.46-1.48 4.57a5.07 5.07 0 0 1-4 1.67c-.88 0-1.66-.2-2.36-.57-.7-.39-1.24-.9-1.62-1.54v6.91H31.2v-17.04h1.68l.12 2.09c.35-.7.9-1.27 1.62-1.7a4.84 4.84 0 0 1 2.48-.63zm-.21 10.8c1.17 0 2.09-.42 2.76-1.24a5.1 5.1 0 0 0 1-3.33c0-1.4-.33-2.5-1-3.32a3.37 3.37 0 0 0-2.76-1.24c-1.15 0-2.07.4-2.75 1.2a4.8 4.8 0 0 0-1.02 3.22v.29a4.8 4.8 0 0 0 1.02 3.21c.68.8 1.6 1.2 2.75 1.2zM56.62 131.7c0 .46-.04.9-.1 1.35h-9.05a4.34 4.34 0 0 0 1.21 2.83c.7.68 1.6 1.01 2.7 1.01.88 0 1.62-.15 2.2-.45.58-.3.98-.75 1.19-1.32l1.6.84a4.99 4.99 0 0 1-1.91 1.94c-.8.45-1.83.67-3.08.67-1.8 0-3.22-.55-4.26-1.65-1.03-1.1-1.54-2.64-1.54-4.59 0-1.95.49-3.48 1.47-4.58.99-1.1 2.38-1.66 4.19-1.66 1.12 0 2.09.25 2.9.75.82.5 1.44 1.16 1.85 2.01.42.85.63 1.8.63 2.86zm-5.38-3.93c-1.06 0-1.9.31-2.56.94a4.28 4.28 0 0 0-1.18 2.64h7.27c-.13-1.12-.5-2-1.1-2.63a3.2 3.2 0 0 0-2.43-.95zM65.93 126.1c.57 0 1.01.07 1.32.23l-.39 1.87a3.17 3.17 0 0 0-3 .14c-.5.3-.9.74-1.2 1.34-.32.6-.48 1.32-.48 2.17v6.48h-1.92v-12h1.56l.27 1.97c.67-1.47 1.95-2.2 3.84-2.2zM73.63 138.57c-1.15 0-2.19-.23-3.12-.68a4.3 4.3 0 0 1-2.04-2.03l1.56-1.08c.27.7.75 1.23 1.42 1.58.67.36 1.46.53 2.37.53.95 0 1.67-.17 2.16-.5.5-.34.75-.76.75-1.27 0-.47-.23-.84-.7-1.12a7.8 7.8 0 0 0-2.45-.73 12.5 12.5 0 0 1-2.73-.76 3.29 3.29 0 0 1-1.47-1.13 2.98 2.98 0 0 1-.45-1.69c0-.65.19-1.25.57-1.8a4 4 0 0 1 1.66-1.3c.72-.33 1.55-.5 2.5-.5 1.28 0 2.3.24 3.08.7.78.48 1.33 1.2 1.67 2.18l-1.63.96a3.01 3.01 0 0 0-1.17-1.65 3.54 3.54 0 0 0-1.95-.5c-.79 0-1.45.17-2 .52-.54.35-.81.76-.81 1.22 0 .53.23.94.7 1.23.48.29 1.32.53 2.54.74 1.66.27 2.84.68 3.53 1.23a2.77 2.77 0 0 1 1.03 2.3c0 .69-.2 1.3-.61 1.84a4 4 0 0 1-1.76 1.26 7.1 7.1 0 0 1-2.65.45zM92.5 131.7c0 .46-.04.9-.1 1.35h-9.05a4.34 4.34 0 0 0 1.21 2.83c.7.68 1.6 1.01 2.7 1.01.88 0 1.62-.15 2.2-.45.58-.3.98-.75 1.19-1.32l1.6.84a4.99 4.99 0 0 1-1.91 1.94c-.8.45-1.83.67-3.08.67-1.8 0-3.22-.55-4.26-1.65-1.03-1.1-1.54-2.64-1.54-4.59 0-1.95.49-3.48 1.47-4.58.99-1.1 2.38-1.66 4.19-1.66 1.12 0 2.09.25 2.9.75.82.5 1.44 1.16 1.85 2.01.42.85.63 1.8.63 2.86zm-5.38-3.93c-1.06 0-1.9.31-2.56.94a4.28 4.28 0 0 0-1.18 2.64h7.27c-.13-1.12-.5-2-1.1-2.63a3.2 3.2 0 0 0-2.43-.95zM103.13 137.5a4.45 4.45 0 0 1-3.1 1.07c-.97 0-1.77-.26-2.39-.8-.61-.52-.93-1.33-.94-2.41v-7.37h-2.4v-1.66h2.4v-2.88l1.92-.53v3.41h4.44V128h-4.44v7.03c0 .58.16 1.01.49 1.3.33.3.76.45 1.3.45.77 0 1.45-.3 2.05-.89l.67 1.61zM119.5 122.5c2.5 0 4.44.68 5.85 2.06 1.41 1.37 2.11 3.32 2.11 5.85s-.7 4.48-2.1 5.86c-1.42 1.37-3.37 2.06-5.86 2.06h-5.12V122.5h5.12zm.19 14.03c1.8 0 3.22-.54 4.23-1.62 1.02-1.08 1.53-2.58 1.53-4.5s-.51-3.42-1.53-4.5a5.53 5.53 0 0 0-4.23-1.62h-3.39v12.24h3.39zM141.17 136.94c.32 0 .64-.04.96-.12l-.12 1.51c-.45.16-.93.24-1.44.24a2.4 2.4 0 0 1-1.48-.4c-.36-.28-.59-.73-.68-1.37-.37.56-.91 1-1.62 1.3-.71.32-1.46.47-2.25.47a4.9 4.9 0 0 1-2.92-.83 2.76 2.76 0 0 1-1.16-2.38c0-.92.4-1.7 1.2-2.37a7.3 7.3 0 0 1 3.48-1.38l3.2-.53v-.67c0-.8-.25-1.44-.75-1.92a2.84 2.84 0 0 0-2.06-.72c-.8 0-1.5.2-2.08.58a3.7 3.7 0 0 0-1.35 1.7l-1.42-1.03c.32-.9.92-1.6 1.79-2.14a5.8 5.8 0 0 1 3.06-.79c1.42 0 2.57.35 3.43 1.03.86.7 1.3 1.7 1.3 3.05v5.9c0 .3.07.5.21.65.15.15.38.22.7.22zm-6.53-.05c1 0 1.88-.24 2.6-.72.73-.48 1.1-1.1 1.1-1.87v-1.66l-2.7.5c-1.06.2-1.86.48-2.4.84-.52.36-.78.82-.78 1.38 0 .5.19.87.57 1.14.39.26.92.4 1.61.4zM149 138.57c-1.16 0-2.2-.23-3.13-.68a4.3 4.3 0 0 1-2.04-2.03l1.56-1.08c.27.7.75 1.23 1.42 1.58.67.36 1.46.53 2.37.53.95 0 1.67-.17 2.16-.5.5-.34.75-.76.75-1.27 0-.47-.23-.84-.7-1.12a7.8 7.8 0 0 0-2.45-.73 12.5 12.5 0 0 1-2.73-.76 3.29 3.29 0 0 1-1.47-1.13 2.98 2.98 0 0 1-.45-1.69c0-.65.19-1.25.57-1.8a4 4 0 0 1 1.66-1.3c.72-.33 1.55-.5 2.5-.5 1.28 0 2.3.24 3.08.7.78.48 1.33 1.2 1.67 2.18l-1.63.96a3.01 3.01 0 0 0-1.17-1.65 3.54 3.54 0 0 0-1.95-.5c-.79 0-1.45.17-2 .52-.54.35-.81.76-.81 1.22 0 .53.23.94.7 1.23.48.29 1.32.53 2.54.74 1.66.27 2.84.68 3.53 1.23a2.77 2.77 0 0 1 1.03 2.3c0 .69-.2 1.3-.61 1.84a4 4 0 0 1-1.76 1.26 7.1 7.1 0 0 1-2.65.45zM163.4 126.1c1.35 0 2.47.38 3.35 1.17.88.78 1.32 1.9 1.32 3.38v7.68h-1.92v-7c0-1.25-.27-2.16-.8-2.72a2.83 2.83 0 0 0-2.15-.84 3.9 3.9 0 0 0-1.79.43c-.57.3-1.03.75-1.39 1.38a4.77 4.77 0 0 0-.54 2.4v6.35h-1.92v-17.52h1.92v7.32c.4-.69.94-1.2 1.62-1.53a5.1 5.1 0 0 1 2.3-.5zM178.32 126.1c1.68 0 3.01.55 4 1.66.98 1.11 1.47 2.64 1.47 4.57 0 1.94-.49 3.46-1.47 4.57a5.07 5.07 0 0 1-4 1.67c-.93 0-1.76-.21-2.48-.63a4.02 4.02 0 0 1-1.62-1.7l-.12 2.1h-1.68V120.8h1.92v7.4c.38-.65.92-1.16 1.62-1.54.7-.39 1.48-.58 2.36-.58zm-.22 10.8c1.17 0 2.1-.42 2.76-1.24a5.1 5.1 0 0 0 1.01-3.33c0-1.4-.33-2.5-1-3.32a3.37 3.37 0 0 0-2.77-1.24c-1.15 0-2.06.4-2.74 1.2a4.8 4.8 0 0 0-1.02 3.22v.29a4.8 4.8 0 0 0 1.02 3.21c.68.8 1.6 1.2 2.74 1.2zM192.6 126.1c1.8 0 3.23.54 4.26 1.65 1.03 1.1 1.55 2.63 1.55 4.58 0 1.95-.52 3.48-1.55 4.59a5.55 5.55 0 0 1-4.26 1.65c-1.8 0-3.23-.55-4.26-1.65-1.03-1.1-1.55-2.64-1.55-4.59 0-1.95.52-3.48 1.55-4.58a5.55 5.55 0 0 1 4.26-1.66zm0 1.65c-1.22 0-2.17.4-2.86 1.22a5.05 5.05 0 0 0-1.03 3.36c0 1.43.35 2.55 1.03 3.36a3.53 3.53 0 0 0 2.86 1.23c1.22 0 2.17-.41 2.86-1.23a5.05 5.05 0 0 0 1.03-3.36c0-1.42-.35-2.54-1.03-3.36a3.53 3.53 0 0 0-2.86-1.22zM211.97 136.94c.32 0 .64-.04.96-.12l-.12 1.51c-.45.16-.93.24-1.44.24a2.4 2.4 0 0 1-1.48-.4c-.36-.28-.59-.73-.68-1.37-.37.56-.91 1-1.62 1.3-.71.32-1.46.47-2.25.47a4.9 4.9 0 0 1-2.92-.83 2.76 2.76 0 0 1-1.16-2.38c0-.92.4-1.7 1.2-2.37a7.3 7.3 0 0 1 3.48-1.38l3.2-.53v-.67c0-.8-.25-1.44-.75-1.92a2.84 2.84 0 0 0-2.06-.72c-.8 0-1.5.2-2.08.58a3.7 3.7 0 0 0-1.35 1.7l-1.42-1.03c.32-.9.92-1.6 1.79-2.14a5.8 5.8 0 0 1 3.06-.79c1.42 0 2.57.35 3.43 1.03.86.7 1.3 1.7 1.3 3.05v5.9c0 .3.07.5.21.65.15.15.38.22.7.22zm-6.53-.05c1 0 1.88-.24 2.6-.72.73-.48 1.1-1.1 1.1-1.87v-1.66l-2.7.5c-1.06.2-1.86.48-2.4.84-.52.36-.78.82-.78 1.38 0 .5.19.87.57 1.14.39.26.92.4 1.61.4zM221.38 126.1c.57 0 1.01.07 1.32.23l-.39 1.87a3.17 3.17 0 0 0-3.01.14c-.49.3-.89.74-1.2 1.34-.31.6-.47 1.32-.47 2.17v6.48h-1.92v-12h1.56l.27 1.97c.67-1.47 1.95-2.2 3.84-2.2zM235.78 120.81v17.52h-1.68l-.12-2.09c-.36.7-.9 1.27-1.62 1.7-.73.42-1.56.63-2.49.63a5.07 5.07 0 0 1-4-1.67c-.98-1.1-1.47-2.63-1.47-4.57 0-1.93.5-3.46 1.48-4.57a5.07 5.07 0 0 1 4-1.67c.87 0 1.66.2 2.36.58.7.38 1.23.9 1.62 1.53v-7.39h1.92zm-5.7 16.08c1.16 0 2.08-.4 2.76-1.2a4.8 4.8 0 0 0 1.02-3.21v-.3a4.8 4.8 0 0 0-1.02-3.2c-.68-.8-1.6-1.2-2.75-1.2-1.17 0-2.09.4-2.76 1.23a5.1 5.1 0 0 0-1.01 3.32c0 1.4.34 2.5 1 3.33.68.82 1.6 1.23 2.77 1.23z"/></g><g fill-rule="nonzero"><path d="M368.2 147.3c0 1.77-.47 3.16-1.42 4.16a5.2 5.2 0 0 1-3.95 1.5c-1.52 0-2.7-.37-3.52-1.12a3.92 3.92 0 0 1-1.25-3.08c0-.46.04-.89.12-1.27l1.77-.36c-.06.54-.1.93-.1 1.15 0 .98.24 1.7.7 2.17.47.47 1.2.71 2.21.71 1.31 0 2.23-.35 2.75-1.06.52-.7.78-1.8.78-3.28v-9.94h1.92v10.42zM383.07 140.72v12h-1.68l-.12-1.82c-.8 1.37-2.24 2.06-4.3 2.06-1.3 0-2.36-.36-3.18-1.08-.82-.72-1.24-1.82-1.24-3.31v-7.85h1.92v7.34c0 1.17.24 2 .72 2.49.48.49 1.19.73 2.12.73a3.9 3.9 0 0 0 2.74-1c.73-.68 1.1-1.69 1.1-3.03v-6.53h1.92zM393.43 140.48c1.68 0 3.02.56 4 1.67.98 1.11 1.48 2.63 1.48 4.57 0 1.94-.5 3.46-1.48 4.57a5.07 5.07 0 0 1-4 1.67c-.88 0-1.66-.2-2.36-.58-.7-.38-1.24-.9-1.62-1.53v6.91h-1.92v-17.04h1.68l.12 2.09c.35-.7.9-1.27 1.62-1.7a4.84 4.84 0 0 1 2.48-.63zm-.21 10.8c1.17 0 2.09-.41 2.76-1.24a5.1 5.1 0 0 0 1-3.32c0-1.4-.33-2.5-1-3.32a3.37 3.37 0 0 0-2.76-1.24c-1.15 0-2.07.4-2.75 1.2a4.8 4.8 0 0 0-1.02 3.22v.28a4.8 4.8 0 0 0 1.02 3.22c.68.8 1.6 1.2 2.75 1.2zM406.85 154.74a6.03 6.03 0 0 1-1.56 2.43 3.4 3.4 0 0 1-2.23.71 4.2 4.2 0 0 1-1.53-.24 3.1 3.1 0 0 1-1.11-.77l.67-1.63c.46.64 1.11.96 1.94.96.47 0 .88-.14 1.24-.42.36-.28.68-.79.95-1.52l.62-1.56-5.01-11.98H403l3 7.82.74 2.14.87-2.38 2.8-7.58h2.07l-5.64 14.02zM422.47 151.88a4.45 4.45 0 0 1-3.1 1.08c-.97 0-1.76-.26-2.38-.8-.62-.52-.93-1.33-.95-2.42v-7.36h-2.4v-1.66h2.4v-2.88l1.92-.53v3.41h4.44v1.66h-4.44v7.03c0 .57.17 1.01.5 1.3.32.3.76.45 1.3.45.77 0 1.45-.3 2.04-.89l.67 1.61zM435.48 146.1c0 .44-.03.9-.1 1.34h-9.04a4.34 4.34 0 0 0 1.2 2.83c.7.67 1.6 1.01 2.7 1.01.89 0 1.62-.15 2.2-.46.59-.3.99-.74 1.2-1.32l1.6.84a4.99 4.99 0 0 1-1.92 1.95c-.8.45-1.82.67-3.07.67-1.8 0-3.23-.55-4.26-1.66-1.03-1.1-1.55-2.63-1.55-4.58 0-1.95.5-3.48 1.48-4.58s2.38-1.66 4.19-1.66c1.12 0 2.08.25 2.9.74.82.5 1.43 1.17 1.85 2.02.41.85.62 1.8.62 2.86zm-5.37-3.94c-1.06 0-1.91.31-2.56.94a4.28 4.28 0 0 0-1.19 2.64h7.27c-.12-1.12-.5-2-1.1-2.63a3.2 3.2 0 0 0-2.42-.95zM444.8 140.48c.57 0 1 .08 1.31.24l-.38 1.87a3.17 3.17 0 0 0-3.01.13c-.5.3-.9.75-1.2 1.35-.31.6-.47 1.32-.47 2.17v6.48h-1.92v-12h1.56l.26 1.97c.68-1.47 1.96-2.21 3.84-2.21z"/></g></svg>