<?xml version="1.0" encoding="UTF-8" standalone="no"?>
<!DOCTYPE svg PUBLIC "-//W3C//DTD SVG 1.1//EN" "http://www.w3.org/Graphics/SVG/1.1/DTD/svg11.dtd">
<svg width="100%" height="100%" viewBox="0 0 738 383" version="1.1" xmlns="http://www.w3.org/2000/svg" xmlns:xlink="http://www.w3.org/1999/xlink" xml:space="preserve" xmlns:serif="http://www.serif.com/" style="fill-rule:evenodd;clip-rule:evenodd;stroke-linecap:round;stroke-linejoin:round;stroke-miterlimit:1.5;">
    <g transform="matrix(1,0,0,1,-21,-13.0829)">
        <g transform="matrix(1,0,0,1,-33.1614,-97.1524)">
            <path d="M57.161,158.276C62.158,160.333 66.03,165.155 71.083,167.547C85.27,174.266 101.361,175.227 116.779,176.356C131.023,177.398 145.506,179.015 159.789,177.855C172.54,176.818 237.286,147.856 202.448,134.981C173.977,124.459 132.337,137.21 103.41,141.82C99.144,142.5 57.273,145.536 63.158,156.332" style="fill:none;stroke:rgb(56,51,42);stroke-width:6px;"/>
        </g>
        <g transform="matrix(1,0,0,1,-33.1614,-97.1524)">
            <path d="M64.484,160.693C60.686,160.693 62.893,189.234 63.119,194.347C64.668,229.436 61.133,267.891 68.202,302.395" style="fill:none;stroke:rgb(56,51,42);stroke-width:6px;"/>
        </g>
        <g transform="matrix(1,0,0,1,-33.1614,-97.1524)">
            <path d="M68.411,302.656C67.262,302.656 66.568,302.717 66.632,304.19C67.034,313.405 76.617,319.274 84.135,322.318C87.363,323.625 90.696,324.641 94.113,325.318C127.213,331.874 164.274,319.214 194.777,307.356C200.588,305.097 224.297,303.511 222.543,293.856" style="fill:none;stroke:rgb(56,51,42);stroke-width:6px;"/>
        </g>
        <g transform="matrix(1,0,0,1,-33.1614,-97.1524)">
            <path d="M223.156,292.292C224.571,292.292 225.063,285.809 225.135,285.134C227.26,265.27 223.039,244.396 219.126,225.007C214.87,203.918 208.632,184.547 210.215,162.759C210.504,158.784 214.578,140.612 210.726,137.229" style="fill:none;stroke:rgb(56,51,42);stroke-width:6px;"/>
        </g>
        <g transform="matrix(1,0,0,1,-20,6.47959)">
            <path d="M322.474,100.161C315.714,91.558 356.618,44.836 362.341,39.616C417.382,-10.592 510.204,0.346 514.986,86.446C515.713,99.523 514.758,113.461 508.058,125.034C491.16,154.22 428.769,182.66 395.49,174.83C352.935,164.816 315.478,126.348 331.588,82.055" style="fill:none;stroke:rgb(56,51,42);stroke-width:6px;"/>
        </g>
        <g transform="matrix(1,0,0,1,-20,6.47959)">
            <path d="M626.839,51.125C625.314,50.497 630.326,45.044 630.723,44.577C640.496,33.09 653.751,21.424 669.355,19.654C687.461,17.6 696.061,40.064 696.477,40.064C708.094,40.064 725.255,10.606 749.474,19.533C759.89,23.372 765.997,35.713 767.431,46.065C768.918,56.793 764.945,68.101 757.424,75.853C757.143,76.142 754.511,79.034 753.868,78.541C751.665,76.851 759.723,79.064 761.886,80.806C765.587,83.787 768.197,87.995 770.162,92.264C776.325,105.659 777.775,123.2 769.953,136.248C763.676,146.718 750.122,154.352 737.769,151.881C732.756,150.878 728.186,148.047 724.553,144.507C724.435,144.392 722.497,142.267 722.465,142.299C722.216,142.541 723.677,145.742 723.777,146.057C728.534,161.088 723.798,174.636 711.101,184.035C694.276,196.491 663.695,205.333 644.881,192.423C637.174,187.135 632.374,178.166 630.624,169.134C630.516,168.576 630.899,153.593 632.682,155.294C633.354,155.933 620.077,160.386 619.33,160.507C609.044,162.176 598.569,158.79 591.605,150.93C585.915,144.509 582.782,135.793 585.029,127.324C587.625,117.545 601.123,110.917 601.628,109.52C602.291,107.685 598.123,107.728 596.626,106.475C592.84,103.309 590.26,98.644 588.301,94.193C582.044,79.979 585.271,65.836 594.374,53.704C596.882,50.361 599.715,47.233 602.947,44.574C614.472,35.094 635.291,42.983 634.274,46.444" style="fill:none;stroke:rgb(56,51,42);stroke-width:6px;"/>
        </g>
        <g transform="matrix(1,0,0,1,141.871,16.6653)">
            <path d="M366.182,240.495C365.429,238.028 368.241,244.875 368.38,245.312C369.858,249.935 371.125,254.616 372.203,259.349C373.366,264.455 382.262,301.105 379.441,305.545" style="fill:none;stroke:rgb(56,51,42);stroke-width:6px;"/>
        </g>
        <g transform="matrix(1,0,0,1,141.871,16.6653)">
            <path d="M365.187,241.37C364.286,241.083 374.07,237.79 374.924,237.519C381.533,235.424 388.148,233.308 394.813,231.399C395.427,231.223 396.581,230.898 397.197,230.726C415.069,225.753 433.504,221.599 450.984,215.349C451.546,215.147 457.127,212.554 457.609,213.5C460.088,218.36 458.435,229.029 459.234,234.514C464.677,271.866 454.862,270.943 423.097,290.831C420.06,292.733 384.015,311.349 382.03,310.086C380.903,309.368 384.703,310.067 386.039,310.048C387.963,310.019 389.887,309.965 391.811,309.918C398.523,309.753 405.238,309.706 411.951,309.706C421.105,309.706 469.229,316.708 475.822,312.704C490.547,303.76 500.506,277.576 508.764,263.011C509.362,261.957 518.284,247.828 517.853,247.589C514.686,245.833 498.882,257.654 495.746,259.221C486.303,263.942 475.656,261.302 467.125,264.826" style="fill:none;stroke:rgb(56,51,42);stroke-width:6px;"/>
        </g>
        <g transform="matrix(1,0,0,1,141.871,16.6653)">
            <path d="M425.599,304.453C424.646,305.033 440.191,290.881 444.287,287.616C463.294,272.469 460.831,265.72 485.073,265.832C487.345,265.843 494.363,263.78 496.246,264.757C496.494,264.885 492.086,269.641 491.819,269.935C488.059,274.087 484.309,278.254 480.614,282.464C466.327,298.739 467.744,307.689 446.997,300.944C444.386,300.096 435.56,299.866 433.602,297.877C433.412,297.684 434.13,297.753 434.395,297.697C438.94,296.735 448.231,299.88 452.048,297.359C452.768,296.882 478.91,260.348 478.91,258.696" style="fill:none;stroke:rgb(56,51,42);stroke-width:6px;"/>
        </g>
        <g transform="matrix(1,0,0,1,141.871,16.6653)">
            <path d="M451.203,286.875C447.659,290.523 460.383,290.13 464.064,290.234" style="fill:none;stroke:rgb(56,51,42);stroke-width:6px;"/>
        </g>
        <g transform="matrix(1,0,0,1,141.871,16.6653)">
            <path d="M458.646,279.88C457.435,276.143 472.107,281.436 473.513,281.952" style="fill:none;stroke:rgb(56,51,42);stroke-width:6px;"/>
        </g>
        <g transform="matrix(1,0,0,1,-42.4197,-171.679)">
            <path d="M441.42,429.644C417.993,415.835 395.585,397.447 368.465,404.294C314.506,417.915 289.946,480.46 321.177,527.726C332.469,544.816 349.178,554.577 369.184,558.047C405.229,564.297 460.733,562.881 470.134,518.217C477.587,482.809 462.297,438.504 428.024,422.516C424.297,420.778 418.006,416.533 413.732,417.465" style="fill:none;stroke:rgb(56,51,42);stroke-width:6px;"/>
        </g>
        <g transform="matrix(1,0,0,1,-20,6.47959)">
            <path d="M503.526,40.979C498.044,34.002 527.247,23.284 531.309,22.468C556.882,17.33 583.809,17.126 601.429,39.091C602.672,40.641 585.055,29.634 585.841,28.432C586.325,27.694 602.136,35.294 600.95,37.206C598.14,41.74 583.307,41.866 578.659,42.709C578.455,42.746 575.865,43.081 575.865,43.371C575.865,43.482 580.956,42.002 581.197,41.923C595.149,37.335 609.144,40.007 609.626,24.341C609.669,22.946 610.609,18.034 609.277,16.909C606.846,14.854 604.752,34.789 603.676,34.636" style="fill:none;stroke:rgb(56,51,42);stroke-width:6px;"/>
        </g>
        <g transform="matrix(1,0,0,1,-20,6.47959)">
            <path d="M586.818,121.911C588.602,121.911 578.682,127.613 577.943,127.919C570.771,130.895 562.932,133.627 555.06,132.635C545.507,131.431 535.213,125.901 527.228,120.652C524.05,118.562 521.758,116.117 519.191,113.394C518.99,113.18 517.036,111.019 516.71,111.351C513.711,114.399 527.662,129.833 525.522,134.51C524.198,137.404 523.482,128.479 522.519,125.445C521.29,121.576 516.28,113.876 516.392,109.915C516.476,106.98 533.368,101.6 536.204,101.392" style="fill:none;stroke:rgb(56,51,42);stroke-width:6px;"/>
        </g>
        <g transform="matrix(0.756056,0.366728,-0.402677,0.83017,76.6993,-60.5125)">
            <path d="M343.214,70.312C349.141,61.292 322.504,71.758 322.204,71.899C301.807,81.47 284.753,96.539 265.321,107.772C259.073,111.384 217.837,136.913 212.406,135.579C210.958,135.223 216.714,122.182 217.197,121.054C217.995,119.191 221.453,114.704 219.571,115.456C218.337,115.95 213.762,133.654 214.697,134.333C218.621,137.182 229.543,130.777 234.629,134.348" style="fill:none;stroke:rgb(56,51,42);stroke-width:6.8px;"/>
        </g>
        <g transform="matrix(0.960134,0.279539,-0.279539,0.960134,10.0166,-44.7113)">
            <path d="M329.151,75.109C332.282,75.109 323.424,72.414 320.347,71.833C318.001,71.39 301.243,65.831 301.663,62.892C301.666,62.876 305.114,64.245 305.28,64.316C307.887,65.419 310.513,66.487 313.173,67.459C315.062,68.15 328.599,69.184 329.177,70.54C332.41,78.131 318.173,94.333 313.528,99.834C311.632,102.078 315.846,94.43 316.82,91.658C318.69,86.337 319.647,80.797 321.295,75.421C321.677,74.172 324.011,72.001 322.725,71.773" style="fill:none;stroke:rgb(56,51,42);stroke-width:6px;"/>
        </g>
        <g transform="matrix(1,0,0,1,-18.536,-9.60326)">
            <path d="M216,206.307C224.253,206.307 383.029,210.478 411.203,214.845C514.594,230.873 524.274,265.308 525.536,263.603C526.668,262.074 523.198,234.945 523.536,234.603C524.696,233.43 525.462,262.641 525.536,263.603C525.699,265.714 491.824,273.432 492.536,270.603" style="fill:none;stroke:rgb(56,51,42);stroke-width:6px;"/>
        </g>
        <g transform="matrix(0.997104,0.0760484,-0.0760484,0.997104,-15.69,-86.7987)">
            <path d="M229.661,263.474C227.247,264.944 233.91,259.716 234.927,259.222C240.394,256.573 245.944,254.116 251.392,251.427C251.664,251.293 252.438,250.82 252.205,251.015C246.721,255.599 239.972,259.986 233.395,262.744C233.002,262.909 225.981,264.966 225.992,265.278C226.008,265.706 227.944,266.509 228.245,266.677C231.78,268.652 253.096,284.247 245.823,279.318C244.286,278.276 242.867,277.065 241.302,276.065" style="fill:none;stroke:rgb(56,51,42);stroke-width:6px;"/>
        </g>
        <g transform="matrix(1,0,0,1,3.5147,-29.7578)">
            <path d="M124,235C126.524,235 147.192,266.617 164,275.635C184.292,286.523 190.737,256.19 211.079,267C220.598,272.058 261.403,310.627 275.198,304.989C277.486,304.055 272.463,300.867 271.268,298.704C268.704,294.067 266.606,289.189 264.077,284.532C263.04,282.622 261.961,280.734 260.826,278.88C260.149,277.772 258.722,274.338 258.672,275.635C258.42,282.237 269.441,289.869 271.066,296.733C272.791,304.016 233.069,305.076 227,308" style="fill:none;stroke:rgb(56,51,42);stroke-width:6px;"/>
        </g>
        <g transform="matrix(1,0,0,1,-15.1942,-8.7302)">
            <path d="M380.453,110.812L371.483,110.812L369.383,116.302L366.863,116.302L374.573,96.502L377.423,96.502L385.103,116.302L382.553,116.302L380.453,110.812ZM379.583,108.562L376.913,101.542L375.983,98.782L375.923,98.782L375.053,101.452L372.353,108.562L379.583,108.562Z" style="fill-rule:nonzero;stroke:rgb(56,51,42);stroke-width:1px;stroke-linecap:butt;stroke-miterlimit:1.41421;"/>
            <path d="M389.873,98.422C389.333,98.422 388.898,98.257 388.568,97.927C388.238,97.597 388.073,97.162 388.073,96.622C388.073,96.082 388.238,95.647 388.568,95.317C388.898,94.987 389.333,94.822 389.873,94.822C390.413,94.822 390.848,94.987 391.178,95.317C391.508,95.647 391.673,96.082 391.673,96.622C391.673,97.162 391.508,97.597 391.178,97.927C390.848,98.257 390.413,98.422 389.873,98.422ZM391.073,116.302L388.673,116.302L388.673,101.302L391.073,101.302L391.073,116.302Z" style="fill-rule:nonzero;stroke:rgb(56,51,42);stroke-width:1px;stroke-linecap:butt;stroke-miterlimit:1.41421;"/>
            <path d="M403.733,101.002C404.453,101.002 405.003,101.102 405.383,101.302L404.903,103.642C404.423,103.382 403.793,103.252 403.013,103.252C402.373,103.252 401.748,103.437 401.138,103.807C400.528,104.177 400.028,104.737 399.638,105.487C399.248,106.237 399.053,107.142 399.053,108.202L399.053,116.302L396.653,116.302L396.653,101.302L398.603,101.302L398.933,103.762C399.773,101.922 401.373,101.002 403.733,101.002Z" style="fill-rule:nonzero;stroke:rgb(56,51,42);stroke-width:1px;stroke-linecap:butt;stroke-miterlimit:1.41421;"/>
            <path d="M412.463,101.302L417.473,101.302L417.473,103.372L412.463,103.372L412.463,116.302L410.063,116.302L410.063,103.372L407.063,103.372L407.063,101.302L410.063,101.302L410.063,98.782C410.063,97.402 410.483,96.302 411.323,95.482C412.163,94.662 413.383,94.252 414.983,94.252C415.523,94.252 416.018,94.312 416.468,94.432C416.918,94.552 417.273,94.722 417.533,94.942L416.903,96.892C416.423,96.592 415.853,96.442 415.193,96.442C413.373,96.442 412.463,97.302 412.463,99.022L412.463,101.302ZM422.963,112.282C422.963,113.042 423.078,113.567 423.308,113.857C423.538,114.147 423.963,114.292 424.583,114.292C425.003,114.292 425.368,114.262 425.678,114.202C425.988,114.142 426.353,114.032 426.773,113.872L426.383,116.182C425.723,116.462 424.983,116.602 424.163,116.602C422.943,116.602 422.038,116.272 421.448,115.612C420.858,114.952 420.563,113.942 420.563,112.582L420.563,94.402L422.963,94.402L422.963,112.282Z" style="fill-rule:nonzero;stroke:rgb(56,51,42);stroke-width:1px;stroke-linecap:butt;stroke-miterlimit:1.41421;"/>
            <path d="M436.193,101.002C438.453,101.002 440.228,101.692 441.518,103.072C442.808,104.452 443.453,106.362 443.453,108.802C443.453,111.242 442.808,113.152 441.518,114.532C440.228,115.912 438.453,116.602 436.193,116.602C433.933,116.602 432.158,115.912 430.868,114.532C429.578,113.152 428.933,111.242 428.933,108.802C428.933,106.362 429.578,104.452 430.868,103.072C432.158,101.692 433.933,101.002 436.193,101.002ZM436.193,103.072C434.673,103.072 433.483,103.582 432.623,104.602C431.763,105.622 431.333,107.022 431.333,108.802C431.333,110.582 431.763,111.982 432.623,113.002C433.483,114.022 434.673,114.532 436.193,114.532C437.713,114.532 438.903,114.022 439.763,113.002C440.623,111.982 441.053,110.582 441.053,108.802C441.053,107.022 440.623,105.622 439.763,104.602C438.903,103.582 437.713,103.072 436.193,103.072Z" style="fill-rule:nonzero;stroke:rgb(56,51,42);stroke-width:1px;stroke-linecap:butt;stroke-miterlimit:1.41421;"/>
            <path d="M469.403,101.302L464.183,116.302L461.783,116.302L457.553,104.362L453.563,116.302L451.163,116.302L445.943,101.302L448.613,101.302L452.393,113.512L456.473,101.302L458.873,101.302L462.953,113.512L466.733,101.302L469.403,101.302Z" style="fill-rule:nonzero;stroke:rgb(56,51,42);stroke-width:1px;stroke-linecap:butt;stroke-miterlimit:1.41421;"/>
        </g>
        <g transform="matrix(1,0,0,1,-42.258,-114.927)">
            <path d="M94.554,242.493C96.554,242.493 98.164,243.038 99.384,244.128C100.604,245.218 101.214,246.683 101.214,248.523C101.214,250.363 100.604,251.828 99.384,252.918C98.164,254.008 96.554,254.553 94.554,254.553L89.964,254.553L89.964,262.293L87.564,262.293L87.564,242.493L94.554,242.493ZM94.194,252.303C95.734,252.303 96.869,251.988 97.599,251.358C98.329,250.728 98.694,249.783 98.694,248.523C98.694,247.263 98.329,246.318 97.599,245.688C96.869,245.058 95.734,244.743 94.194,244.743L89.964,244.743L89.964,252.303L94.194,252.303Z" style="fill-rule:nonzero;stroke:rgb(56,51,42);stroke-width:1px;stroke-linecap:butt;stroke-miterlimit:1.41421;"/>
            <path d="M111.474,246.993C113.734,246.993 115.509,247.683 116.799,249.063C118.089,250.443 118.734,252.353 118.734,254.793C118.734,257.233 118.089,259.143 116.799,260.523C115.509,261.903 113.734,262.593 111.474,262.593C109.214,262.593 107.439,261.903 106.149,260.523C104.859,259.143 104.214,257.233 104.214,254.793C104.214,252.353 104.859,250.443 106.149,249.063C107.439,247.683 109.214,246.993 111.474,246.993ZM111.474,249.063C109.954,249.063 108.764,249.573 107.904,250.593C107.044,251.613 106.614,253.013 106.614,254.793C106.614,256.573 107.044,257.973 107.904,258.993C108.764,260.013 109.954,260.523 111.474,260.523C112.994,260.523 114.184,260.013 115.044,258.993C115.904,257.973 116.334,256.573 116.334,254.793C116.334,253.013 115.904,251.613 115.044,250.593C114.184,249.573 112.994,249.063 111.474,249.063Z" style="fill-rule:nonzero;stroke:rgb(56,51,42);stroke-width:1px;stroke-linecap:butt;stroke-miterlimit:1.41421;"/>
            <path d="M128.484,262.593C127.044,262.593 125.744,262.308 124.584,261.738C123.424,261.168 122.574,260.323 122.034,259.203L123.984,257.853C124.324,258.733 124.914,259.393 125.754,259.833C126.594,260.273 127.584,260.493 128.724,260.493C129.904,260.493 130.804,260.283 131.424,259.863C132.044,259.443 132.354,258.913 132.354,258.273C132.354,257.693 132.064,257.228 131.484,256.878C130.904,256.528 129.884,256.223 128.424,255.963C126.984,255.703 125.844,255.388 125.004,255.018C124.164,254.648 123.554,254.178 123.174,253.608C122.794,253.038 122.604,252.333 122.604,251.493C122.604,250.673 122.844,249.923 123.324,249.243C123.804,248.563 124.494,248.018 125.394,247.608C126.294,247.198 127.334,246.993 128.514,246.993C130.114,246.993 131.399,247.288 132.369,247.878C133.339,248.468 134.034,249.373 134.454,250.593L132.414,251.793C132.094,250.833 131.609,250.143 130.959,249.723C130.309,249.303 129.494,249.093 128.514,249.093C127.534,249.093 126.704,249.313 126.024,249.753C125.344,250.193 125.004,250.703 125.004,251.283C125.004,251.943 125.299,252.453 125.889,252.813C126.479,253.173 127.534,253.483 129.054,253.743C131.134,254.083 132.604,254.593 133.464,255.273C134.324,255.953 134.754,256.913 134.754,258.153C134.754,259.013 134.499,259.778 133.989,260.448C133.479,261.118 132.749,261.643 131.799,262.023C130.849,262.403 129.744,262.593 128.484,262.593Z" style="fill-rule:nonzero;stroke:rgb(56,51,42);stroke-width:1px;stroke-linecap:butt;stroke-miterlimit:1.41421;"/>
            <path d="M148.374,261.243C147.374,262.143 146.084,262.593 144.504,262.593C143.284,262.593 142.289,262.263 141.519,261.603C140.749,260.943 140.354,259.933 140.334,258.573L140.334,249.363L137.334,249.363L137.334,247.293L140.334,247.293L140.334,243.693L142.734,243.033L142.734,247.293L148.284,247.293L148.284,249.363L142.734,249.363L142.734,258.153C142.734,258.873 142.939,259.418 143.349,259.788C143.759,260.158 144.304,260.343 144.984,260.343C145.944,260.343 146.794,259.973 147.534,259.233L148.374,261.243Z" style="fill-rule:nonzero;stroke:rgb(56,51,42);stroke-width:1px;stroke-linecap:butt;stroke-miterlimit:1.41421;"/>
            <path d="M160.134,260.373C161.554,260.373 162.664,260.693 163.464,261.333C164.264,261.973 164.664,262.843 164.664,263.943C164.664,264.903 164.334,265.748 163.674,266.478C163.014,267.208 162.119,267.768 160.989,268.158C159.859,268.548 158.614,268.743 157.254,268.743C154.974,268.743 153.254,268.378 152.094,267.648C150.934,266.918 150.354,265.963 150.354,264.783C150.354,264.103 150.589,263.503 151.059,262.983C151.529,262.463 152.174,262.093 152.994,261.873C152.374,261.573 151.879,261.193 151.509,260.733C151.139,260.273 150.954,259.733 150.954,259.113C150.954,258.373 151.154,257.758 151.554,257.268C151.954,256.778 152.504,256.413 153.204,256.173C152.484,255.733 151.939,255.158 151.569,254.448C151.199,253.738 151.014,252.943 151.014,252.063C151.014,251.083 151.274,250.208 151.794,249.438C152.314,248.668 153.044,248.068 153.984,247.638C154.924,247.208 155.984,246.993 157.164,246.993C158.284,246.993 159.304,247.193 160.224,247.593C160.784,245.553 162.194,244.533 164.454,244.533L164.994,246.633C163.034,246.633 161.844,247.183 161.424,248.283C162.024,248.743 162.489,249.293 162.819,249.933C163.149,250.573 163.314,251.283 163.314,252.063C163.314,253.043 163.054,253.918 162.534,254.688C162.014,255.458 161.284,256.058 160.344,256.488C159.404,256.918 158.344,257.133 157.164,257.133C156.284,257.133 155.514,257.043 154.854,256.863C154.254,257.003 153.824,257.223 153.564,257.523C153.304,257.823 153.174,258.233 153.174,258.753C153.174,259.273 153.354,259.673 153.714,259.953C154.074,260.233 154.554,260.373 155.154,260.373L160.134,260.373ZM157.164,248.943C156.124,248.943 155.254,249.233 154.554,249.813C153.854,250.393 153.504,251.143 153.504,252.063C153.504,252.983 153.854,253.733 154.554,254.313C155.254,254.893 156.124,255.183 157.164,255.183C158.204,255.183 159.074,254.893 159.774,254.313C160.474,253.733 160.824,252.983 160.824,252.063C160.824,251.143 160.474,250.393 159.774,249.813C159.074,249.233 158.204,248.943 157.164,248.943ZM157.524,266.733C159.044,266.733 160.244,266.488 161.124,265.998C162.004,265.508 162.444,264.913 162.444,264.213C162.444,263.633 162.219,263.193 161.769,262.893C161.319,262.593 160.554,262.443 159.474,262.443L155.454,262.443C154.534,262.443 153.824,262.608 153.324,262.938C152.824,263.268 152.574,263.723 152.574,264.303C152.574,265.063 152.994,265.658 153.834,266.088C154.674,266.518 155.904,266.733 157.524,266.733Z" style="fill-rule:nonzero;stroke:rgb(56,51,42);stroke-width:1px;stroke-linecap:butt;stroke-miterlimit:1.41421;"/>
            <path d="M175.314,246.993C176.034,246.993 176.584,247.093 176.964,247.293L176.484,249.633C176.004,249.373 175.374,249.243 174.594,249.243C173.954,249.243 173.329,249.428 172.719,249.798C172.109,250.168 171.609,250.728 171.219,251.478C170.829,252.228 170.634,253.133 170.634,254.193L170.634,262.293L168.234,262.293L168.234,247.293L170.184,247.293L170.514,249.753C171.354,247.913 172.954,246.993 175.314,246.993Z" style="fill-rule:nonzero;stroke:rgb(56,51,42);stroke-width:1px;stroke-linecap:butt;stroke-miterlimit:1.41421;"/>
            <path d="M192.864,254.013C192.864,254.573 192.824,255.133 192.744,255.693L181.434,255.693C181.574,257.213 182.079,258.393 182.949,259.233C183.819,260.073 184.944,260.493 186.324,260.493C187.424,260.493 188.339,260.303 189.069,259.923C189.799,259.543 190.294,258.993 190.554,258.273L192.564,259.323C191.964,260.383 191.164,261.193 190.164,261.753C189.164,262.313 187.884,262.593 186.324,262.593C184.064,262.593 182.289,261.903 180.999,260.523C179.709,259.143 179.064,257.233 179.064,254.793C179.064,252.353 179.679,250.443 180.909,249.063C182.139,247.683 183.884,246.993 186.144,246.993C187.544,246.993 188.754,247.303 189.774,247.923C190.794,248.543 191.564,249.383 192.084,250.443C192.604,251.503 192.864,252.693 192.864,254.013ZM186.144,249.093C184.824,249.093 183.759,249.483 182.949,250.263C182.139,251.043 181.644,252.143 181.464,253.563L190.554,253.563C190.394,252.163 189.934,251.068 189.174,250.278C188.414,249.488 187.404,249.093 186.144,249.093Z" style="fill-rule:nonzero;stroke:rgb(56,51,42);stroke-width:1px;stroke-linecap:butt;stroke-miterlimit:1.41421;"/>
            <path d="M202.524,262.593C201.084,262.593 199.784,262.308 198.624,261.738C197.464,261.168 196.614,260.323 196.074,259.203L198.024,257.853C198.364,258.733 198.954,259.393 199.794,259.833C200.634,260.273 201.624,260.493 202.764,260.493C203.944,260.493 204.844,260.283 205.464,259.863C206.084,259.443 206.394,258.913 206.394,258.273C206.394,257.693 206.104,257.228 205.524,256.878C204.944,256.528 203.924,256.223 202.464,255.963C201.024,255.703 199.884,255.388 199.044,255.018C198.204,254.648 197.594,254.178 197.214,253.608C196.834,253.038 196.644,252.333 196.644,251.493C196.644,250.673 196.884,249.923 197.364,249.243C197.844,248.563 198.534,248.018 199.434,247.608C200.334,247.198 201.374,246.993 202.554,246.993C204.154,246.993 205.439,247.288 206.409,247.878C207.379,248.468 208.074,249.373 208.494,250.593L206.454,251.793C206.134,250.833 205.649,250.143 204.999,249.723C204.349,249.303 203.534,249.093 202.554,249.093C201.574,249.093 200.744,249.313 200.064,249.753C199.384,250.193 199.044,250.703 199.044,251.283C199.044,251.943 199.339,252.453 199.929,252.813C200.519,253.173 201.574,253.483 203.094,253.743C205.174,254.083 206.644,254.593 207.504,255.273C208.364,255.953 208.794,256.913 208.794,258.153C208.794,259.013 208.539,259.778 208.029,260.448C207.519,261.118 206.789,261.643 205.839,262.023C204.889,262.403 203.784,262.593 202.524,262.593Z" style="fill-rule:nonzero;stroke:rgb(56,51,42);stroke-width:1px;stroke-linecap:butt;stroke-miterlimit:1.41421;"/>
        </g>
        <g transform="matrix(1,0,0,1,-44.7049,3.34531)">
            <rect x="647.705" y="84.427" width="2.4" height="19.8" style="fill-rule:nonzero;stroke:rgb(56,51,42);stroke-width:1px;stroke-linecap:butt;stroke-miterlimit:1.41421;"/>
            <path d="M663.275,88.927C664.975,88.927 666.375,89.417 667.475,90.397C668.575,91.377 669.125,92.787 669.125,94.627L669.125,104.227L666.725,104.227L666.725,95.467C666.725,93.907 666.39,92.777 665.72,92.077C665.05,91.377 664.155,91.027 663.035,91.027C662.235,91.027 661.485,91.202 660.785,91.552C660.085,91.902 659.51,92.472 659.06,93.262C658.61,94.052 658.385,95.047 658.385,96.247L658.385,104.227L655.985,104.227L655.985,89.227L658.085,89.227L658.235,91.567C658.735,90.667 659.425,90.002 660.305,89.572C661.185,89.142 662.175,88.927 663.275,88.927Z" style="fill-rule:nonzero;stroke:rgb(56,51,42);stroke-width:1px;stroke-linecap:butt;stroke-miterlimit:1.41421;"/>
            <path d="M683.525,103.177C682.525,104.077 681.235,104.527 679.655,104.527C678.435,104.527 677.44,104.197 676.67,103.537C675.9,102.877 675.505,101.867 675.485,100.507L675.485,91.297L672.485,91.297L672.485,89.227L675.485,89.227L675.485,85.627L677.885,84.967L677.885,89.227L683.435,89.227L683.435,91.297L677.885,91.297L677.885,100.087C677.885,100.807 678.09,101.352 678.5,101.722C678.91,102.092 679.455,102.277 680.135,102.277C681.095,102.277 681.945,101.907 682.685,101.167L683.525,103.177Z" style="fill-rule:nonzero;stroke:rgb(56,51,42);stroke-width:1px;stroke-linecap:butt;stroke-miterlimit:1.41421;"/>
            <path d="M699.785,95.947C699.785,96.507 699.745,97.067 699.665,97.627L688.355,97.627C688.495,99.147 689,100.327 689.87,101.167C690.74,102.007 691.865,102.427 693.245,102.427C694.345,102.427 695.26,102.237 695.99,101.857C696.72,101.477 697.215,100.927 697.475,100.207L699.485,101.257C698.885,102.317 698.085,103.127 697.085,103.687C696.085,104.247 694.805,104.527 693.245,104.527C690.985,104.527 689.21,103.837 687.92,102.457C686.63,101.077 685.985,99.167 685.985,96.727C685.985,94.287 686.6,92.377 687.83,90.997C689.06,89.617 690.805,88.927 693.065,88.927C694.465,88.927 695.675,89.237 696.695,89.857C697.715,90.477 698.485,91.317 699.005,92.377C699.525,93.437 699.785,94.627 699.785,95.947ZM693.065,91.027C691.745,91.027 690.68,91.417 689.87,92.197C689.06,92.977 688.565,94.077 688.385,95.497L697.475,95.497C697.315,94.097 696.855,93.002 696.095,92.212C695.335,91.422 694.325,91.027 693.065,91.027Z" style="fill-rule:nonzero;stroke:rgb(56,51,42);stroke-width:1px;stroke-linecap:butt;stroke-miterlimit:1.41421;"/>
            <path d="M711.425,88.927C712.145,88.927 712.695,89.027 713.075,89.227L712.595,91.567C712.115,91.307 711.485,91.177 710.705,91.177C710.065,91.177 709.44,91.362 708.83,91.732C708.22,92.102 707.72,92.662 707.33,93.412C706.94,94.162 706.745,95.067 706.745,96.127L706.745,104.227L704.345,104.227L704.345,89.227L706.295,89.227L706.625,91.687C707.465,89.847 709.065,88.927 711.425,88.927Z" style="fill-rule:nonzero;stroke:rgb(56,51,42);stroke-width:1px;stroke-linecap:butt;stroke-miterlimit:1.41421;"/>
            <path d="M723.875,88.927C725.575,88.927 726.975,89.417 728.075,90.397C729.175,91.377 729.725,92.787 729.725,94.627L729.725,104.227L727.325,104.227L727.325,95.467C727.325,93.907 726.99,92.777 726.32,92.077C725.65,91.377 724.755,91.027 723.635,91.027C722.835,91.027 722.085,91.202 721.385,91.552C720.685,91.902 720.11,92.472 719.66,93.262C719.21,94.052 718.985,95.047 718.985,96.247L718.985,104.227L716.585,104.227L716.585,89.227L718.685,89.227L718.835,91.567C719.335,90.667 720.025,90.002 720.905,89.572C721.785,89.142 722.775,88.927 723.875,88.927Z" style="fill-rule:nonzero;stroke:rgb(56,51,42);stroke-width:1px;stroke-linecap:butt;stroke-miterlimit:1.41421;"/>
            <path d="M748.025,95.947C748.025,96.507 747.985,97.067 747.905,97.627L736.595,97.627C736.735,99.147 737.24,100.327 738.11,101.167C738.98,102.007 740.105,102.427 741.485,102.427C742.585,102.427 743.5,102.237 744.23,101.857C744.96,101.477 745.455,100.927 745.715,100.207L747.725,101.257C747.125,102.317 746.325,103.127 745.325,103.687C744.325,104.247 743.045,104.527 741.485,104.527C739.225,104.527 737.45,103.837 736.16,102.457C734.87,101.077 734.225,99.167 734.225,96.727C734.225,94.287 734.84,92.377 736.07,90.997C737.3,89.617 739.045,88.927 741.305,88.927C742.705,88.927 743.915,89.237 744.935,89.857C745.955,90.477 746.725,91.317 747.245,92.377C747.765,93.437 748.025,94.627 748.025,95.947ZM741.305,91.027C739.985,91.027 738.92,91.417 738.11,92.197C737.3,92.977 736.805,94.077 736.625,95.497L745.715,95.497C745.555,94.097 745.095,93.002 744.335,92.212C743.575,91.422 742.565,91.027 741.305,91.027Z" style="fill-rule:nonzero;stroke:rgb(56,51,42);stroke-width:1px;stroke-linecap:butt;stroke-miterlimit:1.41421;"/>
            <path d="M761.315,103.177C760.315,104.077 759.025,104.527 757.445,104.527C756.225,104.527 755.23,104.197 754.46,103.537C753.69,102.877 753.295,101.867 753.275,100.507L753.275,91.297L750.275,91.297L750.275,89.227L753.275,89.227L753.275,85.627L755.675,84.967L755.675,89.227L761.225,89.227L761.225,91.297L755.675,91.297L755.675,100.087C755.675,100.807 755.88,101.352 756.29,101.722C756.7,102.092 757.245,102.277 757.925,102.277C758.885,102.277 759.735,101.907 760.475,101.167L761.315,103.177Z" style="fill-rule:nonzero;stroke:rgb(56,51,42);stroke-width:1px;stroke-linecap:butt;stroke-miterlimit:1.41421;"/>
        </g>
        <g transform="matrix(1,0,0,1,141.767,13.6033)">
            <path d="M408.818,344.861C408.818,347.081 408.223,348.816 407.033,350.066C405.843,351.316 404.198,351.941 402.098,351.941C400.198,351.941 398.728,351.476 397.688,350.546C396.648,349.616 396.128,348.331 396.128,346.691C396.128,346.111 396.178,345.581 396.278,345.101L398.498,344.651C398.418,345.331 398.378,345.811 398.378,346.091C398.378,347.311 398.668,348.216 399.248,348.806C399.828,349.396 400.748,349.691 402.008,349.691C403.648,349.691 404.793,349.251 405.443,348.371C406.093,347.491 406.418,346.121 406.418,344.261L406.418,331.841L408.818,331.841L408.818,344.861Z" style="fill-rule:nonzero;stroke:rgb(56,51,42);stroke-width:1px;stroke-linecap:butt;stroke-miterlimit:1.41421;"/>
            <path d="M427.388,336.641L427.388,351.641L425.288,351.641L425.138,349.361C424.138,351.081 422.348,351.941 419.768,351.941C418.148,351.941 416.823,351.491 415.793,350.591C414.763,349.691 414.248,348.311 414.248,346.451L414.248,336.641L416.648,336.641L416.648,345.821C416.648,347.281 416.948,348.316 417.548,348.926C418.148,349.536 419.028,349.841 420.188,349.841C421.568,349.841 422.713,349.421 423.623,348.581C424.533,347.741 424.988,346.481 424.988,344.801L424.988,336.641L427.388,336.641Z" style="fill-rule:nonzero;stroke:rgb(56,51,42);stroke-width:1px;stroke-linecap:butt;stroke-miterlimit:1.41421;"/>
            <path d="M440.348,336.341C442.448,336.341 444.113,337.036 445.343,338.426C446.573,339.816 447.188,341.721 447.188,344.141C447.188,346.561 446.573,348.466 445.343,349.856C444.113,351.246 442.448,351.941 440.348,351.941C439.248,351.941 438.263,351.701 437.393,351.221C436.523,350.741 435.848,350.101 435.368,349.301L435.368,357.941L432.968,357.941L432.968,336.641L435.068,336.641L435.218,339.251C435.658,338.371 436.333,337.666 437.243,337.136C438.153,336.606 439.188,336.341 440.348,336.341ZM440.078,349.841C441.538,349.841 442.688,349.326 443.528,348.296C444.368,347.266 444.788,345.881 444.788,344.141C444.788,342.401 444.368,341.016 443.528,339.986C442.688,338.956 441.538,338.441 440.078,338.441C438.638,338.441 437.493,338.941 436.643,339.941C435.793,340.941 435.368,342.281 435.368,343.961L435.368,344.321C435.368,346.001 435.793,347.341 436.643,348.341C437.493,349.341 438.638,349.841 440.078,349.841Z" style="fill-rule:nonzero;stroke:rgb(56,51,42);stroke-width:1px;stroke-linecap:butt;stroke-miterlimit:1.41421;"/>
            <path d="M457.118,354.161C456.538,355.601 455.888,356.616 455.168,357.206C454.448,357.796 453.518,358.091 452.378,358.091C451.618,358.091 450.983,357.991 450.473,357.791C449.963,357.591 449.498,357.271 449.078,356.831L449.918,354.791C450.498,355.591 451.308,355.991 452.348,355.991C452.928,355.991 453.443,355.816 453.893,355.466C454.343,355.116 454.738,354.481 455.078,353.561L455.858,351.611L449.588,336.641L452.318,336.641L456.068,346.421L456.998,349.091L458.078,346.121L461.588,336.641L464.168,336.641L457.118,354.161Z" style="fill-rule:nonzero;stroke:rgb(56,51,42);stroke-width:1px;stroke-linecap:butt;stroke-miterlimit:1.41421;"/>
            <path d="M476.648,350.591C475.648,351.491 474.358,351.941 472.778,351.941C471.558,351.941 470.563,351.611 469.793,350.951C469.023,350.291 468.628,349.281 468.608,347.921L468.608,338.711L465.608,338.711L465.608,336.641L468.608,336.641L468.608,333.041L471.008,332.381L471.008,336.641L476.558,336.641L476.558,338.711L471.008,338.711L471.008,347.501C471.008,348.221 471.213,348.766 471.623,349.136C472.033,349.506 472.578,349.691 473.258,349.691C474.218,349.691 475.068,349.321 475.808,348.581L476.648,350.591Z" style="fill-rule:nonzero;stroke:rgb(56,51,42);stroke-width:1px;stroke-linecap:butt;stroke-miterlimit:1.41421;"/>
            <path d="M492.908,343.361C492.908,343.921 492.868,344.481 492.788,345.041L481.478,345.041C481.618,346.561 482.123,347.741 482.993,348.581C483.863,349.421 484.988,349.841 486.368,349.841C487.468,349.841 488.383,349.651 489.113,349.271C489.843,348.891 490.338,348.341 490.598,347.621L492.608,348.671C492.008,349.731 491.208,350.541 490.208,351.101C489.208,351.661 487.928,351.941 486.368,351.941C484.108,351.941 482.333,351.251 481.043,349.871C479.753,348.491 479.108,346.581 479.108,344.141C479.108,341.701 479.723,339.791 480.953,338.411C482.183,337.031 483.928,336.341 486.188,336.341C487.588,336.341 488.798,336.651 489.818,337.271C490.838,337.891 491.608,338.731 492.128,339.791C492.648,340.851 492.908,342.041 492.908,343.361ZM486.188,338.441C484.868,338.441 483.803,338.831 482.993,339.611C482.183,340.391 481.688,341.491 481.508,342.911L490.598,342.911C490.438,341.511 489.978,340.416 489.218,339.626C488.458,338.836 487.448,338.441 486.188,338.441Z" style="fill-rule:nonzero;stroke:rgb(56,51,42);stroke-width:1px;stroke-linecap:butt;stroke-miterlimit:1.41421;"/>
            <path d="M504.548,336.341C505.268,336.341 505.818,336.441 506.198,336.641L505.718,338.981C505.238,338.721 504.608,338.591 503.828,338.591C503.188,338.591 502.563,338.776 501.953,339.146C501.343,339.516 500.843,340.076 500.453,340.826C500.063,341.576 499.868,342.481 499.868,343.541L499.868,351.641L497.468,351.641L497.468,336.641L499.418,336.641L499.748,339.101C500.588,337.261 502.188,336.341 504.548,336.341Z" style="fill-rule:nonzero;stroke:rgb(56,51,42);stroke-width:1px;stroke-linecap:butt;stroke-miterlimit:1.41421;"/>
            <path d="M519.548,353.741L517.298,353.741L526.478,329.741L528.728,329.741L519.548,353.741Z" style="fill-rule:nonzero;stroke:rgb(56,51,42);stroke-width:1px;stroke-linecap:butt;stroke-miterlimit:1.41421;"/>
            <path d="M374.978,381.641L372.008,381.641L366.158,361.841L368.738,361.841L373.508,379.751L378.188,361.841L380.918,361.841L385.598,379.811L390.398,361.841L392.828,361.841L387.008,381.641L384.038,381.641L380.528,368.801L379.508,364.331L379.478,364.331L378.458,368.801L374.978,381.641Z" style="fill-rule:nonzero;stroke:rgb(56,51,42);stroke-width:1px;stroke-linecap:butt;stroke-miterlimit:1.41421;"/>
            <path d="M408.548,373.361C408.548,373.921 408.508,374.481 408.428,375.041L397.118,375.041C397.258,376.561 397.763,377.741 398.633,378.581C399.503,379.421 400.628,379.841 402.008,379.841C403.108,379.841 404.023,379.651 404.753,379.271C405.483,378.891 405.978,378.341 406.238,377.621L408.248,378.671C407.648,379.731 406.848,380.541 405.848,381.101C404.848,381.661 403.568,381.941 402.008,381.941C399.748,381.941 397.973,381.251 396.683,379.871C395.393,378.491 394.748,376.581 394.748,374.141C394.748,371.701 395.363,369.791 396.593,368.411C397.823,367.031 399.568,366.341 401.828,366.341C403.228,366.341 404.438,366.651 405.458,367.271C406.478,367.891 407.248,368.731 407.768,369.791C408.288,370.851 408.548,372.041 408.548,373.361ZM401.828,368.441C400.508,368.441 399.443,368.831 398.633,369.611C397.823,370.391 397.328,371.491 397.148,372.911L406.238,372.911C406.078,371.511 405.618,370.416 404.858,369.626C404.098,368.836 403.088,368.441 401.828,368.441Z" style="fill-rule:nonzero;stroke:rgb(56,51,42);stroke-width:1px;stroke-linecap:butt;stroke-miterlimit:1.41421;"/>
            <path d="M420.488,366.341C422.588,366.341 424.253,367.036 425.483,368.426C426.713,369.816 427.328,371.721 427.328,374.141C427.328,376.561 426.713,378.466 425.483,379.856C424.253,381.246 422.588,381.941 420.488,381.941C419.328,381.941 418.293,381.676 417.383,381.146C416.473,380.616 415.798,379.911 415.358,379.031L415.208,381.641L413.108,381.641L413.108,359.741L415.508,359.741L415.508,368.981C415.988,368.181 416.663,367.541 417.533,367.061C418.403,366.581 419.388,366.341 420.488,366.341ZM420.218,379.841C421.678,379.841 422.828,379.326 423.668,378.296C424.508,377.266 424.928,375.881 424.928,374.141C424.928,372.401 424.508,371.016 423.668,369.986C422.828,368.956 421.678,368.441 420.218,368.441C418.778,368.441 417.633,368.941 416.783,369.941C415.933,370.941 415.508,372.281 415.508,373.961L415.508,374.321C415.508,376.001 415.933,377.341 416.783,378.341C417.633,379.341 418.778,379.841 420.218,379.841Z" style="fill-rule:nonzero;stroke:rgb(56,51,42);stroke-width:1px;stroke-linecap:butt;stroke-miterlimit:1.41421;"/>
            <path d="M442.688,361.841L449.738,361.841C452.018,361.841 453.713,362.316 454.823,363.266C455.933,364.216 456.488,365.561 456.488,367.301C456.488,368.341 456.193,369.261 455.603,370.061C455.013,370.861 454.198,371.361 453.158,371.561L453.158,371.591C454.318,371.811 455.248,372.341 455.948,373.181C456.648,374.021 456.998,374.991 456.998,376.091C456.998,377.791 456.358,379.141 455.078,380.141C453.798,381.141 452.008,381.641 449.708,381.641L442.688,381.641L442.688,361.841ZM449.768,370.541C451.188,370.541 452.243,370.276 452.933,369.746C453.623,369.216 453.968,368.401 453.968,367.301C453.968,365.161 452.568,364.091 449.768,364.091L445.088,364.091L445.088,370.541L449.768,370.541ZM450.278,379.391C451.678,379.391 452.728,379.106 453.428,378.536C454.128,377.966 454.478,377.151 454.478,376.091C454.478,375.031 454.128,374.216 453.428,373.646C452.728,373.076 451.678,372.791 450.278,372.791L445.088,372.791L445.088,379.391L450.278,379.391Z" style="fill-rule:nonzero;stroke:rgb(56,51,42);stroke-width:1px;stroke-linecap:butt;stroke-miterlimit:1.41421;"/>
            <path d="M468.908,366.341C469.628,366.341 470.178,366.441 470.558,366.641L470.078,368.981C469.598,368.721 468.968,368.591 468.188,368.591C467.548,368.591 466.923,368.776 466.313,369.146C465.703,369.516 465.203,370.076 464.813,370.826C464.423,371.576 464.228,372.481 464.228,373.541L464.228,381.641L461.828,381.641L461.828,366.641L463.778,366.641L464.108,369.101C464.948,367.261 466.548,366.341 468.908,366.341Z" style="fill-rule:nonzero;stroke:rgb(56,51,42);stroke-width:1px;stroke-linecap:butt;stroke-miterlimit:1.41421;"/>
            <path d="M479.918,366.341C482.178,366.341 483.953,367.031 485.243,368.411C486.533,369.791 487.178,371.701 487.178,374.141C487.178,376.581 486.533,378.491 485.243,379.871C483.953,381.251 482.178,381.941 479.918,381.941C477.658,381.941 475.883,381.251 474.593,379.871C473.303,378.491 472.658,376.581 472.658,374.141C472.658,371.701 473.303,369.791 474.593,368.411C475.883,367.031 477.658,366.341 479.918,366.341ZM479.918,368.411C478.398,368.411 477.208,368.921 476.348,369.941C475.488,370.961 475.058,372.361 475.058,374.141C475.058,375.921 475.488,377.321 476.348,378.341C477.208,379.361 478.398,379.871 479.918,379.871C481.438,379.871 482.628,379.361 483.488,378.341C484.348,377.321 484.778,375.921 484.778,374.141C484.778,372.361 484.348,370.961 483.488,369.941C482.628,368.921 481.438,368.411 479.918,368.411Z" style="fill-rule:nonzero;stroke:rgb(56,51,42);stroke-width:1px;stroke-linecap:butt;stroke-miterlimit:1.41421;"/>
            <path d="M513.128,366.641L507.908,381.641L505.508,381.641L501.278,369.701L497.288,381.641L494.888,381.641L489.668,366.641L492.338,366.641L496.118,378.851L500.198,366.641L502.598,366.641L506.678,378.851L510.458,366.641L513.128,366.641Z" style="fill-rule:nonzero;stroke:rgb(56,51,42);stroke-width:1px;stroke-linecap:butt;stroke-miterlimit:1.41421;"/>
            <path d="M521.798,381.941C520.358,381.941 519.058,381.656 517.898,381.086C516.738,380.516 515.888,379.671 515.348,378.551L517.298,377.201C517.638,378.081 518.228,378.741 519.068,379.181C519.908,379.621 520.898,379.841 522.038,379.841C523.218,379.841 524.118,379.631 524.738,379.211C525.358,378.791 525.668,378.261 525.668,377.621C525.668,377.041 525.378,376.576 524.798,376.226C524.218,375.876 523.198,375.571 521.738,375.311C520.298,375.051 519.158,374.736 518.318,374.366C517.478,373.996 516.868,373.526 516.488,372.956C516.108,372.386 515.918,371.681 515.918,370.841C515.918,370.021 516.158,369.271 516.638,368.591C517.118,367.911 517.808,367.366 518.708,366.956C519.608,366.546 520.648,366.341 521.828,366.341C523.428,366.341 524.713,366.636 525.683,367.226C526.653,367.816 527.348,368.721 527.768,369.941L525.728,371.141C525.408,370.181 524.923,369.491 524.273,369.071C523.623,368.651 522.808,368.441 521.828,368.441C520.848,368.441 520.018,368.661 519.338,369.101C518.658,369.541 518.318,370.051 518.318,370.631C518.318,371.291 518.613,371.801 519.203,372.161C519.793,372.521 520.848,372.831 522.368,373.091C524.448,373.431 525.918,373.941 526.778,374.621C527.638,375.301 528.068,376.261 528.068,377.501C528.068,378.361 527.813,379.126 527.303,379.796C526.793,380.466 526.063,380.991 525.113,381.371C524.163,381.751 523.058,381.941 521.798,381.941Z" style="fill-rule:nonzero;stroke:rgb(56,51,42);stroke-width:1px;stroke-linecap:butt;stroke-miterlimit:1.41421;"/>
            <path d="M545.378,373.361C545.378,373.921 545.338,374.481 545.258,375.041L533.948,375.041C534.088,376.561 534.593,377.741 535.463,378.581C536.333,379.421 537.458,379.841 538.838,379.841C539.938,379.841 540.853,379.651 541.583,379.271C542.313,378.891 542.808,378.341 543.068,377.621L545.078,378.671C544.478,379.731 543.678,380.541 542.678,381.101C541.678,381.661 540.398,381.941 538.838,381.941C536.578,381.941 534.803,381.251 533.513,379.871C532.223,378.491 531.578,376.581 531.578,374.141C531.578,371.701 532.193,369.791 533.423,368.411C534.653,367.031 536.398,366.341 538.658,366.341C540.058,366.341 541.268,366.651 542.288,367.271C543.308,367.891 544.078,368.731 544.598,369.791C545.118,370.851 545.378,372.041 545.378,373.361ZM538.658,368.441C537.338,368.441 536.273,368.831 535.463,369.611C534.653,370.391 534.158,371.491 533.978,372.911L543.068,372.911C542.908,371.511 542.448,370.416 541.688,369.626C540.928,368.836 539.918,368.441 538.658,368.441Z" style="fill-rule:nonzero;stroke:rgb(56,51,42);stroke-width:1px;stroke-linecap:butt;stroke-miterlimit:1.41421;"/>
            <path d="M557.018,366.341C557.738,366.341 558.288,366.441 558.668,366.641L558.188,368.981C557.708,368.721 557.078,368.591 556.298,368.591C555.658,368.591 555.033,368.776 554.423,369.146C553.813,369.516 553.313,370.076 552.923,370.826C552.533,371.576 552.338,372.481 552.338,373.541L552.338,381.641L549.938,381.641L549.938,366.641L551.888,366.641L552.218,369.101C553.058,367.261 554.658,366.341 557.018,366.341Z" style="fill-rule:nonzero;stroke:rgb(56,51,42);stroke-width:1px;stroke-linecap:butt;stroke-miterlimit:1.41421;"/>
        </g>
        <g transform="matrix(1,0,0,1,-52.5827,-171.34)">
            <path d="M340.045,475.662C343.585,475.662 346.135,477.062 347.695,479.862L345.625,481.542C345.025,480.222 344.31,479.287 343.48,478.737C342.65,478.187 341.515,477.912 340.075,477.912C338.555,477.912 337.36,478.227 336.49,478.857C335.62,479.487 335.185,480.292 335.185,481.272C335.185,481.912 335.355,482.442 335.695,482.862C336.035,483.282 336.6,483.647 337.39,483.957C338.18,484.267 339.275,484.542 340.675,484.782C343.295,485.222 345.15,485.882 346.24,486.762C347.33,487.642 347.875,488.862 347.875,490.422C347.875,491.542 347.56,492.527 346.93,493.377C346.3,494.227 345.405,494.887 344.245,495.357C343.085,495.827 341.745,496.062 340.225,496.062C338.225,496.062 336.52,495.672 335.11,494.892C333.7,494.112 332.625,493.072 331.885,491.772L333.955,490.092C334.495,491.272 335.29,492.187 336.34,492.837C337.39,493.487 338.705,493.812 340.285,493.812C341.845,493.812 343.085,493.527 344.005,492.957C344.925,492.387 345.385,491.582 345.385,490.542C345.385,489.662 344.985,488.962 344.185,488.442C343.385,487.922 341.965,487.482 339.925,487.122C337.285,486.662 335.415,486.002 334.315,485.142C333.215,484.282 332.665,483.082 332.665,481.542C332.665,480.482 332.965,479.502 333.565,478.602C334.165,477.702 335.025,476.987 336.145,476.457C337.265,475.927 338.565,475.662 340.045,475.662Z" style="fill-rule:nonzero;stroke:rgb(56,51,42);stroke-width:1px;stroke-linecap:butt;stroke-miterlimit:1.41421;"/>
            <path d="M365.305,480.762L365.305,495.762L363.205,495.762L363.055,493.482C362.055,495.202 360.265,496.062 357.685,496.062C356.065,496.062 354.74,495.612 353.71,494.712C352.68,493.812 352.165,492.432 352.165,490.572L352.165,480.762L354.565,480.762L354.565,489.942C354.565,491.402 354.865,492.437 355.465,493.047C356.065,493.657 356.945,493.962 358.105,493.962C359.485,493.962 360.63,493.542 361.54,492.702C362.45,491.862 362.905,490.602 362.905,488.922L362.905,480.762L365.305,480.762Z" style="fill-rule:nonzero;stroke:rgb(56,51,42);stroke-width:1px;stroke-linecap:butt;stroke-miterlimit:1.41421;"/>
            <path d="M378.265,480.462C380.365,480.462 382.03,481.157 383.26,482.547C384.49,483.937 385.105,485.842 385.105,488.262C385.105,490.682 384.49,492.587 383.26,493.977C382.03,495.367 380.365,496.062 378.265,496.062C377.165,496.062 376.18,495.822 375.31,495.342C374.44,494.862 373.765,494.222 373.285,493.422L373.285,502.062L370.885,502.062L370.885,480.762L372.985,480.762L373.135,483.372C373.575,482.492 374.25,481.787 375.16,481.257C376.07,480.727 377.105,480.462 378.265,480.462ZM377.995,493.962C379.455,493.962 380.605,493.447 381.445,492.417C382.285,491.387 382.705,490.002 382.705,488.262C382.705,486.522 382.285,485.137 381.445,484.107C380.605,483.077 379.455,482.562 377.995,482.562C376.555,482.562 375.41,483.062 374.56,484.062C373.71,485.062 373.285,486.402 373.285,488.082L373.285,488.442C373.285,490.122 373.71,491.462 374.56,492.462C375.41,493.462 376.555,493.962 377.995,493.962Z" style="fill-rule:nonzero;stroke:rgb(56,51,42);stroke-width:1px;stroke-linecap:butt;stroke-miterlimit:1.41421;"/>
            <path d="M402.655,487.482C402.655,488.042 402.615,488.602 402.535,489.162L391.225,489.162C391.365,490.682 391.87,491.862 392.74,492.702C393.61,493.542 394.735,493.962 396.115,493.962C397.215,493.962 398.13,493.772 398.86,493.392C399.59,493.012 400.085,492.462 400.345,491.742L402.355,492.792C401.755,493.852 400.955,494.662 399.955,495.222C398.955,495.782 397.675,496.062 396.115,496.062C393.855,496.062 392.08,495.372 390.79,493.992C389.5,492.612 388.855,490.702 388.855,488.262C388.855,485.822 389.47,483.912 390.7,482.532C391.93,481.152 393.675,480.462 395.935,480.462C397.335,480.462 398.545,480.772 399.565,481.392C400.585,482.012 401.355,482.852 401.875,483.912C402.395,484.972 402.655,486.162 402.655,487.482ZM395.935,482.562C394.615,482.562 393.55,482.952 392.74,483.732C391.93,484.512 391.435,485.612 391.255,487.032L400.345,487.032C400.185,485.632 399.725,484.537 398.965,483.747C398.205,482.957 397.195,482.562 395.935,482.562Z" style="fill-rule:nonzero;stroke:rgb(56,51,42);stroke-width:1px;stroke-linecap:butt;stroke-miterlimit:1.41421;"/>
            <path d="M414.295,480.462C415.015,480.462 415.565,480.562 415.945,480.762L415.465,483.102C414.985,482.842 414.355,482.712 413.575,482.712C412.935,482.712 412.31,482.897 411.7,483.267C411.09,483.637 410.59,484.197 410.2,484.947C409.81,485.697 409.615,486.602 409.615,487.662L409.615,495.762L407.215,495.762L407.215,480.762L409.165,480.762L409.495,483.222C410.335,481.382 411.935,480.462 414.295,480.462Z" style="fill-rule:nonzero;stroke:rgb(56,51,42);stroke-width:1px;stroke-linecap:butt;stroke-miterlimit:1.41421;"/>
            <path d="M423.925,496.062C422.485,496.062 421.185,495.777 420.025,495.207C418.865,494.637 418.015,493.792 417.475,492.672L419.425,491.322C419.765,492.202 420.355,492.862 421.195,493.302C422.035,493.742 423.025,493.962 424.165,493.962C425.345,493.962 426.245,493.752 426.865,493.332C427.485,492.912 427.795,492.382 427.795,491.742C427.795,491.162 427.505,490.697 426.925,490.347C426.345,489.997 425.325,489.692 423.865,489.432C422.425,489.172 421.285,488.857 420.445,488.487C419.605,488.117 418.995,487.647 418.615,487.077C418.235,486.507 418.045,485.802 418.045,484.962C418.045,484.142 418.285,483.392 418.765,482.712C419.245,482.032 419.935,481.487 420.835,481.077C421.735,480.667 422.775,480.462 423.955,480.462C425.555,480.462 426.84,480.757 427.81,481.347C428.78,481.937 429.475,482.842 429.895,484.062L427.855,485.262C427.535,484.302 427.05,483.612 426.4,483.192C425.75,482.772 424.935,482.562 423.955,482.562C422.975,482.562 422.145,482.782 421.465,483.222C420.785,483.662 420.445,484.172 420.445,484.752C420.445,485.412 420.74,485.922 421.33,486.282C421.92,486.642 422.975,486.952 424.495,487.212C426.575,487.552 428.045,488.062 428.905,488.742C429.765,489.422 430.195,490.382 430.195,491.622C430.195,492.482 429.94,493.247 429.43,493.917C428.92,494.587 428.19,495.112 427.24,495.492C426.29,495.872 425.185,496.062 423.925,496.062Z" style="fill-rule:nonzero;stroke:rgb(56,51,42);stroke-width:1px;stroke-linecap:butt;stroke-miterlimit:1.41421;"/>
            <path d="M447.505,487.482C447.505,488.042 447.465,488.602 447.385,489.162L436.075,489.162C436.215,490.682 436.72,491.862 437.59,492.702C438.46,493.542 439.585,493.962 440.965,493.962C442.065,493.962 442.98,493.772 443.71,493.392C444.44,493.012 444.935,492.462 445.195,491.742L447.205,492.792C446.605,493.852 445.805,494.662 444.805,495.222C443.805,495.782 442.525,496.062 440.965,496.062C438.705,496.062 436.93,495.372 435.64,493.992C434.35,492.612 433.705,490.702 433.705,488.262C433.705,485.822 434.32,483.912 435.55,482.532C436.78,481.152 438.525,480.462 440.785,480.462C442.185,480.462 443.395,480.772 444.415,481.392C445.435,482.012 446.205,482.852 446.725,483.912C447.245,484.972 447.505,486.162 447.505,487.482ZM440.785,482.562C439.465,482.562 438.4,482.952 437.59,483.732C436.78,484.512 436.285,485.612 436.105,487.032L445.195,487.032C445.035,485.632 444.575,484.537 443.815,483.747C443.055,482.957 442.045,482.562 440.785,482.562Z" style="fill-rule:nonzero;stroke:rgb(56,51,42);stroke-width:1px;stroke-linecap:butt;stroke-miterlimit:1.41421;"/>
            <path d="M460.795,494.712C459.795,495.612 458.505,496.062 456.925,496.062C455.705,496.062 454.71,495.732 453.94,495.072C453.17,494.412 452.775,493.402 452.755,492.042L452.755,482.832L449.755,482.832L449.755,480.762L452.755,480.762L452.755,477.162L455.155,476.502L455.155,480.762L460.705,480.762L460.705,482.832L455.155,482.832L455.155,491.622C455.155,492.342 455.36,492.887 455.77,493.257C456.18,493.627 456.725,493.812 457.405,493.812C458.365,493.812 459.215,493.442 459.955,492.702L460.795,494.712Z" style="fill-rule:nonzero;stroke:rgb(56,51,42);stroke-width:1px;stroke-linecap:butt;stroke-miterlimit:1.41421;"/>
        </g>
        <path d="M428.669,308.783C428.669,307.492 440.742,305.288 442.121,305.026C457.571,302.084 472.013,295.604 487.342,292.269C492.784,291.085 498.321,290.417 503.787,289.359C506.309,288.87 513.718,286.765 511.295,287.617" style="fill:none;stroke:rgb(56,51,42);stroke-width:6px;"/>
        <path d="M495.774,279.888C498.665,278.968 501.659,283.988 503.558,285.494C508.775,289.628 514.255,288.296 510.016,294.222C506.903,298.575 503.718,302.854 500.928,307.427" style="fill:none;stroke:rgb(56,51,42);stroke-width:6px;"/>
        <path d="M430.997,307.931C428.324,311.333 435.589,297.267 436.542,295.562C437.174,294.429 439.634,292.155 438.338,292.11C438.248,292.107 436.004,296.488 434.194,299.759C433.65,300.741 428.61,308.453 429.787,309.557C431.717,311.368 444.685,310.369 448.291,310.978" style="fill:none;stroke:rgb(56,51,42);stroke-width:6px;"/>
    </g>
</svg>
