<?xml version="1.0" encoding="UTF-8" standalone="no"?>
<!DOCTYPE svg PUBLIC "-//W3C//DTD SVG 1.1//EN" "http://www.w3.org/Graphics/SVG/1.1/DTD/svg11.dtd">
<svg width="100%" height="100%" viewBox="0 0 452 171" version="1.1" xmlns="http://www.w3.org/2000/svg" xmlns:xlink="http://www.w3.org/1999/xlink" xml:space="preserve" xmlns:serif="http://www.serif.com/" style="fill-rule:evenodd;clip-rule:evenodd;stroke-linecap:round;stroke-linejoin:round;stroke-miterlimit:1.5;">
    <g transform="matrix(1,0,0,1,-26.8978,-42.2039)">
        <path d="M39.71,197.822C40.876,196.337 39.565,190.918 39.392,189.371C38.488,181.279 36.893,173.291 35.648,165.249C31.748,140.057 33.421,112.791 35.446,87.507C36.065,79.773 36.37,72.034 36.152,64.277C36.097,62.319 36.693,57.561 35.293,55.917C34.72,55.243 33.658,57.176 33.477,57.481C32.178,59.661 31.196,62.107 30.453,64.527C30.376,64.777 29.544,67.23 30.073,67.346C30.902,67.528 32.476,64.179 32.766,63.655C33.461,62.401 34.104,61.117 34.694,59.81C36.23,56.409 36.901,54.63 39.648,57.331C40.294,57.965 40.931,58.608 41.552,59.266C42.689,60.471 43.862,61.689 44.746,63.098" style="fill:none;stroke:rgb(56,51,42);stroke-width:6px;"/>
        <path d="M41.183,199.13C41.882,198.017 44.773,197.92 45.836,197.729C50.477,196.894 55.163,196.221 59.842,195.648C79.739,193.208 98.991,198.725 118.741,197.439C134.634,196.403 150.727,194.033 166.447,191.481C168.421,191.161 171.81,189.899 173.919,190.423C175.464,190.807 178.248,193.493 179.862,191.925C180.509,191.296 178.298,189.41 178.008,189.106C175.342,186.312 172.6,183.558 169.687,181.02C168.853,180.293 168.001,179.591 167.104,178.943C166.682,178.638 165.406,178.137 165.894,177.957C167.187,177.48 172.634,182.054 173.687,182.732C175.312,183.778 180.623,185.892 181.446,187.819C182.026,189.175 179.174,192.826 178.563,193.803C175.117,199.313 170.815,204.409 166.563,209.319" style="fill:none;stroke:rgb(56,51,42);stroke-width:6px;"/>
        <path d="M52.243,164.178C51.965,163.269 53.132,162.435 53.132,163.927" style="fill:none;stroke:rgb(56,51,42);stroke-width:6px;"/>
        <path d="M68.921,142.371C68.921,143.48 69.435,142.729 69.425,142.763" style="fill:none;stroke:rgb(56,51,42);stroke-width:6px;"/>
        <path d="M83.185,165.566C83.185,165.187 82.279,164.931 82.08,163.921" style="fill:none;stroke:rgb(56,51,42);stroke-width:6px;"/>
        <path d="M92.814,140.69C92.988,140.797 93.559,140.71 93.415,140.564" style="fill:none;stroke:rgb(56,51,42);stroke-width:6px;"/>
        <path d="M109.022,119.549C109.022,118.956 109.014,119.047 109.477,118.771" style="fill:none;stroke:rgb(56,51,42);stroke-width:6px;"/>
        <path d="M124.759,148.709C124.535,148.909 125.151,150.777 124.515,150.324" style="fill:none;stroke:rgb(56,51,42);stroke-width:6px;"/>
        <path d="M135.992,126.074C136.171,126.661 136.771,123.773 136.719,124.384" style="fill:none;stroke:rgb(56,51,42);stroke-width:6px;"/>
        <path d="M140.242,96.601C141.267,94.979 142.479,96.616 141.722,97.846" style="fill:none;stroke:rgb(56,51,42);stroke-width:6px;"/>
        <path d="M165.012,125.355C164.802,125.843 162.255,130.37 163.407,128.988" style="fill:none;stroke:rgb(56,51,42);stroke-width:6px;"/>
        <path d="M167.53,106.403C168.399,106.403 168.94,105.01 169.95,105.395" style="fill:none;stroke:rgb(56,51,42);stroke-width:6px;"/>
        <g transform="matrix(0.99846,0.0554804,-0.0554804,0.99846,-4.28086,-17.1413)">
            <path d="M285.401,63.69C284.796,63.69 286.169,62.752 286.598,62.325C287.536,61.389 288.471,60.451 289.384,59.49C291.947,56.791 294.336,53.93 296.938,51.267C298.295,49.879 301.909,45.728 304.081,45.545C305.368,45.437 307.405,47.619 308.337,48.271C311.758,50.667 315.563,52.488 318.974,54.879" style="fill:none;stroke:rgb(56,51,42);stroke-width:6px;"/>
        </g>
        <g transform="matrix(0.99846,0.0554804,-0.0554804,0.99846,-4.28086,-17.1413)">
            <path d="M304.097,55.149C304.097,51.587 304.278,56.196 304.485,57.658C304.979,61.137 305.453,64.616 305.836,68.109C306.911,77.92 308.216,87.667 309.606,97.436C313.046,121.615 314.251,145.915 317.101,170.143C317.765,175.789 319.061,181.775 318.388,187.483C318.292,188.297 316.773,192.4 317.583,192.898C320.008,194.39 325.923,192.874 328.49,192.636C338.356,191.718 348.145,190.311 357.957,188.961C369.684,187.348 381.507,187.683 393.314,187.288C413.856,186.602 434.269,185.853 454.77,184.368C462.996,183.772 471.227,182.927 479.463,182.487C481.138,182.397 486.726,183.136 488.01,181.921C488.724,181.246 486.104,181.438 485.154,181.184C483.309,180.69 481.547,179.991 479.915,178.993C476.98,177.198 474.59,174.764 471.533,173.136C471.339,173.032 468.67,171.683 468.667,171.69C468.564,171.981 472.73,174.608 473.029,174.816C476.858,177.488 480.568,179.456 485.23,180.118C486.169,180.251 490.094,180.252 490.536,181.452C491.008,182.736 485.536,185.858 484.829,186.386C479.07,190.68 473.376,195.218 468.776,200.762" style="fill:none;stroke:rgb(56,51,42);stroke-width:6px;"/>
        </g>
        <g transform="matrix(0.99846,0.0554804,-0.0554804,0.99846,-4.28086,-17.1413)">
            <path d="M341.294,193.538C341.294,186.967 339.033,179.781 338.328,173.209C337.09,161.655 337.049,150.019 335.91,138.454C334.782,126.995 334.608,115.54 333.563,104.101C332.679,94.416 331.395,84.545 331.067,74.835C331.014,73.257 329.79,66.509 330.891,65.197C332.299,63.519 337.559,63.426 339.494,63.092C342.81,62.52 346.147,62.02 349.514,61.908C350.012,61.892 352.13,61.532 352.515,62.052C353.272,63.074 352.363,67.687 352.402,68.91C352.615,75.453 353.183,81.983 353.788,88.5C356.014,112.46 361.527,136.036 362.244,160.178C362.459,167.385 363.278,174.111 364.053,181.178C364.155,182.102 365.336,186.478 364.608,187.217" style="fill:none;stroke:rgb(56,51,42);stroke-width:6px;"/>
        </g>
        <g transform="matrix(0.99846,0.0554804,-0.0554804,0.99846,-4.28086,-17.1413)">
            <path d="M382.484,187.64C382.484,190.9 382.315,182.063 382.299,181.542C382.149,176.464 381.816,171.38 381.388,166.319C380.236,152.696 377.884,139.446 376.133,125.928C375.955,124.553 373.842,114.161 375.454,113.805C380.711,112.646 387.106,113.493 392.437,113.825C393.27,113.877 397.033,113.501 397.753,114.19C398.584,114.986 397.86,118.247 397.847,119.216C397.789,123.822 398.265,128.439 398.837,133.004C400.547,146.655 402.374,160.5 402.478,174.283C402.507,178.129 403.447,182.966 402.738,186.73" style="fill:none;stroke:rgb(56,51,42);stroke-width:6px;"/>
        </g>
        <g transform="matrix(0.99846,0.0554804,-0.0554804,0.99846,-4.28086,-17.1413)">
            <path d="M417.974,184.264C420.212,179.992 413.521,172.43 417.14,167.93C419.845,164.566 423.039,165.201 427.008,165.59C429.339,165.819 433.969,164.709 436.068,166.011C437.014,166.597 436.646,169.421 436.709,170.306C436.985,174.217 438.729,179.049 438.255,182.946" style="fill:none;stroke:rgb(56,51,42);stroke-width:6px;"/>
        </g>
        <g transform="matrix(0.99846,0.0554804,-0.0554804,0.99846,-4.28086,-17.1413)">
            <path d="M447.228,183.301C447.269,183.425 447.159,179.56 447.057,178.896C446.607,175.965 446.208,173.02 445.941,170.066C445.1,160.761 445.015,151.405 444.157,142.095C443.32,133.018 441.24,124.122 440.587,115.029C439.848,104.752 440.553,94.513 439.174,84.257C438.479,79.092 437.618,73.91 436.786,68.764C436.605,67.648 435.48,64.478 436.24,63.449C437.101,62.282 440.827,62.444 442.062,62.277C447.441,61.552 453.137,59.76 458.592,59.834C460.122,59.855 459.131,70.334 459.129,71.456C459.115,83.781 460.337,96.02 460.567,108.333C460.935,128.057 463.48,148.049 462.525,167.75C462.306,172.268 461.906,176.805 461.984,181.332C462.005,182.583 462.822,185.395 462.132,186.521" style="fill:none;stroke:rgb(56,51,42);stroke-width:6px;"/>
        </g>
        <path d="M47.216,182.402C75.169,162.639 102.477,141.674 129.684,120.894C149.411,105.828 169.769,91.674 186.64,73.3" style="fill:none;stroke:rgb(56,51,42);stroke-width:6px;"/>
    </g>
</svg>
