<svg viewBox="0 0 386 82" xmlns="http://www.w3.org/2000/svg" fill-rule="evenodd" clip-rule="evenodd" stroke-linecap="round" stroke-linejoin="round" stroke-miterlimit="1.5"><g fill="none" stroke="#38332a" stroke-width="2"><path d="M4.6 45.3c1.4.8 1.6 5.6 1.6 7.2M5.2 47c-.8 0-1-1.8-2.2-1.3-1.7.8-3 8-.9 7.5 2-.5 1.7-3 2.5-4.1M50.8 46c.1-.2.2 1.5.2 1.7 0 1-.5 4 .6 4.3 1.9.6 4.3-3 4.6-4.6 0-.1 0-2.4-.3-2.3-.2 0 0 2 0 2.3v1.5c.1.8.6 2.3.3 3.1M58.8 52a3 3 0 0 0 1.1 0c.9 0 1.7-.6 1.8-1.5.4-2.5-2.5-1.9-3-3.4-.6-1.7 2.7-1.5 3.5-1M70 52.2c0 .6-2.2.4-2.5.4-1.9-.5-3.6-3-2.6-5 .8-1.6 2.8-3.1 4-1 0 .2 1.1 2.5 1 2.6-1 1.2-3.6-.3-4.7.6M72.7 53c.2.1.2-1.6.2-1.7V47c0-.2-.2-1.2 0-1.3v.6c0 .2 0 1.7.3 1.7.2 0 .7-.7.8-.9 1-1 2.3-2.8 3.2-.9l.2 1-.2 1.2M82.7 52c-.2.2-.6-.2-.7-.4M108.3 43.5c0 2.8-.5 5.6-.4 8.5"/><path d="M108 45c0-1.1 3.6-3.2 4.1-1.5.4 1.4-1.5 3-2.4 3.8-.4.4-1.7.6-1.4 1l1.2-.2c.8-.2 1.6-.2 2.3.1 1 .5 3.9 3.8 3 5M116.4 44.8c.3 0-.2-.5-.4-.5s-.9.2-.7 0c.7-1 3.8-1.2 5-1.4M118.7 44.8c-.3-.3-.5 2.2-.5 2.3L118 52M123.8 53.1c.4.3.2-1.8.2-2.1-.5-2.1 0-4.3 0-6.4.1-.5-.5-1.4-.5-1.8 0-.5 2.8 0 3.2.1h1.6M124.4 47.5a12 12 0 0 1 2.3-.5M129.8 44.7c.2-.2 0 .7-.2 1l-.5 1.8c-.4 1.7-1.2 3.9-.7 5.7"/><path d="M129.4 46.4c.9-1 1.5 3.2 2.6 2.8 1.4-.5 2.5-3.6 3.3-4.8 0 0 1-1.5.7-1.6l-.7 1.8a92.2 92.2 0 0 0-1.2 3.6 10 10 0 0 0-.4 3.6M141.7 42.8c0 .2-.7.1-.8.1-.5 0-1 .3-1.3.7a8.2 8.2 0 0 0-2.5 4.3c-.5 2.8.7 8 4.6 6.2M145.2 42.7c0 .9 1.9 1 2.2 1.9 1.4 3 1.4 8.8-2.1 10.2M158.9 45c1.3 0 2.4-2.3 3.8-2 .5.1 0 1.4-.2 1.6-.6 1.1-1.7 2-2.2 3-.3.6 0 1.5-.3 1.9M160 53.2c.1 0 .8-.5 1-.2M173.7 45.8c-.8 0-.9 1-.9 1.6 0 1.2 0 3.8 1.6 4.1 1.8.4 2.9-3 2.8-4.2 0-.2-.5-1.6-.3-1.8.2-.1.2.5.3.8l.4 1.5c0 .6.2 1.2.3 1.7 0 .8.3 1.9 0 2.7M181 51.8c.7 0 1.4.3 2.2.2.5 0 1-.2 1.4-.4 4.5-2.1-3-2-3.9-3.5-1.6-2.8 3.1-2.7 4.5-1.7M192.5 51.7c-.1-.3-1 .4-1.2.4-1 .1-3 .4-3.6-.5-1.5-2.1.7-7.4 3.7-6.2.6.2 1.8 3.1 1.1 3.4-1.2.5-3-.4-4.3.1M195.5 52.9c0-1.8-.3-3.3 0-5.1V46l-.2-.8c.3.5-.2 1.7.3 2 .3.2 1.5-1.8 1.7-2 2-2.4 2.4.8 2.2 2.4M205.3 51.8c0-.1-.6-.5-.8-.5M209.6 43c0 2.1-1 4-.6 6.2l.4 2.4v1.2c-.3-.2 0-1.7.1-2 .2-1.2 1-4.8 3-4.8.6 0 .6 1.5.6 2 .1 2.5-.8 2.8-2.6 4M220.6 52.6c-3 0-6-5.8-2.5-7.2 1.3-.5 2.2 1.2 2.6 2 .1.2.7 1.2.5 1.3-1 .7-3.2-.3-4 .5M224.8 52.4c-.7-1.3-.1-4.3-.2-5.7 0-.4.2-1.5 0-1.8-.2-.2 0 .5 0 .8l.1 1.7c.3 0 1.1-1.3 1.3-1.5.2-.2 2.4-1 2.6-.5 0 .4-.5 1.4-.6 1.9M235 48c-1.3-4.2-5.8.3-4.4 3 .3.7 1 .3 1.4 0 1.1-.8 1.8-2 2.4-3.2l1-2.1c.2 0-.2 2.2-.3 2.5 0 1.7.4 3.1 1.1 4.6M239.7 44.2c0 2.2-.8 4.6-.2 6.9.6 2.3 3 1.4 4.1 0M238.3 48.3c0-.4 3.4-1 4-1.2M249.6 51.1l-.4.5h-1.3c-1-.2-2.7-1.7-2.6-2.8 0-.6.4-1 .8-1.5 1-1.4 2.5-2 3.8-.6.2.3 1 1.7.3 2-1.4.5-3-.8-4.4 0M256.6 43.6c-3.2 0-5.2 5-3.6 7.5 1 1.7 2.9 1 4.4 1.3M260.9 54.4l.6-.4 1.5-.8a5.5 5.5 0 0 0 2.4-4c.4-4-3-7.9-7-7.4M276.7 45.8s0 .4-.2.5M277.6 52.4c0-.5-1 0-1.1.5 0 0 .4.4.4-.3M288.6 46.9c.3-.1.3 1.4.3 1.4 0 .7-.4 4.4 1 4.4 1.5-.1 2-4.6 2.2-5.7l.2-1.7v-.7 1.7l.1 1.3v2.2l.5 3.3M295.5 52c.2-.3 1.3-.2 1.7-.3 1.1-.2 3-.7 3.6-1.9 1-1.8-4-1.4-4.5-3-.7-1.9 2.1-1.5 3.1-1.2M307.2 52.7c-3.3 0-6.3-5.8-2.3-7.3 1.6-.6 3.1 3.4 2.2 3.7-1.2.4-3-.8-4-.1M310.6 53.2c.2-.2 0-1.7 0-2 .3-2 1-4.8.4-6.7v.8l-.1 1.8c.4 0 1.2-.7 1.5-1l.9-.5c1.3-.8.5.5 1 2M319.3 52c0-.3.5-.9.7-1M324.8 46.2c-1.7 0 1.4-1 1.7-.4.7 1.8-.3 5-.4 7M327 44c0-.2-.2-.3-.3-.5M336.7 46c0-.4-.4.5-.5.8l-.4 1.8c-.3 1.7.5 4-.2 5.5-.8 1.9-3.6-1.5-4.8-.7"/><path d="M336.8 46.7c-1.4-3.5-5 .2-5 2.5-.1.7 0 2 .7 2.2 1 .3 1.7-.7 2.6-.8M338.7 52v-.6l.2-1c.2-1.2.2-2.5.2-3.7v-1.3c0-.2.2-.8 0-.6v2.3c0 2.8 2.2-2.7 3.7-1 1.3 1.3.5 4.9.8 6.6M350 46.8c0-.6-1.7-.6-2-.5-1.5.6-3.8 4.2-2 5.4 2 1.3 5.3-1.6 5.6-3.6.2-1.4-.4-2.9-2-2.5M354 52.6l-.2-.6v-5.3c0-.1 0-1-.2-1-.4-.1-.7 2.8-.1 3 1.2.1 5.2-5.9 4.3-1.4M365.6 52.2c-2.6 0-8.4-3.4-4.5-6.1.8-.6 2.3-1.3 3.2-.6.4.3 1.3 2.5.7 3-.9.6-3.2-1-4.4-.6M372 43.4c-1.7 1-3.5.1-4.7 2.4-.8 1.4-1.3 3.3-.8 4.8.6 2 4.3 4.3 6.4 3.9M374.7 54.5l.6-.2 1.1-.4c1.2-.6 2.1-1.5 2.4-2.7.5-2.7-.4-5.1-1.9-7.3-.3-.4-1.4-2.2-2.1-1.6M382.7 47.3l.9-.5M383.5 52c-.2-.2.7-.5.8 0 .2.7 0 1.7-.4 2.3M30.3 45.5l-.1 4.4-.2 1.5-.2.7c.2 0 .3-.7.3-.8"/><path d="M30.1 47.7c.5-.8 1.5-1.3 2.3-1.7.2-.1.6-.5.8-.4.4.3.4 1.6.4 2M7.4 51c1.4 0 2.7.7 4.1 0 .5-.3 1.4-1.2.7-1.7-.4-.3-1 0-1.4 0-.9 0-1.8.1-2.5-.4l-.6-.6c-.5-.7-.5-1.6.4-2 1-.5 2.3-.6 3.4-.4M19.1 45.8h-1.3c-.8.2-1.5.6-2.2 1-.2.2-.6.3-.7.6 0 .6 1 .8 1.4 1 1.2.3 3.4.5 3.3 2.2 0 1.8-2.2 1.4-3.4 1.3-.5 0-1.4 0-1.9-.4M26.6 51.2c-.2.4-.7.4-1 .5-1 .2-2.4.4-3.2-.2-1.6-1.4-.1-4.8 1.5-5.6 1.1-.5 2 1.3 2.5 2 0 .2.5.9.4 1l-1.5-.2c-.9 0-1.8.3-2.7.4M37.7 43.4v2.2c-.1 1.7-.1 4.2.9 5.8.6 1 2.7 1 2.9-.4"/><path d="M35.7 46.7c0-.2.4.1.6.2h1c1.1-.2 2.3-.6 3.4-.6M108.3 60.8c1-1.4 5.3-1.9 6.7-2.2 6.2-1.5 12.4-2.7 18.7-3.5M115.9 68.4c-1.2-.9 1.5-2.1 2-2.3 3-1.3 6.4-2.2 9.5-3.3M120.6 74.5c.7-.5 1.4-.8 2.2-1.2M149.5 34.5c.7.4 1-1.2 1.6-1.7 1.3-1.2 3.4-3 5.3-2.2 3.5 1.6-1.8 4.2-.3 6.1M158.3 41.6l.2-.4M164 29.1c1.7-1 10.5-4 9 .8-.7 1.9-2.6 2.2-4 3.4M167.7 34c.3-.2 1 1.4 1 1.6M169.3 42v-.2M161 63.3c-.4.4.5-1 1.5-1.4 1.4-.5 3.4-.5 4 1 1 2 .3 6-2 6.8-.5 0-2-1-2-.9-.3.4.9 3 1 3.5M166 80.3c-.2 0-.2-.4-.2-.5M213 40.6c-.2 1-1.5-1.3-1.5-1.4a8.4 8.4 0 0 1-.5-5c.9-4 5.4-12.8 10.4-13 1.5 0 .3 4.7.5 5.9.1.3.4 2 1 1.8 3.5-1.1 3-7.5 2.4-10l-1.1-3.1c-.1-.1-.8-1.5-.6-1.5 2.4-.6 6.4 5 7.3 6.7l1 2.5c0 .1.1 1.4.2 1.3 3-2.2 1.4-9 0-11.4-.3-.4-3.3-4.8-2.8-4.8 5.6-.3 10.3 6.4 11.2 11.2.1.5-.2 5.9 0 6 .3.2 1.3-1 1.5-1.1 1.3-1.5 2-3.5 2.2-5.5 0-.2.2-3 .3-2.9 1 .7 1.8 2.6 2.5 3.6 1.1 1.9 2.7 4 2.7 6.2 0 6.5-9 12.4-14.9 13.3M209 26.7c0 .4-.6-1-.6-1.1 0-1 .2-2 .4-3 .6-2.8 2.6-7 5.7-7.9.3 0-.2 1.7-.3 2-.2 1.6-.7 2.7-.1 4.2M238.6 11.8c-1.2-1.5-2-3.4-3.2-4.9-.8-1-5.3-4.3-5.2-5.6 0-.4 4.9-.3 5.2-.3 4.6.2 8.2 3 9.5 7.3.3 1 .9 3.3 0 4.3-1.3 1.3-5.2-3.1-7.3-2.4"/><path d="M223.5 41.1c-2.2 0-3.1-4.7-3.2-6.2 0-.2-.5-1.7-.4-1.8.5-.6 1.3.9 2.1 1 1.6.4 3.3 0 4.8-.6a5.8 5.8 0 0 0 2.8-2.2l.6-1.9c.9-.2 2.6 1.2 4.2.5.8-.3 1.5-.7 2.2-1.3 0-.1.8-1 1-.9.4.3-.6 4.2-.8 4.8-.3 1.6-1.2 3.1-1.2 4.8 0 1 .8 2 .7 2.8M252.7 32.2c.5.1 1-2.4 1.1-2.6.6-3 .3-6.1-.5-9l-1-3.9c1 0 3 2.6 3.6 3.3 5.1 5.6 2.8 9.2-2.3 13M324.5 26.4c0-.5-.4 1-.5 1.4l-.8 3c-.1.5-.8 1.8-.3 1.6 1.6-1 1.4-5.3 3.7-6.3 5-2 12-1 17.3-1.5 9.6-.6 19-2.9 28.5-3.8"/><path d="M344.4 25.9c0 2-.1 4.3 1.3 5.8 2.8 2.8 9.2.7 10.8-2.5.8-1.6.5-3.6.5-5.4 0-.1 0-1.8-.4-1.6M359.8 23c.7 0 .7 3 1.2 3.7 1 1.5 3.8 1.7 5.5 1.6 2.9-.1 5.6-2 5.8-5 0-.6.2-2.5-.5-2.9"/><path d="M345 26c.3.4 2.2-.5 2.5-.6l1-.4c-.6.4-1.1 1-.3.7l3.1-1 1.6-.6c0 .4-5 2.8-1.3 1.5.3-.2.7-.4 1-.4l-1 .4-2 1c-.3.2-1.2.5-.9.5.6.2 4.2-1.7 4.3-2.3.1-.8-2.5.4-2.3 1.3 0 .3 2.8-1 3.1-.9.5.1-.8.5-1.2.7-.6.3-2.8 1-3 1.6 0 .2.6-.2.5-.1-.4.5-2.4.7-2.5 1.4 0 .6 2.5-.5 1.8-.7-1-.4-3 2-4 1.5-.6-.2 1-.6 1.5-1 .4-.1 4.2-2 4-2.6-.2-.4-2.4.8-2.3 1 .5.6 2.8-1.2 3.6-.8 0 0-2.5 1.7-2.5 2 0 .4 3-1.1 3.2-1 .2.2-.6.3-.8.5-.4.2-2.2 1-2.2 1.5 0 .4 3.3-1 3.6-1a34.5 34.5 0 0 0-2 1c-.1 0-1.2.6-1.2.8.1.3 1.3-.5 1-.4-.2.1-1.9 1-1.7 1.2.2.3 2-.5 2.3-.5 0 0 6.5-1.8 5.7-3.8-.2-.4-2.4 1.6-2 2 0 .1 2-4 .3-4-.4 0-.4.8-.2.7.3 0 .7-1.5.6-1.5-1.3 0-.7 3.5-2 3.7-.4 0-1.2.5-1 1l.5-.5-1.1 1.6c-1.2.4-3 1.6-4.3 1.9-1.5.3-2-2.6-3.1-2.5-.7.1.4 1 .6 0 0-.1.3-.7.2-1-.4-.5-.2 1.8.3 2.2.5.3.7-1.1 1-1.2.3 0 .9 1.5 1.4 1.6M361.5 24.4c-.4-.4.4-1 .8-1 .4.1-.3 1 .9.9.2 0 2-.8 2.2-.6 0 0-1.3 1.2-.8 1.3.7 0 1.7-.6 2.3-1l1-.3c0 1-3.1 2.2-3.5 3.2 0 0 2.6-1.7 2-2-.4-.2-3.8 1.9-3.8 2.4 0 .4.7-.4 1-.6.3-.2 3-2.5 2.8-2.6-.4-.3-1.4.9-1.4.9 1 .2 3-2 3.8-1.5 0 0-1.5 1.7-1 1.8 1.3.4 2.5-2 3.6-2.2.6 0-1 1-1 1.5 0 .4 1.2-.3 1.2-.5.1-.3-.5.3-.7.5l-1.1 1.2M87 51.7V47l-.1-2.3c.2.5-.2 1.8.3 2.1.2.1 2.3-2 3-1.6 1.8 1 .7 5 1.4 6.8M98 46.3c-.6-.5-2.2-.5-2.6-.4-1 .3-2.4 2.8-1.1 4.2.6.7 1.7 1 2.6 1 .7 0 1.5-.2 2-.7 1.3-1.1.3-3.2-.8-4zM102.6 43.9l-.3 1.8c0 1.3.2 2.5.5 3.7l.4 1.6c.4.8 1.6.8 2.2.4"/><path d="M100.5 46.6h2.2c.8.2 1.7.4 2.5.3"/></g></svg>