<?xml version="1.0" encoding="UTF-8" standalone="no"?><!DOCTYPE svg PUBLIC "-//W3C//DTD SVG 1.1//EN" "http://www.w3.org/Graphics/SVG/1.1/DTD/svg11.dtd"><svg width="100%" height="100%" viewBox="0 0 230 230" version="1.1" xmlns="http://www.w3.org/2000/svg" xmlns:xlink="http://www.w3.org/1999/xlink" xml:space="preserve" xmlns:serif="http://www.serif.com/" style="fill-rule:evenodd;clip-rule:evenodd;stroke-linejoin:round;stroke-miterlimit:1.41421;"><path d="M65,50c0,-27.614 22.386,-50 50,-50c27.614,0 50,22.386 50,50c0,27.614 -22.386,50 -50,50c-27.614,0 -50,-22.386 -50,-50Z" style="fill:#8cc9bf;fill-rule:nonzero;"/><path d="M0,180c0,-27.614 22.386,-50 50,-50c27.614,0 50,22.386 50,50c0,27.614 -22.386,50 -50,50c-27.614,0 -50,-22.386 -50,-50Z" style="fill:#38332a;fill-rule:nonzero;"/><path d="M130,180c0,-27.614 22.386,-50 50,-50c27.614,0 50,22.386 50,50c0,27.614 -22.386,50 -50,50c-27.614,0 -50,-22.386 -50,-50Z" style="fill:#38332a;fill-rule:nonzero;"/></svg>