<svg viewBox="0 0 100 100" xmlns="http://www.w3.org/2000/svg" fill-rule="evenodd" clip-rule="evenodd" stroke-linecap="round" stroke-linejoin="round" stroke-miterlimit="1.5"><path d="M22.22 67.91c-.07.02 1.28-1.77 1.5-2.11 1.08-1.63 2.1-3.28 3.23-4.87 3.2-4.5 6.66-8.78 9.79-13.33 4.9-7.14 7.95-15.16 11.86-22.81.87-1.7 1.52-3.59 2.18-5.37.08-.21.4-1.68.67-1.77.02 0 .45.56.48.6.58.62 1.26 1.17 1.95 1.68 2.5 1.85 5.38 3.16 8.2 4.46 2.12 1 4.18 2.2 6.34 3.12.5.22 2.32.29 2.65.68.02.02-.63.63-.66.67-.4.4-.75.85-1.08 1.3-1 1.37-1.85 2.86-2.74 4.3a265.4 265.4 0 0 0-8.02 13.64c-2.43 4.46-4.77 8.95-7.16 13.42-1.4 2.59-3.08 5.04-4.28 7.73-1.06 2.4-1.32 4.35-2.67 6.66-.16.26-.73 1.73-1.02 1.85-.67.28-3.04-.76-3.72-.93-4.14-1.03-7.57-3.81-11.55-5.25-1.66-.6-3.34-1.08-4.97-1.72a2.39 2.39 0 0 1-1.16-1.1c-.03-.05-.38-.83-.19-.73" fill="none" stroke="#38332a" stroke-width="3"/><path d="M20.9 66.8c1.69-.9 1.23 2.13 1.51 3.5a43.4 43.4 0 0 1 .6 14.47c-.02.09-.2.84-.08.87.8.2 2.75-1.68 3.34-2.05 2.81-1.79 5.94-3.15 8.92-4.64 1.28-.64 2.66-1.47 4.1-1.66a20 20 0 0 1 2.1-.19M46.83 32.56c-.57-1.63 2.24.55 2.97.83 2.86 1.08 5.78 2.26 8.69 3.17l1.22.4 1 .3c.31.1 3.96 1.05 2.8 1.64M30.25 67.57c-.23.21.3-.54.43-.81l.86-1.83a80.42 80.42 0 0 1 2.6-4.97c3.26-5.7 7-11.13 10.09-16.92.68-1.28 1.24-2.6 1.87-3.9.1-.2.6-1.13.28-1.25M20.6 25.54c.7 0 .62.71 1.23.71.75 0 1.4-.84 2.1-1.07 1.23-.4 2.68-.42 3.96-.7.85-.18 1.71.02 2.57-.17 1.81-.4 3.83-1.1 5.68-1.1.87 0 1.44.37 2.37.22.48-.07.87.27 1.34.24 1.67-.1 3.5-.14 5.15-.65.42-.13 1.15-.66 1.6-.56.14.03 1.23.34 1.09.22M61.81 23.46c.22-.7.47-.36 1.11-.64 1.7-.74 2.5-.7 4.3-.7 1.35 0 2.16-1.01 3.36-1.37.62-.18 1.16.5 1.74.63.95.21 1.85-.28 2.82.06a9 9 0 0 0 4.22.37c.24-.03 1.18-.02 1.3-.27M21.28 36.72c.89-.78 2.12-.23 3.2-.57 2.32-.72 4.02-.33 6.4-.58 2.04-.21 3.73-.75 5.82-.82 1.77-.06 3.51-.1 5.28-.1.19 0 1.64-.06 1.54-.38M65.7 35.86c.04-.26 2.9-1.04 3.4-1 .76.05 1.42.6 2.16.75.87.16 1.66-.28 2.5-.23.9.04 1.64.68 2.56.69 1.54.02 3.02-.94 4.5-.94M21.3 46.82c-.37-.12.15.5.4.42 1.1-.39 1.87-.37 3.04-.5 2.64-.31 5.17-1.5 7.8-1.1.73.12 3.74.53 4.2-.14M59.94 46.4c0-.57.14.76.97.6.98-.18 1.84-.75 2.87-.8 1.03-.04 1.91.53 2.92.58 1.7.09 2.94-1.29 4.53-1.59.72-.13 1.21.33 1.88.37.79.04 1.5-.52 2.28-.43.91.11 1.73.93 2.67 1.12 1.1.22 2.69.08 3.68.6M22.07 54.71c.5-.32-.16 1.67.32 1.88.63.28 1.88.36 2.57.23.56-.1 1.11-.67 1.7-.4M52.56 60c.84-.8 1.3-.2 2.5-.23.9-.03 1.81-.24 2.73-.3 3-.17 6.04.02 9.05-.17.99-.06 1.88-.55 2.86-.6 1.09-.07 1.85.55 3 .3a9.5 9.5 0 0 1 3.56-.02c.76.16 1.28.68 2.1.7.69 0 1.35-.01 2.03-.09.28-.03 1 .46.74.37M47.1 71.12c.1-.46.44 1.3 1.02 1.56.9.41 3.68-.05 4.66-.1 2.84-.13 6.12-1.41 8.94-1.08.9.1 1.66.81 2.55 1.05 3.16.84 7.76 2.02 10.93.9 1.8-.64 3.68-.56 5.42-1.14.23-.08 1.12.76 1.11.7" fill="none" stroke="#38332a" stroke-width="3"/><path d="M11.06 11.35c0 .32 1.2.02 1.3 0 1.54-.36 3-.56 4.58-.7 3.86-.33 7.75.03 11.6-.37 5.57-.56 11.13-.28 16.7-.43 9.66-.25 19.3-.42 28.94-.86 3.79-.17 7.58-.31 11.37-.42.73-.02 3.3-.26 3.84.35.26.3-.22 1.45-.23 1.83-.05 1.65.16 3.47.36 5.1.36 2.94 1.07 5.7.92 8.71-.28 5.68-1.7 11.09-1.36 16.85.25 4.22-.09 8.38.06 12.6.06 1.84.42 3.57.33 5.43-.17 3.71-1.28 7.16-1.67 10.83-.3 2.94 0 5.96-.2 8.92a30.8 30.8 0 0 0 .5 7.94c.24 1.05 1.16 3.36.5 4.4-.47.76-3.32-.23-4.05-.18-4.66.34-9.37.04-14.03-.2-6.31-.3-12.79-1-19.1-.84-4.27.12-8.41.88-12.65 1.12-4.16.23-8.35 0-12.52-.12-3.78-.1-7.6-.41-11.38-.65-.81-.05-2.83.7-3.4.4-.6-.32.05-2.98.11-3.44.3-2.14 1.37-4.15 1.7-6.31.2-1.31-.05-2.59-.22-3.88-.35-2.83-.79-5.66-.84-8.5-.06-3.53.42-7.05.32-10.59-.02-.94-.55-1.88-.73-2.8-.42-2.22-.7-4.5-.85-6.75-.24-3.6.48-7.45.7-11.05.17-2.8.02-5.62.15-8.42.18-3.88-.19-7.9-.19-11.78 0-1.51.27-3.02.34-4.53.01-.17.2-1.3.07-1.33" fill="none" stroke="#38332a" stroke-width="5"/></svg>