<svg viewBox="0 0 834 125" xmlns="http://www.w3.org/2000/svg" fill-rule="evenodd" clip-rule="evenodd" stroke-linecap="round" stroke-linejoin="round" stroke-miterlimit="1.5">
    <path d="M367.37 61.19c-.76-2.1 45.86-44.42 46.4-44.08 2.37 1.48 51.98 43.68 52.07 44.08.21.94-46.95 44.13-48.74 43.85-2.41-.38-46.06-33.82-49.73-43.85zm362.5-2.59c-.12-.36 7.05-7.45 7.13-7.4.36.25 8 7.33 8 7.4.04.15-7.21 7.4-7.49 7.35-.37-.07-7.08-5.67-7.64-7.36zm69.49 1.75h1.02m-714.33-.08c-.1-.45 9.2-8.62 9.3-8.54.4.35 8.6 10.1 8.61 10.2.02.2-9.4 8.54-9.72 8.45-.43-.12-7.72-7.92-8.19-10.1zM25.7 62.26c-.38.2-1.2-.18-1.5.07-.35.27.19.73.58.34m299.45-19.82c-12.64 14.99-17.77 14.18-41.88 17.27-39.4 5.04-102.12 2.12-118.05 2.12m115.49-2.12c8.14 0 40.93.06 44.44 24.57M501.6 42.85c5.26 14.24 22.43 15.14 35.25 16.16 31.4 2.5 142.29 1.34 138.66 1.34M536.85 59c-6.7.9-31.2 14.06-35.24 26.24" fill="none" stroke="#38332a" stroke-width="20.83"/>
</svg>
