<svg viewBox="0 0 262 6" xmlns="http://www.w3.org/2000/svg" fill-rule="evenodd" clip-rule="evenodd" stroke-linecap="round" stroke-linejoin="round" stroke-miterlimit="1.5"><path d="M128.2 1.1c-1.3 1.6-.5 2.6-.3 2m131.6.5c.8-.5-.6.7-1 .4-.3-.1.7-.4.5-.4M2.1 1.7c1 0 .4.2.3.4m59 .9c-.5.2 1.5-.7 1-.3m131.7-.6c0 .8-1.8 1.5-1.3 2.1.5.6 1.2-1.8 1.2-.5 0 .8-2.2 1.3-2.2.5" fill="none" stroke="#fff" stroke-width="2"/><path d="M61.7 1.4c-.7.8.6.3.7.5.2.4-.6 1.6-.8 1.2 0-.2.5 0 .3 0m67-1.1c-.3-.8-1 1.2-1.2.3 0-.6 1.2-.5 1.3-.1 0 0-1.1.5-1.1.8M2.7 2.3c-.4.1.3 1 0 1.1-.3.2 0-1.2.3-1.2.4 0-.2.8-.4.3 0-.3 0-.8.5-.9v.5c0-.3.3-.8-.1-1-.2-.2-.3.4-.5.6-.2 0-.5-.2-.4-.4 0 0 .8.3.5.7-.3.3-.5-.3-.5-.3-.2 0 0 .5-.1.6-.2.2-1.2.4-.8.9.3.3.9-.9.9-.9L1.8 2s-1 .7-.7.7c.2 0 .3-.6.4-.7m258.9 1.5c.5-.3-.2.3-.5.2-.2-.2-.2-.7.1-.7.5 0 0 1.4-.3 1.3-.2-.1-.2-1.2.1-1.2.3 0 .3.8 0 .8-.4 0-.5-1.1-.2-1 .2 0-.4 1-.5.9l.1-.5v.8" fill="none" stroke="#fff" stroke-width="2"/></svg>