<?xml version="1.0" encoding="UTF-8" standalone="no"?><!DOCTYPE svg PUBLIC "-//W3C//DTD SVG 1.1//EN" "http://www.w3.org/Graphics/SVG/1.1/DTD/svg11.dtd"><svg width="100%" height="100%" viewBox="0 0 416 400" version="1.1" xmlns="http://www.w3.org/2000/svg" xmlns:xlink="http://www.w3.org/1999/xlink" xml:space="preserve" xmlns:serif="http://www.serif.com/" style="fill-rule:evenodd;clip-rule:evenodd;stroke-linejoin:round;stroke-miterlimit:1.41421;"><path d="M135.078,95.113l-135.078,-2.516l1.434,-76.986l340.941,6.349l-1.211,65.027l-206.086,8.126l205.863,3.834l0.223,-11.96l48.086,-1.896l3.034,76.94l-148.705,5.864l115.075,5.928l-3.961,76.898l-11.775,-0.606l-3.479,-36.236l-244.379,23.466l247.858,12.77l3.881,40.411l-158.095,15.181l182.692,7.854l-3.308,76.929l-340.685,-14.646l2.359,-54.874l158.942,-15.263l-157.994,-6.792l-0.948,22.055l-22.402,2.151l-7.36,-76.647l95.06,-9.129l-80.916,-4.168l3.962,-76.898l32.753,1.687l0.69,17.5l192.03,-7.571l-192.72,-9.929l-2.344,-59.44l86.563,-3.413Z" style="fill:#d95b43;"/><g><circle cx="43.899" cy="98" r="23" style="fill:#38332a;"/><circle cx="305.899" cy="23" r="23" style="fill:#38332a;"/><circle cx="392.284" cy="283" r="23" style="fill:#38332a;"/><circle cx="34.284" cy="376" r="23" style="fill:#38332a;"/></g><path d="M38.258,28.424l15.739,23.571l-25.153,3.163l9.414,-26.734Z" style="fill:#8cc9bf;"/><path d="M110.341,222.512l-34.133,-2.128l15.356,-26.455l18.777,28.583Z" style="fill:#8cc9bf;"/><path d="M62.014,277.869l-13.24,31.533l-19.93,-23.205l33.17,-8.328Z" style="fill:#8cc9bf;"/><path d="M315.597,152.301l34.096,2.645l-15.755,26.22l-18.341,-28.865Z" style="fill:#8cc9bf;"/><path d="M387.565,222.512l-0.143,34.199l-27.302,-13.793l27.445,-20.406Z" style="fill:#8cc9bf;"/><path d="M31.075,152.301l-31.075,-8.179l18.973,-21.588l12.102,29.767Z" style="fill:#8cc9bf;"/><path d="M366.761,86.756l-21.03,-24.624l28.111,-6.974l-7.081,31.598Z" style="fill:#8cc9bf;"/><path d="M315.597,358.174l30.134,-0.67l-11.518,24.376l-18.616,-23.706Z" style="fill:#8cc9bf;"/><path d="M80.432,369.692l25.685,15.774l-22.894,14.239l-2.791,-30.013Z" style="fill:#8cc9bf;"/><path d="M266.807,28.424l0,44.899l-186.375,0l0,-44.899l186.375,0Zm-87.56,22.849c0.555,-1.088 0.832,-2.24 0.832,-3.456c0,-0.192 -0.011,-0.394 -0.032,-0.608c-1.365,-0.768 -3.072,-1.152 -5.12,-1.152c-2.048,0 -3.787,0.598 -5.216,1.792c-1.6,1.366 -2.4,3.606 -2.4,6.72c0,5.334 2.304,8 6.912,8c1.088,0 2.208,-0.154 3.36,-0.464c1.152,-0.309 2.069,-0.688 2.752,-1.136l-0.96,-2.464c-1.237,0.299 -2.667,0.448 -4.288,0.448c-1.024,0 -1.808,-0.336 -2.352,-1.008c-0.544,-0.672 -0.816,-1.861 -0.816,-3.568c0,-3.37 0.981,-5.056 2.944,-5.056c0.427,0 0.768,0.011 1.024,0.032c0.064,0.747 0.245,1.387 0.544,1.92l2.816,0Zm-23.968,0.288c0.213,-0.49 0.341,-1.184 0.384,-2.08c0.427,-0.128 0.971,-0.192 1.632,-0.192c1.771,0 2.656,0.832 2.656,2.496l0,1.536l-3.488,0c-1.877,0 -3.291,0.411 -4.24,1.232c-0.949,0.822 -1.424,1.947 -1.424,3.376c0,1.43 0.507,2.56 1.52,3.392c1.013,0.832 2.235,1.248 3.664,1.248c2.411,0 4.075,-0.672 4.992,-2.016c0.149,0.79 0.331,1.462 0.544,2.016c2.027,0 3.584,-0.256 4.672,-0.768l0,-2.784c-0.427,-0.213 -1.013,-0.394 -1.76,-0.544l0,-6.816c0,-2.005 -0.496,-3.44 -1.488,-4.304c-0.992,-0.864 -2.629,-1.296 -4.912,-1.296c-2.283,0 -4.416,0.534 -6.4,1.6c-0.021,0.363 -0.032,0.704 -0.032,1.024c0,1.174 0.181,2.134 0.544,2.88l3.136,0Zm-5.952,10.752c0.021,-0.426 0.032,-1.045 0.032,-1.856c0,-0.81 -0.117,-1.749 -0.352,-2.816l-2.464,-0.32c-0.384,0.363 -0.736,0.928 -1.056,1.696l-1.76,0c-1.109,0 -1.973,0.096 -2.592,0.288l-0.16,-0.352c0.683,-0.554 1.312,-1.216 1.888,-1.984l6.24,-7.968l-0.32,-2.688l-12.96,0c-0.021,0.406 -0.032,0.998 -0.032,1.776c0,0.779 0.117,1.702 0.352,2.768l2.464,0.32c0.363,-0.341 0.704,-0.874 1.024,-1.6l1.248,0c1.11,0 1.973,-0.096 2.592,-0.288l0.16,0.352c-0.683,0.555 -1.312,1.216 -1.888,1.984l-6.272,8.064l0.32,2.624l13.536,0Zm49.632,0l0.32,-2.464c-0.341,-0.405 -0.928,-0.768 -1.76,-1.088l0,-6.496c0,-2.09 -0.405,-3.648 -1.216,-4.672c-0.811,-1.024 -2.272,-1.536 -4.384,-1.536c-0.661,0 -1.419,0.118 -2.272,0.352c-0.853,0.235 -1.536,0.523 -2.048,0.864l0,-8c-0.704,-0.064 -1.568,-0.096 -2.592,-0.096c-1.024,0 -2.133,0.139 -3.328,0.416l-0.32,2.464c0.427,0.47 1.013,0.832 1.76,1.088l0,15.616c-0.875,0.32 -1.461,0.683 -1.76,1.088l0.32,2.464l7.36,0l0.32,-2.464c-0.341,-0.405 -0.928,-0.768 -1.76,-1.088l0,-8.224c0.917,-0.682 1.867,-1.024 2.848,-1.024c0.981,0 1.659,0.198 2.032,0.592c0.373,0.395 0.56,1.168 0.56,2.32l0,6.336c-0.875,0.32 -1.461,0.683 -1.76,1.088l0.32,2.464l7.36,0Zm-39.008,-6.592l0,2.624c-0.64,0.64 -1.504,0.96 -2.592,0.96c-0.64,0 -1.125,-0.17 -1.456,-0.512c-0.331,-0.341 -0.496,-0.778 -0.496,-1.312c0,-1.173 0.768,-1.759 2.304,-1.76l2.24,0Z" style="fill:#38332a;"/><path d="M136.143,50.857c-0.235,-1.066 -0.352,-1.989 -0.352,-2.768c0,-0.778 0.011,-1.37 0.032,-1.776l12.96,0l0.32,2.688l-6.24,7.968c-0.576,0.768 -1.205,1.43 -1.888,1.984l0.16,0.352c0.619,-0.192 1.483,-0.288 2.592,-0.288l1.76,0c0.32,-0.768 0.672,-1.333 1.056,-1.696l2.464,0.32c0.235,1.067 0.352,2.006 0.352,2.816c0,0.811 -0.011,1.43 -0.032,1.856l-13.536,0l-0.32,-2.624l6.272,-8.064c0.576,-0.768 1.205,-1.429 1.888,-1.984l-0.16,-0.352c-0.619,0.192 -1.483,0.288 -2.592,0.288l-1.248,0c-0.32,0.726 -0.661,1.259 -1.024,1.6l-2.464,-0.32Z" style="fill:#faf9f9;fill-rule:nonzero;"/><path d="M151.599,48.681c0,-0.32 0.011,-0.661 0.032,-1.024c1.984,-1.066 4.117,-1.6 6.4,-1.6c2.283,0 3.92,0.432 4.912,1.296c0.992,0.864 1.488,2.299 1.488,4.304l0,6.816c0.747,0.15 1.333,0.331 1.76,0.544l0,2.784c-1.088,0.512 -2.645,0.768 -4.672,0.768c-0.213,-0.554 -0.395,-1.226 -0.544,-2.016c-0.917,1.344 -2.581,2.016 -4.992,2.016c-1.429,0 -2.651,-0.416 -3.664,-1.248c-1.013,-0.832 -1.52,-1.962 -1.52,-3.392c0,-1.429 0.475,-2.554 1.424,-3.376c0.949,-0.821 2.363,-1.232 4.24,-1.232l3.488,0l0,-1.536c0,-1.664 -0.885,-2.496 -2.656,-2.496c-0.661,0 -1.205,0.064 -1.632,0.192c-0.043,0.896 -0.171,1.59 -0.384,2.08l-3.136,0c-0.363,-0.746 -0.544,-1.706 -0.544,-2.88Zm5.76,10.624c1.088,0 1.952,-0.32 2.592,-0.96l0,-2.624l-2.24,0c-1.536,0 -2.304,0.587 -2.304,1.76c0,0.534 0.165,0.971 0.496,1.312c0.331,0.342 0.816,0.512 1.456,0.512Z" style="fill:#faf9f9;fill-rule:nonzero;"/><path d="M174.863,49.321c-1.963,0 -2.944,1.686 -2.944,5.056c0,1.707 0.272,2.896 0.816,3.568c0.544,0.672 1.328,1.008 2.352,1.008c1.621,0 3.051,-0.149 4.288,-0.448l0.96,2.464c-0.683,0.448 -1.6,0.827 -2.752,1.136c-1.152,0.31 -2.272,0.464 -3.36,0.464c-4.608,0 -6.912,-2.666 -6.912,-8c0,-3.114 0.8,-5.354 2.4,-6.72c1.429,-1.194 3.168,-1.792 5.216,-1.792c2.048,0 3.755,0.384 5.12,1.152c0.021,0.214 0.032,0.416 0.032,0.608c0,1.216 -0.277,2.368 -0.832,3.456l-2.816,0c-0.299,-0.533 -0.48,-1.173 -0.544,-1.92c-0.256,-0.021 -0.597,-0.032 -1.024,-0.032Z" style="fill:#faf9f9;fill-rule:nonzero;"/><path d="M181.679,39.593c1.195,-0.277 2.304,-0.416 3.328,-0.416c1.024,0 1.888,0.032 2.592,0.096l0,8c0.512,-0.341 1.195,-0.629 2.048,-0.864c0.853,-0.234 1.611,-0.352 2.272,-0.352c2.112,0 3.573,0.512 4.384,1.536c0.811,1.024 1.216,2.582 1.216,4.672l0,6.496c0.832,0.32 1.419,0.683 1.76,1.088l-0.32,2.464l-7.36,0l-0.32,-2.464c0.299,-0.405 0.885,-0.768 1.76,-1.088l0,-6.336c0,-1.152 -0.187,-1.925 -0.56,-2.32c-0.373,-0.394 -1.051,-0.592 -2.032,-0.592c-0.981,0 -1.931,0.342 -2.848,1.024l0,8.224c0.832,0.32 1.419,0.683 1.76,1.088l-0.32,2.464l-7.36,0l-0.32,-2.464c0.299,-0.405 0.885,-0.768 1.76,-1.088l0,-15.616c-0.747,-0.256 -1.333,-0.618 -1.76,-1.088l0.32,-2.464Z" style="fill:#faf9f9;fill-rule:nonzero;"/><rect x="129.221" y="107.401" width="216.51" height="34.199" style="fill:#38332a;"/><rect x="116.135" y="199.5" width="121.342" height="15.865" style="fill:#38332a;"/><rect x="93.275" y="243.402" width="235.165" height="51.865" style="fill:#38332a;"/><rect x="139.613" y="333.567" width="147.342" height="55.353" style="fill:#38332a;"/><path d="M135.791,118.944c1.173,-0.256 2.229,-0.384 3.168,-0.384c0.939,0 1.717,0.022 2.336,0.064l0,1.6c0.512,-0.426 1.152,-0.789 1.92,-1.088c0.768,-0.298 1.461,-0.448 2.08,-0.448c2.432,0 4.053,0.608 4.864,1.824c0.533,-0.512 1.237,-0.944 2.112,-1.296c0.875,-0.352 1.685,-0.528 2.432,-0.528c2.347,0 3.925,0.528 4.736,1.584c0.811,1.056 1.216,3.035 1.216,5.936l0,5.184c0.832,0.32 1.419,0.683 1.76,1.088l-0.32,2.464l-7.36,0l-0.32,-2.464c0.299,-0.405 0.885,-0.768 1.76,-1.088l0,-6.336c0,-1.173 -0.16,-1.952 -0.48,-2.336c-0.32,-0.384 -0.955,-0.576 -1.904,-0.576c-0.949,0 -1.851,0.352 -2.704,1.056c0.107,0.726 0.16,1.728 0.16,3.008l0,5.184c0.832,0.32 1.419,0.683 1.76,1.088l-0.32,2.464l-7.36,0l-0.32,-2.464c0.299,-0.405 0.885,-0.768 1.76,-1.088l0,-6.336c0,-1.173 -0.16,-1.952 -0.48,-2.336c-0.32,-0.384 -0.949,-0.576 -1.888,-0.576c-0.939,0 -1.835,0.342 -2.688,1.024l0,8.224c0.832,0.32 1.419,0.683 1.76,1.088l-0.32,2.464l-7.36,0l-0.32,-2.464c0.299,-0.405 0.885,-0.768 1.76,-1.088l0,-8.896c-0.747,-0.256 -1.333,-0.618 -1.76,-1.088l0.32,-2.464Z" style="fill:#faf9f9;fill-rule:nonzero;"/><path d="M170.895,135.2c-2.517,0 -4.384,-0.672 -5.6,-2.016c-1.216,-1.344 -1.824,-3.376 -1.824,-6.096c0,-2.72 0.677,-4.8 2.032,-6.24c1.355,-1.44 3.301,-2.16 5.84,-2.16c2.539,0 4.421,0.64 5.648,1.92c1.227,1.28 1.84,3.28 1.84,6c0,2.72 -0.688,4.832 -2.064,6.336c-1.376,1.504 -3.333,2.256 -5.872,2.256Zm-2.816,-8.384c0,3.414 1.024,5.12 3.072,5.12c1.045,0 1.819,-0.389 2.32,-1.168c0.501,-0.778 0.752,-2.053 0.752,-3.824c0,-3.328 -1.045,-4.992 -3.136,-4.992c-1.024,0 -1.781,0.368 -2.272,1.104c-0.491,0.736 -0.736,1.99 -0.736,3.76Z" style="fill:#faf9f9;fill-rule:nonzero;"/><path d="M190.063,122.88c-1.621,0 -2.741,0.31 -3.36,0.928l0,7.328c1.728,0.32 2.912,0.768 3.552,1.344l-0.32,2.464l-9.152,0l-0.32,-2.464c0.299,-0.405 0.885,-0.768 1.76,-1.088l0,-8.896c-0.747,-0.256 -1.333,-0.618 -1.76,-1.088l0.32,-2.464c1.173,-0.256 2.229,-0.384 3.168,-0.384c0.939,0 1.717,0.022 2.336,0.064l0,2.016c0.491,-0.576 1.12,-1.05 1.888,-1.424c0.768,-0.373 1.467,-0.56 2.096,-0.56c0.629,0 1.061,0.054 1.296,0.16l-0.096,4.16c-0.427,-0.064 -0.896,-0.096 -1.408,-0.096Z" style="fill:#faf9f9;fill-rule:nonzero;"/><path d="M202.479,122.88c-1.621,0 -2.741,0.31 -3.36,0.928l0,7.328c1.728,0.32 2.912,0.768 3.552,1.344l-0.32,2.464l-9.152,0l-0.32,-2.464c0.299,-0.405 0.885,-0.768 1.76,-1.088l0,-8.896c-0.747,-0.256 -1.333,-0.618 -1.76,-1.088l0.32,-2.464c1.173,-0.256 2.229,-0.384 3.168,-0.384c0.939,0 1.717,0.022 2.336,0.064l0,2.016c0.491,-0.576 1.12,-1.05 1.888,-1.424c0.768,-0.373 1.467,-0.56 2.096,-0.56c0.629,0 1.061,0.054 1.296,0.16l-0.096,4.16c-0.427,-0.064 -0.896,-0.096 -1.408,-0.096Z" style="fill:#faf9f9;fill-rule:nonzero;"/><path d="M205.679,118.944c1.195,-0.277 2.304,-0.416 3.328,-0.416c1.024,0 1.888,0.032 2.592,0.096l0,12.768c0.832,0.32 1.419,0.683 1.76,1.088l-0.32,2.464l-7.36,0l-0.32,-2.464c0.299,-0.405 0.885,-0.768 1.76,-1.088l0,-8.896c-0.747,-0.256 -1.333,-0.618 -1.76,-1.088l0.32,-2.464Zm3.616,-2.208c-1.771,0 -2.656,-0.805 -2.656,-2.416c0,-1.61 0.891,-2.416 2.672,-2.416c1.781,0 2.672,0.806 2.672,2.416c0,1.611 -0.896,2.416 -2.688,2.416Z" style="fill:#faf9f9;fill-rule:nonzero;"/><path d="M221.039,121.568c-1.408,0 -2.112,0.416 -2.112,1.248c0,0.79 0.736,1.376 2.208,1.76l2.528,0.672c2.603,0.683 3.904,2.187 3.904,4.512c0,1.6 -0.56,2.907 -1.68,3.92c-1.12,1.014 -2.901,1.52 -5.344,1.52c-2.443,0 -4.347,-0.341 -5.712,-1.024c-0.021,-0.234 -0.032,-0.469 -0.032,-0.704c0,-1.173 0.235,-2.229 0.704,-3.168l2.656,0c0.277,0.512 0.459,1.046 0.544,1.6c0.427,0.128 1.035,0.192 1.824,0.192c1.877,0 2.816,-0.533 2.816,-1.6c0,-0.341 -0.128,-0.624 -0.384,-0.848c-0.256,-0.224 -0.757,-0.442 -1.504,-0.656l-2.528,-0.736c-1.301,-0.362 -2.315,-0.901 -3.04,-1.616c-0.725,-0.714 -1.088,-1.77 -1.088,-3.168c0,-1.397 0.565,-2.544 1.696,-3.44c1.131,-0.896 2.747,-1.344 4.848,-1.344c2.101,0 3.877,0.31 5.328,0.928c0.021,0.214 0.032,0.427 0.032,0.64c0,1.11 -0.235,2.134 -0.704,3.072l-2.624,0c-0.277,-0.49 -0.459,-1.002 -0.544,-1.536c-0.597,-0.149 -1.195,-0.224 -1.792,-0.224Z" style="fill:#faf9f9;fill-rule:nonzero;"/><path d="M235.471,121.568c-1.408,0 -2.112,0.416 -2.112,1.248c0,0.79 0.736,1.376 2.208,1.76l2.528,0.672c2.603,0.683 3.904,2.187 3.904,4.512c0,1.6 -0.56,2.907 -1.68,3.92c-1.12,1.014 -2.901,1.52 -5.344,1.52c-2.443,0 -4.347,-0.341 -5.712,-1.024c-0.021,-0.234 -0.032,-0.469 -0.032,-0.704c0,-1.173 0.235,-2.229 0.704,-3.168l2.656,0c0.277,0.512 0.459,1.046 0.544,1.6c0.427,0.128 1.035,0.192 1.824,0.192c1.877,0 2.816,-0.533 2.816,-1.6c0,-0.341 -0.128,-0.624 -0.384,-0.848c-0.256,-0.224 -0.757,-0.442 -1.504,-0.656l-2.528,-0.736c-1.301,-0.362 -2.315,-0.901 -3.04,-1.616c-0.725,-0.714 -1.088,-1.77 -1.088,-3.168c0,-1.397 0.565,-2.544 1.696,-3.44c1.131,-0.896 2.747,-1.344 4.848,-1.344c2.101,0 3.877,0.31 5.328,0.928c0.021,0.214 0.032,0.427 0.032,0.64c0,1.11 -0.235,2.134 -0.704,3.072l-2.624,0c-0.277,-0.49 -0.459,-1.002 -0.544,-1.536c-0.597,-0.149 -1.195,-0.224 -1.792,-0.224Z" style="fill:#faf9f9;fill-rule:nonzero;"/><path d="M251.183,135.2c-2.56,0 -4.485,-0.682 -5.776,-2.048c-1.291,-1.365 -1.936,-3.349 -1.936,-5.952c0,-1.578 0.224,-2.938 0.672,-4.08c0.448,-1.141 1.056,-2.021 1.824,-2.64c1.493,-1.194 3.232,-1.792 5.216,-1.792c1.984,0 3.504,0.507 4.56,1.52c1.056,1.014 1.584,2.832 1.584,5.456c0,1.536 -0.757,2.304 -2.272,2.304l-6.944,0c0.085,1.344 0.432,2.294 1.04,2.848c0.608,0.555 1.573,0.832 2.896,0.832c0.725,0 1.419,-0.085 2.08,-0.256c0.661,-0.17 1.141,-0.341 1.44,-0.512l0.448,-0.256l0.96,2.56c-0.128,0.15 -0.315,0.336 -0.56,0.56c-0.245,0.224 -0.864,0.523 -1.856,0.896c-0.992,0.374 -2.117,0.56 -3.376,0.56Zm2.016,-10.08c0.043,-0.298 0.064,-0.661 0.064,-1.088c0,-0.426 -0.171,-0.88 -0.512,-1.36c-0.341,-0.48 -0.933,-0.72 -1.776,-0.72c-0.843,0 -1.488,0.256 -1.936,0.768c-0.448,0.512 -0.747,1.376 -0.896,2.592l5.056,-0.192Z" style="fill:#faf9f9;fill-rule:nonzero;"/><path d="M262.959,138.656c0.384,0 0.795,-0.357 1.232,-1.072c0.437,-0.714 0.741,-1.562 0.912,-2.544l-5.248,-12.416c-1.045,-0.341 -1.749,-0.746 -2.112,-1.216l0.32,-2.464l7.36,0l0.32,2.464c-0.277,0.342 -0.747,0.651 -1.408,0.928l1.76,4.832c0.384,1.003 0.651,1.995 0.8,2.976l0.096,0.448l0.448,0c0.171,-1.066 0.469,-2.186 0.896,-3.36l1.696,-4.736c-0.789,-0.298 -1.344,-0.661 -1.664,-1.088l0.32,-2.464l7.04,0l0.32,2.464c-0.384,0.491 -1.088,0.907 -2.112,1.248l-5.28,12.48c-1.003,2.368 -1.771,3.894 -2.304,4.576c-0.939,1.259 -2.245,1.888 -3.92,1.888c-1.675,0 -2.949,-0.437 -3.824,-1.312c-0.021,-0.213 -0.032,-0.426 -0.032,-0.64c0,-1.173 0.245,-2.282 0.736,-3.328l2.656,0c0.32,0.576 0.501,1.355 0.544,2.336l0.448,0Z" style="fill:#faf9f9;fill-rule:nonzero;"/><path d="M141.871,264.151c-1.408,0 -2.112,0.416 -2.112,1.248c0,0.789 0.736,1.376 2.208,1.76l2.528,0.672c2.603,0.682 3.904,2.186 3.904,4.512c0,1.6 -0.56,2.906 -1.68,3.92c-1.12,1.013 -2.901,1.52 -5.344,1.52c-2.443,0 -4.347,-0.342 -5.712,-1.024c-0.021,-0.235 -0.032,-0.47 -0.032,-0.704c0,-1.174 0.235,-2.23 0.704,-3.168l2.656,0c0.277,0.512 0.459,1.045 0.544,1.6c0.427,0.128 1.035,0.192 1.824,0.192c1.877,0 2.816,-0.534 2.816,-1.6c0,-0.342 -0.128,-0.624 -0.384,-0.848c-0.256,-0.224 -0.757,-0.443 -1.504,-0.656l-2.528,-0.736c-1.301,-0.363 -2.315,-0.902 -3.04,-1.616c-0.725,-0.715 -1.088,-1.771 -1.088,-3.168c0,-1.398 0.565,-2.544 1.696,-3.44c1.131,-0.896 2.747,-1.344 4.848,-1.344c2.101,0 3.877,0.309 5.328,0.928c0.021,0.213 0.032,0.426 0.032,0.64c0,1.109 -0.235,2.133 -0.704,3.072l-2.624,0c-0.277,-0.491 -0.459,-1.003 -0.544,-1.536c-0.597,-0.15 -1.195,-0.224 -1.792,-0.224Z" style="fill:#faf9f9;fill-rule:nonzero;"/><path d="M157.295,277.783c-2.517,0 -4.384,-0.672 -5.6,-2.016c-1.216,-1.344 -1.824,-3.376 -1.824,-6.096c0,-2.72 0.677,-4.8 2.032,-6.24c1.355,-1.44 3.301,-2.16 5.84,-2.16c2.539,0 4.421,0.64 5.648,1.92c1.227,1.28 1.84,3.28 1.84,6c0,2.72 -0.688,4.832 -2.064,6.336c-1.376,1.504 -3.333,2.256 -5.872,2.256Zm-2.816,-8.384c0,3.413 1.024,5.12 3.072,5.12c1.045,0 1.819,-0.39 2.32,-1.168c0.501,-0.779 0.752,-2.054 0.752,-3.824c0,-3.328 -1.045,-4.992 -3.136,-4.992c-1.024,0 -1.781,0.368 -2.272,1.104c-0.491,0.736 -0.736,1.989 -0.736,3.76Z" style="fill:#faf9f9;fill-rule:nonzero;"/><path d="M168.623,260.919c0,-2.219 0.48,-3.888 1.44,-5.008c0.96,-1.12 2.485,-1.68 4.576,-1.68c2.091,0 3.904,0.565 5.44,1.696c0.021,0.149 0.032,0.368 0.032,0.656c0,0.288 -0.075,0.762 -0.224,1.424c-0.149,0.661 -0.352,1.194 -0.608,1.6l-2.688,0c-0.384,-0.726 -0.587,-1.408 -0.608,-2.048c-0.256,-0.043 -0.469,-0.064 -0.64,-0.064c-0.811,0 -1.387,0.224 -1.728,0.672c-0.341,0.448 -0.512,1.258 -0.512,2.432l0,1.216l4.896,0l0,2.944l-4.896,0l0,9.056c1.6,0.32 2.688,0.736 3.264,1.248l-0.32,2.464l-8.864,0l-0.32,-2.464c0.299,-0.406 0.885,-0.768 1.76,-1.088l0,-9.216l-1.408,0l-0.352,-2.208c0.469,-0.427 1.056,-0.672 1.76,-0.736l0,-0.896Z" style="fill:#faf9f9;fill-rule:nonzero;"/><path d="M184.911,257.495l0,4.032l4.576,0l0,2.688l-4.576,0l0,8.096c0,0.682 0.096,1.178 0.288,1.488c0.192,0.309 0.651,0.464 1.376,0.464c0.725,0 1.504,-0.16 2.336,-0.48l0.96,2.496c-1.643,0.832 -3.323,1.248 -5.04,1.248c-1.717,0 -2.88,-0.368 -3.488,-1.104c-0.608,-0.736 -0.912,-1.808 -0.912,-3.216l0,-8.992l-1.44,0l-0.352,-1.952c0.341,-0.406 1.045,-0.811 2.112,-1.216c0.256,-1.75 0.864,-2.934 1.824,-3.552l2.336,0Z" style="fill:#faf9f9;fill-rule:nonzero;"/><path d="M206.095,277.719l-1.632,-5.056c-0.341,-1.024 -0.608,-2.304 -0.8,-3.84l-0.096,-0.768l-0.448,0c-0.213,1.664 -0.533,3.189 -0.96,4.576l-1.504,5.088l-4.544,0l-4.032,-12.576c-0.917,-0.32 -1.547,-0.704 -1.888,-1.152l0.32,-2.464l7.488,0l0.32,2.464c-0.384,0.448 -1.035,0.832 -1.952,1.152l1.856,8.16l0.448,0c0.235,-1.131 0.512,-2.294 0.832,-3.488l2.176,-8.224l3.584,0l2.144,8.16l0.8,3.552l0.448,0c0.789,-3.606 1.323,-6.027 1.6,-7.264l0.192,-0.896c-0.96,-0.342 -1.6,-0.726 -1.92,-1.152l0.32,-2.464l7.104,0l0.32,2.464c-0.363,0.49 -1.035,0.896 -2.016,1.216l-4,12.512l-4.16,0Z" style="fill:#faf9f9;fill-rule:nonzero;"/><path d="M217.455,263.895c0,-0.32 0.011,-0.662 0.032,-1.024c1.984,-1.067 4.117,-1.6 6.4,-1.6c2.283,0 3.92,0.432 4.912,1.296c0.992,0.864 1.488,2.298 1.488,4.304l0,6.816c0.747,0.149 1.333,0.33 1.76,0.544l0,2.784c-1.088,0.512 -2.645,0.768 -4.672,0.768c-0.213,-0.555 -0.395,-1.227 -0.544,-2.016c-0.917,1.344 -2.581,2.016 -4.992,2.016c-1.429,0 -2.651,-0.416 -3.664,-1.248c-1.013,-0.832 -1.52,-1.963 -1.52,-3.392c0,-1.43 0.475,-2.555 1.424,-3.376c0.949,-0.822 2.363,-1.232 4.24,-1.232l3.488,0l0,-1.536c0,-1.664 -0.885,-2.496 -2.656,-2.496c-0.661,0 -1.205,0.064 -1.632,0.192c-0.043,0.896 -0.171,1.589 -0.384,2.08l-3.136,0c-0.363,-0.747 -0.544,-1.707 -0.544,-2.88Zm5.76,10.624c1.088,0 1.952,-0.32 2.592,-0.96l0,-2.624l-2.24,0c-1.536,0 -2.304,0.586 -2.304,1.76c0,0.533 0.165,0.97 0.496,1.312c0.331,0.341 0.816,0.512 1.456,0.512Z" style="fill:#faf9f9;fill-rule:nonzero;"/><path d="M242.799,265.463c-1.621,0 -2.741,0.309 -3.36,0.928l0,7.328c1.728,0.32 2.912,0.768 3.552,1.344l-0.32,2.464l-9.152,0l-0.32,-2.464c0.299,-0.406 0.885,-0.768 1.76,-1.088l0,-8.896c-0.747,-0.256 -1.333,-0.619 -1.76,-1.088l0.32,-2.464c1.173,-0.256 2.229,-0.384 3.168,-0.384c0.939,0 1.717,0.021 2.336,0.064l0,2.016c0.491,-0.576 1.12,-1.051 1.888,-1.424c0.768,-0.374 1.467,-0.56 2.096,-0.56c0.629,0 1.061,0.053 1.296,0.16l-0.096,4.16c-0.427,-0.064 -0.896,-0.096 -1.408,-0.096Z" style="fill:#faf9f9;fill-rule:nonzero;"/><path d="M253.295,277.783c-2.56,0 -4.485,-0.683 -5.776,-2.048c-1.291,-1.366 -1.936,-3.35 -1.936,-5.952c0,-1.579 0.224,-2.939 0.672,-4.08c0.448,-1.142 1.056,-2.022 1.824,-2.64c1.493,-1.195 3.232,-1.792 5.216,-1.792c1.984,0 3.504,0.506 4.56,1.52c1.056,1.013 1.584,2.832 1.584,5.456c0,1.536 -0.757,2.304 -2.272,2.304l-6.944,0c0.085,1.344 0.432,2.293 1.04,2.848c0.608,0.554 1.573,0.832 2.896,0.832c0.725,0 1.419,-0.086 2.08,-0.256c0.661,-0.171 1.141,-0.342 1.44,-0.512l0.448,-0.256l0.96,2.56c-0.128,0.149 -0.315,0.336 -0.56,0.56c-0.245,0.224 -0.864,0.522 -1.856,0.896c-0.992,0.373 -2.117,0.56 -3.376,0.56Zm2.016,-10.08c0.043,-0.299 0.064,-0.662 0.064,-1.088c0,-0.427 -0.171,-0.88 -0.512,-1.36c-0.341,-0.48 -0.933,-0.72 -1.776,-0.72c-0.843,0 -1.488,0.256 -1.936,0.768c-0.448,0.512 -0.747,1.376 -0.896,2.592l5.056,-0.192Z" style="fill:#faf9f9;fill-rule:nonzero;"/><path d="M142.991,369.692c-2.56,0 -4.485,-0.683 -5.776,-2.048c-1.291,-1.366 -1.936,-3.35 -1.936,-5.952c0,-1.579 0.224,-2.939 0.672,-4.08c0.448,-1.142 1.056,-2.022 1.824,-2.64c1.493,-1.195 3.232,-1.792 5.216,-1.792c1.984,0 3.504,0.506 4.56,1.52c1.056,1.013 1.584,2.832 1.584,5.456c0,1.536 -0.757,2.304 -2.272,2.304l-6.944,0c0.085,1.344 0.432,2.293 1.04,2.848c0.608,0.554 1.573,0.832 2.896,0.832c0.725,0 1.419,-0.086 2.08,-0.256c0.661,-0.171 1.141,-0.342 1.44,-0.512l0.448,-0.256l0.96,2.56c-0.128,0.149 -0.315,0.336 -0.56,0.56c-0.245,0.224 -0.864,0.522 -1.856,0.896c-0.992,0.373 -2.117,0.56 -3.376,0.56Zm2.016,-10.08c0.043,-0.299 0.064,-0.662 0.064,-1.088c0,-0.427 -0.171,-0.88 -0.512,-1.36c-0.341,-0.48 -0.933,-0.72 -1.776,-0.72c-0.843,0 -1.488,0.256 -1.936,0.768c-0.448,0.512 -0.747,1.376 -0.896,2.592l5.056,-0.192Z" style="fill:#faf9f9;fill-rule:nonzero;"/><path d="M151.087,353.436c1.173,-0.256 2.229,-0.384 3.168,-0.384c0.939,0 1.717,0.021 2.336,0.064l0,1.6c0.533,-0.448 1.243,-0.816 2.128,-1.104c0.885,-0.288 1.733,-0.432 2.544,-0.432c2.091,0 3.557,0.49 4.4,1.472c0.843,0.981 1.264,2.677 1.264,5.088l0,6.144c0.832,0.32 1.419,0.682 1.76,1.088l-0.32,2.464l-7.36,0l-0.32,-2.464c0.299,-0.406 0.885,-0.768 1.76,-1.088l0,-6.336c0,-1.152 -0.187,-1.926 -0.56,-2.32c-0.373,-0.395 -1.04,-0.592 -2,-0.592c-0.96,0 -1.92,0.341 -2.88,1.024l0,8.224c0.832,0.32 1.419,0.682 1.76,1.088l-0.32,2.464l-7.36,0l-0.32,-2.464c0.299,-0.406 0.885,-0.768 1.76,-1.088l0,-8.896c-0.747,-0.256 -1.333,-0.619 -1.76,-1.088l0.32,-2.464Z" style="fill:#faf9f9;fill-rule:nonzero;"/><path d="M177.167,372.828c1.899,0 2.848,-1.142 2.848,-3.424l0,-1.408c-1.045,0.64 -2.357,0.96 -3.936,0.96c-2.005,0 -3.547,-0.587 -4.624,-1.76c-1.077,-1.174 -1.616,-3.126 -1.616,-5.856c0,-5.44 2.496,-8.16 7.488,-8.16c1.28,0 2.475,0.277 3.584,0.832c0.213,-0.384 0.533,-0.576 0.96,-0.576l2.624,0l0,15.744c0,2.346 -0.581,4.085 -1.744,5.216c-1.163,1.13 -2.96,1.696 -5.392,1.696c-1.28,0 -2.603,-0.15 -3.968,-0.448c-1.365,-0.299 -2.4,-0.672 -3.104,-1.12c-0.021,-0.192 -0.032,-0.384 -0.032,-0.576c0,-1.174 0.277,-2.304 0.832,-3.392l2.816,0c0.235,0.448 0.405,1.045 0.512,1.792c0.811,0.32 1.728,0.48 2.752,0.48Zm-2.912,-11.68c0,1.6 0.219,2.72 0.656,3.36c0.437,0.64 1.184,0.96 2.24,0.96c1.056,0 2.011,-0.299 2.864,-0.896l0,-7.584c-0.853,-0.363 -1.781,-0.544 -2.784,-0.544c-1.984,0 -2.976,1.568 -2.976,4.704Z" style="fill:#faf9f9;fill-rule:nonzero;"/><path d="M187.311,353.436c1.195,-0.278 2.304,-0.416 3.328,-0.416c1.024,0 1.888,0.032 2.592,0.096l0,12.768c0.832,0.32 1.419,0.682 1.76,1.088l-0.32,2.464l-7.36,0l-0.32,-2.464c0.299,-0.406 0.885,-0.768 1.76,-1.088l0,-8.896c-0.747,-0.256 -1.333,-0.619 -1.76,-1.088l0.32,-2.464Zm3.616,-2.208c-1.771,0 -2.656,-0.806 -2.656,-2.416c0,-1.611 0.891,-2.416 2.672,-2.416c1.781,0 2.672,0.805 2.672,2.416c0,1.61 -0.896,2.416 -2.688,2.416Z" style="fill:#faf9f9;fill-rule:nonzero;"/><path d="M196.591,353.436c1.173,-0.256 2.229,-0.384 3.168,-0.384c0.939,0 1.717,0.021 2.336,0.064l0,1.6c0.533,-0.448 1.243,-0.816 2.128,-1.104c0.885,-0.288 1.733,-0.432 2.544,-0.432c2.091,0 3.557,0.49 4.4,1.472c0.843,0.981 1.264,2.677 1.264,5.088l0,6.144c0.832,0.32 1.419,0.682 1.76,1.088l-0.32,2.464l-7.36,0l-0.32,-2.464c0.299,-0.406 0.885,-0.768 1.76,-1.088l0,-6.336c0,-1.152 -0.187,-1.926 -0.56,-2.32c-0.373,-0.395 -1.04,-0.592 -2,-0.592c-0.96,0 -1.92,0.341 -2.88,1.024l0,8.224c0.832,0.32 1.419,0.682 1.76,1.088l-0.32,2.464l-7.36,0l-0.32,-2.464c0.299,-0.406 0.885,-0.768 1.76,-1.088l0,-8.896c-0.747,-0.256 -1.333,-0.619 -1.76,-1.088l0.32,-2.464Z" style="fill:#faf9f9;fill-rule:nonzero;"/><path d="M222.991,369.692c-2.56,0 -4.485,-0.683 -5.776,-2.048c-1.291,-1.366 -1.936,-3.35 -1.936,-5.952c0,-1.579 0.224,-2.939 0.672,-4.08c0.448,-1.142 1.056,-2.022 1.824,-2.64c1.493,-1.195 3.232,-1.792 5.216,-1.792c1.984,0 3.504,0.506 4.56,1.52c1.056,1.013 1.584,2.832 1.584,5.456c0,1.536 -0.757,2.304 -2.272,2.304l-6.944,0c0.085,1.344 0.432,2.293 1.04,2.848c0.608,0.554 1.573,0.832 2.896,0.832c0.725,0 1.419,-0.086 2.08,-0.256c0.661,-0.171 1.141,-0.342 1.44,-0.512l0.448,-0.256l0.96,2.56c-0.128,0.149 -0.315,0.336 -0.56,0.56c-0.245,0.224 -0.864,0.522 -1.856,0.896c-0.992,0.373 -2.117,0.56 -3.376,0.56Zm2.016,-10.08c0.043,-0.299 0.064,-0.662 0.064,-1.088c0,-0.427 -0.171,-0.88 -0.512,-1.36c-0.341,-0.48 -0.933,-0.72 -1.776,-0.72c-0.843,0 -1.488,0.256 -1.936,0.768c-0.448,0.512 -0.747,1.376 -0.896,2.592l5.056,-0.192Z" style="fill:#faf9f9;fill-rule:nonzero;"/><path d="M238.447,369.692c-2.56,0 -4.485,-0.683 -5.776,-2.048c-1.291,-1.366 -1.936,-3.35 -1.936,-5.952c0,-1.579 0.224,-2.939 0.672,-4.08c0.448,-1.142 1.056,-2.022 1.824,-2.64c1.493,-1.195 3.232,-1.792 5.216,-1.792c1.984,0 3.504,0.506 4.56,1.52c1.056,1.013 1.584,2.832 1.584,5.456c0,1.536 -0.757,2.304 -2.272,2.304l-6.944,0c0.085,1.344 0.432,2.293 1.04,2.848c0.608,0.554 1.573,0.832 2.896,0.832c0.725,0 1.419,-0.086 2.08,-0.256c0.661,-0.171 1.141,-0.342 1.44,-0.512l0.448,-0.256l0.96,2.56c-0.128,0.149 -0.315,0.336 -0.56,0.56c-0.245,0.224 -0.864,0.522 -1.856,0.896c-0.992,0.373 -2.117,0.56 -3.376,0.56Zm2.016,-10.08c0.043,-0.299 0.064,-0.662 0.064,-1.088c0,-0.427 -0.171,-0.88 -0.512,-1.36c-0.341,-0.48 -0.933,-0.72 -1.776,-0.72c-0.843,0 -1.488,0.256 -1.936,0.768c-0.448,0.512 -0.747,1.376 -0.896,2.592l5.056,-0.192Z" style="fill:#faf9f9;fill-rule:nonzero;"/><path d="M255.823,357.372c-1.621,0 -2.741,0.309 -3.36,0.928l0,7.328c1.728,0.32 2.912,0.768 3.552,1.344l-0.32,2.464l-9.152,0l-0.32,-2.464c0.299,-0.406 0.885,-0.768 1.76,-1.088l0,-8.896c-0.747,-0.256 -1.333,-0.619 -1.76,-1.088l0.32,-2.464c1.173,-0.256 2.229,-0.384 3.168,-0.384c0.939,0 1.717,0.021 2.336,0.064l0,2.016c0.491,-0.576 1.12,-1.051 1.888,-1.424c0.768,-0.374 1.467,-0.56 2.096,-0.56c0.629,0 1.061,0.053 1.296,0.16l-0.096,4.16c-0.427,-0.064 -0.896,-0.096 -1.408,-0.096Z" style="fill:#faf9f9;fill-rule:nonzero;"/></svg>