<?xml version="1.0" encoding="UTF-8" standalone="no"?><!DOCTYPE svg PUBLIC "-//W3C//DTD SVG 1.1//EN" "http://www.w3.org/Graphics/SVG/1.1/DTD/svg11.dtd"><svg width="100%" height="100%" viewBox="0 0 751 458" version="1.1" xmlns="http://www.w3.org/2000/svg" xmlns:xlink="http://www.w3.org/1999/xlink" xml:space="preserve" xmlns:serif="http://www.serif.com/" style="fill-rule:evenodd;clip-rule:evenodd;stroke-linejoin:round;stroke-miterlimit:1.41421;"><path d="M314.594,153.824l-135.078,-2.515l1.434,-76.987l340.94,6.35l-1.211,65.027l-206.085,8.125l205.863,3.834l0.222,-11.959l48.087,-1.896l3.034,76.94l-148.705,5.863l115.075,5.929l-3.962,76.898l-11.774,-0.607l-3.48,-36.235l-244.378,23.466l247.858,12.769l3.88,40.412l-158.094,15.181l182.691,7.854l-3.307,76.929l-340.685,-14.646l2.359,-54.875l158.942,-15.262l-157.994,-6.792l-0.948,22.054l-22.402,2.151l-7.36,-76.647l95.06,-9.128l-80.916,-4.169l3.962,-76.898l32.752,1.688l0.69,17.5l192.031,-7.572l-192.721,-9.928l-2.343,-59.44l86.563,-3.414Z" style="fill:#d95b43;"/><g><circle cx="223.415" cy="156.712" r="23" style="fill:#38332a;"/><circle cx="485.415" cy="81.712" r="23" style="fill:#38332a;"/><circle cx="571.8" cy="341.712" r="23" style="fill:#38332a;"/><circle cx="213.8" cy="434.712" r="23" style="fill:#38332a;"/></g><path d="M125.986,116.922l33.527,50.21l-53.578,6.737l20.051,-56.947Z" style="fill:#8cc9bf;"/><path d="M79.23,187.286l-33.539,50.201l-26.745,-46.912l60.284,-3.289Z" style="fill:#8cc9bf;"/><path d="M75.146,350.421l13.493,58.847l-52.475,-12.745l38.982,-46.102Z" style="fill:#8cc9bf;"/><path d="M192.981,361.14l-60.257,-3.757l27.108,-46.703l33.149,50.46Z" style="fill:#8cc9bf;"/><path d="M652.059,187.286l-60.256,-3.758l27.108,-46.702l33.148,50.46Z" style="fill:#8cc9bf;"/><path d="M718.989,242.015l-58.386,-15.367l35.649,-40.561l22.737,55.928Z" style="fill:#8cc9bf;"/><path d="M622.292,310.68l-39.209,-45.909l52.411,-13.004l-13.202,58.913Z" style="fill:#8cc9bf;"/><path d="M135.423,255.751l-25.055,54.929l-33.922,-42.016l58.977,-12.913Z" style="fill:#8cc9bf;"/><path d="M45.175,9.391l-44.661,-1.142l-0.514,20.072l44.661,1.143l0.514,-20.073Z" style="fill:#38332a;"/><path d="M170.256,5.944l-33.639,2.661l1.813,22.928l33.64,-2.661l-1.814,-22.928Z" style="fill:#38332a;"/><path d="M392.099,13.425l-47.486,-6.698l-2.554,18.108l47.486,6.698l2.554,-18.108Z" style="fill:#38332a;"/><path d="M569.833,11.617l-21.147,-6.733l-9.506,29.855l21.147,6.733l9.506,-29.855Z" style="fill:#38332a;"/><path d="M750.939,2.06l-36.495,-2.06l-1.845,32.678l36.495,2.061l1.845,-32.679Z" style="fill:#38332a;"/><path d="M59.798,19.406c-0.223,-1.069 -0.33,-1.993 -0.322,-2.771c0.008,-0.779 0.025,-1.371 0.051,-1.776l12.959,0.139l0.291,2.691l-6.324,7.901c-0.585,0.762 -1.221,1.416 -1.91,1.963l0.157,0.354c0.62,-0.185 1.485,-0.272 2.595,-0.26l1.759,0.019c0.329,-0.765 0.687,-1.326 1.075,-1.685l2.46,0.346c0.223,1.069 0.331,2.009 0.322,2.82c-0.009,0.811 -0.026,1.429 -0.052,1.855l-13.535,-0.144l-0.292,-2.627l6.358,-7.997c0.584,-0.762 1.22,-1.416 1.909,-1.964l-0.156,-0.353c-0.621,0.185 -1.486,0.272 -2.595,0.26l-1.248,-0.013c-0.328,0.721 -0.675,1.251 -1.041,1.589l-2.461,-0.347Z" style="fill:#38332a;fill-rule:nonzero;"/><path d="M75.277,17.396c0.003,-0.32 0.017,-0.662 0.043,-1.024c1.995,-1.045 4.134,-1.556 6.416,-1.532c2.283,0.025 3.915,0.474 4.898,1.349c0.983,0.874 1.463,2.314 1.442,4.32l-0.073,6.815c0.745,0.157 1.33,0.345 1.754,0.563l-0.029,2.784c-1.094,0.5 -2.654,0.739 -4.68,0.718c-0.208,-0.557 -0.382,-1.231 -0.523,-2.022c-0.931,1.334 -2.603,1.988 -5.013,1.963c-1.429,-0.016 -2.646,-0.445 -3.651,-1.287c-1.004,-0.843 -1.498,-1.979 -1.483,-3.409c0.015,-1.429 0.502,-2.549 1.46,-3.36c0.958,-0.811 2.375,-1.207 4.253,-1.187l3.488,0.038l0.016,-1.536c0.018,-1.664 -0.859,-2.506 -2.629,-2.525c-0.662,-0.007 -1.206,0.052 -1.634,0.175c-0.052,0.895 -0.188,1.587 -0.406,2.076l-3.136,-0.034c-0.355,-0.75 -0.526,-1.712 -0.513,-2.885Zm5.646,10.685c1.088,0.011 1.955,-0.3 2.602,-0.933l0.028,-2.624l-2.24,-0.024c-1.536,-0.016 -2.31,0.562 -2.323,1.736c-0.005,0.533 0.155,0.972 0.482,1.317c0.327,0.345 0.811,0.521 1.451,0.528Z" style="fill:#38332a;fill-rule:nonzero;"/><path d="M98.532,18.284c-1.962,-0.021 -2.961,1.654 -2.997,5.024c-0.019,1.707 0.241,2.899 0.777,3.577c0.537,0.678 1.318,1.022 2.341,1.033c1.622,0.017 3.053,-0.117 4.293,-0.402l0.934,2.474c-0.688,0.441 -1.609,0.81 -2.764,1.107c-1.156,0.297 -2.277,0.439 -3.365,0.428c-4.608,-0.05 -6.883,-2.741 -6.826,-8.074c0.033,-3.114 0.857,-5.346 2.471,-6.694c1.442,-1.179 3.187,-1.758 5.235,-1.736c2.048,0.022 3.751,0.424 5.108,1.207c0.019,0.213 0.027,0.416 0.025,0.608c-0.013,1.216 -0.302,2.365 -0.869,3.447l-2.816,-0.03c-0.292,-0.537 -0.467,-1.179 -0.523,-1.926c-0.256,-0.024 -0.597,-0.038 -1.024,-0.043Z" style="fill:#38332a;fill-rule:nonzero;"/><path d="M105.452,8.63c1.198,-0.265 2.308,-0.392 3.332,-0.381c1.024,0.011 1.888,0.052 2.591,0.124l-0.085,7.999c0.515,-0.335 1.201,-0.616 2.057,-0.842c0.855,-0.225 1.614,-0.334 2.275,-0.327c2.112,0.022 3.568,0.55 4.368,1.582c0.799,1.033 1.188,2.595 1.166,4.685l-0.07,6.496c0.829,0.329 1.412,0.698 1.749,1.107l-0.347,2.46l-7.359,-0.079l-0.294,-2.467c0.303,-0.402 0.893,-0.758 1.771,-1.069l0.068,-6.336c0.013,-1.152 -0.166,-1.927 -0.535,-2.326c-0.369,-0.398 -1.044,-0.603 -2.026,-0.613c-0.981,-0.011 -1.934,0.32 -2.858,0.993l-0.088,8.224c0.828,0.329 1.411,0.698 1.748,1.106l-0.346,2.461l-7.36,-0.079l-0.293,-2.467c0.303,-0.402 0.893,-0.758 1.771,-1.069l0.167,-15.615c-0.744,-0.264 -1.327,-0.633 -1.748,-1.107l0.346,-2.46Z" style="fill:#38332a;fill-rule:nonzero;"/><path d="M188.004,15.673c1.166,-0.286 2.219,-0.442 3.157,-0.466c0.938,-0.024 1.717,-0.023 2.337,0.003l0.041,1.6c0.501,-0.44 1.132,-0.819 1.892,-1.138c0.76,-0.318 1.449,-0.485 2.067,-0.501c2.431,-0.063 4.068,0.502 4.91,1.697c0.52,-0.526 1.212,-0.976 2.078,-1.35c0.865,-0.375 1.671,-0.572 2.417,-0.591c2.346,-0.061 3.938,0.426 4.776,1.46c0.837,1.035 1.294,3.003 1.369,5.903l0.134,5.182c0.84,0.298 1.436,0.646 1.788,1.042l-0.256,2.472l-7.357,0.19l-0.384,-2.454c0.288,-0.413 0.865,-0.791 1.731,-1.134l-0.164,-6.334c-0.031,-1.173 -0.211,-1.947 -0.541,-2.322c-0.33,-0.376 -0.969,-0.551 -1.918,-0.527c-0.949,0.025 -1.841,0.4 -2.676,1.126c0.126,0.722 0.205,1.723 0.238,3.003l0.135,5.182c0.84,0.298 1.435,0.646 1.787,1.042l-0.256,2.472l-7.357,0.19l-0.384,-2.455c0.288,-0.412 0.865,-0.79 1.731,-1.133l-0.164,-6.334c-0.031,-1.173 -0.211,-1.947 -0.541,-2.322c-0.329,-0.376 -0.964,-0.552 -1.902,-0.527c-0.938,0.024 -1.825,0.388 -2.66,1.093l0.213,8.221c0.84,0.299 1.436,0.646 1.787,1.042l-0.256,2.472l-7.357,0.191l-0.384,-2.455c0.288,-0.413 0.865,-0.791 1.731,-1.134l-0.23,-8.893c-0.753,-0.236 -1.349,-0.583 -1.788,-1.042l0.256,-2.471Z" style="fill:#38332a;fill-rule:nonzero;"/><path d="M223.518,31.013c-2.517,0.066 -4.4,-0.558 -5.651,-1.87c-1.25,-1.312 -1.911,-3.327 -1.981,-6.046c-0.071,-2.72 0.553,-4.816 1.869,-6.291c1.317,-1.475 3.245,-2.245 5.782,-2.311c2.538,-0.066 4.437,0.525 5.696,1.773c1.26,1.248 1.925,3.231 1.995,5.95c0.071,2.72 -0.562,4.849 -1.899,6.388c-1.336,1.539 -3.273,2.342 -5.811,2.407Zm-3.033,-8.308c0.089,3.412 1.157,5.092 3.204,5.039c1.045,-0.027 1.808,-0.437 2.289,-1.228c0.481,-0.791 0.698,-2.072 0.653,-3.842c-0.087,-3.327 -1.175,-4.963 -3.265,-4.909c-1.023,0.026 -1.771,0.414 -2.242,1.162c-0.472,0.749 -0.685,2.008 -0.639,3.778Z" style="fill:#38332a;fill-rule:nonzero;"/><path d="M242.36,18.201c-1.621,0.042 -2.733,0.38 -3.335,1.014l0.19,7.326c1.736,0.275 2.931,0.692 3.586,1.251l-0.256,2.472l-9.149,0.237l-0.384,-2.455c0.288,-0.413 0.865,-0.791 1.731,-1.133l-0.23,-8.893c-0.754,-0.237 -1.349,-0.584 -1.788,-1.042l0.256,-2.472c1.166,-0.286 2.219,-0.441 3.157,-0.466c0.938,-0.024 1.717,-0.023 2.337,0.004l0.052,2.015c0.476,-0.588 1.092,-1.079 1.85,-1.472c0.759,-0.393 1.452,-0.598 2.081,-0.614c0.629,-0.017 1.063,0.025 1.3,0.126l0.012,4.161c-0.428,-0.053 -0.898,-0.073 -1.41,-0.059Z" style="fill:#38332a;fill-rule:nonzero;"/><path d="M254.772,17.879c-1.621,0.042 -2.733,0.38 -3.335,1.014l0.19,7.326c1.736,0.275 2.931,0.692 3.586,1.251l-0.256,2.472l-9.149,0.237l-0.384,-2.455c0.288,-0.413 0.865,-0.79 1.731,-1.133l-0.231,-8.893c-0.753,-0.237 -1.349,-0.584 -1.787,-1.042l0.256,-2.471c1.166,-0.287 2.218,-0.442 3.157,-0.466c0.938,-0.025 1.717,-0.024 2.337,0.003l0.052,2.015c0.475,-0.588 1.092,-1.079 1.85,-1.472c0.758,-0.393 1.452,-0.598 2.081,-0.614c0.629,-0.017 1.062,0.025 1.3,0.126l0.012,4.161c-0.428,-0.053 -0.898,-0.073 -1.41,-0.059Z" style="fill:#38332a;fill-rule:nonzero;"/><path d="M257.869,13.861c1.187,-0.308 2.292,-0.476 3.316,-0.502c1.023,-0.027 1.888,-0.017 2.593,0.029l0.331,12.763c0.84,0.299 1.436,0.646 1.788,1.042l-0.256,2.472l-7.358,0.191l-0.383,-2.455c0.288,-0.413 0.865,-0.791 1.731,-1.134l-0.231,-8.893c-0.753,-0.236 -1.349,-0.583 -1.787,-1.042l0.256,-2.471Zm3.557,-2.301c-1.77,0.046 -2.676,-0.736 -2.718,-2.346c-0.041,-1.611 0.828,-2.439 2.609,-2.485c1.781,-0.046 2.692,0.736 2.734,2.346c0.041,1.61 -0.834,2.438 -2.625,2.485Z" style="fill:#38332a;fill-rule:nonzero;"/><path d="M273.291,16.086c-1.407,0.036 -2.1,0.47 -2.079,1.302c0.021,0.789 0.772,1.357 2.253,1.702l2.545,0.607c2.619,0.615 3.959,2.084 4.02,4.409c0.041,1.599 -0.485,2.92 -1.578,3.962c-1.094,1.042 -2.861,1.595 -5.303,1.658c-2.442,0.063 -4.354,-0.228 -5.737,-0.875c-0.027,-0.234 -0.044,-0.469 -0.05,-0.703c-0.03,-1.173 0.177,-2.235 0.622,-3.186l2.655,-0.068c0.29,0.504 0.486,1.033 0.585,1.585c0.43,0.117 1.039,0.165 1.829,0.145c1.876,-0.049 2.801,-0.607 2.773,-1.673c-0.009,-0.341 -0.144,-0.62 -0.406,-0.838c-0.261,-0.217 -0.768,-0.423 -1.52,-0.616l-2.546,-0.671c-1.311,-0.328 -2.338,-0.841 -3.081,-1.536c-0.744,-0.696 -1.134,-1.742 -1.17,-3.139c-0.036,-1.397 0.499,-2.558 1.606,-3.483c1.107,-0.925 2.711,-1.415 4.812,-1.469c2.1,-0.055 3.884,0.209 5.35,0.789c0.027,0.213 0.043,0.426 0.049,0.639c0.028,1.109 -0.18,2.139 -0.625,3.09l-2.623,0.068c-0.29,-0.484 -0.484,-0.991 -0.583,-1.522c-0.601,-0.134 -1.2,-0.193 -1.798,-0.177Z" style="fill:#38332a;fill-rule:nonzero;"/><path d="M287.719,15.712c-1.408,0.036 -2.101,0.47 -2.079,1.302c0.02,0.789 0.771,1.356 2.253,1.702l2.544,0.606c2.62,0.615 3.959,2.085 4.02,4.41c0.041,1.599 -0.485,2.92 -1.578,3.962c-1.093,1.042 -2.861,1.595 -5.303,1.658c-2.442,0.063 -4.354,-0.229 -5.736,-0.876c-0.028,-0.234 -0.045,-0.468 -0.051,-0.703c-0.03,-1.173 0.177,-2.234 0.622,-3.185l2.655,-0.069c0.291,0.505 0.486,1.033 0.585,1.586c0.43,0.117 1.04,0.165 1.829,0.144c1.876,-0.048 2.801,-0.606 2.773,-1.672c-0.009,-0.341 -0.144,-0.621 -0.406,-0.838c-0.261,-0.217 -0.768,-0.423 -1.52,-0.617l-2.546,-0.67c-1.311,-0.329 -2.338,-0.841 -3.081,-1.536c-0.744,-0.696 -1.134,-1.742 -1.17,-3.139c-0.036,-1.397 0.499,-2.558 1.606,-3.483c1.107,-0.925 2.711,-1.415 4.812,-1.469c2.1,-0.055 3.884,0.208 5.35,0.789c0.027,0.213 0.043,0.426 0.049,0.639c0.028,1.109 -0.18,2.139 -0.624,3.089l-2.624,0.068c-0.29,-0.483 -0.484,-0.99 -0.583,-1.521c-0.601,-0.134 -1.2,-0.193 -1.797,-0.177Z" style="fill:#38332a;fill-rule:nonzero;"/><path d="M303.779,28.932c-2.559,0.066 -4.502,-0.566 -5.827,-1.898c-1.326,-1.331 -2.023,-3.298 -2.09,-5.9c-0.041,-1.578 0.148,-2.943 0.566,-4.096c0.418,-1.152 1.003,-2.048 1.755,-2.686c1.462,-1.233 3.184,-1.875 5.168,-1.927c1.983,-0.051 3.516,0.416 4.597,1.401c1.082,0.986 1.657,2.79 1.725,5.414c0.04,1.535 -0.697,2.322 -2.211,2.362l-6.942,0.18c0.12,1.341 0.492,2.281 1.114,2.82c0.622,0.539 1.594,0.791 2.916,0.756c0.725,-0.018 1.416,-0.122 2.073,-0.309c0.657,-0.188 1.132,-0.371 1.426,-0.55l0.441,-0.267l1.027,2.534c-0.125,0.153 -0.306,0.344 -0.546,0.575c-0.239,0.23 -0.85,0.544 -1.832,0.943c-0.982,0.399 -2.102,0.615 -3.36,0.648Zm1.754,-10.129c0.035,-0.3 0.047,-0.663 0.035,-1.089c-0.011,-0.427 -0.193,-0.876 -0.547,-1.347c-0.353,-0.471 -0.951,-0.695 -1.794,-0.673c-0.842,0.021 -1.481,0.294 -1.915,0.817c-0.435,0.524 -0.711,1.395 -0.829,2.615l5.05,-0.323Z" style="fill:#38332a;fill-rule:nonzero;"/><path d="M315.64,32.081c0.384,-0.01 0.786,-0.378 1.204,-1.103c0.419,-0.726 0.701,-1.582 0.846,-2.567l-5.568,-12.276c-1.054,-0.314 -1.768,-0.701 -2.143,-1.161l0.256,-2.471l7.357,-0.191l0.384,2.455c-0.268,0.348 -0.729,0.67 -1.383,0.964l1.884,4.785c0.41,0.992 0.703,1.977 0.877,2.954l0.108,0.445l0.448,-0.011c0.143,-1.071 0.412,-2.198 0.808,-3.382l1.573,-4.779c-0.797,-0.278 -1.361,-0.626 -1.692,-1.044l0.256,-2.472l7.038,-0.182l0.384,2.455c-0.371,0.5 -1.064,0.934 -2.079,1.302l-4.955,12.613c-0.941,2.393 -1.669,3.938 -2.184,4.634c-0.906,1.282 -2.196,1.945 -3.87,1.989c-1.674,0.043 -2.96,-0.361 -3.857,-1.213c-0.027,-0.212 -0.043,-0.425 -0.048,-0.638c-0.031,-1.173 0.186,-2.289 0.649,-3.346l2.655,-0.069c0.335,0.567 0.536,1.341 0.605,2.321l0.447,-0.012Z" style="fill:#38332a;fill-rule:nonzero;"/><path d="M405.933,11.98c-1.408,0 -2.112,0.416 -2.112,1.248c0,0.79 0.736,1.376 2.208,1.76l2.528,0.672c2.603,0.683 3.904,2.187 3.904,4.512c0,1.6 -0.56,2.907 -1.68,3.92c-1.12,1.014 -2.901,1.52 -5.344,1.52c-2.442,0 -4.346,-0.341 -5.712,-1.024c-0.021,-0.234 -0.032,-0.469 -0.032,-0.704c0,-1.173 0.235,-2.229 0.704,-3.168l2.656,0c0.278,0.512 0.459,1.046 0.544,1.6c0.427,0.128 1.035,0.192 1.824,0.192c1.878,0 2.816,-0.533 2.816,-1.6c0,-0.341 -0.128,-0.624 -0.384,-0.848c-0.256,-0.224 -0.757,-0.442 -1.504,-0.656l-2.528,-0.736c-1.301,-0.362 -2.314,-0.901 -3.04,-1.616c-0.725,-0.714 -1.088,-1.77 -1.088,-3.168c0,-1.397 0.566,-2.544 1.696,-3.44c1.131,-0.896 2.747,-1.344 4.848,-1.344c2.102,0 3.878,0.31 5.328,0.928c0.022,0.214 0.032,0.427 0.032,0.64c0,1.11 -0.234,2.134 -0.704,3.072l-2.624,0c-0.277,-0.49 -0.458,-1.002 -0.544,-1.536c-0.597,-0.149 -1.194,-0.224 -1.792,-0.224Z" style="fill:#38332a;fill-rule:nonzero;"/><path d="M421.357,25.612c-2.517,0 -4.384,-0.672 -5.6,-2.016c-1.216,-1.344 -1.824,-3.376 -1.824,-6.096c0,-2.72 0.678,-4.8 2.032,-6.24c1.355,-1.44 3.302,-2.16 5.84,-2.16c2.539,0 4.422,0.64 5.648,1.92c1.227,1.28 1.84,3.28 1.84,6c0,2.72 -0.688,4.832 -2.064,6.336c-1.376,1.504 -3.333,2.256 -5.872,2.256Zm-2.816,-8.384c0,3.414 1.024,5.12 3.072,5.12c1.046,0 1.819,-0.389 2.32,-1.168c0.502,-0.778 0.752,-2.053 0.752,-3.824c0,-3.328 -1.045,-4.992 -3.136,-4.992c-1.024,0 -1.781,0.368 -2.272,1.104c-0.49,0.736 -0.736,1.99 -0.736,3.76Z" style="fill:#38332a;fill-rule:nonzero;"/><path d="M432.685,8.748c0,-2.218 0.48,-3.888 1.44,-5.008c0.96,-1.12 2.486,-1.68 4.576,-1.68c2.091,0 3.904,0.566 5.44,1.696c0.022,0.15 0.032,0.368 0.032,0.656c0,0.288 -0.074,0.763 -0.224,1.424c-0.149,0.662 -0.352,1.195 -0.608,1.6l-2.688,0c-0.384,-0.725 -0.586,-1.408 -0.608,-2.048c-0.256,-0.042 -0.469,-0.064 -0.64,-0.064c-0.81,0 -1.386,0.224 -1.728,0.672c-0.341,0.448 -0.512,1.259 -0.512,2.432l0,1.216l4.896,0l0,2.944l-4.896,0l0,9.056c1.6,0.32 2.688,0.736 3.264,1.248l-0.32,2.464l-8.864,0l-0.32,-2.464c0.299,-0.405 0.886,-0.768 1.76,-1.088l0,-9.216l-1.408,0l-0.352,-2.208c0.47,-0.426 1.056,-0.672 1.76,-0.736l0,-0.896Z" style="fill:#38332a;fill-rule:nonzero;"/><path d="M448.973,5.324l0,4.032l4.576,0l0,2.688l-4.576,0l0,8.096c0,0.683 0.096,1.179 0.288,1.488c0.192,0.31 0.651,0.464 1.376,0.464c0.726,0 1.504,-0.16 2.336,-0.48l0.96,2.496c-1.642,0.832 -3.322,1.248 -5.04,1.248c-1.717,0 -2.88,-0.368 -3.488,-1.104c-0.608,-0.736 -0.912,-1.808 -0.912,-3.216l0,-8.992l-1.44,0l-0.352,-1.952c0.342,-0.405 1.046,-0.81 2.112,-1.216c0.256,-1.749 0.864,-2.933 1.824,-3.552l2.336,0Z" style="fill:#38332a;fill-rule:nonzero;"/><path d="M470.157,25.548l-1.632,-5.056c-0.341,-1.024 -0.608,-2.304 -0.8,-3.84l-0.096,-0.768l-0.448,0c-0.213,1.664 -0.533,3.19 -0.96,4.576l-1.504,5.088l-4.544,0l-4.032,-12.576c-0.917,-0.32 -1.546,-0.704 -1.888,-1.152l0.32,-2.464l7.488,0l0.32,2.464c-0.384,0.448 -1.034,0.832 -1.952,1.152l1.856,8.16l0.448,0c0.235,-1.13 0.512,-2.293 0.832,-3.488l2.176,-8.224l3.584,0l2.144,8.16l0.8,3.552l0.448,0c0.79,-3.605 1.323,-6.026 1.6,-7.264l0.192,-0.896c-0.96,-0.341 -1.6,-0.725 -1.92,-1.152l0.32,-2.464l7.104,0l0.32,2.464c-0.362,0.491 -1.034,0.896 -2.016,1.216l-4,12.512l-4.16,0Z" style="fill:#38332a;fill-rule:nonzero;"/><path d="M481.517,11.724c0,-0.32 0.011,-0.661 0.032,-1.024c1.984,-1.066 4.118,-1.6 6.4,-1.6c2.283,0 3.92,0.432 4.912,1.296c0.992,0.864 1.488,2.299 1.488,4.304l0,6.816c0.747,0.15 1.334,0.331 1.76,0.544l0,2.784c-1.088,0.512 -2.645,0.768 -4.672,0.768c-0.213,-0.554 -0.394,-1.226 -0.544,-2.016c-0.917,1.344 -2.581,2.016 -4.992,2.016c-1.429,0 -2.65,-0.416 -3.664,-1.248c-1.013,-0.832 -1.52,-1.962 -1.52,-3.392c0,-1.429 0.475,-2.554 1.424,-3.376c0.95,-0.821 2.363,-1.232 4.24,-1.232l3.488,0l0,-1.536c0,-1.664 -0.885,-2.496 -2.656,-2.496c-0.661,0 -1.205,0.064 -1.632,0.192c-0.042,0.896 -0.17,1.59 -0.384,2.08l-3.136,0c-0.362,-0.746 -0.544,-1.706 -0.544,-2.88Zm5.76,10.624c1.088,0 1.952,-0.32 2.592,-0.96l0,-2.624l-2.24,0c-1.536,0 -2.304,0.587 -2.304,1.76c0,0.534 0.166,0.971 0.496,1.312c0.331,0.342 0.816,0.512 1.456,0.512Z" style="fill:#38332a;fill-rule:nonzero;"/><path d="M506.861,13.292c-1.621,0 -2.741,0.31 -3.36,0.928l0,7.328c1.728,0.32 2.912,0.768 3.552,1.344l-0.32,2.464l-9.152,0l-0.32,-2.464c0.299,-0.405 0.886,-0.768 1.76,-1.088l0,-8.896c-0.746,-0.256 -1.333,-0.618 -1.76,-1.088l0.32,-2.464c1.174,-0.256 2.23,-0.384 3.168,-0.384c0.939,0 1.718,0.022 2.336,0.064l0,2.016c0.491,-0.576 1.12,-1.05 1.888,-1.424c0.768,-0.373 1.467,-0.56 2.096,-0.56c0.63,0 1.062,0.054 1.296,0.16l-0.096,4.16c-0.426,-0.064 -0.896,-0.096 -1.408,-0.096Z" style="fill:#38332a;fill-rule:nonzero;"/><path d="M517.357,25.612c-2.56,0 -4.485,-0.682 -5.776,-2.048c-1.29,-1.365 -1.936,-3.349 -1.936,-5.952c0,-1.578 0.224,-2.938 0.672,-4.08c0.448,-1.141 1.056,-2.021 1.824,-2.64c1.494,-1.194 3.232,-1.792 5.216,-1.792c1.984,0 3.504,0.507 4.56,1.52c1.056,1.014 1.584,2.832 1.584,5.456c0,1.536 -0.757,2.304 -2.272,2.304l-6.944,0c0.086,1.344 0.432,2.294 1.04,2.848c0.608,0.555 1.574,0.832 2.896,0.832c0.726,0 1.419,-0.085 2.08,-0.256c0.662,-0.17 1.142,-0.341 1.44,-0.512l0.448,-0.256l0.96,2.56c-0.128,0.15 -0.314,0.336 -0.56,0.56c-0.245,0.224 -0.864,0.523 -1.856,0.896c-0.992,0.374 -2.117,0.56 -3.376,0.56Zm2.016,-10.08c0.043,-0.298 0.064,-0.661 0.064,-1.088c0,-0.426 -0.17,-0.88 -0.512,-1.36c-0.341,-0.48 -0.933,-0.72 -1.776,-0.72c-0.842,0 -1.488,0.256 -1.936,0.768c-0.448,0.512 -0.746,1.376 -0.896,2.592l5.056,-0.192Z" style="fill:#38332a;fill-rule:nonzero;"/><path d="M591.327,28.339c-2.56,0 -4.485,-0.683 -5.776,-2.048c-1.29,-1.366 -1.936,-3.35 -1.936,-5.952c0,-1.579 0.224,-2.939 0.672,-4.08c0.448,-1.142 1.056,-2.022 1.824,-2.64c1.494,-1.195 3.232,-1.792 5.216,-1.792c1.984,0 3.504,0.506 4.56,1.52c1.056,1.013 1.584,2.832 1.584,5.456c0,1.536 -0.757,2.304 -2.272,2.304l-6.944,0c0.086,1.344 0.432,2.293 1.04,2.848c0.608,0.554 1.574,0.832 2.896,0.832c0.726,0 1.419,-0.086 2.08,-0.256c0.662,-0.171 1.142,-0.342 1.44,-0.512l0.448,-0.256l0.96,2.56c-0.128,0.149 -0.314,0.336 -0.56,0.56c-0.245,0.224 -0.864,0.522 -1.856,0.896c-0.992,0.373 -2.117,0.56 -3.376,0.56Zm2.016,-10.08c0.043,-0.299 0.064,-0.662 0.064,-1.088c0,-0.427 -0.17,-0.88 -0.512,-1.36c-0.341,-0.48 -0.933,-0.72 -1.776,-0.72c-0.842,0 -1.488,0.256 -1.936,0.768c-0.448,0.512 -0.746,1.376 -0.896,2.592l5.056,-0.192Z" style="fill:#38332a;fill-rule:nonzero;"/><path d="M599.423,12.083c1.174,-0.256 2.23,-0.384 3.168,-0.384c0.939,0 1.718,0.021 2.336,0.064l0,1.6c0.534,-0.448 1.243,-0.816 2.128,-1.104c0.886,-0.288 1.734,-0.432 2.544,-0.432c2.091,0 3.558,0.49 4.4,1.472c0.843,0.981 1.264,2.677 1.264,5.088l0,6.144c0.832,0.32 1.419,0.682 1.76,1.088l-0.32,2.464l-7.36,0l-0.32,-2.464c0.299,-0.406 0.886,-0.768 1.76,-1.088l0,-6.336c0,-1.152 -0.186,-1.926 -0.56,-2.32c-0.373,-0.395 -1.04,-0.592 -2,-0.592c-0.96,0 -1.92,0.341 -2.88,1.024l0,8.224c0.832,0.32 1.419,0.682 1.76,1.088l-0.32,2.464l-7.36,0l-0.32,-2.464c0.299,-0.406 0.886,-0.768 1.76,-1.088l0,-8.896c-0.746,-0.256 -1.333,-0.619 -1.76,-1.088l0.32,-2.464Z" style="fill:#38332a;fill-rule:nonzero;"/><path d="M625.503,31.475c1.899,0 2.848,-1.142 2.848,-3.424l0,-1.408c-1.045,0.64 -2.357,0.96 -3.936,0.96c-2.005,0 -3.546,-0.587 -4.624,-1.76c-1.077,-1.174 -1.616,-3.126 -1.616,-5.856c0,-5.44 2.496,-8.16 7.488,-8.16c1.28,0 2.475,0.277 3.584,0.832c0.214,-0.384 0.534,-0.576 0.96,-0.576l2.624,0l0,15.744c0,2.346 -0.581,4.085 -1.744,5.216c-1.162,1.13 -2.96,1.696 -5.392,1.696c-1.28,0 -2.602,-0.15 -3.968,-0.448c-1.365,-0.299 -2.4,-0.672 -3.104,-1.12c-0.021,-0.192 -0.032,-0.384 -0.032,-0.576c0,-1.174 0.278,-2.304 0.832,-3.392l2.816,0c0.235,0.448 0.406,1.045 0.512,1.792c0.811,0.32 1.728,0.48 2.752,0.48Zm-2.912,-11.68c0,1.6 0.219,2.72 0.656,3.36c0.438,0.64 1.184,0.96 2.24,0.96c1.056,0 2.011,-0.299 2.864,-0.896l0,-7.584c-0.853,-0.363 -1.781,-0.544 -2.784,-0.544c-1.984,0 -2.976,1.568 -2.976,4.704Z" style="fill:#38332a;fill-rule:nonzero;"/><path d="M635.647,12.083c1.195,-0.278 2.304,-0.416 3.328,-0.416c1.024,0 1.888,0.032 2.592,0.096l0,12.768c0.832,0.32 1.419,0.682 1.76,1.088l-0.32,2.464l-7.36,0l-0.32,-2.464c0.299,-0.406 0.886,-0.768 1.76,-1.088l0,-8.896c-0.746,-0.256 -1.333,-0.619 -1.76,-1.088l0.32,-2.464Zm3.616,-2.208c-1.77,0 -2.656,-0.806 -2.656,-2.416c0,-1.611 0.891,-2.416 2.672,-2.416c1.782,0 2.672,0.805 2.672,2.416c0,1.61 -0.896,2.416 -2.688,2.416Z" style="fill:#38332a;fill-rule:nonzero;"/><path d="M644.927,12.083c1.174,-0.256 2.23,-0.384 3.168,-0.384c0.939,0 1.718,0.021 2.336,0.064l0,1.6c0.534,-0.448 1.243,-0.816 2.128,-1.104c0.886,-0.288 1.734,-0.432 2.544,-0.432c2.091,0 3.558,0.49 4.4,1.472c0.843,0.981 1.264,2.677 1.264,5.088l0,6.144c0.832,0.32 1.419,0.682 1.76,1.088l-0.32,2.464l-7.36,0l-0.32,-2.464c0.299,-0.406 0.886,-0.768 1.76,-1.088l0,-6.336c0,-1.152 -0.186,-1.926 -0.56,-2.32c-0.373,-0.395 -1.04,-0.592 -2,-0.592c-0.96,0 -1.92,0.341 -2.88,1.024l0,8.224c0.832,0.32 1.419,0.682 1.76,1.088l-0.32,2.464l-7.36,0l-0.32,-2.464c0.299,-0.406 0.886,-0.768 1.76,-1.088l0,-8.896c-0.746,-0.256 -1.333,-0.619 -1.76,-1.088l0.32,-2.464Z" style="fill:#38332a;fill-rule:nonzero;"/><path d="M671.327,28.339c-2.56,0 -4.485,-0.683 -5.776,-2.048c-1.29,-1.366 -1.936,-3.35 -1.936,-5.952c0,-1.579 0.224,-2.939 0.672,-4.08c0.448,-1.142 1.056,-2.022 1.824,-2.64c1.494,-1.195 3.232,-1.792 5.216,-1.792c1.984,0 3.504,0.506 4.56,1.52c1.056,1.013 1.584,2.832 1.584,5.456c0,1.536 -0.757,2.304 -2.272,2.304l-6.944,0c0.086,1.344 0.432,2.293 1.04,2.848c0.608,0.554 1.574,0.832 2.896,0.832c0.726,0 1.419,-0.086 2.08,-0.256c0.662,-0.171 1.142,-0.342 1.44,-0.512l0.448,-0.256l0.96,2.56c-0.128,0.149 -0.314,0.336 -0.56,0.56c-0.245,0.224 -0.864,0.522 -1.856,0.896c-0.992,0.373 -2.117,0.56 -3.376,0.56Zm2.016,-10.08c0.043,-0.299 0.064,-0.662 0.064,-1.088c0,-0.427 -0.17,-0.88 -0.512,-1.36c-0.341,-0.48 -0.933,-0.72 -1.776,-0.72c-0.842,0 -1.488,0.256 -1.936,0.768c-0.448,0.512 -0.746,1.376 -0.896,2.592l5.056,-0.192Z" style="fill:#38332a;fill-rule:nonzero;"/><path d="M686.783,28.339c-2.56,0 -4.485,-0.683 -5.776,-2.048c-1.29,-1.366 -1.936,-3.35 -1.936,-5.952c0,-1.579 0.224,-2.939 0.672,-4.08c0.448,-1.142 1.056,-2.022 1.824,-2.64c1.494,-1.195 3.232,-1.792 5.216,-1.792c1.984,0 3.504,0.506 4.56,1.52c1.056,1.013 1.584,2.832 1.584,5.456c0,1.536 -0.757,2.304 -2.272,2.304l-6.944,0c0.086,1.344 0.432,2.293 1.04,2.848c0.608,0.554 1.574,0.832 2.896,0.832c0.726,0 1.419,-0.086 2.08,-0.256c0.662,-0.171 1.142,-0.342 1.44,-0.512l0.448,-0.256l0.96,2.56c-0.128,0.149 -0.314,0.336 -0.56,0.56c-0.245,0.224 -0.864,0.522 -1.856,0.896c-0.992,0.373 -2.117,0.56 -3.376,0.56Zm2.016,-10.08c0.043,-0.299 0.064,-0.662 0.064,-1.088c0,-0.427 -0.17,-0.88 -0.512,-1.36c-0.341,-0.48 -0.933,-0.72 -1.776,-0.72c-0.842,0 -1.488,0.256 -1.936,0.768c-0.448,0.512 -0.746,1.376 -0.896,2.592l5.056,-0.192Z" style="fill:#38332a;fill-rule:nonzero;"/><path d="M704.159,16.019c-1.621,0 -2.741,0.309 -3.36,0.928l0,7.328c1.728,0.32 2.912,0.768 3.552,1.344l-0.32,2.464l-9.152,0l-0.32,-2.464c0.299,-0.406 0.886,-0.768 1.76,-1.088l0,-8.896c-0.746,-0.256 -1.333,-0.619 -1.76,-1.088l0.32,-2.464c1.174,-0.256 2.23,-0.384 3.168,-0.384c0.939,0 1.718,0.021 2.336,0.064l0,2.016c0.491,-0.576 1.12,-1.051 1.888,-1.424c0.768,-0.374 1.467,-0.56 2.096,-0.56c0.63,0 1.062,0.053 1.296,0.16l-0.096,4.16c-0.426,-0.064 -0.896,-0.096 -1.408,-0.096Z" style="fill:#38332a;fill-rule:nonzero;"/></svg>