<svg viewBox="0 0 100 100" xmlns="http://www.w3.org/2000/svg" fill-rule="evenodd" clip-rule="evenodd" stroke-linecap="round" stroke-linejoin="round" stroke-miterlimit="1.5"><path d="M5 15c-.1-.22.37 3.85.5 5.27.36 4.23.92 8.56 1.42 12.78.5 4.33 1.07 8.52 1.48 12.78C8.81 50.15 9.5 54.7 10 59c.35 2.97 1.15 5.4 1.69 8.34.17.92.89 1.02 1.31 1.66" fill="none" stroke="#38332a" stroke-width="5"/><path d="M12.63 68.45c-.17 0 2.01 2.44 2.46 2.72 2.12 1.36 3.83 3.1 5.88 4.5 2.44 1.66 13.97 9.71 16.68 12.62.27.29.67.58 1.1.9 1.24.87 2.27 2.47 2.8 3.17" fill="none" stroke="#38332a" stroke-width="5" transform="matrix(1.01577 0 0 .98476 -.2 1.04)"/><path d="M4.6 14.5c-.16 0 1.17-.4 1.4-.45.98-.2 1.97-.37 2.95-.6 2.93-.7 5.83-.9 8.82-1.3 10.48-1.48 20.78-3.89 31.3-5.26 3.34-.43 6.65-.93 10-1.4C60.15 5.34 64 5 64 5s-.51.09-.99.09M64 6c.22-.27.6 2.01.68 2.26.35 1.16.76 2.29.96 3.48.57 3.49 1.37 6.88 1.87 10.32.7 4.86 1.52 9.87 1.85 14.79.26 3.84 1.1 7.69 1.31 11.5.1 1.5-.02 3.18.33 4.65.52 2.15 4.05 3.99 5.66 5.17A167.1 167.1 0 0 0 84 63c4.1 2.48 5.7 3.16 9.01 5.52 1.15.82 3.14 1.9 3.47 3.4.54 2.41-3.09 3.83-6.48 5.08-2.96 1.1-7.65 2.97-10.67 3.93C75.05 82.3 70.36 83.53 66 85" fill="none" stroke="#38332a" stroke-width="5"/><path d="M12.08 19.5c0-.45 12.26-2.17 13.92-2.5 4.27-.85 12.38-2.3 16-3 4.06-.8 15.33-3.42 16-3 .28.17 1.66 6.53 1.78 7.86.49 5.22 1.85 10.4 2.52 15.6.45 3.48 1.07 7.02 1.83 10.44.17.77 1.39 4.98.87 5.1-3.03.7-7.02 1.48-9.6 2.04-4.68 1-9.42 1.53-14.06 2.68-4.5 1.1-8.73 2.36-13.34 3.28-2.35.47-4.94.75-7.3 1.19-.86.16-3.58 1.85-3.7.81-.25-2.08-.64-6.7-.96-8.78-1-6.5-1.62-13.03-2.37-19.55-.32-2.76-1.14-5.43-1.55-8.18-.1-.64-.37-4.2-.65-3.88" fill="none" stroke="#38332a" stroke-width="3"/><path d="M21.16 28c.21.46 2.43 1.35 2.83 1.6 1.71 1 3.43 2.01 5.22 2.88 1.24.6 2.64 1.08 3.68 2.02.35.32 2.6 1 2.61 1.24.03.66-1 1.68-1.35 2.18-1.05 1.55-2 3.16-2.95 4.76-1 1.68-1.96 3.41-3.34 4.82M39.2 45.68c-.22-.14.56-.43.6-.44 1-.34 2-.7 3-1.07 2.74-1.02 5.6-1.58 8.39-2.44.76-.24 1.55-.47 2.33-.67.25-.06.51-.13.77-.18.14-.03.56-.1.42-.1" fill="none" stroke="#38332a" stroke-width="3"/><path d="M66.8 86.45c-1.43.7-6.48 2.6-8 3-2.95.76-10.1 2.46-12 3-1.21.35-4.67 1.38-5 1.62" fill="none" stroke="#38332a" stroke-width="5.32" transform="matrix(.96 0 0 .91857 1.88 5.59)"/><path d="M20.93 66.65c-.18-.6 2.74 2.44 3.6 3.27C26.7 72 32.3 76.09 33 76c.77-.1 2.26-.73 3-1 2.84-1.04 30.7-8.3 34.76-9.72.85-.3 4.84-1.11 4.84-1.11S69.27 59.34 68 58c-.32-.34-1.97-1.74-2.45-1.77-.47-.04-12.33 3.4-14.55 3.77-3.73.61-7.88 1.75-11.6 2.36-2.68.44-5.22 1.26-7.8 2.07-1.39.43-10.67 2.22-10.67 2.22zM53 75c1.31-.6 14.02-4.57 15.38-4.85.24-.05.7.58.82.74.65.85 3.58 3.46 4.3 4.02.04.03.66.45.64.5-.27.5-2.19.95-2.7 1.22C69.25 77.75 59.64 81.1 59 81c-.24-.04-6-6-6-6z" fill="none" stroke="#38332a" stroke-width="3"/></svg>