<svg viewBox="0 0 417 417" xmlns="http://www.w3.org/2000/svg" fill-rule="evenodd" clip-rule="evenodd" stroke-linecap="round" stroke-linejoin="round" stroke-miterlimit="1.5">
    <g fill="none" stroke="#38332a">
        <path d="M108.39 393.33S121.12 226 113.2 228.45C75.26 240.27 47.67 84.44 57.58 66.16c.29-.53 102.9-8.1 139.88 0 8.65 1.9-8.1 160.3-54.77 162.3-7.16.3 7.65 147.18 7.65 164.87 0 1.12-41.95.28-41.95 0z" stroke-width="20.83"/>
        <path d="M83.4 84.72c-11.82 3.33 9.33 106.4 21.6 103.76 10.06-2.17-16.42-105.22-21.6-103.76zm45.17 103.81c-12.24-.85-12.55-103.91 0-103.83 10.3.07 5.37 104.2 0 103.83zM172.72 86.1c4.18 15.74-12.22 113.58-21.6 103.76-10.54-11.05 15.06-128.48 21.6-103.77z" stroke-width="12.5"/>
    </g>
    <g fill="none" stroke="#38332a">
        <path d="M257.37 382.64c2.72 14.6 43.87 13.35 43.75 5.55-.03-1.95.9-87.91-.1-89.87-4.5-8.94-13.01-40.4-11.67-40.4 13.5 0 52.19 1.18 52.72.4 14.75-21.82-1.9-182.45-40.25-231.56-.48-.62-34.18 33.6-42.42 43.95 0 21.41-2.03 281.66-2.03 311.93z" stroke-width="20.83"/>
        <path d="M281.5 58.63c32.59 117.14 20.89 197.3 20.89 196.85m-17.07.02c-5.43 4.07-19.8 8.22-27.95-6.04m27.95 26.4c-5.43 4.08-19.8 8.23-27.95-6.03" stroke-width="12.5"/>
    </g>
</svg>
