<svg xmlns="http://www.w3.org/2000/svg" xml:space="preserve" style="fill-rule:evenodd;clip-rule:evenodd;stroke-linecap:round;stroke-linejoin:round;stroke-miterlimit:1.5" viewBox="0 0 479 258"><path d="M43.73 49.2c8.37 8.18 29.8 30.08 36.72 34.33 5.82 3.56 28.09 9.1 28.05 8.99-.86-2-6.33-16.46-7.68-17.95-.2-.22 7.8 17.74 7.68 17.95-.5.83-19.62 9.49-19.62 8.67" style="fill:none;stroke:#38332a;stroke-width:6px" transform="rotate(41.05 19.15 46.65)"/><path d="M322.73 175.11c11.41-.93 25.03-7.85 31.84-17.13 3.95-5.4 6.14-11.64 8.15-17.95 2.12-6.66 3.85-12.95 3.61-19.96-.05-1.62-.1-3.24-.2-4.86 0-.12-.03-1.42-.31-1.35-.66.15-1.39 1.43-1.77 1.9a73.35 73.35 0 0 1-4.57 5.02 80.38 80.38 0 0 0-3.11 3.39 6.8 6.8 0 0 0-.95 1.13c.17.2 2.45-2.7 2.6-2.88 1.78-2.17 3.67-4.24 5.52-6.34.55-.62 1.5-2.43 2.43-2.53 4.43-.48 6.88 4.77 8.67 8.04.25.46 2.85 4.7 2.3 4.7" style="fill:none;stroke:#38332a;stroke-width:7.62px" transform="matrix(-.15782 -.74952 -.79133 .16662 289.47 330.85)"/><path d="M325.42 185.63c11.4-.93 31.83-30.46 37.3-45.6 2.4-6.62 3.85-12.95 3.61-19.96-.05-1.62-.1-3.24-.2-4.86 0-.12-.03-1.42-.31-1.35-.66.15-1.39 1.43-1.77 1.9a73.35 73.35 0 0 1-4.57 5.02 80.38 80.38 0 0 0-3.11 3.39 6.8 6.8 0 0 0-.95 1.13c.17.2 2.45-2.7 2.6-2.88 1.78-2.17 3.67-4.24 5.52-6.34.55-.62 1.5-2.43 2.43-2.53 4.43-.48 6.88 4.77 8.67 8.04.25.46 2.85 4.7 2.3 4.7" style="fill:none;stroke:#38332a;stroke-width:8.03px" transform="matrix(-.29463 .48705 .7616 .46072 178.48 -23.41)"/><path d="M410.46 33.06c-3.4-1.68-16.52-3.36-23.28-.6-5.85 2.4-12.26 7.3-15.05 13.66-4.93 11.2-2.41 26.91.2 32.08 3.3 6.55 27.28 29.1 50.24 6.6 1.94-1.9 14.58-22.15 3.78-39.67-4.47-7.24-8.65-8.49-15.89-12.07" style="fill:none;stroke:#38332a;stroke-width:6px" transform="translate(-300.22 111.26)"/><path d="M410.46 33.06c-3.4-1.68-16.52-3.36-23.28-.6-5.85 2.4-12.26 7.3-15.05 13.66-4.93 11.2-2.41 26.91.2 32.08 3.3 6.55 27.28 29.1 50.24 6.6 1.94-1.9 14.58-22.15 3.78-39.67-4.47-7.24-8.65-8.49-15.89-12.07" style="fill:none;stroke:#38332a;stroke-width:6px" transform="rotate(-46.61 282.75 295.93)"/><path d="M305.24 81.86c-19.06-8.7-33.71-10.62-47.82-3.58-4.2 2.1-8.77 4.13-11.94 7.74-5.74 6.56-6.98 19.47-7.31 27.65-.33 8.1 3.42 15.98 5.64 18.88 7.83 10.2 17.1 12.35 29.84 12.35 14.7 0 28.57-.68 38.28-11.89 5.81-6.71 15.14-13 14.46-22.84-.64-9.14-12.6-24.41-21.15-28.31" style="fill:none;stroke:#38332a;stroke-width:7.61px" transform="matrix(.74675 0 0 .82835 71.53 8.97)"/><path d="M305.24 81.86c-19.06-8.7-45.74-10.48-59.76 4.16-6.05 6.33-7.35 19.46-7.31 27.65.2 42.16 64.91 31.12 73.76 19.34 19.82-26.36 1.87-47.25-6.7-51.15" style="fill:none;stroke:#38332a;stroke-width:7.61px" transform="matrix(.74675 0 0 .82835 208.89 -40.38)"/><path d="M305.24 81.86c-8.07-5.4-34.5-5.96-50.83 5.7-7.27 5.2-15.91 17.93-16.24 26.1-.33 8.12 3.42 15.99 5.64 18.89 7.83 10.2 49.34 13.2 63.48 6.9 13.23-5.91 19.78-19.43 19.1-29.28-.64-9.14-13.45-23.16-21.15-28.31" style="fill:none;stroke:#38332a;stroke-width:7.61px" transform="matrix(.02608 .7463 -.82785 .02893 352.15 -6.4)"/><path d="M235.76 34c7.31 0 14.24-1.6 21.48-2.25 17.5-1.59 36.68-3.5 54.32-1.74 5.24.52 10.31 2.95 15.43 4.14 10.3 2.39 20.4 3.82 30.62 6.19 4.75 1.1 11.03 5.55 15.65 5.55" style="fill:none;stroke:#38332a;stroke-width:6px;stroke-dasharray:6,12,0,0"/><path d="M373.07 45.7c0-2.49-.75-4.23-1.55-6.63-.82-2.43-1.46-9.84-3.54-11.93m5.52 20.06c-5.68 0-11.43-.25-17.09.17-.7.05-4.65.16-4.65 1.15" style="fill:none;stroke:#38332a;stroke-width:6px" transform="translate(4.02 8.06)"/><path d="M289.4 46.16c0-3.15 3.78-4.32 6.5-4.66 4.98-.63 12.6-1.33 15.28 4.02 2.84 5.7-7.03 9.26-8.75 12.66-.82 1.6.78 4.95 1.57 6.42.7 1.29 2.2 4.37 3.06 4.37m5.49 7.83c.24.38.46.65.46.23" style="fill:none;stroke:#38332a;stroke-width:6px" transform="translate(31.3 31.13)"/><path d="M284.77 166.47c0-4.4 3.86-8.7 8.43-8.7 2.18 0 5.36-.09 6.18 2.55 2.42 7.8-3.98 11.18-6.9 16.92-.26.53 1.19.58 1.4 1.15.77 2.1 4.67 5.64 4.67 7.66m4.38 11.33h.12" style="fill:none;stroke:#38332a;stroke-width:6px" transform="translate(17.78 -.57)"/></svg>