<svg viewBox="0 0 514 148" xmlns="http://www.w3.org/2000/svg" fill-rule="evenodd" clip-rule="evenodd" stroke-linecap="round" stroke-linejoin="round" stroke-miterlimit="1.5"><path d="M5.53 30.04c-2.7 3.36.69-2.98 1.33-3.85a41.94 41.94 0 0 1 8.74-8.77c9.25-6.78 24.5-13.47 36.22-12.67 22.93 1.57 31.45 32.83 24.21 51.22C63.43 88 16.24 87 5.08 54.85 2.7 48.03.13 40.55 3.93 33.8c.81-1.44 5.5-9.74 7.4-7.23M82.29 35.23l1.89-1.7a179.8 179.8 0 0 1 4.37-3.76 86.35 86.35 0 0 1 13.82-9.4c14.69-8.05 33.7-17.05 50.77-18.23 12.39-.86 24.71 2.34 35.47 8.45 3.94 2.24 8.16 6.08 12.36 7.73.01 0 .13.03.16.02 1.21-.78-1.17-2.64-1.65-4-.9-2.51-1.62-5.07-2.37-7.62-.1-.3-1-3.71-.88-3.68 2.01.5 3.66 4.16 4.45 5.7 5.12 10.04 1.91 11.84-6.24 17.75-1.26.92-5.3 4.74-7.08 4.18M207.97 22.84c-3.9 2.04-3.51-2.33-1.67-5.2a33.08 33.08 0 0 1 12.09-10.97c11.54-6.24 28.09-5.9 40.03-.69 22.57 9.85 17.18 40.92 3.17 55.78a26.8 26.8 0 0 1-8.47 5.91c-18.67 8.55-29.27-5.25-36.3-21.19-3.1-7.03-6.09-15.37-5.1-23.2.22-1.66.62-3.31 1.23-4.86.17-.42 3.08-5.65 3.5-5.01M73 64.8c.6-1.8 7.6-3.72 8.94-4.4 10.8-5.54 21.64-9.05 33.8-10.07 33.96-2.86 69.1 16.12 93.16 39.14 5.15 4.93 9.57 10.58 14.01 16.13 1.26 1.57 4.57 4.46 4.98 6.54.16.82-.99-1.35-1.35-2.1-.64-1.3-1.28-2.59-1.79-3.96-1.96-5.27-4.58-10.66-5.88-16.14-.04-.14-.88-4.75-.86-4.75.66 0 5.95 11.46 6.56 12.9a61.14 61.14 0 0 1 2.02 5.38c2.86 9.15-.85 8.78-8.92 12.57-2.84 1.33-6.08 3.4-9.32 3.28M232.87 116.25c0 2.06 2.34-1.63 2.54-2.14 1.82-4.76 3.23-9.7 5.59-14.24 6.3-12.16 15.17-20.52 29.59-18.39 7.48 1.11 15.75 3.42 21.04 9.17 11.44 12.45 11.72 38.29-2.4 49.06-13.31 10.16-39.89 6.78-50.9-6.13-4.4-5.17-7.95-11.97-7.72-18.9.08-2.44.6-4.96 1.2-7.32.12-.5.74-3.98.59-3.84M299.78 99.54c-.78 1.24 8.6-6.93 9.45-7.66a173.74 173.74 0 0 1 21.79-15.5c22.18-13.5 46.29-20.93 71.45-26.19.53-.1-1.4-.55-1.7-.65-1.43-.44-2.84-.95-4.27-1.36-2.24-.64-12.66-3.92-14.54-2.35-.14.12 4.69 1.66 5.06 1.77 1.77.49 12.47 2.67 12.65 5.07.25 3.57-12.72 13.95-15.18 15.77-.77.56-4.23 4.04-5.36 3.16" fill="none" stroke="#38332a" stroke-width="4"/><path d="M277.46 25.93c-.3.34-1.12.78-1.12.78s.83-.52 1.25-.75c2-1.1 4.03-2.13 6.13-3.03a165.75 165.75 0 0 1 15.34-5.73c15.21-4.82 31.43-8.15 47.46-7.5 13.58.54 29.02 2.03 41.4 8.19 3.96 1.96 7.49 4.71 11.14 7.19.4.27 2.68 2.35 3.22 2.13.16-.07-1.38-3.2-1.47-3.37-.42-.87-5.66-11.25-4.6-11.55 1.22-.35 2.57 2.36 2.95 3.1 1.19 2.26 6.7 11.65 5.65 14.46-.46 1.24-4.2 1.7-5.2 1.9-4.42.93-10.12 2.76-14.67 2M406.3 46.02c0 8.32 4.69-13.9 5.67-15.7 5.63-10.3 19.23-18.34 30.74-13.48 15.86 6.69 21.81 25.75 17.5 41.61-2.2 8.1-8.38 17.14-17.4 18.12-14.62 1.59-24.71-15.65-28.23-27.74a36.6 36.6 0 0 1-1.38-12.09c.04-.64.71-6.42.56-6.32M304.75 118.85c0 3.47 12.91 1.07 15.18.98 17.01-.63 34.3-1.68 51.26-3.15 14.96-1.29 29.82-.97 44.77.22 6.03.48 12.01.5 18.06.5.32 0 5.09.2 5.09-.22 0-.59-3.04-2.2-3.47-2.56-3.21-2.72-5.67-6.2-8.25-9.49-.33-.41-3.36-3.47-2.88-4.08.46-.58 4.16 2.53 4.53 2.82 3.14 2.5 12.34 7.15 12.89 11.73.2 1.75-2.36 3.56-3.33 4.68-3.1 3.58-8.02 10.05-12.57 11.82M504.17 96.8c-6.46-9.03-18.74-16.17-30.12-13.82-17.17 3.54-28.5 15.93-27.06 33.1.41 4.93 1.12 9.55 4.29 13.55 4.48 5.67 11.6 9.97 18.38 12.2a49.02 49.02 0 0 0 18.5 2.19c26.94-1.93 29.5-27.92 14.23-45.11-3.76-4.24-11.2-13.17-17.74-12.19" fill="none" stroke="#38332a" stroke-width="4"/><path d="M35.2 51.17l4.33-.53V33.3h-4.37v-2.94l9.49-1.72v21.99l4.32.53v3.07H35.21v-3.07zM234.56 46.61v-3.36l8.28-8.87a20.03 20.03 0 0 0 2.55-3.48c.5-.94.76-1.81.76-2.62 0-1.08-.3-1.96-.87-2.65a3.06 3.06 0 0 0-2.47-1.03c-1.19 0-2.09.4-2.7 1.2-.62.81-.92 1.88-.92 3.22h-5l-.03-.11c-.06-2.3.7-4.26 2.28-5.86 1.57-1.6 3.7-2.4 6.37-2.4 2.63 0 4.7.68 6.22 2.05a7.05 7.05 0 0 1 2.27 5.49c0 1.55-.43 2.98-1.28 4.29a40.44 40.44 0 0 1-4.22 5.13l-4.56 4.98.04.08h6.64l.21-2.53h3.9v6.47h-17.47zM262.85 110.64h2.89c1.22 0 2.12-.32 2.7-.96a3.8 3.8 0 0 0 .88-2.67c0-1.03-.29-1.85-.88-2.47-.58-.63-1.43-.94-2.55-.94a3.6 3.6 0 0 0-2.42.85c-.66.56-.99 1.3-.99 2.21h-4.97l-.04-.1c-.07-2 .7-3.66 2.3-4.96a9.18 9.18 0 0 1 5.98-1.95c2.65 0 4.76.63 6.34 1.9 1.58 1.26 2.37 3.07 2.37 5.41 0 1.11-.36 2.17-1.06 3.17a7 7 0 0 1-2.9 2.35c1.42.5 2.5 1.28 3.24 2.32a6.1 6.1 0 0 1 1.12 3.64c0 2.34-.85 4.19-2.56 5.53-1.7 1.34-3.89 2.01-6.55 2.01-2.38 0-4.42-.63-6.12-1.89a6.04 6.04 0 0 1-2.47-5.33l.03-.11h4.98c0 .99.35 1.8 1.05 2.44.7.63 1.6.95 2.67.95 1.19 0 2.12-.32 2.8-.98a3.52 3.52 0 0 0 1.04-2.67c0-1.35-.34-2.34-1.01-2.96-.68-.63-1.67-.95-2.98-.95h-2.89v-3.84zM444.96 47.72h2.9v3.4h-2.9v2.52l2.72.53v3.07H437.1v-3.07l2.74-.53v-2.51H429.4l-.24-2.52 10.63-16.96h5.17v16.07zm-11 0h5.88v-9.23l-.1-.04-.42.74-5.37 8.53zM483.64 107.48l-.46-1.72h-6.89l-.72 5.9a6.42 6.42 0 0 1 1.73-.86c.66-.23 1.4-.35 2.21-.36 2.46-.04 4.37.7 5.71 2.23 1.35 1.52 2.02 3.64 2.02 6.36 0 2.46-.74 4.5-2.22 6.14-1.48 1.63-3.62 2.44-6.4 2.44a9.63 9.63 0 0 1-6.04-1.92 6.1 6.1 0 0 1-2.42-5.3l.03-.1 4.93-.24c0 1.14.32 2.03.96 2.67.65.63 1.49.95 2.53.95 1.2 0 2.08-.42 2.66-1.28.57-.85.86-1.96.86-3.32 0-1.48-.3-2.66-.91-3.55a3.08 3.08 0 0 0-2.73-1.34 3.9 3.9 0 0 0-2.24.55c-.52.36-.9.85-1.12 1.47l-4.53-.3 1.47-14.25h14.74v5.83h-3.17z" fill="#38332a" fill-rule="nonzero" stroke="#38332a" stroke-linecap="butt" stroke-miterlimit="1.41"/></svg>