<svg viewBox="0 0 519 191" xmlns="http://www.w3.org/2000/svg" fill-rule="evenodd" clip-rule="evenodd" stroke-linecap="round" stroke-linejoin="round" stroke-miterlimit="1.5"><path d="M19.1 23.52c-.76.81 2.38-.97 2.72-1.14 2.18-1.1 4.4-2.1 6.66-3.05 6.35-2.68 13.06-4.85 19.95-5.5 16.9-1.57 37.75-.81 42.08 19.16.7 3.2 1.16 6.68.48 9.92-5.24 24.7-39.7 34.52-58.33 19.48-7.77-6.27-14.63-19.59-13.4-30.01.48-4.05 3.8-7.4 6.55-10.19.57-.57 4.37-4.21 3.81-4.21M98.23 29.75c0-.02.47-.15.5-.17 4.37-1.8 8.7-3.35 13.27-4.6 15.4-4.19 29.97-7.77 45.95-9.06 17.18-1.4 37.05.23 53.66 5.09 5.82 1.7 11.92 3.77 17.23 6.74.85.48 5.39 3.7 6.55 3.35.96-.3-1.25-9.2-1.43-9.96-.24-.97-1.62-2.93-.62-2.93 1.28 0 1.28 8.94 1.28 10.19 0 .67.1 2.7-.45 3.23-3.06 2.92-10.63.44-13.69-1.13M241.76 48.56c.48.56-4.2 3.18-4.74 3.5-5.74 3.28-12.42 4.88-18.83 6.27-24.98 5.4-51.67 7.93-77.21 8.81-8.94.31-23.33.6-31.5-3.38-4.8-2.33-4.9-9.5-9.04-11.44-.27-.13-.64-.08-.82.17-1.65 2.22-1.1 7.35-.7 9.82.24 1.45 2.09 4.37.62 4.37-.73 0-.88-3.7-.86-4.06.17-2.8.42-9.62 2.83-11.92 2.35-2.24 12.42.38 7.64-1.2M253.61 27.4c1.03.33 7.33-3.87 8.47-4.38 6.6-2.92 14.41-4.66 21.58-5.27 6.94-.6 35.3 2.4 23.25 15.78-3.74 4.15-10.53 5.13-15.75 5.59-11.68 1.04-21.78.81-31.56-6.12-2.2-1.57-4.58-5.04-2.4-7.6 1.1-1.29 3.22-2.99 4.86-3.62.53-.21 4.37-.27 2.42.34" fill="none" stroke="#38332a" stroke-width="3"/><path d="M256.38 34.24c1.2-.75 2.93-3.08 2.93-3.08s-.35 4.06-.56 6.08c-.4 3.99-.6 8.15-.72 12.17-.05 1.86.05 14.05-3.03 14.05M260.03 64.21c-.74 3.3 6.75 6.08 9.46 7 8.35 2.83 17.9 1.65 26.1-1.1 1.93-.65 14.68-5.3 9.8-6.51M310.08 63.09c-1.91 5.57-1.22-4-1.15-5.7.28-6.78 2.18-13.42 2.18-20.2 0-.95-.18-9.12-.69-8.67" fill="none" stroke="#38332a" stroke-width="3"/><path d="M309.8 49.12c0 3.46-6.31 5.27-8.86 5.8-9.02 1.86-21.27 3.2-30.34 1.08-5.03-1.17-11.5-10.26-12.54-9.97M57.15 71.04c-1.77 0-.75 14.47-.89 16.34-1.1 15.08 1.52 41.26 8.34 52.37 3.58 5.81 20.8 18.96 25.9 13.6.12-.12-1.5-3.95-1.6-4.17a46.58 46.58 0 0 1-3.05-8.43c-.36-1.47-2.04-4.4-1.08-4.4.43 0 2 5.93 2.24 6.62.86 2.46 3.3 9.63 2.86 12.78-.56 4.12-9.7 11.54-12.58 11.75M94.9 135.55c0-.38-.38.23-.61 4.68-.16 3.14-.56 6.27-.7 9.42-.33 8.11-.91 16.18-1.35 24.28-.05.96-1.28 6.6-.45 7.28.67.56 4.14-.44 4.9-.52 4.8-.48 9.64-.1 14.46-.35 19.76-.99 38.88-6.15 58.73-6.99 5.55-.23 11.19-.85 16.75-.38.8.07 5 .88 5.38-.13.8-2.2-.92-5.81-1.36-7.86-1.36-6.38-3-12.75-4.15-19.18-.62-3.47-1.34-7.45-1.18-11 .02-.33.93-5.16.54-5.21-6.19-.77-19.67 3.68-26.64 4.55-15.14 1.88-29.92 1.14-45.12 1.14-5.16 0-9.66-1.62-14.51-3.2a6.33 6.33 0 0 0-4.05.26c-.64.22-2.36.95-2 .38M187.5 133.43c3.6 0 9.84 3.35 14 3.84 13 1.54 26.38 1.52 39.4.56 42-3.11 99.15-24.07 135.85-48.05 12.74-8.32 28.32-19.64 38.1-32.4.57-.74 8.8-11.58 8.65-11.78-.66-.96-16.52 5.53-19.33 7-.4.22-4.66 1.86-4.66 2.43 0 .38 5.04-.88 5.35-.97 1.86-.55 13.72-6.63 16.16-4.86.26.19-1.92 6.33-2.06 6.68-.79 2.1-5.55 22.38-6.96 21.72" fill="none" stroke="#38332a" stroke-width="3"/><path d="M494.74 11.98c-24-20.37-90.3 3.42-67.56 40.43 2.75 4.49 7.54 7 11.8 9.82 23.45 15.51 70.53 13.4 73.96-22.02.83-8.66-5.04-20.63-11.27-26.48-2.05-1.93-7.64-6.07-10.47-3.6M481.22 84.38c3-3-17.9-2.84-20-2.75-12.68.55-23.67 4.83-34.17 11.75-5.96 3.93-10.5 8.7-7.7 16.28 2.9 7.81 15.7 12.92 22.88 15.09 20.44 6.15 59.38 11.06 64.74-17.55 2.01-10.69-14.6-20.43-23.2-23.59-1.04-.38-10.79-2.46-11.04-3.11M504.05 155.7c1.45-2.4-3.43-4.19-4.74-4.68-7.06-2.68-14.5-3.92-21.92-5.13-16.96-2.77-34.72-3.6-51.65.07-6.78 1.47-16.24 6.53-16.24 14.81 0 11.44 14.18 15.29 22.66 18.46 17.87 6.69 37.87 11.26 57.03 8.46 7.04-1.03 15.27-2.77 20.67-7.8 7.37-6.87 11.02-18.33 2.66-25.74-4.88-4.33-11.43-6.41-17.53-8.41-1.1-.36-6.24 1.6-6.1.85" fill="none" stroke="#38332a" stroke-width="3"/><path d="M186.5 137.5c5.54 0 10.3 5.32 13.79 7.37 7.48 4.4 16.62 7.85 26.1 10.34 31.3 8.23 60.76 8.07 94.08 7.65 20.84-.26 44.1-2.37 64.85-.53 2.16.2 22.9 3.8 24.17 3.3.2-.07-3.95-3.2-4.18-3.37-.74-.58-5-4.83-6.22-4.83-1.26 0 .89 1.45 1.28 2.19.83 1.56 6.4 6.1 6.05 7.51-.31 1.23-19.48 6.43-22.21 5.18" fill="none" stroke="#38332a" stroke-width="3"/><path d="M34.88 28.26l-2.08 6h-.96l-1.7-4.78-1.6 4.78h-.95l-2.09-6h1.07l1.51 4.88 1.63-4.88h.96l1.63 4.88 1.52-4.88h1.06zM41.4 30.95c0 .22-.02.45-.05.67h-4.52c.05.6.26 1.08.6 1.42.35.33.8.5 1.35.5.44 0 .81-.08 1.1-.23.3-.15.5-.37.6-.66l.8.42a2.5 2.5 0 0 1-.96.97c-.4.23-.91.34-1.54.34-.9 0-1.61-.28-2.13-.83a3.23 3.23 0 0 1-.77-2.29c0-.98.25-1.74.74-2.3.49-.54 1.19-.82 2.1-.82.55 0 1.04.12 1.44.37.41.25.72.59.93 1.01.2.42.31.9.31 1.43zm-2.69-1.97c-.53 0-.95.16-1.28.47-.32.31-.52.75-.59 1.32h3.64a2.2 2.2 0 0 0-.56-1.32 1.6 1.6 0 0 0-1.2-.47zM46.18 28.14c.84 0 1.5.28 2 .83.49.56.73 1.32.73 2.29s-.24 1.73-.74 2.29c-.49.55-1.15.83-2 .83-.46 0-.87-.1-1.24-.32a2 2 0 0 1-.8-.84l-.07 1.04h-.84V25.5h.96v3.7c.2-.32.47-.58.81-.77.35-.2.75-.29 1.19-.29zm-.11 5.4c.58 0 1.04-.2 1.38-.62.33-.41.5-.96.5-1.66s-.17-1.25-.5-1.66c-.34-.41-.8-.62-1.38-.62-.58 0-1.04.2-1.38.6-.34.4-.5.94-.5 1.6v.15c0 .67.16 1.21.5 1.61.34.4.8.6 1.38.6zM52.82 34.38c-.57 0-1.1-.11-1.56-.34-.46-.23-.8-.57-1.02-1.02l.78-.54c.14.36.38.62.71.8.34.17.73.26 1.19.26.47 0 .83-.08 1.08-.25.25-.17.37-.38.37-.64 0-.23-.11-.42-.35-.56a3.9 3.9 0 0 0-1.22-.36 6.25 6.25 0 0 1-1.37-.38 1.64 1.64 0 0 1-.73-.56 1.5 1.5 0 0 1-.23-.85c0-.33.1-.63.29-.9a2 2 0 0 1 .83-.65c.36-.17.77-.25 1.25-.25.64 0 1.15.12 1.54.35.39.24.66.6.83 1.09l-.81.48a1.5 1.5 0 0 0-.59-.83 1.77 1.77 0 0 0-.97-.25c-.4 0-.73.09-1 .26-.27.18-.4.38-.4.62 0 .26.11.46.35.6.23.15.65.28 1.26.38.83.14 1.42.34 1.77.61.34.27.51.66.51 1.15 0 .35-.1.65-.3.92a2 2 0 0 1-.88.63c-.38.15-.82.23-1.33.23zM62.26 30.95c0 .22-.02.45-.05.67h-4.53c.06.6.26 1.08.61 1.42.35.33.8.5 1.35.5.44 0 .8-.08 1.1-.23.29-.15.49-.37.6-.66l.8.42a2.5 2.5 0 0 1-.96.97c-.4.23-.92.34-1.54.34-.9 0-1.61-.28-2.13-.83a3.23 3.23 0 0 1-.77-2.29c0-.98.24-1.74.73-2.3.5-.54 1.2-.82 2.1-.82.56 0 1.04.12 1.45.37.4.25.72.59.92 1.01.21.42.32.9.32 1.43zm-2.7-1.97c-.52 0-.95.16-1.27.47-.32.31-.52.75-.6 1.32h3.64a2.2 2.2 0 0 0-.55-1.32 1.6 1.6 0 0 0-1.21-.47zM66.91 28.14c.29 0 .51.04.66.12l-.19.94a1.59 1.59 0 0 0-1.5.06c-.25.15-.45.37-.6.67-.16.3-.24.67-.24 1.09v3.24h-.96v-6h.78l.13.98c.34-.73.98-1.1 1.92-1.1zM73.96 28.26l-2.5 6h-.96l-2.5-6h1.1l1.9 5.03 1.95-5.03h1zM80.36 30.95c0 .22-.01.45-.04.67h-4.53c.06.6.26 1.08.6 1.42.36.33.8.5 1.36.5.44 0 .8-.08 1.1-.23.29-.15.49-.37.59-.66l.8.42a2.5 2.5 0 0 1-.96.97c-.4.23-.9.34-1.53.34-.9 0-1.62-.28-2.13-.83a3.23 3.23 0 0 1-.78-2.29c0-.98.25-1.74.74-2.3.5-.54 1.2-.82 2.1-.82.56 0 1.04.12 1.45.37.4.25.71.59.92 1.01.21.42.31.9.31 1.43zm-2.68-1.97c-.53 0-.96.16-1.28.47-.33.31-.52.75-.6 1.32h3.64a2.2 2.2 0 0 0-.55-1.32 1.6 1.6 0 0 0-1.21-.47zM85.02 28.14c.29 0 .5.04.66.12l-.2.94a1.59 1.59 0 0 0-1.5.06c-.24.15-.44.37-.6.67-.15.3-.23.67-.23 1.09v3.24h-.96v-6h.78l.13.98c.34-.73.98-1.1 1.92-1.1zM106.4 153.14c.6 0 1.11.14 1.52.41.41.28.74.67.97 1.19l-.91.43c-.26-.8-.8-1.19-1.6-1.19-.6 0-1.07.2-1.41.6-.34.41-.51.97-.51 1.68s.17 1.27.51 1.67c.34.4.81.61 1.41.61.46 0 .84-.1 1.12-.32.29-.21.47-.52.56-.92l.89.32c-.21.56-.53.99-.96 1.3-.43.3-.96.46-1.59.46-.9 0-1.61-.28-2.13-.83a3.23 3.23 0 0 1-.77-2.29c0-.98.26-1.74.77-2.3a2.77 2.77 0 0 1 2.13-.82zM115.79 155.95c0 .22-.02.45-.05.67h-4.52c.05.6.25 1.08.6 1.42.35.33.8.5 1.35.5.44 0 .8-.08 1.1-.23.3-.15.49-.37.6-.66l.8.42a2.5 2.5 0 0 1-.96.97c-.4.23-.91.34-1.54.34-.9 0-1.61-.28-2.13-.83a3.23 3.23 0 0 1-.77-2.29c0-.98.24-1.74.74-2.3.49-.54 1.19-.82 2.09-.82.56 0 1.04.12 1.45.37.41.25.72.59.93 1.01.2.42.3.9.3 1.43zm-2.69-1.97c-.53 0-.95.16-1.28.47-.32.31-.52.75-.6 1.32h3.64a2.2 2.2 0 0 0-.55-1.32 1.6 1.6 0 0 0-1.21-.47zM118.52 157.65c0 .3.05.52.14.63.1.12.26.18.51.18a2.33 2.33 0 0 0 .88-.17l-.16.92c-.26.11-.56.17-.89.17-.48 0-.85-.13-1.08-.4-.24-.26-.36-.66-.36-1.2v-7.28h.96v7.15zM126.43 155.95c0 .22-.01.45-.05.67h-4.52c.06.6.26 1.08.6 1.42.35.33.8.5 1.36.5.44 0 .8-.08 1.1-.23.29-.15.48-.37.59-.66l.8.42a2.5 2.5 0 0 1-.96.97c-.4.23-.91.34-1.53.34-.9 0-1.62-.28-2.13-.83a3.23 3.23 0 0 1-.78-2.29c0-.98.25-1.74.74-2.3.5-.54 1.19-.82 2.1-.82.55 0 1.04.12 1.45.37.4.25.71.59.92 1.01.2.42.31.9.31 1.43zm-2.69-1.97c-.52 0-.95.16-1.27.47-.33.31-.53.75-.6 1.32h3.64a2.2 2.2 0 0 0-.55-1.32 1.6 1.6 0 0 0-1.22-.47zM131.09 153.14c.29 0 .5.04.66.12l-.2.94a1.59 1.59 0 0 0-1.5.06c-.24.15-.44.37-.6.67-.16.3-.23.67-.23 1.09v3.24h-.96v-6h.78l.13.98c.33-.73.97-1.1 1.92-1.1zM135.43 160.27c-.23.57-.49.98-.78 1.22a1.7 1.7 0 0 1-1.11.35c-.3 0-.56-.04-.77-.12-.2-.08-.39-.2-.55-.38l.33-.82c.23.32.56.48.97.48.24 0 .44-.07.62-.21.18-.14.34-.4.48-.76l.3-.78-2.5-5.99h1.1l1.5 3.91.36 1.07.44-1.19 1.4-3.79h1.03l-2.82 7zM148.7 153.26v8.52h-.96v-3.46c-.19.32-.46.58-.8.77-.35.2-.75.29-1.19.29-.84 0-1.5-.28-2-.83a3.33 3.33 0 0 1-.73-2.29c0-.97.24-1.73.73-2.29.5-.55 1.16-.83 2-.83.47 0 .88.1 1.24.32a2 2 0 0 1 .81.84l.06-1.04h.84zm-2.84 5.28c.58 0 1.03-.2 1.37-.6.34-.4.51-.94.51-1.6v-.15c0-.67-.17-1.21-.5-1.61-.35-.4-.8-.6-1.38-.6-.58 0-1.04.2-1.38.62-.34.41-.5.96-.5 1.66s.16 1.25.5 1.66c.34.41.8.62 1.38.62zM156.13 153.26v6h-.84l-.06-.91c-.4.69-1.11 1.03-2.15 1.03-.64 0-1.17-.18-1.59-.54-.4-.36-.61-.91-.61-1.66v-3.92h.96v3.67c0 .59.12 1 .36 1.24.24.25.59.37 1.05.37.55 0 1.01-.17 1.38-.5.36-.34.54-.84.54-1.52v-3.26h.96zM163.51 155.95c0 .22-.01.45-.05.67h-4.52c.06.6.26 1.08.6 1.42.35.33.8.5 1.36.5.44 0 .8-.08 1.1-.23.29-.15.48-.37.59-.66l.8.42a2.5 2.5 0 0 1-.96.97c-.4.23-.91.34-1.53.34-.9 0-1.62-.28-2.13-.83a3.23 3.23 0 0 1-.78-2.29c0-.98.25-1.74.74-2.3.5-.54 1.19-.82 2.1-.82.55 0 1.04.12 1.45.37.4.25.71.59.92 1.01.2.42.31.9.31 1.43zm-2.69-1.97c-.52 0-.95.16-1.27.47-.33.31-.53.75-.6 1.32h3.64a2.2 2.2 0 0 0-.55-1.32 1.6 1.6 0 0 0-1.22-.47zM170.53 153.26v6h-.84l-.06-.91c-.4.69-1.11 1.03-2.15 1.03-.64 0-1.17-.18-1.59-.54-.4-.36-.61-.91-.61-1.66v-3.92h.96v3.67c0 .59.12 1 .36 1.24.24.25.59.37 1.05.37.55 0 1.01-.17 1.38-.5.36-.34.54-.84.54-1.52v-3.26h.96zM177.91 155.95c0 .22-.01.45-.05.67h-4.52c.06.6.26 1.08.6 1.42.35.33.8.5 1.36.5.44 0 .8-.08 1.1-.23.29-.15.48-.37.59-.66l.8.42a2.5 2.5 0 0 1-.96.97c-.4.23-.91.34-1.53.34-.9 0-1.62-.28-2.13-.83a3.23 3.23 0 0 1-.78-2.29c0-.98.25-1.74.74-2.3.5-.54 1.19-.82 2.1-.82.55 0 1.04.12 1.45.37.4.25.71.59.92 1.01.2.42.31.9.31 1.43zm-2.69-1.97c-.52 0-.95.16-1.27.47-.33.31-.53.75-.6 1.32H177a2.2 2.2 0 0 0-.55-1.32 1.6 1.6 0 0 0-1.22-.47zM261.45 6.08c.84 0 1.5.28 2 .84.5.55.74 1.32.74 2.28 0 .97-.25 1.73-.74 2.29-.5.56-1.16.83-2 .83-.44 0-.83-.1-1.18-.28-.35-.2-.62-.45-.81-.77v3.45h-.96V6.2h.84l.06 1.05a2 2 0 0 1 .81-.85c.36-.21.78-.32 1.24-.32zm-.1 5.4c.58 0 1.04-.2 1.37-.61.34-.42.5-.97.5-1.67s-.16-1.25-.5-1.66c-.33-.41-.8-.62-1.38-.62-.57 0-1.03.2-1.37.6-.34.4-.51.94-.51 1.61v.15c0 .67.17 1.2.51 1.6.34.4.8.6 1.37.6zM268.6 6.08c.9 0 1.6.28 2.12.83.52.55.78 1.32.78 2.3 0 .97-.26 1.73-.78 2.29-.51.55-1.22.82-2.13.82-.9 0-1.61-.27-2.13-.82a3.23 3.23 0 0 1-.77-2.3c0-.97.26-1.74.77-2.29a2.77 2.77 0 0 1 2.13-.83zm0 .83c-.62 0-1.1.2-1.44.61-.34.41-.51.97-.51 1.68 0 .72.17 1.28.51 1.68.35.41.82.62 1.43.62s1.09-.2 1.43-.62c.34-.4.52-.96.52-1.68 0-.7-.18-1.27-.52-1.68-.34-.4-.82-.6-1.43-.6zM275.4 12.32c-.58 0-1.1-.11-1.56-.34-.47-.23-.8-.56-1.02-1.01l.78-.54c.13.35.37.61.7.79.34.18.74.26 1.2.26.46 0 .82-.08 1.07-.25.25-.17.37-.38.37-.63 0-.24-.11-.42-.34-.56a3.9 3.9 0 0 0-1.23-.37A6.25 6.25 0 0 1 274 9.3a1.64 1.64 0 0 1-.73-.56 1.5 1.5 0 0 1-.23-.85c0-.32.1-.62.3-.9a2 2 0 0 1 .82-.65c.36-.16.78-.25 1.25-.25.64 0 1.15.12 1.54.36.39.23.67.6.83 1.08l-.81.48a1.5 1.5 0 0 0-.58-.82 1.77 1.77 0 0 0-.98-.26c-.4 0-.73.1-1 .27s-.4.38-.4.61c0 .26.11.47.35.61.23.15.66.27 1.26.37.84.14 1.42.34 1.77.62.34.27.51.65.51 1.15 0 .34-.1.65-.3.92a2 2 0 0 1-.88.63c-.38.15-.82.22-1.32.22zM283.35 11.78c-.4.36-.91.54-1.55.54-.48 0-.88-.13-1.19-.4-.3-.26-.47-.66-.47-1.2V7.03h-1.2V6.2h1.2V4.76l.96-.26v1.7h2.22v.83h-2.22v3.52c0 .29.08.5.24.65.17.15.38.22.66.22.38 0 .72-.14 1.02-.44l.33.8zM288.06 11.44c.56 0 1 .12 1.33.38.32.26.48.6.48 1.04 0 .39-.13.73-.4 1.02-.26.29-.62.51-1.07.67-.45.16-.95.23-1.5.23-.9 0-1.6-.14-2.06-.43-.46-.3-.7-.68-.7-1.15 0-.27.1-.51.29-.72.18-.2.44-.36.77-.44a1.7 1.7 0 0 1-.6-.46 1 1 0 0 1-.22-.65c0-.3.08-.54.24-.74.16-.2.38-.34.66-.43-.28-.18-.5-.41-.65-.7a2.03 2.03 0 0 1 .09-2c.2-.3.5-.55.88-.72.37-.17.8-.26 1.27-.26.45 0 .85.08 1.22.24.23-.81.79-1.22 1.7-1.22l.21.84c-.78 0-1.26.22-1.43.66a1.83 1.83 0 0 1 .76 1.51c0 .4-.1.74-.31 1.05-.21.31-.5.55-.88.72a3.53 3.53 0 0 1-2.2.15.95.95 0 0 0-.51.27.73.73 0 0 0-.16.49c0 .2.07.37.22.48.14.11.33.17.57.17h2zm-1.2-4.58c-.4 0-.76.12-1.04.35-.28.23-.42.53-.42.9s.14.67.42.9c.28.23.63.35 1.05.35.41 0 .76-.12 1.04-.35.28-.23.42-.53.42-.9s-.14-.67-.42-.9a1.58 1.58 0 0 0-1.04-.35zm.15 7.12c.61 0 1.09-.1 1.44-.3.35-.19.53-.43.53-.7a.6.6 0 0 0-.27-.54c-.18-.12-.49-.18-.92-.18h-1.6c-.37 0-.66.07-.86.2-.2.13-.3.32-.3.55 0 .3.17.54.5.71.34.17.83.26 1.48.26zM294.13 6.08c.29 0 .5.04.66.12l-.2.94a1.59 1.59 0 0 0-1.5.07c-.24.14-.44.37-.6.67-.16.3-.23.66-.23 1.08v3.24h-.96v-6h.78l.13.99c.33-.74.97-1.1 1.92-1.1zM301.15 8.9c0 .22-.02.44-.05.66h-4.52c.05.61.25 1.08.6 1.42.35.34.8.5 1.35.5.44 0 .8-.07 1.1-.22.3-.16.49-.38.6-.66l.8.42a2.5 2.5 0 0 1-.96.97c-.4.22-.91.33-1.54.33-.9 0-1.61-.27-2.13-.82a3.23 3.23 0 0 1-.77-2.3c0-.97.24-1.74.74-2.29.49-.55 1.19-.83 2.09-.83.56 0 1.04.13 1.45.38.41.24.72.58.93 1 .2.43.3.9.3 1.43zm-2.69-1.98c-.53 0-.95.16-1.28.47-.32.31-.52.75-.6 1.32h3.64a2.2 2.2 0 0 0-.55-1.31 1.6 1.6 0 0 0-1.21-.48zM305.01 12.32c-.57 0-1.1-.11-1.56-.34-.46-.23-.8-.56-1.02-1.01l.78-.54c.14.35.37.61.71.79.34.18.73.26 1.19.26.47 0 .83-.08 1.08-.25.25-.17.37-.38.37-.63 0-.24-.12-.42-.35-.56a3.9 3.9 0 0 0-1.22-.37 6.25 6.25 0 0 1-1.37-.38 1.64 1.64 0 0 1-.73-.56 1.5 1.5 0 0 1-.23-.85c0-.32.1-.62.29-.9a2 2 0 0 1 .83-.65c.36-.16.77-.25 1.24-.25.64 0 1.16.12 1.55.36.38.23.66.6.83 1.08l-.82.48a1.5 1.5 0 0 0-.58-.82 1.77 1.77 0 0 0-.98-.26c-.39 0-.72.1-1 .27-.26.17-.4.38-.4.61 0 .26.12.47.35.61.24.15.66.27 1.27.37.83.14 1.42.34 1.76.62.35.27.52.65.52 1.15 0 .34-.1.65-.3.92a2 2 0 0 1-.88.63c-.38.15-.82.22-1.33.22zM456.88 33.26l-2.08 6h-.96l-1.7-4.78-1.6 4.78h-.95l-2.09-6h1.07l1.51 4.88 1.63-4.88h.96l1.63 4.88 1.52-4.88h1.06zM460.78 33.14c.9 0 1.62.28 2.13.83.52.55.78 1.31.78 2.29s-.26 1.74-.78 2.3c-.51.54-1.22.82-2.13.82-.9 0-1.61-.28-2.13-.83a3.23 3.23 0 0 1-.77-2.29c0-.98.26-1.74.77-2.3a2.77 2.77 0 0 1 2.13-.82zm0 .83c-.6 0-1.08.2-1.42.61-.35.4-.52.97-.52 1.68s.17 1.27.52 1.68c.34.4.82.61 1.42.61.61 0 1.09-.2 1.43-.61.35-.4.52-.97.52-1.68s-.17-1.27-.52-1.68c-.34-.4-.82-.61-1.43-.61zM468.38 33.14c.29 0 .5.04.66.12l-.2.94a1.59 1.59 0 0 0-1.5.06c-.24.15-.44.37-.6.67-.15.3-.23.67-.23 1.09v3.24h-.96v-6h.78l.13.98c.34-.73.98-1.1 1.92-1.1zM472.68 36.3l-1.28 1.27v1.69h-.96V30.5h.96v5.87l3.11-3.11h1.2l-2.34 2.34 2.49 3.66h-1.17l-2.01-2.96zM482.18 35.95c0 .22-.02.45-.05.67h-4.52c.05.6.26 1.08.6 1.42.35.33.8.5 1.35.5.44 0 .81-.08 1.1-.23.3-.15.5-.37.6-.66l.8.42a2.5 2.5 0 0 1-.96.97c-.4.23-.91.34-1.54.34-.9 0-1.61-.28-2.13-.83a3.23 3.23 0 0 1-.77-2.29c0-.98.25-1.74.74-2.3.49-.54 1.19-.82 2.1-.82.55 0 1.04.12 1.44.37.41.25.72.59.93 1.01.2.42.31.9.31 1.43zm-2.69-1.97c-.53 0-.95.16-1.28.47-.32.31-.52.75-.59 1.32h3.64a2.2 2.2 0 0 0-.56-1.32 1.6 1.6 0 0 0-1.2-.47zM486.84 33.14c.28 0 .5.04.66.12l-.2.94a1.59 1.59 0 0 0-1.5.06c-.25.15-.45.37-.6.67-.16.3-.24.67-.24 1.09v3.24H484v-6h.78l.14.98c.33-.73.97-1.1 1.92-1.1zM451.88 102.26l-2.08 6h-.96l-1.7-4.78-1.6 4.78h-.95l-2.09-6h1.07l1.51 4.88 1.63-4.88h.96l1.63 4.88 1.52-4.88h1.06zM455.78 102.14c.9 0 1.62.28 2.13.83.52.55.78 1.31.78 2.29s-.26 1.74-.78 2.3c-.51.54-1.22.82-2.13.82-.9 0-1.61-.28-2.13-.83a3.23 3.23 0 0 1-.77-2.29c0-.98.26-1.74.77-2.3a2.77 2.77 0 0 1 2.13-.82zm0 .83c-.6 0-1.08.2-1.42.61-.35.4-.52.97-.52 1.68s.17 1.27.52 1.68c.34.4.82.61 1.42.61.61 0 1.09-.2 1.43-.61.35-.4.52-.97.52-1.68s-.17-1.27-.52-1.68c-.34-.4-.82-.61-1.43-.61zM463.38 102.14c.29 0 .5.04.66.12l-.2.94a1.59 1.59 0 0 0-1.5.06c-.24.15-.44.37-.6.67-.15.3-.23.67-.23 1.09v3.24h-.96v-6h.78l.13.98c.34-.73.98-1.1 1.92-1.1zM467.68 105.3l-1.28 1.27v1.69h-.96V99.5h.96v5.87l3.11-3.11h1.2l-2.34 2.34 2.49 3.66h-1.17l-2.01-2.96zM477.18 104.95c0 .22-.02.45-.05.67h-4.52c.05.6.26 1.08.6 1.42.35.33.8.5 1.35.5.44 0 .81-.08 1.1-.23.3-.15.5-.37.6-.66l.8.42a2.5 2.5 0 0 1-.96.97c-.4.23-.91.34-1.54.34-.9 0-1.61-.28-2.13-.83a3.23 3.23 0 0 1-.77-2.29c0-.98.25-1.74.74-2.3.49-.54 1.19-.82 2.1-.82.55 0 1.04.12 1.44.37.41.25.72.59.93 1.01.2.42.31.9.31 1.43zm-2.69-1.97c-.53 0-.95.16-1.28.47-.32.31-.52.75-.59 1.32h3.64a2.2 2.2 0 0 0-.56-1.32 1.6 1.6 0 0 0-1.2-.47zM481.84 102.14c.28 0 .5.04.66.12l-.2.94a1.59 1.59 0 0 0-1.5.06c-.25.15-.45.37-.6.67-.16.3-.24.67-.24 1.09v3.24H479v-6h.78l.14.98c.33-.73.97-1.1 1.92-1.1zM453.88 163.26l-2.08 6h-.96l-1.7-4.78-1.6 4.78h-.95l-2.09-6h1.07l1.51 4.88 1.63-4.88h.96l1.63 4.88 1.52-4.88h1.06zM457.78 163.14c.9 0 1.62.28 2.13.83.52.55.78 1.31.78 2.29s-.26 1.74-.78 2.3c-.51.54-1.22.82-2.13.82-.9 0-1.61-.28-2.13-.83a3.23 3.23 0 0 1-.77-2.29c0-.98.26-1.74.77-2.3a2.77 2.77 0 0 1 2.13-.82zm0 .83c-.6 0-1.08.2-1.42.61-.35.4-.52.97-.52 1.68s.17 1.27.52 1.68c.34.4.82.61 1.42.61.61 0 1.09-.2 1.43-.61.35-.4.52-.97.52-1.68s-.17-1.27-.52-1.68c-.34-.4-.82-.61-1.43-.61zM465.38 163.14c.29 0 .5.04.66.12l-.2.94a1.59 1.59 0 0 0-1.5.06c-.24.15-.44.37-.6.67-.15.3-.23.67-.23 1.09v3.24h-.96v-6h.78l.13.98c.34-.73.98-1.1 1.92-1.1zM469.68 166.3l-1.28 1.27v1.69h-.96v-8.76h.96v5.87l3.11-3.11h1.2l-2.34 2.34 2.49 3.66h-1.17l-2.01-2.96zM479.18 165.95c0 .22-.02.45-.05.67h-4.52c.05.6.26 1.08.6 1.42.35.33.8.5 1.35.5.44 0 .81-.08 1.1-.23.3-.15.5-.37.6-.66l.8.42a2.5 2.5 0 0 1-.96.97c-.4.23-.91.34-1.54.34-.9 0-1.61-.28-2.13-.83a3.23 3.23 0 0 1-.77-2.29c0-.98.25-1.74.74-2.3.49-.54 1.19-.82 2.1-.82.55 0 1.04.12 1.44.37.41.25.72.59.93 1.01.2.42.31.9.31 1.43zm-2.69-1.97c-.53 0-.95.16-1.28.47-.32.31-.52.75-.59 1.32h3.64a2.2 2.2 0 0 0-.56-1.32 1.6 1.6 0 0 0-1.2-.47zM483.84 163.14c.28 0 .5.04.66.12l-.2.94a1.59 1.59 0 0 0-1.5.06c-.25.15-.45.37-.6.67-.16.3-.24.67-.24 1.09v3.24H481v-6h.78l.14.98c.33-.73.97-1.1 1.92-1.1zM30.08 50.38c-.58 0-1.1-.11-1.56-.34-.46-.23-.8-.57-1.02-1.02l.78-.54c.14.36.37.62.7.8.34.17.74.26 1.2.26.47 0 .83-.08 1.08-.25.24-.17.37-.38.37-.64 0-.23-.12-.42-.35-.56a3.9 3.9 0 0 0-1.22-.36 6.25 6.25 0 0 1-1.37-.38 1.64 1.64 0 0 1-.73-.56 1.5 1.5 0 0 1-.23-.85c0-.33.1-.63.29-.9a2 2 0 0 1 .82-.65c.36-.17.78-.25 1.25-.25.64 0 1.16.12 1.54.35.4.24.67.6.84 1.09l-.82.48a1.5 1.5 0 0 0-.58-.83 1.77 1.77 0 0 0-.98-.25c-.39 0-.72.09-1 .26-.27.18-.4.38-.4.62 0 .26.12.46.35.6.24.15.66.28 1.27.38.83.14 1.42.34 1.76.61.35.27.52.66.52 1.15 0 .35-.1.65-.3.92a2 2 0 0 1-.88.63c-.38.15-.83.23-1.33.23zM36.9 44.14c.6 0 1.1.14 1.51.41.42.28.74.67.97 1.19l-.91.43c-.26-.8-.79-1.19-1.6-1.19-.6 0-1.07.2-1.4.6-.35.41-.52.97-.52 1.68s.17 1.27.51 1.67c.34.4.81.61 1.41.61.47 0 .84-.1 1.12-.32.29-.21.47-.52.56-.92l.89.32c-.2.56-.53.99-.96 1.3-.43.3-.96.46-1.58.46-.9 0-1.62-.28-2.13-.83a3.23 3.23 0 0 1-.78-2.29c0-.98.26-1.74.78-2.3a2.77 2.77 0 0 1 2.13-.82zM44.05 44.14c.68 0 1.24.2 1.68.59.44.39.66.95.66 1.69v3.84h-.96v-3.5c0-.63-.14-1.08-.4-1.36a1.42 1.42 0 0 0-1.08-.42c-.31 0-.6.07-.9.22-.28.14-.5.37-.69.69-.18.31-.27.71-.27 1.19v3.18h-.96V41.5h.96v3.66c.2-.34.47-.6.81-.77.34-.17.72-.25 1.15-.25zM53.7 46.95c0 .22 0 .45-.04.67h-4.52c.05.6.25 1.08.6 1.42.35.33.8.5 1.35.5.44 0 .8-.08 1.1-.23.3-.15.49-.37.6-.66l.8.42a2.5 2.5 0 0 1-.96.97c-.4.23-.91.34-1.54.34-.9 0-1.61-.28-2.13-.83a3.23 3.23 0 0 1-.77-2.29c0-.98.24-1.74.74-2.3.49-.54 1.19-.82 2.09-.82.56 0 1.04.12 1.45.37.41.25.72.59.93 1.01.2.42.3.9.3 1.43zm-2.68-1.97c-.53 0-.95.16-1.28.47-.32.31-.52.75-.6 1.32h3.64a2.2 2.2 0 0 0-.55-1.32 1.6 1.6 0 0 0-1.21-.47zM60.86 41.5v8.76h-.84l-.06-1.04a2 2 0 0 1-.81.84c-.36.21-.78.32-1.24.32-.84 0-1.5-.28-2-.83a3.33 3.33 0 0 1-.74-2.29c0-.97.25-1.73.74-2.29.5-.55 1.16-.83 2-.83.44 0 .83.1 1.18.29.35.19.62.45.81.77v-3.7h.96zm-2.84 8.04c.57 0 1.03-.2 1.37-.6.34-.4.51-.94.51-1.6v-.15c0-.67-.17-1.21-.51-1.61-.34-.4-.8-.6-1.37-.6-.59 0-1.05.2-1.38.62-.34.41-.5.96-.5 1.66s.16 1.25.5 1.66c.33.41.8.62 1.38.62zM68.29 44.26v6h-.84l-.06-.91c-.4.69-1.12 1.03-2.15 1.03-.65 0-1.18-.18-1.59-.54-.41-.36-.62-.91-.62-1.66v-3.92H64v3.67c0 .59.12 1 .36 1.24.24.25.6.37 1.06.37.55 0 1-.17 1.37-.5.37-.34.55-.84.55-1.52v-3.26h.96zM71.43 48.65c0 .3.05.52.14.63.1.12.26.18.51.18a2.33 2.33 0 0 0 .88-.17l-.16.92c-.26.11-.56.17-.89.17-.49 0-.85-.13-1.08-.4-.24-.26-.36-.66-.36-1.2V41.5h.96v7.15zM79.34 46.95c0 .22-.02.45-.05.67h-4.52c.05.6.26 1.08.6 1.42.35.33.8.5 1.35.5.44 0 .81-.08 1.1-.23.3-.15.5-.37.6-.66l.8.42a2.5 2.5 0 0 1-.96.97c-.4.23-.91.34-1.54.34-.9 0-1.61-.28-2.13-.83a3.23 3.23 0 0 1-.77-2.29c0-.98.25-1.74.74-2.3.49-.54 1.19-.82 2.1-.82.55 0 1.04.12 1.44.37.41.25.72.59.93 1.01.2.42.31.9.31 1.43zm-2.69-1.97c-.53 0-.95.16-1.28.47-.32.31-.52.75-.59 1.32h3.64a2.2 2.2 0 0 0-.56-1.32 1.6 1.6 0 0 0-1.2-.47zM84 44.14c.28 0 .5.04.66.12l-.2.94a1.59 1.59 0 0 0-1.5.06c-.25.15-.45.37-.6.67-.16.3-.24.67-.24 1.09v3.24h-.96v-6h.78l.14.98c.33-.73.97-1.1 1.92-1.1z" fill="#38332a" fill-rule="nonzero" stroke="#38332a" stroke-linecap="butt" stroke-miterlimit="1.41"/><path fill="none" stroke="#38332a" stroke-dasharray="2,2,0,0" d="M.5.5h331v84H.5z"/><path d="M191.33 133.05c3.73-.93-1.77.86-1.36 1.11 6.08 3.78 13.62 7.3 20.54 8.9 17.52 4.05 34.17 3 51.96 1.85 10.9-.7 21.49-3.61 32.38-4.32 28.69-1.86 58.44-1.9 86.36-9.9 9.58-2.75 22.62-6.26 30.18-13.41.94-.9 4.77-2.57 5.17-3.84.45-1.44-3.04.03-4.55.19-2.83.3-5.57.9-8.43.76-1.31-.07-3.93-.17-3.93-.17s4.27.07 6.4.17c2.27.1 11.53-1.08 13.47 1.39.14.17-.83 1.05-.91 1.16a88.86 88.86 0 0 0-6.08 8.82c-.68 1.13-3.48 3.33-2.15 3.33 1.85 0 6.05-8.37 7.02-9.71.21-.3 5.18-6.34 5.09-6.43-.19-.2-.66-.11-.9-.08-4.12.7-7.58 1-11.76 1" fill="none" stroke="#38332a" stroke-width="3"/><path d="M431.31 20.12c-1.03 1.82-15.61-1.52-18.26-1.98-18.29-3.12-38.34-6.54-56.9-5.65a274.88 274.88 0 0 0-33.87 3.63c-2.95.5-15.57 4.15-15.28 3.78M424.62 97.9c.18-.04-8.1-6.08-9.35-7.1-6.4-5.27-12.38-10.95-18.61-16.41-16.8-14.7-35.46-35.44-57.28-42.79-7.42-2.5-15.25-4.72-22.24-8.34-2.61-1.35-10.03-1.73-8.98-1.95" fill="none" stroke="#38332a" stroke-width="3" stroke-dasharray="6,6,0,0"/><path d="M412.18 153.72c-.31-1-4.34-3.58-5.04-4.65-3.63-5.51-6.2-12.46-9.05-18.43-4.44-9.35-7.67-19.25-12.38-28.46-2.98-5.81-8.32-11.43-12-16.98-6.55-9.9-11.84-19.18-20.53-27.35-9.18-8.63-18.78-18.38-28.7-26.1A81.92 81.92 0 0 0 314 25.17c-1.3-.7-6.07-2.5-4.9-2.15" fill="none" stroke="#38332a" stroke-width="3" stroke-dasharray="6,6,0,0"/></svg>