<svg viewBox="0 0 1540 850" xmlns="http://www.w3.org/2000/svg" fill-rule="evenodd" clip-rule="evenodd" stroke-linecap="round" stroke-linejoin="round" stroke-miterlimit="1.5">
    <path d="M315.15 279.7c0-40.34-169.15-178.62-161.14-185.62 2.93-2.56 370.99 134.61 376.05 130.68 4.43-3.45 160.37-151.89 186.9-168.18 3.62-2.23 136.96 129.67 137.36 127.7.92-4.45 384.24-138.03 439.01-171.77 2.75-1.7-35.31 290.92-38.1 288.1-9.47-9.6 261.8 69.85 271.7 64.25 3.38-1.91-271.84 150.31-271.7 156.14.42 19.14 153.7 241.16 134.2 235-9.78-3.09-472.23-168.25-500.93-176.81-2.37-.7-107.5 259.35-109.23 257.76-17.92-16.46-122.93-211.56-138.1-198.99-6.33 5.24-224.62 176.8-229.6 184.7-1.09 1.73 1.95-182.25 1.95-231.87 0-2.36-368.65 114.67-400.9 115.02-5.63.06 193.64-206.2 261.99-242.15 2.05-1.08-170.21-114.16-167.38-143.56 1.62-16.86 207.92-40.4 207.92-40.4zm34.93 274.23c-6.08-27.68 713.62-83.73 815.45 0" fill="none" stroke="#38332a" stroke-width="25"/>
    <g fill="none" stroke="#38332a">
        <path d="M355.16 270.12s142-12.8 152.52 4.17c48.74 78.58-5.69 68.14-6.86 93.02-.34 7.14 50.04 42.24 23.04 89.24-23.25 40.44-155.97 32.5-157.87 28.23-3.24-7.3-5.34-43.71-4.02-41.56.5.82 15.04.23 15.06-.42 1.2-33.26 5.57-119.8 5.21-119.35-.41.52-23.14-8.35-28.4-11.75-2.47-1.6 1.31-42.33 1.32-41.58z" stroke-width="16.67"/>
        <path d="M420.16 299.95l.7 56.09s55.09 3.71 54.92-30.33c-.15-32.61-55.62-25.76-55.62-25.76zm1.15 92.39c.14 10.81 12.25 55.94 12.25 55.94s49.17-7.76 49.15-30.25c-.03-32.61-61.4-25.69-61.4-25.69z" stroke-width="12.5"/>
        <path d="M580.38 337.15c10.95-10.08 61-16.24 68.94-12.89 46.27 19.54 65.7 89.04 33.53 136.86-17.37 25.83-84.31 25.27-106.9 1.33-34.98-37.06-29.53-94.05 4.43-125.3zm167.58 123.02c10.76 9.8 53.2 14.81 66.52 11.2 46.87-12.74 60.91-90.62 28.85-137.64-17.32-25.4-81.58-23.2-102.7 1.28-32.67 37.91-26.04 94.74 7.33 125.16z" stroke-width="16.67"/>
        <path d="M626.38 445.72c-25.48 4-29.97-59.09-29.68-64.05 1.24-21.36 26.76-27.53 33.96-21.36 8 6.85 17.34 26.8 19.95 35.88 2.85 9.92 13.21 43.67-24.23 49.53zm172.74-8.7c25.71-1.97 15.56-64.4 14.14-69.16-6.12-20.5-32.38-20.63-37.97-12.97-6.2 8.5-10.7 30.07-11.15 39.5-.5 10.31-2.81 45.54 34.98 42.63zm79.47-120.01c4.34-.05 48.44-2.57 52-2.02 1.07.17 2.23 11.75.87 14.02-.39.64 26.82-21.75 44.05-21.94 22.6-.25 41.88 14.98 42.3 14.91 5.87-.85 22.83-11.74 33.1-15.85 8.56-3.44 41.72-4.42 46.76 2.69 18.77 26.42 18.1 115.73 19.2 118.21.26.62 10.16-.98 11.76-.29 11.12 4.83 9.8 31.86 8.7 34.37-.87 2-70 3.31-70.36 2.84-1.16-1.48-1.49-23.4-1.69-24.5-.59-3.22 11.95-16.92 12.15-17.88.77-3.59-.93-53.84-1.78-63.85-.1-1.28-22.94-13.71-28.31-12.62-17.75 3.6-19.58 22.95-19.66 36.8-.02 3.74 1.5 43.62 2.58 47.03 3.72 11.7 12.7 7.26 13.9 14.12.3 1.7-.85 15.96-1.8 17.46-1.11 1.74-63.73.56-67.77 2.25-.1.04.44-23.3 3.04-25.46 2.5-2.06 12.39 1.7 14.36-2.56 1.14-2.46-2.78-73.42-3.86-76.6-.4-1.16-22.63-12.61-27.27-12.28-4.65.34-10.81 8.5-13.23 11.86-12.41 17.25-11.2 71.68-11.04 72.02.72 1.56 10.81 5.64 14.48 8.65 2.12 1.74 2.74 16.9-4.07 24.03-1.23 1.28-51.68 3.89-55.68 2.71-1.49-.43-9.3-17.44-9.35-21.62-.01-1.16 12.57-1.98 16.08-4.46 1.1-.78-2.7-77.01-3.46-83.86 0-.12-9.88.32-10.26.13-6.86-3.55-5.74-38.3-5.74-38.3zm282.02-68.24c14.4-.18 35.27-3.2 36.86-.46 7.01 12.12 4.21 134.84 1.75 140.31-1.24 2.77-28.67 9.17-30.77 7.98-8.22-4.64-13.14-82.34-7.84-147.83zm6.87 183.78c2.86-15.92 29.81-18.95 35.26-12.25 19.73 24.29 6.83 45.94-14.87 46.47-25.32.62-21.68-27.07-20.39-34.22z" stroke-width="14.58"/>
    </g>
    <path d="M215.52 359.48c22.19 0 47.24 8.6 67.17 18.26 10.96 5.31 10.57 5.32 20.82 11.23 4.99 2.88 7.36 4.37 12.1 6.67 1.48.72 4.6 3.43 4.6 1.78m922.38 22.23c14.18-1.62 65.73-21.7 104.68-21.7m-286.41-194.89c16.62-5.31 77.06-71.3 122.73-71.3M491.27 590.42c12.5 13.47 4.16 27.77 4.16 37.08 0 .95 76.6-37.08 79.85-37.08m145.85 6.96c9.11 5.28 50.04 53.46 51.76 55.99 3.44 5.04 8.74-57.43 41.16-90.99m-130.6-323.99c6.7-8.14 28.21-67.57 28.94-70.55 1.46-5.92 28.25 50.76 70.36 70.88m362.66 381.08c33.44.48 70.93 18.39 76.32 27.27.47.78-8.74-29.18-8.74-39.13m-939.02-72.07c-6.09 8.44-22.42 59.9-19.02 55.73 3.53-4.3 49.8-8.84 65.25-6.24" fill="none" stroke="#38332a" stroke-width="14.58"/>
</svg>
