<svg viewBox="0 0 331 106" xmlns="http://www.w3.org/2000/svg" fill-rule="evenodd" clip-rule="evenodd" stroke-linecap="round" stroke-linejoin="round" stroke-miterlimit="1.5">
    <path d="M3.19 5.06c4.88 0 26.97-1.05 32.46 0 1.73.33 1.57 11.32.68 12.9-1.53 2.7-13.32 1.17-9.72 3.42 7.2 4.5 12.78 31.57 14.25 31.73 1.26.13 16.96-31.34 16.56-32.25-.85-1.92-7.8-3.37-8.51-6.25-.29-1.17 1.91-10.36 1.91-10.36s24.9-.57 30.5 1.05c.39.11 1.3 9.41.59 10.75-.12.23-10.55 6.96-11.14 9.62-2.37 10.69-23.1 37.54-19.95 48.01.94 3.1-.27 9.72 0 10.63.52 1.75 8.64 3.73 8.64 7.1 0 .34.3 8.64 0 8.71-5.16 1.28-32.85 1.29-32.85 1.29s-2.84-12.67-2.84-15.52c0-.37 5.52-.35 7.44-1.58.63-.4-.14-6.8-.17-7.2-.33-4.96-.55-9.86-.55-14.83 0-.56-20.98-44.82-21.97-44.45-1.2.45-4.65 1.16-5.33 0-2.49-4.2 0-12.77 0-12.77zm76.96 26.17c5.88 0 22.95-1.67 23.45-.3.37 1.01 2.7 52.03 3.27 52.53 1.37 1.2 8.02 1.85 9.13 1.7 4.17-.6 8.48-1.93 11.9-4.42.61-.44 4.84-25.2 4.9-33.16 0-.17-12.49-2.66-11.83-6.4.73-4.14 1.45-10.69 1.47-10.69.95 0 27.2-1.08 27.53-.74.06.06-2.6 48.3-3.66 53.76-.14.7 5.61-.14 6.32 0 1.53.3 3.06 1.66 3.06 3.18 0 2.27.74 10.38.57 10.42-4.67 1.1-9.31 2.65-14.02 3.81-1.36.34-4.12 1.18-5.51.63-1.44-.57-3.86-6.87-3.93-6.87-1.58.06-31.37 16.13-41.07 2.43-6.67-9.43-3.53-41.9-3.97-45.18-.55-4.12-.76-4.87-4.28-7.3-1.21-.84-4.46-1.92-4.97-3.45-.3-.91 1.64-9.95 1.64-9.95zm137.03 4.03c-9.89-4.16-17.4-4.04-19.81-4.05-27.3-.12-31.25 20.23-31.97 22.6-4.47 14.58-1.41 34.74 9.07 43.11 14.66 11.73 38.58 1.66 42.71-2.67.3-.3-4.66-10.92-4.77-10.97-.16-.08-19.8 5.21-25.01 0-4.68-4.67-4.7-18.51-4.65-21.25.3-15.25 11.16-17.43 15.4-17.14 2.21.16 1.28 7.26 1.46 7.48.28.35 9.1-.17 11.8-.17 1.67 0 5.77-16.94 5.77-16.94zm37.79 20.69c0-1.23 9.68-11.15 9.64-11.3-.03-.17-2.38-2.23-2.72-3.26-.22-.69.6-13.22.96-13.34.93-.3 26.25 3.1 34.41 4.64.27.05-.43 7.63-1.03 9.5-.12.37-13.31 5.48-14.68 5.88-.43.13-12.98 15.6-12.93 15.98.02.14 12.68 13.92 16.28 16.33.78.52 11.75 2 11.86 2.21.2.38-.95 16-1.71 17.75-.12.27-23.39-.95-23.65-.97-.73-.06-4.35-13.2-5.31-15.3-.2-.4-8-12.3-12.38-17.91 0 0-5.16-.3-5.15 1.85.05 9.7.03 17-.13 17.95-.36 2.1 6.01 3.8 6.67 4.9.67 1.13.46 6.27.01 7.41-.24.63-22.4 4.53-28.63 3.98-.57-.05-2.16-8.84-2.2-10.3 0-.94 3.66-2.83 4.29-3.27 2.1-1.49 1.77-2.17 1.77-4.81 0-17.03 1.83-66.47 1.68-66.53-.58-.25-7.45.3-7.51 0-.6-2.82-.47-13.17-.47-13.17 9.05 0 18.26-3.3 27.44-1.6 1.11.2-2.89 8-3.05 8.5-.33 1.06 0 24.59.13 46.02l6.41-1.14zm53.16 40.35c-.27-7.02.02-19.4 13.52-15 1.39.46 13.61 9.78 1.8 20.67-1.89 1.74-14.94 4.27-15.32-5.67z" fill="none" stroke="#38332a" stroke-width="4.17"/>
</svg>
