<svg viewBox="0 0 209 209" xmlns="http://www.w3.org/2000/svg" fill-rule="evenodd" clip-rule="evenodd" stroke-linecap="round" stroke-linejoin="round" stroke-miterlimit="1.5">
    <g stroke="#38332a">
        <path d="M43.18 73.55c-3.13-11.45 7.91-60.08 16.41-60.88 9.08-.85 28.53 53.44 30.32 57.24.44.93 21.29 3.2 22.24 1.85 5.49-7.82 5.38-52.07 15.62-53.18 12.97-1.4 27.83 37 30.4 48.1" fill="none" stroke-width="10.42"/>
        <path d="M173.3 82.2c9.17-1.88 21.4-1.02 23.6 3.4.95 1.9-12.54 10.86-10.55 14.83.98 1.95 16.16 2.5 16.16 4.8 0 1.55-23.4 7.57-22.71 11.63.57 3.44 24.27 12.2 22.71 15.32-1.33 2.68-21.7 9.65-22.71 13.7-.4 1.56 16.72 9 16.16 11.27-1.18 4.71-19.35-4.42-18.38 1.42.43 2.55 8.77 13.26 8.49 14.97-.1.6-18.1-6.78-19.34-6.78M32.3 85.82C24.96 84 7.94 88.9 9.15 92.52c1.1 3.3 18.69 10.83 18.37 12.1-.84 3.37-23.17 10.1-21.7 13.05 4.57 9.13 22.31.57 26.5 8.93.32.65-24.12 17.35-19.48 21.03 5.26 4.2 31-5.15 33.57 0 .62 1.24-21.98 22.18-18.89 28.37 3.36 6.72 22.75-7.93 26.43-11.6" fill="none" stroke-width="8.33"/>
        <path d="M71.2 137.38c0-2.33 1.57 4.4 2.72 6.42 2.48 4.33 4.1 9.28 7.01 13.35 8.79 12.3 16.67 34.26 33.14 38.37 11.18 2.8 21.75-35.16 24.8-41.25 2.12-4.25 6.88-19.82 6.19-19.48" fill="none" stroke-width="10.42"/>
        <circle cx="117.56" cy="179.37" r="10" fill="#38332a" stroke-width="10.42"/>
        <path d="M91.27 114.2v.6m29.73 2.06v1.62" fill="none" stroke-width="10.42"/>
    </g>
</svg>
