<svg xmlns="http://www.w3.org/2000/svg" xmlns:xlink="http://www.w3.org/1999/xlink" version="1.1" class="" pageAlignment="none" x="0px" y="0px" width="230px" height="230px" viewBox="0 0 230 230" enable-background="new 0 0 230 230" xml:space="preserve" bodyBackgroundColor="rgba(255,255,255,0)"><defs/><g type="LAYER" name="workspace" id="workspace" locked="true"/><g type="LAYER" name="Layer 01" id="Layer 01"><path transform="matrix(1 0 0 1 65 0)" width="100" height="100" stroke-width="0" stroke-miterlimit="3" stroke="#000000" fill="#D95B43" d="M0,50 C0,22.38576 22.38576,0 50,0 C77.61424,0 100,22.38576 100,50 C100,77.61424 77.61424,100 50,100 C22.38576,100 0,77.61424 0,50 Z "/><path transform="matrix(1 0 0 1 0 130)" width="100" height="100" stroke-width="0" stroke-miterlimit="3" stroke="#000000" fill="#FCD036" d="M0,50 C0,22.38575999999999 22.38576000000006,-1.4210854715202004e-14 50,-1.4210854715202004e-14 C77.61423999999997,-1.4210854715202004e-14 100,22.38575999999999 100,50 C100,77.61424 77.61423999999997,100 50,100 C22.38576000000006,100 0,77.61424 0,50 Z "/><path transform="matrix(1 0 0 1 130 130)" width="100" height="100" stroke-width="0" stroke-miterlimit="3" stroke="#000000" fill="#3A89C9" d="M0,50 C0,22.38576 22.38576,0 50,0 C77.61424,0 100,22.38576 100,50 C100,77.61424 77.61424,100 50,100 C22.38576,100 0,77.61424 0,50 Z "/></g></svg>