<svg viewBox="0 0 633 336" xmlns="http://www.w3.org/2000/svg" fill-rule="evenodd" clip-rule="evenodd" stroke-linecap="round" stroke-linejoin="round" stroke-miterlimit="1.5">
    <g stroke="#38332a">
        <path d="M190.47 314.47V253.5c-74.78-56.88-35.81-92.35-32.72-122.1 2.01-19.33-9.8-39.86-8.31-41.1 2.02-1.7 97.04 0 97.04 0s-11.14 22.81-9.14 41.1c3.46 31.72 39.57 63.58-27.02 122.1v60.98c18.06.12 33.32 2.2 34.42 15.63h-86.99s3.69-15.46 32.72-15.63z" fill="none" stroke-width="8.33"/>
        <path d="M163.97 5.2c0 9.48 42.34 200.97 46.95 221.25" fill="none" stroke-width="10.42"/>
        <path d="M182.45 179.54l-23.89 8.21 8.62 25.09 23.89-8.21-8.62-25.09zm41.69 36.96l-23.91-8.16-8.56 25.11 23.9 8.15 8.57-25.1zm-3.64-47.21l-22.97 10.5 11.03 24.12 22.97-10.5-11.02-24.12zm-24.8-22.35l-24.88-4.37-4.58 26.13 24.88 4.36 4.58-26.12zm-36.47-36.14c17.56 0 18.86 5.03 26.83 5.03 10.07 0 13.88-10.45 28.47-10.59 13.4-.12 10.46 6.73 21.73 5.84" fill="none" stroke-width="8.33"/>
        <path d="M207.93 83.1c-.82-19.53 17.46-36.94 38.98-36.94 21.5 0 37.85 16.58 38.97 36.93 1.17 21.2-11.1 41.43-43.77 41.02L247.66 85s-19.77-1.7-39.73-1.9z" fill="#38332a" stroke-width="8.33"/>
    </g>
    <g stroke="#38332a" stroke-width="8.33">
        <path d="M365.96 328.63v-111c-12.42-13.7-71.75-64.61-71.75-64.61h144.55s-68.57 58.85-72.8 64.61v111c18.06.12 47.71-.14 58.41 0H310.1s26.84.17 55.86 0zm-13.15-136.15c11.5-8.55 60.63-48.34 83.56-65.22" fill="none"/>
        <circle cx="369.79" cy="180.93" r="11.55" fill="#38332a"/>
    </g>
    <g fill="none" stroke="#38332a">
        <path d="M475.59 116.05c13.56-12.86 95.48-10.58 103.99 1.5 3.53 5.02 5.29 212.55 5.29 212.55H472s2.52-213.04 3.58-214.05zM584 141.55h31.3c11.76 25 17.71 104.52 4.16 121.99-5.55 7.16-31.82 19.7-33.88 18.99" stroke-width="10.42"/>
        <path d="M584 160.64h20.2c5.72 12.5 7.51 84.17 2.02 93-4.15 6.67-16.2 13.6-20.3 14.07M475.49 135.2c23.28-.06 21.36 13.46 21.52 25.36.38 29.01-10.92 67.1 2.64 79.87 9.2 8.66 17.04-19.51 17.95-28.02 1.47-13.92-2.99-28.54-5.13-42.14-.9-5.78-2.6-13.36-1.01-19.2 6.62-24.4 44.21-10.01 65.65-18.32m-105.1 163.88H584M475.49 161.27h20.76m16.95 0h65.31" stroke-width="8.33"/>
    </g>
    <g fill="none" stroke="#38332a" stroke-width="8.33">
        <path d="M20.71 328.49H92.7s-24.86 2.48-30.16-9.45c-5.39-12.1-4.92-77.73.47-91.27 5.73-14.4 42.41-5.37 48.36-54.64 2.8-23.27-18.67-70.68-18.67-70.68H20.72S1.88 149.98 4.4 173.13c5.44 50.08 38.62 38.08 45.75 54.64 6.34 14.7 8.87 76.4 0 91.27-6.12 10.26-29.43 9.45-29.43 9.45z"/>
        <path d="M14.3 165.7c15.74 8.3 68.8 4.93 83.6-3.02-.79 47.68-31.91 34.28-40.01 52.9-9.88-17.4-39.93-6.93-43.6-49.88z"/>
    </g>
</svg>
