<svg viewBox="0 0 834 250" xmlns="http://www.w3.org/2000/svg" fill-rule="evenodd" clip-rule="evenodd" stroke-linecap="round" stroke-linejoin="round" stroke-miterlimit="1.5">
    <path d="M63.88 24.72c0 41.4-1.17 214.07 0 213.89 32.54-5.05 222.82-92.38 203.62-101.18-9.32-4.27-203.62-112.71-203.62-112.71zm258.95 5.76c0 40.9-5.4 204.66 0 202.34 47.49-20.4 189.8-86.3 194.31-105.75 1.19-5.1-194.31-96.59-194.31-96.59zm245.89 0c0 46.86 5.4 193.4 10.83 202.37.02.03 201.7-104.5 201.32-112.41-.15-2.97-212.15-89.96-212.15-89.96z" fill="none" stroke="#38332a" stroke-width="20.83"/>
</svg>
