<?xml version="1.0" encoding="UTF-8" standalone="no"?>
<!DOCTYPE svg PUBLIC "-//W3C//DTD SVG 1.1//EN" "http://www.w3.org/Graphics/SVG/1.1/DTD/svg11.dtd">
<svg width="100%" height="100%" viewBox="0 0 1094 1485" version="1.1" xmlns="http://www.w3.org/2000/svg" xmlns:xlink="http://www.w3.org/1999/xlink" xml:space="preserve" xmlns:serif="http://www.serif.com/" style="fill-rule:evenodd;clip-rule:evenodd;stroke-linecap:round;stroke-linejoin:round;stroke-miterlimit:1.5;">
    <g id="TextButt">
        <g transform="matrix(0.997231,-0.0743616,0.0743616,0.997231,-15.5763,-46.5242)">
            <text x="298.246px" y="368.649px" style="font-family:'PatuaOne-Regular', 'Patua One';font-size:125px;fill:#38332a;">zach</text>
        </g>
        <g id="_-morrissey-" serif:id="(morrissey)" transform="matrix(0.999676,0.0254647,-0.0254647,0.999676,6.87672,13.6136)">
            <text x="328.525px" y="501.582px" style="font-family:'PatuaOne-Regular', 'Patua One';font-size:125px;fill:#38332a;">morrissey</text>
        </g>
        <g transform="matrix(0.998325,0.0578547,-0.0578547,0.998325,40.6597,53.0317)">
            <text x="274.476px" y="845.519px" style="font-family:'PatuaOne-Regular', 'Patua One';font-size:125px;fill:#38332a;">software</text>
        </g>
        <g transform="matrix(0.965926,-0.258819,0.258819,0.965926,-432.258,-283.999)">
            <text x="374.141px" y="1725.24px" style="font-family:'PatuaOne-Regular', 'Patua One';font-size:125px;fill:#38332a;">engineer</text>
        </g>
    </g>
    <g id="Triangles">
        <path d="M385.78,566.884c0.386,-0.322 70.881,0.418 70.788,0.882c-0.573,2.871 -78.693,56.49 -78.818,56.437c-0.801,-0.333 7.394,-58.557 8.03,-57.319Z" style="fill:none;stroke:#38332a;stroke-width:7.81px;"/>
        <path d="M497.435,573.918c27.533,-0 108.354,-0.001 108.569,0.358c0.123,0.206 -113.97,80.423 -113.97,80.423c0,0 5.3,-80.978 5.401,-80.781Z" style="fill:none;stroke:#38332a;stroke-width:7.81px;"/>
        <path d="M648.728,578.114c0,0.362 134.747,2.766 134.747,2.766c-0,0 -138.362,102.562 -138.462,102.479c-0.576,-0.481 3.715,-106.411 3.715,-105.245Z" style="fill:none;stroke:#38332a;stroke-width:7.81px;"/>
        <path d="M377.353,647.03c26.927,-15.896 68.823,-47.978 81.829,-58.575" style="fill:none;stroke:#38332a;stroke-width:7.81px;"/>
        <path d="M492.034,677.167c7.408,-0 122.526,-80.003 120.124,-79.001" style="fill:none;stroke:#38332a;stroke-width:7.81px;"/>
        <path d="M644.894,712.003c41.829,-34.886 144.573,-107.419 138.581,-104.919" style="fill:none;stroke:#38332a;stroke-width:7.81px;"/>
    </g>
    <g id="Squiggly-Underlines" serif:id="Squiggly Underlines">
        <path d="M462.889,951.554c8.175,18.807 0.284,28.821 -3.74,36.87c-3.483,6.966 -11.453,12.071 -12.398,20.261c-1.68,14.559 18.807,23.869 15.284,37.959c-2.446,9.783 -12.892,12.683 -17.286,20.496c-3.28,5.83 2.088,15.038 5.006,19.672c1.466,2.329 4.633,6.542 7.156,7.804" style="fill:none;stroke:#38332a;stroke-width:7.81px;"/>
        <path d="M498.64,951.554c9.991,21.401 -13.702,49.751 -15.991,54.804c-6.254,13.807 9.134,24.26 12.192,37.105c2.577,10.828 -7.913,16.23 -8.334,25.503c-0.473,10.397 5.952,19.73 12.133,25.179" style="fill:none;stroke:#38332a;stroke-width:7.81px;"/>
        <path d="M437.237,965.238c-1.835,-2.756 -19.028,-33.988 -50.033,-9.197c-10.774,8.615 -20.436,20.688 -36.204,18.641c-15.936,-2.069 -20.48,-23.109 -34.596,-24.711c-9.925,-1.125 -19.135,9.021 -24.616,15.806" style="fill:none;stroke:#38332a;stroke-width:7.81px;"/>
        <path d="M528.141,973.095c-0,-0.372 -6.163,-28.717 29.71,-21.276c18.411,3.818 20.173,26.98 37.022,29.649c18.689,2.96 29.884,-27.925 53.315,-13.067c10.673,6.769 14.819,23.905 17.69,35.315c4.75,18.885 9.482,41.318 22.189,56.309c21.648,25.538 55.499,27.265 55.264,26.7" style="fill:none;stroke:#38332a;stroke-width:7.81px;"/>
    </g>
    <g id="Sunsplash">
        <path d="M726.432,1244.97c2.762,-2.082 6.632,-2.249 8.697,-5.602c9.355,-15.189 -28.26,-25.527 -22.732,-3.034c0.572,2.327 2.222,5.778 4.641,6.664c0.874,0.319 5.961,0.279 6.207,1.01" style="fill:none;stroke:#38332a;stroke-width:7.81px;"/>
        <path d="M728.77,1255.64c-0.303,-0.901 -0.113,2.2 0.187,2.894c0.997,2.31 1.832,4.68 2.897,6.973c3.104,6.684 5.248,13.648 8.26,20.323c6.307,13.98 12.563,26.438 16.688,41.422c4.038,14.665 9.259,24.744 -10.096,28.662c-10.976,2.222 -15.064,-6.726 -17.21,-15.746c-4.255,-17.891 -2.975,-34.082 -1.286,-51.956c0.51,-5.398 2.162,-28.089 2.385,-27.826" style="fill:none;stroke:#38332a;stroke-width:7.81px;"/>
        <path d="M746.048,1247.8c4.444,2.208 9.498,11.458 13.288,15.077c4.326,4.129 7.809,8.593 11.664,13.128c3.117,3.667 6.214,7.177 9.884,10.307c12.68,10.816 42.121,40.11 57.357,16.441c4.733,-7.352 2.766,-18.328 -5.564,-22.061c-18.05,-8.09 -38.562,-10.348 -56.338,-19.185c-6.52,-3.242 -12.353,-7.162 -19.451,-9.08c-1.436,-0.388 -12.151,-4.83 -7.888,-3.679" style="fill:none;stroke:#38332a;stroke-width:7.81px;"/>
        <path d="M745.568,1226.44c28.648,7.739 60.411,11.696 90.199,7.901c16.053,-2.045 20.851,-25.151 4.414,-30.587c-10.251,-3.39 -21.841,2.903 -31.269,6.07c-18.85,6.333 -42.909,16.143 -62.923,13.333" style="fill:none;stroke:#38332a;stroke-width:7.81px;"/>
        <path d="M707.935,1252.62c-2.41,-0.338 -2.653,3.543 -2.882,5.172c-0.929,6.617 -2.631,12.986 -4.579,19.371c-6.612,21.67 -2.677,56.89 -28.304,65.5c-6.019,2.022 -13.481,3.189 -19.305,-0.397c-6.246,-3.846 -2.248,-15.167 0.243,-20.178c8.101,-16.297 26.774,-25.018 36.963,-40.275c4.414,-6.611 9.57,-12.583 14.218,-19.006c1.488,-2.055 3.084,-4.304 4.097,-6.643c0.42,-0.968 0.98,-4.085 0.908,-2.799" style="fill:none;stroke:#38332a;stroke-width:7.81px;"/>
        <path d="M695.949,1231.93c1.376,0.192 -3.356,6.954 -3.639,7.32c-4.831,6.241 -11.616,10.89 -18.313,14.93c-15.121,9.121 -30.704,18.909 -47.553,24.569c-9.151,3.075 -18.985,3.52 -23.35,-6.938c-3.514,-8.419 5.332,-13.4 12.179,-14.763c18.982,-3.781 38.152,-5.099 57.045,-9.926c7.165,-1.831 13.139,-5.089 19.283,-9.02c1.154,-0.738 10.055,-5.452 4.627,-5.204" style="fill:none;stroke:#38332a;stroke-width:7.81px;"/>
    </g>
    <path id="Squiggly-boi" serif:id="Squiggly boi" d="M135.916,656.633c-6.25,93.331 51.244,71.064 58.226,60.109c15.215,-23.868 -13.354,-44.497 -23.977,-10.79c-13.768,43.683 27.992,50.471 48.838,50.471c57.145,-0 21.867,-61.952 1.429,-16.23c-4.242,9.49 -23.404,36.463 5.335,57.792c13.476,10.001 43.282,4.198 34.095,-13.862c-2.34,-4.602 -11.838,-8.672 -24.223,2.509c-24.859,22.443 -5.87,57.287 -8.523,82.197c-4.14,38.884 -34.255,28.788 -34.255,29.292" style="fill:none;stroke:#38332a;stroke-width:7.81px;"/>
    <g id="Cool-sun" serif:id="Cool sun">
        <circle cx="909.367" cy="192.936" r="59.513" style="fill:none;stroke:#38332a;stroke-width:7.81px;"/>
        <path d="M936.859,183.209c-0.117,0 31.352,-19.555 30.885,-19.439" style="fill:none;stroke:#38332a;stroke-width:7.81px;"/>
        <path d="M937.379,183.209c5.894,-0.064 -6.546,2.494 -79.39,-4.589" style="fill:none;stroke:#38332a;stroke-width:7.81px;"/>
        <path d="M901.121,183.233c-1.894,-0.812 0.011,19.305 2.313,20.505c2.661,1.389 28.157,1.455 29.725,-0.505c1.459,-1.825 5.323,-12.761 3.917,-19.168" style="fill:#38332a;stroke:#38332a;stroke-width:7.81px;"/>
        <path d="M890.231,183.183c-0.346,-1.382 -2.227,17.889 -5.242,19.827c-1.556,1 -13.988,0.769 -22.243,-2.343c-4.116,-1.552 -0.865,-18.662 0,-21.387" style="fill:#38332a;stroke:#38332a;stroke-width:7.81px;"/>
        <path d="M867.951,150.4c-0,-8.912 -9.159,-39.557 -8.505,-40.21c1.097,-1.097 41.993,23.514 42.554,23.233c2.332,-1.166 34.116,-34.613 35.102,-34.022c2.387,1.432 11.277,46.947 13.253,48.264c2.618,1.745 61.885,3.234 62.059,3.757c0.653,1.959 -42.608,39.662 -43.534,41.514c-0.753,1.507 37.072,33.833 36.141,35.691c-1.859,3.709 -53.296,5.953 -54.666,7.323c-0.976,0.977 8.796,51.728 7.934,52.302c-1.189,0.792 -52.837,-34.94 -56.289,-35.804c-3.552,-0.888 -44.024,30.457 -44.868,29.613c-0.699,-0.698 8.125,-46.684 6.832,-49.273c-0.803,-1.607 -39.975,-9.804 -42.475,-12.305c-0.067,-0.067 28.918,-20.908 28.366,-23.115c-0.68,-2.716 -36.54,-50.963 -36.54,-51.956c-0,-1.034 55.13,4.247 54.636,4.988Z" style="fill:none;stroke:#38332a;stroke-width:7.81px;"/>
    </g>
    <g id="Stars">
        <path d="M833.559,997.165l99.801,-67.049l-128.133,2.897l95.975,57.199c0,-0 -25.46,-90.89 -30.366,-94.113c-2.407,-1.582 -37.277,101.066 -37.277,101.066Z" style="fill:none;stroke:#38332a;stroke-width:7.81px;"/>
        <path d="M791.082,1017.97l26.609,23.009l-6.039,-26.912l-15.548,18.282c-0,-0 29.723,-2.457 30.619,-3.382c0.44,-0.454 -35.641,-10.997 -35.641,-10.997Z" style="fill:none;stroke:#38332a;stroke-width:6.25px;"/>
        <path d="M926.619,894.52l18.157,-6.213l-14.165,-4.495l4.083,12.268c-0,0 7.242,-14.607 7.066,-15.279c-0.086,-0.33 -15.141,13.719 -15.141,13.719Z" style="fill:none;stroke:#38332a;stroke-width:6.25px;"/>
        <path d="M929.936,1012.73l66.224,-18.521l-66.71,-21.737l46.305,68.5c-0,0 -0.948,-84.942 -2.768,-87.598c-0.894,-1.304 -43.051,59.356 -43.051,59.356Z" style="fill:none;stroke:#38332a;stroke-width:7.81px;"/>
        <path d="M797.646,900.579l29.081,-21.081l-43.001,-14.766l32.256,33.427c0,-0 0.061,-44.131 -1.302,-46.044c-0.669,-0.938 -17.034,48.464 -17.034,48.464Z" style="fill:none;stroke:#38332a;stroke-width:6.25px;"/>
    </g>
    <g id="Pin">
        <path d="M169.248,98.977c-3.022,-7.954 -34.684,9.47 -33.787,16.029l6.31,13.28c0,-0 9.982,3.015 10.725,4.168c1.571,2.435 6.771,10.269 7.215,13.424c0.152,1.086 -5.33,6.646 -7.353,8.31c-6.526,5.366 -4.165,15.714 1.193,21.548c7.223,-15.097 39.37,-29.077 52.446,-26.089c-0,-0 -3.558,-14.237 -18.465,-11.32c-2.096,0.411 -6.705,2.527 -8.287,0.645c-3.234,-3.848 -7.03,-10.47 -9.139,-14.979c-0.779,-1.666 5.478,-14.398 5.478,-14.398c-0,0 -4.806,-8.276 -6.336,-10.618Z" style="fill:none;stroke:#38332a;stroke-width:7.81px;"/>
        <path d="M189.821,165.986c7.686,-4.567 14.006,-10.267 16.335,-16.248" style="fill:none;stroke:#38332a;stroke-width:7.81px;"/>
        <path d="M153.71,175.827c5.625,1.109 14.129,-0.363 22.71,-3.505" style="fill:none;stroke:#38332a;stroke-width:7.81px;"/>
        <path d="M183.729,155.333c0.74,0.238 21.524,39.177 21.965,41.437c0.488,2.501 0.83,17.6 0.438,18.068c-0.616,0.735 -10.318,-8.262 -13.075,-12.845c-2.645,-4.398 -17.593,-32.141 -22.759,-39.847" style="fill:none;stroke:#38332a;stroke-width:7.81px;"/>
    </g>
    <g id="Pointing-Hand" serif:id="Pointing Hand">
        <path d="M164.526,521.59c-27.069,-30.644 -37.307,-10.275 -60.356,-32.163c-3.073,-2.919 -17.97,-14.362 -20.448,-18.446c-1.645,-2.709 -7.508,-5.482 -8.477,-8.519c-1.346,-4.221 9.157,-13.061 9.141,-13.387c-0.151,-2.916 -5.011,-9.317 -5.011,-9.317c0,-0 4.741,-6.027 6.808,-9.262c1.062,-1.661 3.333,-4.885 3.333,-4.885c0,0 25.241,18.837 21.367,27.165c-3.971,8.533 -17.09,-0.968 -21.172,-4.65c-0.939,-0.847 -10.336,-8.368 -10.336,-8.368c0,-0 9.096,7.345 9.392,7.714c4.768,5.947 7.912,7.099 8.772,11.795c0.459,2.508 -4.352,7.426 -6.436,9.084c-1.17,0.93 -2.32,2.49 -7.381,2.63" style="fill:none;stroke:#38332a;stroke-width:7.81px;"/>
        <path d="M128.758,479c-2.582,-2.328 -3.573,-6.329 -4.897,-9.373c-4.195,-9.646 -6.193,-18.051 -0.256,-27.534c2.16,-3.452 8.78,-7.722 8.541,-12.338c-0.103,-1.977 -5.166,-5.338 -6.621,-6.446c-7.645,-5.822 -16.49,-7.354 -25.355,-4.785c-19.45,5.638 -19.237,-15.107 -19.227,-14.913c0.013,0.254 17.304,-1.708 21.973,-3.632c11.449,-4.716 21.877,-4.987 33.343,0.407c4.083,1.921 8.198,3.794 11.493,6.959c11.296,10.847 13.737,27.127 22.317,39.889c4.092,6.087 27.562,18.048 27.429,18.082" style="fill:none;stroke:#38332a;stroke-width:7.81px;"/>
        <path d="M95.11,399.63c-4.264,-3.847 -20.112,-17.244 -22.967,-20.718c-2.876,-3.497 -3.434,-14.547 1.454,-15.574c5.929,-1.246 11.948,2.118 44.616,30.46" style="fill:none;stroke:#38332a;stroke-width:7.81px;"/>
        <path d="M93.921,420.729c-0.51,0.026 5.91,11.413 7.157,12.88c3.078,3.623 7.68,8.942 12.685,9.852c3.655,0.664 9.726,-2.97 11.553,-6.686c3.329,-6.773 -4.685,-14.784 -10.214,-18.713" style="fill:none;stroke:#38332a;stroke-width:7.81px;"/>
    </g>
    <g id="Tongue-Face" serif:id="Tongue Face">
        <path d="M240.147,552.559c22.601,-8.853 49.497,5.775 60.024,32.647c10.527,26.871 0.724,55.876 -21.877,64.73c-22.601,8.854 -49.497,-5.775 -60.024,-32.646c-10.527,-26.872 -0.724,-55.877 21.877,-64.731Z" style="fill:none;stroke:#38332a;stroke-width:7.81px;"/>
        <path d="M226.853,582.42c4.828,1.098 11.557,4.416 17.206,2.588c-4.593,3.607 -10.106,7.5 -13.153,12.572" style="fill:none;stroke:#38332a;stroke-width:6.25px;"/>
        <path d="M272.566,571.602c-7.245,-0 -14.683,6.472 -15.269,4.79c-0,-5.193 4.628,-8.588 5.454,-16.554" style="fill:none;stroke:#38332a;stroke-width:6.25px;"/>
        <path d="M232.101,614.643c30.543,-0 49.745,-13.853 54.447,-30.371" style="fill:none;stroke:#38332a;stroke-width:7.81px;"/>
        <path d="M282.257,612.499c7.874,-7.782 11.34,-18.046 4.291,-28.227" style="fill:none;stroke:#38332a;stroke-width:7.81px;"/>
        <path d="M232.101,614.425c4.055,11.601 17.335,13.457 30.194,9.615" style="fill:none;stroke:#38332a;stroke-width:7.81px;"/>
        <path d="M256.735,612.635c0,4.304 9.541,21.926 19.069,16.471c6.78,-3.882 9.473,-13.325 2.836,-29.649" style="fill:none;stroke:#38332a;stroke-width:7.81px;"/>
        <path d="M267.426,609.163c0.177,1.677 1.238,3.689 1.913,5.262" style="fill:none;stroke:#38332a;stroke-width:6.25px;"/>
    </g>
    <g id="Pineapple">
        <path d="M270.709,1214.55c28.871,-6.875 59.049,15.837 67.348,50.688c4.826,20.266 7.923,48.339 -4.188,65.186c-5.132,7.139 -54.318,19.533 -61.165,14.565c-12.183,-8.838 -30.97,-19.987 -39.269,-54.837c-8.299,-34.851 8.403,-68.727 37.274,-75.602Z" style="fill:none;stroke:#38332a;stroke-width:7.81px;"/>
        <path d="M249.769,1223.79c-6.786,-17.063 -28.511,-27.483 -45.517,-27.317c10.061,-12.544 43.217,-2.937 43.217,-2.937c-6.102,-11.432 -25.558,-27.578 -49.971,-25.426c17.8,-11.704 25.739,-14.53 53.252,4.045c-4.688,-17.27 -16.472,-29.487 -32.959,-38.355c19.992,-2.846 33.873,1.746 46.355,30.115c3.702,-27.602 22.725,-33.574 28.032,-31.485c-7.964,-1.069 -18.263,43.581 -14.162,36.608c3.728,-6.34 34.13,-22.397 34.259,-11.534c-18.504,10.644 -18.509,18.678 -23.446,32.442c-0,0 21.925,-15.659 29.036,-8.964c-7.312,-2.159 -30.474,21.885 -23.506,32.19" style="fill:none;stroke:#38332a;stroke-width:7.81px;"/>
        <path d="M238.24,1304.56c5.077,-32.067 28.837,-79.07 37.183,-90.112" style="fill:none;stroke:#38332a;stroke-width:6.25px;"/>
        <path d="M267.565,1340.35c3.275,-38.094 39.098,-111.989 41.675,-117.86" style="fill:none;stroke:#38332a;stroke-width:6.25px;"/>
        <path d="M305.578,1341.08c5.68,-8.891 22.88,-66.69 25.747,-92.271" style="fill:none;stroke:#38332a;stroke-width:6.25px;"/>
        <path d="M253.526,1224.76c16.948,1.952 68.859,22.069 82,29.855" style="fill:none;stroke:#38332a;stroke-width:6.25px;"/>
        <path d="M234.895,1255.68c20.59,5.475 100.811,41.714 107.27,43.23" style="fill:none;stroke:#38332a;stroke-width:6.25px;"/>
        <path d="M235.772,1296.45c25.812,16.283 54.927,28.684 85.997,37.916" style="fill:none;stroke:#38332a;stroke-width:6.25px;"/>
    </g>
    <g id="WiFi-Symbol" serif:id="WiFi Symbol">
        <path d="M336.584,840.094c8.401,-9.373 33.855,-7.294 39.599,-0" style="fill:none;stroke:#38332a;stroke-width:7.81px;"/>
        <path d="M327.209,825.056c17.776,-12.498 43.23,-10.419 58.349,-0" style="fill:none;stroke:#38332a;stroke-width:7.81px;"/>
        <path d="M317.834,811.158c24.232,-18.551 59.925,-11.624 80.224,0" style="fill:none;stroke:#38332a;stroke-width:7.81px;"/>
    </g>
    <g id="Bubbles">
        <circle cx="661.115" cy="376.912" r="11.621" style="fill:none;stroke:#38332a;stroke-width:7.81px;"/>
        <ellipse cx="680.88" cy="410.926" rx="5.149" ry="5.371" style="fill:none;stroke:#38332a;stroke-width:7.81px;"/>
        <circle cx="686.029" cy="330.551" r="17.109" style="fill:none;stroke:#38332a;stroke-width:7.81px;"/>
        <circle cx="624.191" cy="297.749" r="32.803" style="fill:none;stroke:#38332a;stroke-width:7.81px;"/>
        <path d="M715.064,161.27c26.92,6.043 42.961,36.854 35.798,68.759c-7.163,31.906 -34.834,52.904 -61.754,46.86c-26.92,-6.043 -42.961,-36.853 -35.798,-68.759c7.163,-31.906 34.834,-52.903 61.754,-46.86Z" style="fill:none;stroke:#38332a;stroke-width:7.81px;"/>
        <path d="M624.904,277.85c8.649,-0 15.533,1.113 18.658,13.219" style="fill:none;stroke:#38332a;stroke-width:6.25px;"/>
        <path d="M689.085,323.307c3.021,0.89 5.344,4.702 4.461,7.705" style="fill:none;stroke:#38332a;stroke-width:6.25px;"/>
        <path d="M705.23,197.812c5.265,-2.6 9.912,-0.357 12.161,6.535" style="fill:none;stroke:#38332a;stroke-width:6.25px;"/>
        <path d="M731.496,190.56c-6.25,3.004 -3.716,12.403 -2.207,12.403" style="fill:none;stroke:#38332a;stroke-width:6.25px;"/>
        <path d="M702.121,186.641c6.407,-2.35 5.511,-6.129 3.261,-11.128" style="fill:none;stroke:#38332a;stroke-width:6.25px;"/>
        <path d="M717.406,173.16c-0.37,6.734 6.176,8.867 10.076,6.296" style="fill:none;stroke:#38332a;stroke-width:6.25px;"/>
    </g>
    <g id="X-s" serif:id="X&apos;s">
        <path d="M470.166,744.483c2.958,-7.133 19.134,-32.48 20.195,-32.48" style="fill:none;stroke:#38332a;stroke-width:7.81px;"/>
        <path d="M457.106,717.984c11.973,3.125 38.136,14.183 45.421,18.343" style="fill:none;stroke:#38332a;stroke-width:7.81px;"/>
        <path d="M490.361,783.934c3.125,-5.586 7.217,-10.699 7.217,-15.655" style="fill:none;stroke:#38332a;stroke-width:7.81px;"/>
        <path d="M480.264,772.326c11.19,0 13.659,3.587 24.311,6.712" style="fill:none;stroke:#38332a;stroke-width:7.81px;"/>
        <path d="M504.575,800.538c1.49,0 8.096,2.588 11.221,1.32" style="fill:none;stroke:#38332a;stroke-width:6.25px;"/>
        <path d="M509.89,806.997c0,-3.028 0.296,-6.056 0.296,-9.085" style="fill:none;stroke:#38332a;stroke-width:6.25px;"/>
    </g>
    <g id="Moy">
        <path d="M725.781,742.909c-2.445,-8.949 6.185,-46.962 12.83,-47.586c7.098,-0.668 22.305,41.774 23.705,44.74c0.343,0.727 16.638,2.508 17.381,1.45c4.292,-6.115 4.207,-40.708 12.212,-41.571c10.141,-1.094 21.755,28.922 23.765,37.596" style="fill:none;stroke:#38332a;stroke-width:7.81px;"/>
        <path d="M827.498,749.68c7.175,-1.477 16.731,-0.804 18.46,2.654c0.741,1.482 -9.805,8.486 -8.249,11.594c0.762,1.525 12.633,1.957 12.633,3.75c-0,1.213 -18.29,5.918 -17.761,9.093c0.448,2.687 18.979,9.541 17.761,11.978c-1.047,2.095 -16.971,7.541 -17.761,10.701c-0.307,1.229 13.078,7.043 12.633,8.82c-0.922,3.682 -15.125,-3.457 -14.363,1.109c0.332,1.993 6.856,10.361 6.633,11.697c-0.079,0.476 -14.153,-5.294 -15.113,-5.294" style="fill:none;stroke:#38332a;stroke-width:6.25px;"/>
        <path d="M717.282,752.507c-5.75,-1.424 -19.053,2.407 -18.113,5.228c0.864,2.592 14.614,8.47 14.364,9.471c-0.658,2.631 -18.117,7.886 -16.96,10.2c3.568,7.134 17.439,0.442 20.709,6.98c0.252,0.503 -18.851,13.558 -15.229,16.44c4.117,3.275 24.234,-4.028 26.247,-0c0.485,0.968 -17.184,17.336 -14.767,22.173c2.626,5.257 17.785,-6.197 20.662,-9.07" style="fill:none;stroke:#38332a;stroke-width:6.25px;"/>
        <path d="M747.683,792.808c-0,-1.818 1.232,3.44 2.134,5.018c1.939,3.393 3.205,7.256 5.48,10.441c6.868,9.615 13.028,26.78 25.901,29.997c8.739,2.184 17.002,-27.485 19.383,-32.246c1.662,-3.325 5.384,-15.499 4.845,-15.229" style="fill:none;stroke:#38332a;stroke-width:7.81px;"/>
        <circle cx="783.928" cy="825.638" r="7.82" style="fill:#38332a;stroke:#38332a;stroke-width:7.81px;"/>
        <path d="M763.373,774.694l0,0.462" style="fill:none;stroke:#38332a;stroke-width:7.81px;"/>
        <path d="M786.621,776.771l-0,1.269" style="fill:none;stroke:#38332a;stroke-width:7.81px;"/>
    </g>
    <path id="Heart" d="M880.512,1132.05c4.171,-8.903 -2.607,-19.201 -6.863,-29.854c-1.781,-4.459 -3.12,-8.979 -3.03,-13.485c0.308,-15.429 7.002,-20.796 15.316,-20.22c10.26,0.711 8.553,18.565 8.553,18.565c-0,-0 14.013,-14.677 20.802,-2.633c3.263,5.788 1.571,15.865 -3.352,20.343c-8.752,7.959 -19.593,6.435 -31.426,27.284Z" style="fill:#38332a;stroke:#38332a;stroke-width:7.81px;"/>
    <g id="Bike">
        <path d="M168.495,950.113c16.448,11.085 72.862,67.359 78.751,71.532" style="fill:none;stroke:#38332a;stroke-width:7.81px;"/>
        <path d="M193.202,971.479c-5.665,0.852 -75.354,31.997 -75.354,31.997l-16.498,82.902l69.212,-36.531c-0,0 19.405,-69.227 22.64,-78.368Z" style="fill:none;stroke:#38332a;stroke-width:7.81px;"/>
        <ellipse cx="170.562" cy="1049.85" rx="12.5" ry="12.544" style="fill:none;stroke:#38332a;stroke-width:6.25px;"/>
        <path d="M101.284,990.505c1.909,-3.816 29.006,-19.192 20.806,-26.146c-3.943,-3.344 -13.515,15.208 -42.693,15.548c-4.261,0.05 -10.764,-0.624 -13.202,4.017c-1.948,3.709 9.362,11.932 13.202,13.366c3.498,1.305 16.396,-1.667 21.887,-6.785Z" style="fill:none;stroke:#38332a;stroke-width:6.25px;"/>
        <path d="M101.35,993.63c4.077,-0 58.291,43.99 62.011,45.674" style="fill:none;stroke:#38332a;stroke-width:7.81px;"/>
        <path d="M151.812,950.113c19.769,6.25 44.678,-20.479 48.265,-19.307c1.914,0.625 16.799,18.634 -0,24.502" style="fill:none;stroke:#38332a;stroke-width:7.81px;"/>
        <ellipse cx="245.932" cy="1021.64" rx="45.855" ry="46.371" style="fill:none;stroke:#38332a;stroke-width:7.81px;"/>
        <ellipse cx="101.284" cy="1085.67" rx="45.855" ry="46.371" style="fill:none;stroke:#38332a;stroke-width:7.81px;"/>
        <circle cx="245.932" cy="1020.91" r="10.493" style="fill:none;stroke:#38332a;stroke-width:6.25px;"/>
        <circle cx="101.284" cy="1085.67" r="10.493" style="fill:none;stroke:#38332a;stroke-width:6.25px;"/>
    </g>
    <g id="Swooshy-Plant" serif:id="Swooshy Plant">
        <path d="M898.759,650.294c-5.807,8.063 -23.014,19.806 -22.597,19.671c2.643,-0.855 14.385,-9.349 28.108,-25.729c6.884,-8.216 10.265,-19.569 11.04,-23.15c3.615,-16.698 -0.002,-34.675 3.963,-51.303c3.657,-15.332 17.989,-30.837 17.989,-30.837c0,0 -10.034,5.082 -12.828,6.636c-7.99,4.446 -17.786,10.499 -23.795,17.903c-14.744,18.165 3.074,42.557 3.631,61.794c0.233,8.05 -0.943,18.673 -5.511,25.015Z" style="fill:none;stroke:#38332a;stroke-width:7.81px;"/>
        <path d="M904.319,644.875c17.206,-25.633 37.498,-28.9 57.544,-22.489" style="fill:none;stroke:#38332a;stroke-width:7.81px;"/>
        <path d="M932.71,607.476c0.815,-7.948 17.814,-16.255 20.17,-17.525c16.074,-8.663 15.93,-18.578 33.483,-24.599c7.838,-2.688 16.982,-3.757 25.049,-1.728c10.39,2.613 21.585,8.132 32.531,7.729c14.116,-0.519 22.91,-18.936 22.91,-18.936c0,0 -3.688,28.781 -31.038,37.534c-11.718,3.75 -22.035,0.566 -33.14,-2.524c-9.196,-2.558 -18.989,-4.166 -28.513,-3.139c-12.22,1.317 -10.47,-0.23 -21.282,5.663c-11.335,6.177 -15.688,10.772 -20.17,17.525Z" style="fill:none;stroke:#38332a;stroke-width:7.81px;"/>
        <path d="M955.902,565.957c18.133,-21.552 41.242,-15.639 43.879,-27.011c2.068,-8.915 -8.934,-38.277 32.2,-52.217" style="fill:none;stroke:#38332a;stroke-width:6.25px;"/>
        <path d="M921.88,683.527c17.203,-11.966 24.202,-24.032 28.772,-27.579c10.627,-8.249 28.492,-13.649 41.138,-9.815c11.547,3.5 20.794,12.338 32.163,16.551c3.639,1.348 13.367,2.875 18.56,-4.848" style="fill:none;stroke:#38332a;stroke-width:7.81px;"/>
        <path d="M1027.95,677.615c-20.686,-0 -35.741,-29.679 -65.8,-12.765" style="fill:none;stroke:#38332a;stroke-width:6.25px;"/>
        <path d="M786.487,660.249c74.201,9.574 89.279,-15.992 92.456,-25.079c6.907,-19.758 -6.13,-47.312 -8.243,-64.315c-2.106,-16.944 13.862,-30.25 27.802,-36.225" style="fill:none;stroke:#38332a;stroke-width:6.25px;"/>
    </g>
    <g id="_--" serif:id="?!">
        <path d="M342.321,1075.86c-0,-10.992 16.779,-19.468 20.305,-5.709c1.628,6.35 2.509,15.386 -0.611,21.474c-1.649,3.216 -4.552,2.345 -6.609,4.473c-2.584,2.673 -0.543,8.882 -0.041,11.961" style="fill:none;stroke:#38332a;stroke-width:7.81px;"/>
        <path d="M356.211,1126.22c0.406,-0.57 2.128,-0.568 2.731,-0.669" style="fill:none;stroke:#38332a;stroke-width:7.81px;"/>
        <path d="M376.35,1063.01c1.325,11.44 2.678,22.873 4.331,34.271" style="fill:none;stroke:#38332a;stroke-width:7.81px;"/>
        <path d="M382.929,1119.79c3.125,-2.271 0.665,0.504 0.633,0.585" style="fill:none;stroke:#38332a;stroke-width:7.81px;"/>
    </g>
    <g id="Coffee-Cup" serif:id="Coffee Cup">
        <path d="M779.872,376.735c6.03,1.985 26.827,7.796 47.568,-0c4.66,-1.752 9.511,-6.497 6.73,-7.788c-10.686,-4.958 -48.963,-4.888 -57.783,0c-2.409,1.335 -3.59,3.819 -0.72,5.828c1.314,0.919 4.377,2.002 4.205,1.96Z" style="fill:none;stroke:#38332a;stroke-width:7.81px;"/>
        <path d="M774.137,373.65c0.183,-0 -1.823,55.65 0.315,58.5c2.747,3.662 10.006,4.854 14.175,5.175c12.052,0.927 24.386,1.084 36.315,-0.99c3.131,-0.544 10.054,-1.952 11.723,-5.288c0.291,-0.582 -1.192,-60.806 -2.43,-60.187" style="fill:none;stroke:#38332a;stroke-width:7.81px;"/>
        <path d="M838.981,381.615c1.941,-2.053 17.245,-3.804 20.43,-1.058c1.644,1.418 0.524,39.682 0,40.568c-1.285,2.176 -18.353,-1.643 -22.139,-0" style="fill:none;stroke:#38332a;stroke-width:7.81px;"/>
        <path d="M790.123,352.457c2.112,-12.216 -15.582,-8.962 -16.11,-16.56c-0.722,-10.389 12.899,-11.831 14.287,-18.54c1.751,-8.458 -8.835,-10.467 -10.24,-18.335c-0.543,-3.043 1.334,-8.034 4.795,-10.757" style="fill:none;stroke:#38332a;stroke-width:7.81px;"/>
        <path d="M816.411,352.457c6.781,-8.379 -9.924,-10.016 -10.687,-18.562c-0.508,-5.692 8.043,-6.925 10.327,-10.733c4.182,-6.969 -2.757,-18.414 -6.412,-21.397" style="fill:none;stroke:#38332a;stroke-width:7.81px;"/>
    </g>
    <path id="Squiggly" d="M316.55,424.763c-0,-12.007 27.499,-92.768 37.931,-96.229c3.002,-0.995 31.409,86.113 39.867,86.178c2.105,0.016 9.757,-60.594 12.935,-60.546c4.566,0.068 20.577,49.952 40.166,54.839c19.323,4.82 19.436,-34.44 32.084,-35.555c10.332,-0.911 12.423,26.977 21.687,30.444c10.456,3.911 14.315,-17.538 22.892,-18.01c5.073,-0.279 22.842,21.405 27.54,18.01" style="fill:none;stroke:#38332a;stroke-width:7.81px;"/>
    <path id="Diamond" d="M551.652,1063.06c29.813,-0.796 38.143,-32.497 38.462,-53.82c6.341,37.23 8.088,52.259 41.011,60.026c-28.876,3.459 -31.909,14.793 -43.668,47.511c-0,0 0.745,-38.092 -35.805,-53.717Z" style="fill:none;stroke:#38332a;stroke-width:7.81px;"/>
    <g id="Bursting-Star" serif:id="Bursting Star">
        <g>
            <path d="M323.184,119.915c27.81,-0 48.776,-18.915 55.058,-30.652c4.106,-7.67 17.825,-48.057 17.995,-47.972c3.911,1.953 -1.849,38.935 13.545,58.191c7.561,9.459 53.095,16.616 54.051,17.572c0.174,0.173 -39.509,4.843 -48.938,11.272c-13.683,9.329 -20.511,27.694 -24.559,43.21c-1.267,4.854 -4.53,22.293 -4.53,22.293c-0,0 2.478,-44.68 -16.969,-56.827c-16.82,-10.506 -47.242,-17.087 -45.653,-17.087Z" style="fill:none;stroke:#38332a;stroke-width:7.81px;"/>
            <path d="M392.232,108.98c2.91,-0.831 -4.696,-2.143 -5.921,-1.888c-8.048,1.677 -10.936,10.782 -3.834,16.015c1.05,0.774 2.505,1.479 3.815,1.61c6.402,0.64 7.212,-4.194 7.212,-9.24c0,-1.807 -1.165,-6.139 -3.417,-6.139" style="fill:none;stroke:#38332a;stroke-width:7.81px;"/>
            <path d="M351.778,83.805c-7.341,-7.937 -8.951,-10.715 -11.961,-13.65" style="fill:none;stroke:#38332a;stroke-width:7.81px;"/>
            <path d="M418.957,89.627c4.608,-1.94 19.792,-11.283 19.631,-11.306" style="fill:none;stroke:#38332a;stroke-width:7.81px;"/>
            <path d="M417.427,146.076c4.582,5.978 9.945,12.547 13.153,15.419" style="fill:none;stroke:#38332a;stroke-width:7.81px;"/>
            <path d="M354.361,146.056c0.007,-0.152 -4.222,4.146 -14.405,15.896" style="fill:none;stroke:#38332a;stroke-width:7.81px;"/>
        </g>
        <g>
            <path d="M323.667,97.802l0.03,-0" style="fill:none;stroke:#38332a;stroke-width:7.81px;"/>
            <path d="M367.956,53.632c-0.204,-0.51 0.045,-1.401 -0.089,-1.669" style="fill:none;stroke:#38332a;stroke-width:7.81px;"/>
            <path d="M425.657,45.942c-0.206,0.138 -0.209,0.22 -0.209,0.448" style="fill:none;stroke:#38332a;stroke-width:7.81px;"/>
            <path d="M453.971,100.931c0.519,0.259 1.507,0.06 2.086,0.06" style="fill:none;stroke:#38332a;stroke-width:7.81px;"/>
            <path d="M455.402,146.77c0.132,0.133 0.151,0.416 -0.03,0.507" style="fill:none;stroke:#38332a;stroke-width:7.81px;"/>
            <path d="M413.408,174.816c0.443,-0.254 0.711,-0.299 1.222,-0.299" style="fill:none;stroke:#38332a;stroke-width:7.81px;"/>
            <path d="M360.684,179.525c0.229,0.091 0.54,0.242 0.715,0.417" style="fill:none;stroke:#38332a;stroke-width:7.81px;"/>
            <path d="M324.86,140.511c0.443,0 0.768,-0.036 1.102,0.298" style="fill:none;stroke:#38332a;stroke-width:7.81px;"/>
            <path d="M311.239,70.769c-0.074,0 -0.516,0.02 -0.417,-0.179" style="fill:none;stroke:#38332a;stroke-width:7.81px;"/>
            <path d="M365.721,15.065c-0.318,-0.091 -0.354,-0.122 -0.149,-0.327" style="fill:none;stroke:#38332a;stroke-width:7.81px;"/>
            <path d="M474.417,68.057c-0.404,0.202 -0.243,0.443 0.029,0.715" style="fill:none;stroke:#38332a;stroke-width:7.81px;"/>
            <path d="M456.385,181.074c0.15,0.05 0.304,0.095 0.417,0.209" style="fill:none;stroke:#38332a;stroke-width:7.81px;"/>
            <path d="M294.579,172.014c0.089,-0.045 0.173,-0.088 0.268,-0.119" style="fill:none;stroke:#38332a;stroke-width:7.81px;"/>
        </g>
    </g>
    <g id="Squiggly-Snowflakes" serif:id="Squiggly Snowflakes">
        <g>
            <path d="M167.335,296.535c12.846,-6.423 21.248,-18.689 31.939,-27.676" style="fill:none;stroke:#38332a;stroke-width:6.25px;"/>
            <path d="M162.087,272.68c11.572,3.039 24.923,18.291 33.6,26.524" style="fill:none;stroke:#38332a;stroke-width:6.25px;"/>
            <path d="M178.461,311.579c0,-19.401 -1.085,-39.228 1.325,-58.516" style="fill:none;stroke:#38332a;stroke-width:6.25px;"/>
            <path d="M158.502,287.965c14.423,0 28.85,0.155 43.268,-0.258" style="fill:none;stroke:#38332a;stroke-width:6.25px;"/>
        </g>
        <g>
            <path d="M222.83,363.121c-0,-18.313 21.989,-36.94 31.734,-51.038" style="fill:none;stroke:#38332a;stroke-width:6.25px;"/>
            <path d="M213.994,323.636c3.951,0.415 9.251,4.288 12.707,5.973c11.349,5.532 22.543,11.381 33.674,17.337" style="fill:none;stroke:#38332a;stroke-width:6.25px;"/>
            <path d="M243.213,357.246c0,-16.198 -4.931,-31.41 -7.674,-47.091" style="fill:none;stroke:#38332a;stroke-width:6.25px;"/>
            <path d="M207.203,342.447c22.666,-0 44.483,-7.439 66.627,-11.01" style="fill:none;stroke:#38332a;stroke-width:6.25px;"/>
        </g>
        <g>
            <path d="M160.756,361.27c-0,-5.408 2.683,-11.234 4.343,-16.284" style="fill:none;stroke:#38332a;stroke-width:6.25px;"/>
            <path d="M150.266,348.784c9.605,0 17.763,1.063 26.913,3.913" style="fill:none;stroke:#38332a;stroke-width:6.25px;"/>
            <path d="M169.294,361.548c-4.787,-4.786 -13.417,-10.691 -15.349,-17.324" style="fill:none;stroke:#38332a;stroke-width:6.25px;"/>
        </g>
        <g>
            <path d="M222.045,277.045c5.861,0 16.432,8.127 20.536,12.078" style="fill:none;stroke:#38332a;stroke-width:6.25px;"/>
            <path d="M227.831,292.305c-0,-7.858 4.288,-16.745 6.723,-24.17" style="fill:none;stroke:#38332a;stroke-width:6.25px;"/>
            <path d="M218.882,285.148c9.378,-0 19.04,-1.503 28.205,-3.38" style="fill:none;stroke:#38332a;stroke-width:6.25px;"/>
        </g>
    </g>
    <g>
        <path d="M902.993,425.168c19.993,-0 71.037,-0 71.037,-0l-24.275,-31.634l13.233,0l-19.802,-28.183l11.552,-0c-11.339,-7.704 -18.626,-25.849 -22.557,-42.153c-7.077,18.133 -7.693,30.769 -18.671,43.226l11.609,0l-16.976,28.111l12.029,-0c-0,-0 -15.484,23.851 -17.179,30.633Z" style="fill:#38332a;stroke:#38332a;stroke-width:6.25px;"/>
        <path d="M938.252,428.207c0,7.856 -0.114,15.753 0.526,23.589" style="fill:none;stroke:#38332a;stroke-width:6.25px;"/>
    </g>
    <path id="Triangle" d="M95.72,828.41l31.402,-7.655l-22.331,38.678l-9.071,-31.023Z" style="fill:#38332a;stroke:#38332a;stroke-width:6.25px;"/>
</svg>
