<svg viewBox="0 0 416 400" xmlns="http://www.w3.org/2000/svg" fill-rule="evenodd" clip-rule="evenodd" stroke-linejoin="round" stroke-miterlimit="1.41"><path d="M135.08 95.11L0 92.6 1.43 15.6l340.94 6.35-1.2 65.03-206.1 8.12 205.87 3.84.22-11.96 48.09-1.9 3.03 76.94-148.7 5.87 115.07 5.92-3.96 76.9-11.77-.6-3.48-36.24-244.38 23.47 247.86 12.77 3.88 40.4-158.1 15.19 182.7 7.85-3.31 76.93L27.4 375.84l2.36-54.87 158.94-15.26-157.99-6.8-.95 22.06-22.4 2.15L0 246.47l95.06-9.12-80.92-4.17 3.97-76.9 32.75 1.69.69 17.5 192.03-7.57-192.72-9.93-2.35-59.44 86.57-3.42z" fill="#d95b43"/><g fill="#38332a"><circle cx="43.9" cy="98" r="23"/><circle cx="305.9" cy="23" r="23"/><circle cx="392.28" cy="283" r="23"/><circle cx="34.28" cy="376" r="23"/></g><path d="M38.26 28.42L54 52l-25.16 3.17 9.42-26.74zM110.34 222.51l-34.13-2.13 15.35-26.45 18.78 28.58zM62.01 277.87L48.77 309.4l-19.93-23.2 33.17-8.33zM315.6 152.3l34.1 2.65-15.76 26.22-18.34-28.87zM387.56 222.51l-.14 34.2-27.3-13.8 27.45-20.4zM31.07 152.3L0 144.12l18.97-21.59 12.1 29.77zM366.76 86.76l-21.03-24.63 28.11-6.97-7.08 31.6zM315.6 358.17l30.13-.67-11.52 24.38-18.61-23.7zM80.43 369.7l25.69 15.77-22.9 14.23-2.79-30z" fill="#8cc9bf"/><path d="M266.8 28.42v44.9H80.44v-44.9h186.38zm-87.55 22.85a7.5 7.5 0 0 0 .8-4.06 10.33 10.33 0 0 0-5.12-1.15c-2.05 0-3.79.6-5.22 1.79-1.6 1.36-2.4 3.6-2.4 6.72 0 5.33 2.3 8 6.91 8a12.9 12.9 0 0 0 6.12-1.6l-.96-2.47c-1.24.3-2.67.45-4.3.45-1.02 0-1.8-.33-2.35-1-.54-.68-.81-1.87-.81-3.57 0-3.37.98-5.06 2.94-5.06.43 0 .77.01 1.03.03.06.75.24 1.39.54 1.92h2.82zm-23.97.3c.21-.5.34-1.2.38-2.09.43-.13.97-.2 1.64-.2 1.77 0 2.65.84 2.65 2.5v1.54h-3.49c-1.87 0-3.29.41-4.24 1.23a4.23 4.23 0 0 0-1.42 3.38c0 1.43.5 2.56 1.52 3.4a5.59 5.59 0 0 0 3.66 1.24c2.41 0 4.08-.67 5-2.02.14.8.33 1.47.54 2.02 2.03 0 3.58-.26 4.67-.77v-2.78a7.24 7.24 0 0 0-1.76-.55v-6.81c0-2-.5-3.44-1.49-4.3-.99-.87-2.63-1.3-4.9-1.3-2.3 0-4.42.53-6.4 1.6-.03.36-.04.7-.04 1.02 0 1.17.18 2.13.54 2.88h3.14zm-5.95 10.74c.02-.42.03-1.04.03-1.85s-.12-1.75-.35-2.82l-2.47-.32c-.38.36-.73.93-1.05 1.7h-1.76c-1.11 0-1.98.1-2.6.28l-.15-.35c.68-.55 1.3-1.21 1.88-1.98L149.1 49l-.32-2.69h-12.96c-.02.4-.03 1-.03 1.78s.12 1.7.35 2.77l2.47.32c.36-.34.7-.88 1.02-1.6h1.25c1.1 0 1.97-.1 2.6-.3l.15.36c-.68.56-1.31 1.22-1.89 1.98l-6.27 8.07.32 2.62h13.54zm49.63 0l.32-2.46a4.3 4.3 0 0 0-1.76-1.09v-6.5c0-2.09-.4-3.64-1.22-4.67-.8-1.02-2.27-1.53-4.38-1.53-.66 0-1.42.11-2.27.35-.86.23-1.54.52-2.05.86v-8c-.7-.06-1.57-.1-2.6-.1-1.02 0-2.13.15-3.32.42l-.32 2.47c.43.47 1.01.83 1.76 1.08v15.62c-.88.32-1.46.68-1.76 1.09l.32 2.46h7.36l.32-2.46a4.3 4.3 0 0 0-1.76-1.09v-8.22a4.72 4.72 0 0 1 2.85-1.03c.98 0 1.66.2 2.03.6.37.39.56 1.16.56 2.31v6.34c-.88.32-1.46.68-1.76 1.09l.32 2.46h7.36zm-39-6.59v2.62a3.5 3.5 0 0 1-2.6.96c-.64 0-1.13-.16-1.46-.5a1.8 1.8 0 0 1-.5-1.32c0-1.17.78-1.76 2.31-1.76h2.24z" fill="#38332a"/><path d="M136.14 50.86a13.12 13.12 0 0 1-.35-2.77c0-.78.01-1.37.03-1.78h12.96l.32 2.7-6.24 7.96c-.57.77-1.2 1.43-1.89 1.98l.16.35c.62-.19 1.49-.28 2.6-.28h1.76c.32-.77.67-1.34 1.05-1.7l2.47.32c.23 1.07.35 2 .35 2.82 0 .8-.01 1.43-.03 1.85h-13.54l-.32-2.62 6.27-8.06c.58-.77 1.2-1.43 1.9-1.99l-.17-.35c-.62.2-1.48.29-2.6.29h-1.24a4.91 4.91 0 0 1-1.02 1.6l-2.47-.32zM151.6 48.68l.03-1.02a13.32 13.32 0 0 1 6.4-1.6c2.28 0 3.92.43 4.91 1.3 1 .86 1.5 2.3 1.5 4.3v6.81c.74.15 1.32.33 1.75.55v2.78c-1.09.51-2.64.77-4.67.77-.21-.56-.4-1.23-.55-2.02-.91 1.35-2.58 2.02-4.99 2.02a5.59 5.59 0 0 1-3.66-1.25 4.16 4.16 0 0 1-1.52-3.4c0-1.42.47-2.55 1.42-3.37.95-.82 2.37-1.23 4.24-1.23h3.5v-1.54c0-1.66-.9-2.5-2.66-2.5-.67 0-1.21.07-1.64.2-.04.9-.17 1.6-.38 2.08h-3.14a6.6 6.6 0 0 1-.54-2.88zm5.76 10.62a3.5 3.5 0 0 0 2.6-.95v-2.63h-2.25c-1.54 0-2.3.59-2.3 1.76 0 .53.16.97.5 1.31.32.34.8.51 1.45.51zM174.86 49.32c-1.96 0-2.94 1.69-2.94 5.06 0 1.7.27 2.9.82 3.56.54.68 1.32 1.01 2.35 1.01 1.62 0 3.05-.15 4.29-.45l.96 2.47c-.69.45-1.6.83-2.76 1.13a12.9 12.9 0 0 1-3.36.47c-4.6 0-6.9-2.67-6.9-8 0-3.12.8-5.36 2.4-6.72a7.87 7.87 0 0 1 5.2-1.8c2.06 0 3.76.4 5.13 1.16l.03.6a7.5 7.5 0 0 1-.83 3.46h-2.82a4.7 4.7 0 0 1-.54-1.92c-.26-.02-.6-.03-1.03-.03zM181.68 39.6c1.2-.28 2.3-.42 3.33-.42 1.02 0 1.89.03 2.59.1v8c.51-.35 1.2-.64 2.05-.87a8.72 8.72 0 0 1 2.27-.35c2.11 0 3.57.5 4.38 1.53s1.22 2.59 1.22 4.68v6.5a4.3 4.3 0 0 1 1.76 1.08l-.32 2.46h-7.36l-.32-2.46c.3-.4.88-.77 1.76-1.09v-6.33c0-1.16-.19-1.93-.56-2.32-.37-.4-1.05-.6-2.03-.6-.98 0-1.93.35-2.85 1.03v8.22a4.3 4.3 0 0 1 1.76 1.09l-.32 2.46h-7.36l-.32-2.46c.3-.4.88-.77 1.76-1.09V43.15a4.13 4.13 0 0 1-1.76-1.1l.32-2.46z" fill="#faf9f9" fill-rule="nonzero"/><path fill="#38332a" d="M129.22 107.4h216.51v34.2H129.22zM116.14 199.5h121.34v15.87H116.14zM93.28 243.4h235.16v51.87H93.28zM139.61 333.57h147.34v55.35H139.61z"/><path d="M135.8 118.94a15 15 0 0 1 3.16-.38c.94 0 1.72.02 2.33.06v1.6a6.88 6.88 0 0 1 1.93-1.08c.76-.3 1.46-.45 2.08-.45 2.43 0 4.05.6 4.86 1.82a6.53 6.53 0 0 1 2.11-1.3 6.55 6.55 0 0 1 2.43-.52c2.35 0 3.93.53 4.74 1.58.81 1.06 1.21 3.04 1.21 5.94v5.18a4.3 4.3 0 0 1 1.76 1.09l-.32 2.46h-7.36l-.32-2.46c.3-.4.89-.77 1.76-1.09v-6.33c0-1.18-.16-1.96-.48-2.34-.32-.38-.95-.58-1.9-.58s-1.85.36-2.7 1.06c.1.73.16 1.73.16 3v5.2a4.3 4.3 0 0 1 1.76 1.08l-.32 2.46h-7.36l-.32-2.46c.3-.4.88-.77 1.76-1.09v-6.33c0-1.18-.16-1.96-.48-2.34-.32-.38-.95-.58-1.9-.58-.93 0-1.83.35-2.68 1.03v8.22a4.3 4.3 0 0 1 1.76 1.09l-.32 2.46h-7.36l-.32-2.46c.3-.4.89-.77 1.76-1.09v-8.9a4.13 4.13 0 0 1-1.76-1.08l.32-2.47zM170.9 135.2c-2.52 0-4.39-.67-5.6-2.02-1.22-1.34-1.83-3.37-1.83-6.1 0-2.71.68-4.8 2.03-6.23 1.36-1.44 3.3-2.16 5.84-2.16s4.42.64 5.65 1.92c1.23 1.28 1.84 3.28 1.84 6s-.69 4.83-2.06 6.33c-1.38 1.5-3.34 2.26-5.87 2.26zm-2.82-8.38c0 3.41 1.02 5.12 3.07 5.12 1.05 0 1.82-.4 2.32-1.17.5-.78.75-2.06.75-3.83 0-3.32-1.04-4.99-3.13-4.99-1.03 0-1.78.37-2.27 1.1-.5.74-.74 2-.74 3.77zM190.06 122.88c-1.62 0-2.74.31-3.36.93v7.33c1.73.32 2.91.76 3.55 1.34l-.32 2.46h-9.15l-.32-2.46c.3-.4.89-.77 1.76-1.09v-8.9a4.13 4.13 0 0 1-1.76-1.08l.32-2.47a15 15 0 0 1 3.17-.38c.94 0 1.72.02 2.34.06v2.02a5.74 5.74 0 0 1 1.89-1.42 4.87 4.87 0 0 1 2.1-.56c.62 0 1.05.05 1.29.16l-.1 4.16c-.43-.07-.9-.1-1.4-.1zM202.48 122.88c-1.62 0-2.74.31-3.36.93v7.33c1.73.32 2.91.76 3.55 1.34l-.32 2.46h-9.15l-.32-2.46c.3-.4.88-.77 1.76-1.09v-8.9a4.13 4.13 0 0 1-1.76-1.08l.32-2.47a15 15 0 0 1 3.17-.38c.94 0 1.71.02 2.33.06v2.02a5.74 5.74 0 0 1 1.9-1.42 4.87 4.87 0 0 1 2.09-.56c.63 0 1.06.05 1.3.16l-.1 4.16c-.43-.07-.9-.1-1.41-.1zM205.68 118.94c1.2-.27 2.3-.41 3.33-.41 1.02 0 1.89.03 2.59.1v12.76a4.3 4.3 0 0 1 1.76 1.09l-.32 2.46h-7.36l-.32-2.46c.3-.4.88-.77 1.76-1.09v-8.9a4.13 4.13 0 0 1-1.76-1.08l.32-2.47zm3.61-2.2c-1.77 0-2.65-.8-2.65-2.42 0-1.61.89-2.42 2.67-2.42 1.78 0 2.67.81 2.67 2.42 0 1.61-.9 2.42-2.68 2.42zM221.04 121.57c-1.4 0-2.11.41-2.11 1.25 0 .79.73 1.37 2.2 1.76l2.53.67c2.6.68 3.9 2.19 3.9 4.51 0 1.6-.55 2.9-1.67 3.92-1.12 1.01-2.9 1.52-5.35 1.52-2.44 0-4.34-.34-5.7-1.02a7 7 0 0 1 .67-3.87h2.65c.28.5.46 1.04.54 1.6.43.12 1.04.19 1.83.19 1.87 0 2.81-.54 2.81-1.6 0-.35-.12-.63-.38-.85a4.23 4.23 0 0 0-1.5-.66l-2.53-.73a6.86 6.86 0 0 1-3.04-1.62c-.73-.71-1.1-1.77-1.1-3.17s.57-2.54 1.7-3.44c1.14-.9 2.75-1.34 4.85-1.34 2.1 0 3.88.3 5.33.93a6.77 6.77 0 0 1-.67 3.71h-2.62c-.28-.5-.46-1-.55-1.54-.6-.15-1.2-.22-1.8-.22zM235.47 121.57c-1.4 0-2.11.41-2.11 1.25 0 .79.73 1.37 2.2 1.76l2.54.67c2.6.68 3.9 2.19 3.9 4.51 0 1.6-.56 2.9-1.68 3.92-1.12 1.01-2.9 1.52-5.35 1.52-2.44 0-4.34-.34-5.7-1.02a7 7 0 0 1 .67-3.87h2.65c.28.5.46 1.04.55 1.6.42.12 1.03.19 1.82.19 1.88 0 2.82-.54 2.82-1.6 0-.35-.13-.63-.39-.85a4.23 4.23 0 0 0-1.5-.66l-2.53-.73a6.86 6.86 0 0 1-3.04-1.62c-.73-.71-1.09-1.77-1.09-3.17s.57-2.54 1.7-3.44c1.13-.9 2.74-1.34 4.85-1.34 2.1 0 3.87.3 5.32.93.02.21.04.42.04.64 0 1.1-.24 2.13-.7 3.07h-2.63c-.28-.5-.46-1-.55-1.54-.6-.15-1.2-.22-1.79-.22zM251.18 135.2c-2.56 0-4.48-.68-5.77-2.05-1.3-1.36-1.94-3.35-1.94-5.95 0-1.58.22-2.94.67-4.08a6.21 6.21 0 0 1 1.83-2.64 8.1 8.1 0 0 1 5.21-1.8c1.99 0 3.5.51 4.56 1.53 1.06 1.01 1.59 2.83 1.59 5.45 0 1.54-.76 2.3-2.27 2.3h-6.95c.09 1.35.43 2.3 1.04 2.86.6.55 1.57.83 2.9.83a8.28 8.28 0 0 0 3.52-.77l.45-.26.96 2.56c-.13.15-.32.34-.57.56-.24.23-.86.53-1.85.9-1 .37-2.12.56-3.38.56zm2.02-10.08c.04-.3.06-.66.06-1.09 0-.42-.17-.88-.5-1.36-.35-.48-.94-.72-1.79-.72-.84 0-1.48.26-1.93.77a4.87 4.87 0 0 0-.9 2.6l5.06-.2zM262.96 138.66c.38 0 .8-.36 1.23-1.08a7.2 7.2 0 0 0 .91-2.54l-5.25-12.42c-1.04-.34-1.74-.74-2.1-1.21l.31-2.47h7.36l.32 2.47c-.27.34-.74.65-1.4.93l1.76 4.83c.38 1 .65 2 .8 2.97l.1.45h.44c.17-1.06.47-2.18.9-3.36l1.7-4.73a3.63 3.63 0 0 1-1.67-1.1l.32-2.46h7.04l.32 2.47c-.39.49-1.1.9-2.11 1.25l-5.28 12.48c-1 2.36-1.78 3.89-2.3 4.57a4.61 4.61 0 0 1-3.93 1.89c-1.67 0-2.95-.44-3.82-1.31a7.74 7.74 0 0 1 .7-3.97h2.66c.32.58.5 1.36.54 2.34h.45zM141.87 264.15c-1.4 0-2.11.42-2.11 1.25 0 .79.74 1.38 2.2 1.76l2.54.67c2.6.68 3.9 2.19 3.9 4.51 0 1.6-.56 2.9-1.68 3.92-1.12 1.02-2.9 1.52-5.35 1.52-2.44 0-4.34-.34-5.7-1.02a6.99 6.99 0 0 1 .67-3.87h2.65c.28.5.46 1.04.55 1.6.42.13 1.03.19 1.82.19 1.88 0 2.82-.53 2.82-1.6 0-.34-.13-.62-.39-.85a4.21 4.21 0 0 0-1.5-.66l-2.53-.73a6.88 6.88 0 0 1-3.04-1.62c-.73-.71-1.09-1.77-1.09-3.17s.57-2.54 1.7-3.44c1.13-.9 2.74-1.34 4.85-1.34 2.1 0 3.87.31 5.32.93a6.78 6.78 0 0 1-.67 3.71h-2.62c-.28-.49-.46-1-.55-1.54-.6-.15-1.2-.22-1.79-.22zM157.3 277.78c-2.52 0-4.39-.67-5.6-2.01-1.22-1.35-1.83-3.38-1.83-6.1 0-2.72.68-4.8 2.03-6.24 1.36-1.44 3.3-2.16 5.84-2.16s4.42.64 5.65 1.92c1.23 1.28 1.84 3.28 1.84 6s-.69 4.83-2.06 6.34c-1.38 1.5-3.34 2.25-5.87 2.25zm-2.82-8.38c0 3.41 1.02 5.12 3.07 5.12 1.05 0 1.82-.4 2.32-1.17.5-.78.75-2.05.75-3.82 0-3.33-1.04-5-3.13-5-1.03 0-1.78.37-2.28 1.1-.49.74-.73 2-.73 3.77zM168.62 260.92c0-2.22.48-3.89 1.44-5 .96-1.13 2.49-1.69 4.58-1.69s3.9.57 5.44 1.7a5.06 5.06 0 0 1-.2 2.08c-.14.66-.34 1.2-.6 1.6h-2.69a4.74 4.74 0 0 1-.6-2.05 3.98 3.98 0 0 0-.65-.07c-.8 0-1.38.23-1.72.68-.35.44-.52 1.25-.52 2.43v1.21h4.9v2.95h-4.9v9.06c1.6.32 2.7.73 3.27 1.24l-.32 2.47h-8.87l-.32-2.47c.3-.4.89-.77 1.76-1.09v-9.21h-1.4l-.36-2.2a2.93 2.93 0 0 1 1.76-.75v-.9z" fill="#faf9f9" fill-rule="nonzero"/><path d="M184.91 257.5v4.03h4.58v2.69h-4.58v8.1c0 .67.1 1.17.29 1.48.2.3.65.46 1.38.46.72 0 1.5-.16 2.33-.48l.96 2.5a11.04 11.04 0 0 1-5.04 1.25c-1.72 0-2.88-.37-3.49-1.1-.6-.74-.9-1.82-.9-3.22v-9h-1.45l-.35-1.95c.34-.4 1.04-.8 2.11-1.21.26-1.75.87-2.94 1.83-3.56h2.33zM206.1 277.72l-1.64-5.06c-.34-1.02-.6-2.3-.8-3.84l-.1-.76h-.44a27.38 27.38 0 0 1-.96 4.57l-1.5 5.09h-4.55l-4.03-12.58a3.98 3.98 0 0 1-1.89-1.15l.32-2.46H198l.32 2.46a4.5 4.5 0 0 1-1.95 1.15l1.85 8.16h.45c.24-1.13.51-2.3.83-3.48l2.18-8.23h3.58l2.15 8.16.8 3.55h.44l1.6-7.26.2-.9c-.96-.34-1.6-.72-1.92-1.15l.32-2.46h7.1l.32 2.46c-.36.5-1.03.9-2.02 1.22l-4 12.5h-4.16zM217.46 263.9c0-.32 0-.67.03-1.03a13.3 13.3 0 0 1 6.4-1.6c2.28 0 3.92.43 4.9 1.3 1 .86 1.5 2.3 1.5 4.3v6.82c.74.15 1.33.33 1.76.54v2.78c-1.1.52-2.65.77-4.67.77a11.8 11.8 0 0 1-.55-2.01c-.92 1.34-2.58 2.01-5 2.01a5.59 5.59 0 0 1-3.65-1.25 4.16 4.16 0 0 1-1.52-3.39c0-1.43.47-2.55 1.42-3.37.95-.83 2.36-1.24 4.24-1.24h3.49V267c0-1.67-.89-2.5-2.66-2.5-.66 0-1.2.07-1.63.2-.04.9-.17 1.58-.38 2.07H218a6.6 6.6 0 0 1-.54-2.88zm5.76 10.62a3.5 3.5 0 0 0 2.59-.96v-2.62h-2.24c-1.54 0-2.3.58-2.3 1.76 0 .53.16.97.49 1.3.33.35.82.52 1.46.52zM242.8 265.46c-1.62 0-2.74.31-3.36.93v7.33c1.73.32 2.91.77 3.55 1.34l-.32 2.47h-9.15l-.32-2.47c.3-.4.88-.77 1.76-1.09v-8.9a4.14 4.14 0 0 1-1.76-1.08l.32-2.46a15 15 0 0 1 3.17-.39c.94 0 1.71.02 2.33.07v2.01a5.72 5.72 0 0 1 1.9-1.42 4.85 4.85 0 0 1 2.09-.56c.63 0 1.06.05 1.3.16l-.1 4.16c-.43-.06-.9-.1-1.41-.1zM253.3 277.78c-2.57 0-4.49-.68-5.78-2.04-1.3-1.37-1.94-3.35-1.94-5.96 0-1.58.23-2.94.67-4.08a6.2 6.2 0 0 1 1.83-2.64 8.1 8.1 0 0 1 5.21-1.79c1.99 0 3.5.5 4.56 1.52 1.06 1.01 1.59 2.83 1.59 5.46 0 1.53-.76 2.3-2.27 2.3h-6.95c.09 1.35.43 2.3 1.04 2.85.61.55 1.58.83 2.9.83a8.32 8.32 0 0 0 3.52-.77l.45-.25.96 2.56c-.13.15-.32.33-.56.56-.25.22-.87.52-1.86.9-1 .37-2.12.55-3.38.55zm2.01-10.08c.04-.3.06-.66.06-1.08 0-.43-.17-.88-.5-1.36-.35-.48-.94-.72-1.78-.72-.85 0-1.5.25-1.94.76a4.87 4.87 0 0 0-.9 2.6l5.06-.2zM143 369.7c-2.57 0-4.5-.7-5.78-2.06-1.3-1.36-1.94-3.35-1.94-5.95 0-1.58.22-2.94.67-4.08a6.2 6.2 0 0 1 1.83-2.64 8.1 8.1 0 0 1 5.21-1.79c1.99 0 3.5.5 4.56 1.52 1.06 1.01 1.59 2.83 1.59 5.46 0 1.53-.76 2.3-2.28 2.3h-6.94c.08 1.34.43 2.3 1.04 2.85.6.55 1.57.83 2.9.83a8.32 8.32 0 0 0 3.52-.77l.44-.25.96 2.56c-.12.15-.31.33-.56.56a9.54 9.54 0 0 1-5.23 1.46zm2-10.09c.05-.3.07-.66.07-1.09 0-.42-.17-.88-.51-1.36-.34-.48-.93-.72-1.78-.72-.84 0-1.49.26-1.93.77a4.87 4.87 0 0 0-.9 2.6l5.06-.2zM151.09 353.44a15 15 0 0 1 3.16-.39c.94 0 1.72.02 2.34.07v1.6a8.21 8.21 0 0 1 4.67-1.54c2.1 0 3.56.49 4.4 1.47.85.98 1.27 2.68 1.27 5.09v6.14a4.3 4.3 0 0 1 1.76 1.1l-.32 2.46H161l-.32-2.47c.3-.4.88-.77 1.76-1.09v-6.33c0-1.15-.19-1.93-.56-2.32-.38-.4-1.04-.6-2-.6s-1.92.35-2.88 1.03v8.22a4.3 4.3 0 0 1 1.76 1.1l-.32 2.46h-7.36l-.32-2.47c.3-.4.88-.77 1.76-1.09v-8.9a4.14 4.14 0 0 1-1.76-1.08l.32-2.46zM177.17 372.83c1.9 0 2.85-1.14 2.85-3.43V368a7.42 7.42 0 0 1-3.94.96c-2 0-3.55-.6-4.63-1.76-1.07-1.18-1.61-3.13-1.61-5.86 0-5.44 2.5-8.16 7.49-8.16a7.9 7.9 0 0 1 3.58.83c.21-.38.53-.57.96-.57h2.63v15.74c0 2.35-.59 4.08-1.75 5.22-1.16 1.13-2.96 1.7-5.4 1.7-1.27 0-2.6-.16-3.96-.46a9.86 9.86 0 0 1-3.1-1.12 7.37 7.37 0 0 1 .8-3.97h2.81c.24.45.4 1.05.51 1.8.82.32 1.73.48 2.76.48zm-2.91-11.68c0 1.6.21 2.72.65 3.36.44.64 1.19.96 2.24.96 1.06 0 2.01-.3 2.87-.9V357a7.04 7.04 0 0 0-2.79-.55c-1.98 0-2.97 1.57-2.97 4.7zM187.31 353.44c1.2-.28 2.3-.42 3.33-.42 1.02 0 1.89.03 2.6.1v12.76a4.3 4.3 0 0 1 1.75 1.1l-.32 2.46h-7.36l-.32-2.47c.3-.4.89-.77 1.76-1.09v-8.9a4.14 4.14 0 0 1-1.76-1.08l.32-2.46zm3.62-2.21c-1.77 0-2.66-.8-2.66-2.42 0-1.6.9-2.41 2.67-2.41 1.78 0 2.68.8 2.68 2.41s-.9 2.42-2.7 2.42zM196.6 353.44a15 15 0 0 1 3.16-.39c.94 0 1.72.02 2.34.07v1.6a8.21 8.21 0 0 1 4.67-1.54c2.09 0 3.55.49 4.4 1.47.84.98 1.26 2.68 1.26 5.09v6.14a4.3 4.3 0 0 1 1.76 1.1l-.32 2.46h-7.36l-.32-2.47c.3-.4.89-.77 1.76-1.09v-6.33c0-1.15-.19-1.93-.56-2.32-.37-.4-1.04-.6-2-.6s-1.92.35-2.88 1.03v8.22a4.3 4.3 0 0 1 1.76 1.1l-.32 2.46h-7.36l-.32-2.47c.3-.4.89-.77 1.76-1.09v-8.9a4.14 4.14 0 0 1-1.76-1.08l.32-2.46zM223 369.7c-2.57 0-4.5-.7-5.78-2.06-1.3-1.36-1.94-3.35-1.94-5.95 0-1.58.22-2.94.67-4.08a6.2 6.2 0 0 1 1.83-2.64 8.1 8.1 0 0 1 5.21-1.79c1.99 0 3.5.5 4.56 1.52 1.06 1.01 1.59 2.83 1.59 5.46 0 1.53-.76 2.3-2.28 2.3h-6.94c.08 1.34.43 2.3 1.04 2.85.6.55 1.57.83 2.9.83a8.32 8.32 0 0 0 3.52-.77l.44-.25.96 2.56c-.12.15-.31.33-.56.56a9.54 9.54 0 0 1-5.23 1.46zm2-10.09c.05-.3.07-.66.07-1.09 0-.42-.17-.88-.51-1.36-.34-.48-.93-.72-1.78-.72-.84 0-1.49.26-1.93.77a4.87 4.87 0 0 0-.9 2.6l5.06-.2zM238.45 369.7c-2.56 0-4.49-.7-5.78-2.06s-1.93-3.35-1.93-5.95c0-1.58.22-2.94.67-4.08a6.2 6.2 0 0 1 1.82-2.64 8.1 8.1 0 0 1 5.22-1.79c1.98 0 3.5.5 4.56 1.52 1.05 1.01 1.58 2.83 1.58 5.46 0 1.53-.76 2.3-2.27 2.3h-6.94c.08 1.34.43 2.3 1.04 2.85.6.55 1.57.83 2.9.83a8.32 8.32 0 0 0 3.51-.77l.45-.25.96 2.56c-.13.15-.32.33-.56.56-.25.22-.86.52-1.86.9-.99.37-2.11.55-3.37.55zm2.01-10.09c.05-.3.07-.66.07-1.09 0-.42-.17-.88-.52-1.36-.34-.48-.93-.72-1.77-.72s-1.49.26-1.94.77a4.87 4.87 0 0 0-.9 2.6l5.06-.2zM255.82 357.37c-1.62 0-2.74.31-3.36.93v7.33c1.73.32 2.91.77 3.55 1.34l-.32 2.47h-9.15l-.32-2.47c.3-.4.89-.77 1.76-1.09v-8.9a4.14 4.14 0 0 1-1.76-1.08l.32-2.46a15 15 0 0 1 3.17-.39c.94 0 1.72.02 2.34.07v2.01a5.72 5.72 0 0 1 1.89-1.42 4.85 4.85 0 0 1 2.1-.56c.62 0 1.05.05 1.29.16l-.1 4.16c-.43-.07-.9-.1-1.4-.1z" fill="#faf9f9" fill-rule="nonzero"/></svg>