<svg xmlns="http://www.w3.org/2000/svg" xml:space="preserve" style="fill-rule:evenodd;clip-rule:evenodd;stroke-linecap:round;stroke-linejoin:round;stroke-miterlimit:1.5" viewBox="0 0 479 258"><path d="M24.23 27.05c8.37 8.17 16.24 16.92 24.71 24.97 5.01 4.76 10.77 8.7 15.57 13.68 5.57 5.78 9.02 13.58 15.94 17.83 5.82 3.56 13.5 3.83 20.05 5.1.37.08 5.76 1.5 6.15.87.11-.19-1-2.2-1.04-2.31-.86-2-1.54-3.97-2.11-6.07-.51-1.86-1.33-5.06-2.68-6.55-.2-.22.09.57.13.86.07.53.02 1.09.02 1.63 0 1.58.35 3.1.73 4.62a22.64 22.64 0 0 0 3.78 7.9c.24.34 3.14 2.73 3.02 2.94-.5.83-2.63 1.36-3.44 1.73-3.1 1.42-6.28 2.63-9.48 3.8-1.57.56-3.14 1.05-4.6 1.87-.72.4-2.1 2.09-2.1 1.27" style="fill:none;stroke:#38332a;stroke-width:6px" transform="rotate(41.05 49.02 38.36)"/><path d="M114.9 52.62c-.07.1 17.8 86.46 19.04 87.26 3.34 2.14 26.18-6.08 35.13-7.8 25.15-4.85 43.52-1.77 43.67-2.12.33-.72-7-44.9-5.38-70.96.74-11.9 5.6-23.12 4.89-23.53-1.66-.94-97.13 16.76-97.35 17.15Z" style="fill:none;stroke:#38332a;stroke-width:4.83px" transform="matrix(1.35807 0 0 1.1149 -124.07 75.1)"/><path d="M172.37 171.5c8.43-2.33 17.05-5.07 25.7-6.43 3.92-.62 7.89-.85 11.81-1.45 1.76-.28 4.18-.3 5.78-1.2.13-.06-1-.72-1.08-.77-.66-.42-1.29-.9-1.9-1.4a80.08 80.08 0 0 0-5.84-4.46 26.8 26.8 0 0 1-1.82-1.32c-.3-.24-1.27-.78-.9-.7 1.82.32 4.14 3.1 5.64 4.14 2 1.4 4.07 2.7 6.1 4.07.37.25 1.83.74 1.97 1.2.28.96-2 4.09-2.42 4.86l-1.59 3c-1.13 2.23-2.39 4.4-3.49 6.64-.12.24-.83 2.14-1.08 2.14m113.48-4.71c11.41-.93 25.03-7.85 31.84-17.13 3.95-5.4 6.14-11.64 8.15-17.95 2.12-6.66 3.85-12.95 3.61-19.96-.05-1.62-.1-3.24-.2-4.86 0-.12-.03-1.42-.31-1.35-.66.15-1.39 1.43-1.77 1.9a73.14 73.14 0 0 1-4.57 5.02 80.3 80.3 0 0 0-3.11 3.39 6.79 6.79 0 0 0-.95 1.13c.17.2 2.45-2.7 2.6-2.88 1.78-2.17 3.67-4.24 5.52-6.34.55-.62 1.5-2.43 2.43-2.53 4.43-.48 6.88 4.77 8.67 8.04.25.46 2.85 4.7 2.3 4.7m-143.07 25.16c1.1-1.46 22.87-12.27 31.47-17.26.49-.29 38.61 13.62 38.9 15.32.17 1.07-1.05 50.43-1.52 50.7-9.54 5.3-39.04 16.66-40.44 16.18-4.14-1.41-27.98-13.3-28.57-13.68-3.48-2.21-2.59-3.14-2.42-7.34.06-1.39 1.86-42.96 2.58-43.92Z" style="fill:none;stroke:#38332a;stroke-width:6px"/><path d="M303.76 161.9c-4.45-1.98-39.8-15.56-41.14-14.82-5.76 3.2-25.14 11.76-25.58 12.3-1 1.26-1.43 30.67-.57 30.76 6.48.67 19.71 12.64 24.08 13.64 1.93.44 28.32-11.75 43.1-14.65" style="fill:none;stroke:#38332a;stroke-width:3.12px" transform="matrix(.9217 0 0 1 23.78 0)"/><path d="M52.48 161.37c2.93 5.82 5.7 11.59 7.74 17.79.7 2.13 1.41 4.23 2 6.4.14.55 1 3.44.67 3.07" style="fill:none;stroke:#38332a;stroke-width:3px"/><path d="M49.87 161.22c2.41-2.65 5.8-5.18 9.48-5.46 6.93-.51 14.78 6.02 17.13 12.17 1.96 5.15.87 10.47-1.78 15.15-2.4 4.24-5.66 6.54-10.14 8.13-1.28.46-3.77 1.2-5.07.48m25.91-13.63a8.32 8.32 0 0 0 3.81-1.13c2.26-1.46 3.44-6.9-.3-7.38-2.03-.27-3.58 1.31-4.82 2.69-.87.96-1.67 2.04-2.17 3.25a8.3 8.3 0 0 0-.47 4.73c1.17 5.49 9.37 3.54 11.29-.46m11.96-12.66c-1.56-.54-3.66 1.2-4.49 2.33-2.84 3.92-2.3 10.98 4.16 9.29a5.63 5.63 0 0 0 2.67-1.5m1.59-12.27c.85 2.8 1.55 5.67 2.29 8.5.23.91.51 1.8.85 2.68.14.38.7 1.44.49 1.1m-7.25-18.91c.07.06.65.48.65.59m16.44-10.26c1.07 2.85 1.83 5.8 2.65 8.73.56 1.96 1.03 3.94 1.65 5.88.39 1.2.77 2.42 1.19 3.62a14.14 14.14 0 0 0 1.83 3.7c.06.09.59.97.67.92.17-.1-.3-1.02-.34-1.12a21.24 21.24 0 0 0-2.1-3.64c-2.25-2.98-6.44-4.46-9.94-2.57a5.17 5.17 0 0 0-2.33 3c-3.27 9.67 11.98 10.7 14.17 3.13m10.21-2.97c2.49 1.31 6-.38 7.03-2.92.71-1.73.5-4.22-1.75-4.5-5.55-.66-9.69 5.97-6.7 10.58 1.43 2.2 5.46 3.83 7.59 1.64m109.17 7.83c1.38.07 2.7.06 4.03-.33a9.98 9.98 0 0 0 2.25-.98c2-1.18 2.73-3.48.74-5.06-2.16-1.72-5.58-1.7-7.99-3.22-.68-.44-2.85-1.35-2.93-2.3-.19-2.1 3.72-4.46 5.44-5.07.73-.26 1.51-.32 2.27-.43.1-.01 1.08-.17 1.01-.06m12.72 1.21c-2.55-1.03-3.6 2.97-4.02 4.8-1.16 5.06 1.56 16.75 9 14.04 5.86-2.13 1.56-9.46-.56-12.82-.76-1.2-1.4-2.55-2.65-3.33-1.3-.8-2.71-1.44-4.07-2.12-.13-.06-1.2-.6-1.27-.52" style="fill:none;stroke:#38332a;stroke-width:3px"/><path d="M276.37 180.34c1.86 1.59 3.02 4.1 5.23 5.31m6-5.16c2.93 1.02 11.53.04 8.3-4.96-2.3-3.55-10.3-2.95-10.7-8.4-.17-2.33 2.2-3.47 4.16-3.96.63-.16 1.29-.16 1.93-.17a6 6 0 0 0 .94-.07" style="fill:none;stroke:#38332a;stroke-width:3px"/><path d="M410.46 33.06c-3.4-1.68-16.52-3.36-23.28-.6-5.85 2.4-12.26 7.3-15.05 13.66-4.93 11.2-2.41 26.91.2 32.08 3.3 6.55 27.28 29.1 50.24 6.6 1.94-1.9 14.58-22.15 3.78-39.67-4.47-7.24-8.65-8.49-15.89-12.07Z" style="fill:none;stroke:#38332a;stroke-width:6px"/><path d="M389.77 43.47c0-.28 10.43-3.03 11.35-2.51.65.37 9.15 28.62 9.59 28.8.32.14 6.63-2.06 6.84-1.94.18.1 1.4 6.24 1.22 6.94-.02.1-9.93 2.97-10.22 2.66-2.74-2.9-6.72-16.87-6.83-16.9-.2-.06-9.26 12.4-10.3 14.72-.16.37-1.78.25-2.12.25-1.02 0-1.84-.46-2.82-.57a14.6 14.6 0 0 0-2.42.05c-.18.02 14.55-21.58 14.98-22.91.29-.87-1.88-4.29-1.94-4.34-.32-.28-6.57.42-6.93.22-.14-.08-.4-3.4-.4-4.47Zm-173.31 68.62c3.88 3.68 6.76 8.16 9.56 12.67.98 1.6 2.1 3.1 3.11 4.68.2.32 1.58 2.3 1.25 2.12m-13.87-19.6c4.3-2.4 8.26-5.2 12-8.42.84-.72 3.16-2.09 3.57-3.23m-6.24 23c2.57-1.88 5.8-3.84 7.93-6.22m-2.35 13.51c1.92-1.46 3.92-2.84 5.8-4.35.26-.21 2.7-2.44 2.63-2.44m4.28-3.24a9.22 9.22 0 0 1-.63-1.41c-.63-1.79.05.53.5 2.04.14.5.9 1.5.38 1.5-.74 0-1.39-3.72-1.42-4.19-.23-3.11.42-8.8 4.18-9.6 3.63-.77 6.4 2.77 8.14 5.42.6.91 1.11 1.86 1.66 2.8.27.44 1.13 1.74.78 1.36m6.7-12.33c-5.44-1.23-7.72 9.1-3.07 10.03 2.9.58 3.59-4.33 3.73-6.19.06-.75.06-1.5.06-2.25 0-.08.04-1.33.13-1.28.97.54 1.79 4.44 2.08 5.31 1.33 4.04 2.46 9.05 6.07 11.76 3.84 2.9 7.9-2.97 6.94-6.55" style="fill:none;stroke:#38332a;stroke-width:3px"/><path d="M268.48 105.54c1.25 2.52 7.81 10.77 9.26 4.15.77-3.5-1.31-6.83-1.3-9.93m9.8 4.97c.86-.92 1.65-2.33 1.36-3.66-.4-1.9-2.15-3.42-2.86-.72-.73 2.75.3 7.13 2.8 8.82 1.74 1.18 5.63.97 6.45-1.34m-.89-12.03c2.89 1.14 3.6 6.41 7.31 6.23 1.88-.09 2.5-2.26 2.25-3.8-.34-2.1-2.89-6.86-4.93-8.03m10.69 3.45c1.64-1.93 3.09-5.17 2.55-7.8-.26-1.21-1.38-3.52-2.92-2.42-1.3.93-1.39 2.55-1.54 4-.49 4.57 2.66 11.05 8.32 8.35 1.18-.57 5.33-4.17 4.1-5.9m-23.25 32.99c2.12 1.75 3.37 4.72 4.78 7.04.16.25 2.14 3.57 2.44 3.05" style="fill:none;stroke:#38332a;stroke-width:3px"/><path d="M294.65 120.29c1.83-2.46 3.94-5.53 6.75-6.87.98-.47 2.72-1.07 3.63-.14 2.88 2.94-1.88 7.48-3.33 9.79-.71 1.14-2.2 3.38-2.2 3.38s1.17-1.11 1.78-1.64c.66-.58 6.05-5.26 7.06-4.12 2.42 2.74.22 7.56-1.68 9.87-.65.8-1.36 1.57-2.14 2.23-.37.3-1.42 1.26-1.18.84M313.95 118c1.18 1.58 2.08 3.49 3.04 5.22.06.11.82 1.48 1.06 1.08m-7.76-13.02c.04-.03 1.02-1.06 1.02-.8m12.05-10.7c1.82 1.51 3 3.73 4.18 5.75 1.25 2.11 2.31 4.33 3.56 6.44.44.75.91 1.5 1.27 2.3.17.38.88 1.17.46 1.17-.38 0-1.38-1.47-1.63-1.73-1.19-1.21-2.57-2.45-4.22-2.98-4.2-1.36-5.93 6.86-4.03 9.45 2.67 3.64 6.55-.81 7.59-3.56.16-.41 1.41-3.12.55-3.12m98.12-17.69c2.66.46 7 14.6 6.82 14.6" style="fill:none;stroke:#38332a;stroke-width:3px"/><path d="M424.3 96.1c1.37 0 2.95-1.38 4-2.09 3.16-2.13 6.26-4.59 9.73-6.18 1.93-.88 5.27-1.96 5.91 1.01.73 3.37-9.73 12.45-9.45 12.77.18.21 10.58-7.5 12.1-5.8 3.52 3.93-9.6 16.12-10.61 16.12m15.01-17.9c.87 1.55 2.13 8.19 2.1 8.19m-5.59-17.6c.34.34 1.63 2.45 1.63 2.93m9.6-10.37c1.18-.58 6.4 19.57 6.4 19.57s-2.78-4.58-3.88-5.35c-1.37-.98-2.97.25-3.72 1.42-1.6 2.51-1.44 8.85 3 7.3.46-.15 4.6-2.23 4-3.08m1.43-27.29c2.21 3.86 1.27 10.57 4.14 13.74m1.5 8.91c-1.36.38-.56-.41-.56-.55M51 39.07c.02-4.6-1.11-8.8-2.28-13.21-.41-1.54-.75-3.1-1.17-4.64-.03-.12-.56-2.22-.41-2.22.85 0 2.95 2.97 3.48 3.55 2.77 3 6.27 5.76 9.65 8.05.15.1 2.97 2 3.14 1.8.28-.3-2.68-4.8-2.95-5.36a32.7 32.7 0 0 1-1.69-4.42c-.76-2.41-1.07-5.25-2.1-7.55m14.99 11.11c.76-3.7-4.41-10.18-5.02-3.83-.06.65-.03 1.23.07 1.87.18 1.16.45 2.3.96 3.36 1.05 2.22 3.83 4.26 6.42 3.69 1.05-.23 4.07-1.88 3.76-3.3m2.24-10.74c1.88 2.37 3.31 5.43 5.66 7.38 1 .83 2.63 1.77 3.6.33.62-.94.05-5.7.52-5.96.18-.1 1.14.97 1.3 1.11.96.82 2.3 1.86 3.65 1.74 1.74-.16 1.89-1.95 1.62-3.33-.52-2.7-2.2-6.15-3.79-8.4M57.62 66.61c1.92.2 4.18.5 5.96-.43 3.3-1.7 1.52-5.56-.82-7.22-3.93-2.8-9.83-1.5-13.43-4.24-5.06-3.86 3.6-9.77 7.03-10.82 1.1-.33 2.21-.02 3.3-.22m9.18-4.45c1.94 2.27 3.35 4.95 4.88 7.5 1.1 1.8 2.14 3.62 3.2 5.45a405.8 405.8 0 0 0 3.4 5.76c.95 1.57 1.22.04 1.17-1.74a5.08 5.08 0 0 1 3.37-5.05c1.7-.6 3.96 2.07 5 3.02.4.36 1.3 1.6 1.92 1.08m3.09-8.3c1.44 2.05 3.8 5 4.52 7.42m-9.07-12.24c.14.02.26.24.26.21m14.65 5.41c2.24 4.43 4.48 8.88 6.83 13.26.85 1.59 1.72 3.17 2.54 4.78.17.33 1.47 2.5.88 1.84" style="fill:none;stroke:#38332a;stroke-width:3px"/><path d="M102.01 44.68c0-1.12 4.11-3.07 5.06-3 2.5.16 4.04 2.9 4.36 5.12.33 2.23-.72 4.15-1.96 5.93-.14.2-1.6 2.06-1.78 1.76m10.26-11.93c.43.5.86.98 1.25 1.51.4.55-.25-.47-.5-1.05-.93-2.22-.36-5.36 2.08-6.39 1.86-.78 3.23 2.04 3.92 3.32.4.73 1.04 2.92 1.27 2.13.69-2.32-1.29-6.28 1.95-7.85 2-.97 3.65 4 4.26 5.17.1.2 1.4 2.45 1.5 2.23m4.92-6.51c1.07-1.36-1.34-2.24-1.28-.52.02.66.08 1.35.25 1.98.6 2.15 1.75 4.44 3.87 5.43.81.37 2.63.63 3.1-.42m.43-7.93c.35.65.73 1.28 1.02 1.96.26.62.5 1.27.72 1.91.1.31.48 1.21.29.94-1.8-2.52-.18-6.61 2.62-7.39 2.36-.66 4.09.6 5.8 2.1.38.33 1.6 1.69 1.8.54m-3.52-16.43c2.16 2.74 3.48 6.05 5.33 9 .54.86 1.27 2.5 2.28 2.94" style="fill:none;stroke:#38332a;stroke-width:3px"/><path d="M153.92 26.48c2.03-1.52 4.59-2.32 6.83-3.46m7.77 10.05c.7.34 5.11 1.33 4.4-.99-.4-1.32-3.5-1.5-4.47-2.38-2.82-2.53.5-7.37 2.85-8.87" style="fill:none;stroke:#38332a;stroke-width:3px"/></svg>