<svg xmlns="http://www.w3.org/2000/svg" xml:space="preserve" style="fill-rule:evenodd;clip-rule:evenodd;stroke-linecap:round;stroke-linejoin:round;stroke-miterlimit:1.5" viewBox="0 0 479 258"><path d="M322.73 175.11c11.41-.93 25.03-7.85 31.84-17.13 3.95-5.4 6.14-11.64 8.15-17.95 2.12-6.66 3.85-12.95 3.61-19.96-.05-1.62-.1-3.24-.2-4.86 0-.12-.03-1.42-.31-1.35-.66.15-1.39 1.43-1.77 1.9a73.14 73.14 0 0 1-4.57 5.02 80.3 80.3 0 0 0-3.11 3.39 6.79 6.79 0 0 0-.95 1.13c.17.2 2.45-2.7 2.6-2.88 1.78-2.17 3.67-4.24 5.52-6.34.55-.62 1.5-2.43 2.43-2.53 4.43-.48 6.88 4.77 8.67 8.04.25.46 2.85 4.7 2.3 4.7" style="fill:none;stroke:#38332a;stroke-width:7.62px" transform="matrix(.54993 .53316 -.5629 .58061 28.24 -160.43)"/><path d="M322.73 175.11c15.89-12.55 34.15-31 43.6-55.04.62-1.57-.1-3.24-.2-4.86 0-.12-10.78 10.02-10.71 10.1.17.18 9.62-11.66 10.55-11.76 4.43-.48 6.88 4.77 8.67 8.04.25.46 2.85 4.7 2.3 4.7" style="fill:none;stroke:#38332a;stroke-width:5.78px" transform="matrix(.65079 -.55788 -.77544 -.90458 19.1 488.2)"/><path d="M188.18 173.26c24.74 8.3 74.42-11.65 73-17.27-1.7-6.8-18.04-5.2-23.1-4.93-7.82.42-15.37 2.3-22.9 4.28-9.36 2.46-18.97 5.37-26.98 10.98-2.6 1.82-3.31 5.84-.02 6.94Z" style="fill:none;stroke:#38332a;stroke-width:6px"/><path d="M185.93 169.1c1.5 13.45 2.92 59.33 3.17 59.47 1.11.67 63.03 6.2 71.82-10.52.47-.9 12.26-48.26-1.63-64.59" style="fill:none;stroke:#38332a;stroke-width:6px"/><path d="M189.1 190.97c17.87 5.37 37.62 11.31 71.68-9.15m-76.34 29.91c3.88 3.81 50.37 11.64 78.5-9.97" style="fill:none;stroke:#38332a;stroke-width:6px"/><path d="M233.87 151.45c1.1-1.46 22.87-12.27 31.47-17.26.49-.29 38.61 13.62 38.9 15.32.17 1.07-1.05 50.43-1.52 50.7-9.54 5.3-39.04 16.66-40.44 16.18-4.14-1.41-27.98-13.3-28.57-13.68-3.48-2.21-2.59-3.14-2.42-7.34.06-1.39 1.86-42.96 2.58-43.92Z" style="fill:none;stroke:#38332a;stroke-width:6px" transform="translate(-208.23 -68.13)"/><path d="M303.76 161.9c-4.45-1.98-39.8-15.56-41.14-14.82-5.76 3.2-25.14 11.76-25.58 12.3-1 1.26-1.43 30.67-.57 30.76 6.48.67 19.71 12.64 24.08 13.64 1.93.44 28.32-11.75 43.1-14.65" style="fill:none;stroke:#38332a;stroke-width:3.12px" transform="matrix(.9217 0 0 1 -184.45 -68.13)"/><path d="M255.1 179.96c1.38.07 2.7.06 4.03-.33a9.98 9.98 0 0 0 2.25-.98c2-1.18 2.73-3.48.74-5.06-2.16-1.72-5.58-1.7-7.99-3.22-.68-.44-2.85-1.35-2.93-2.3-.19-2.1 3.72-4.46 5.44-5.07.73-.26 1.51-.32 2.27-.43.1-.01 1.08-.17 1.01-.06m12.72 1.21c-2.55-1.03-3.6 2.97-4.02 4.8-1.16 5.06 1.56 16.75 9 14.04 5.86-2.13 1.56-9.46-.56-12.82-.76-1.2-1.4-2.55-2.65-3.33-1.3-.8-2.71-1.44-4.07-2.12-.13-.06-1.2-.6-1.27-.52" style="fill:none;stroke:#38332a;stroke-width:3px" transform="translate(-210.13 -67.54)"/><path d="M276.37 180.34c1.86 1.59 3.02 4.1 5.23 5.31m6-5.16c2.93 1.02 11.53.04 8.3-4.96-2.3-3.55-10.3-2.95-10.7-8.4-.17-2.33 2.2-3.47 4.16-3.96.63-.16 1.29-.16 1.93-.17a6 6 0 0 0 .94-.07" style="fill:none;stroke:#38332a;stroke-width:3px" transform="translate(-210.13 -67.54)"/><path d="M410.46 33.06c-3.4-1.68-16.52-3.36-23.28-.6-5.85 2.4-12.26 7.3-15.05 13.66-4.93 11.2-2.41 26.91.2 32.08 3.3 6.55 27.28 29.1 50.24 6.6 1.94-1.9 14.58-22.15 3.78-39.67-4.47-7.24-8.65-8.49-15.89-12.07Z" style="fill:none;stroke:#38332a;stroke-width:6px" transform="translate(-210.39 -4.92)"/><path d="M389.77 43.47c0-.28 10.43-3.03 11.35-2.51.65.37 9.15 28.62 9.59 28.8.32.14 6.63-2.06 6.84-1.94.18.1 1.4 6.24 1.22 6.94-.02.1-9.93 2.97-10.22 2.66-2.74-2.9-6.72-16.87-6.83-16.9-.2-.06-9.26 12.4-10.3 14.72-.16.37-1.78.25-2.12.25-1.02 0-1.84-.46-2.82-.57a14.6 14.6 0 0 0-2.42.05c-.18.02 14.55-21.58 14.98-22.91.29-.87-1.88-4.29-1.94-4.34-.32-.28-6.57.42-6.93.22-.14-.08-.4-3.4-.4-4.47Z" style="fill:none;stroke:#38332a;stroke-width:3px" transform="translate(-210.39 -4.92)"/><path d="M216.46 112.09c3.88 3.68 6.76 8.16 9.56 12.67.98 1.6 2.1 3.1 3.11 4.68.2.32 1.58 2.3 1.25 2.12m-13.87-19.6c4.3-2.4 8.26-5.2 12-8.42.84-.72 3.16-2.09 3.57-3.23m-6.24 23c2.57-1.88 5.8-3.84 7.93-6.22m-2.35 13.51c1.92-1.46 3.92-2.84 5.8-4.35.26-.21 2.7-2.44 2.63-2.44m4.28-3.24a9.22 9.22 0 0 1-.63-1.41c-.63-1.79.05.53.5 2.04.14.5.9 1.5.38 1.5-.74 0-1.39-3.72-1.42-4.19-.23-3.11.42-8.8 4.18-9.6 3.63-.77 6.4 2.77 8.14 5.42.6.91 1.11 1.86 1.66 2.8.27.44 1.13 1.74.78 1.36m6.7-12.33c-5.44-1.23-7.72 9.1-3.07 10.03 2.9.58 3.59-4.33 3.73-6.19.06-.75.06-1.5.06-2.25 0-.08.04-1.33.13-1.28.97.54 1.79 4.44 2.08 5.31 1.33 4.04 2.46 9.05 6.07 11.76 3.84 2.9 7.9-2.97 6.94-6.55" style="fill:none;stroke:#38332a;stroke-width:3px" transform="translate(-213.17 -72.38)"/><path d="M268.48 105.54c1.25 2.52 7.81 10.77 9.26 4.15.77-3.5-1.31-6.83-1.3-9.93m9.8 4.97c.86-.92 1.65-2.33 1.36-3.66-.4-1.9-2.15-3.42-2.86-.72-.73 2.75.3 7.13 2.8 8.82 1.74 1.18 5.63.97 6.45-1.34m-.89-12.03c2.89 1.14 3.6 6.41 7.31 6.23 1.88-.09 2.5-2.26 2.25-3.8-.34-2.1-2.89-6.86-4.93-8.03m10.69 3.45c1.64-1.93 3.09-5.17 2.55-7.8-.26-1.21-1.38-3.52-2.92-2.42-1.3.93-1.39 2.55-1.54 4-.49 4.57 2.66 11.05 8.32 8.35 1.18-.57 5.33-4.17 4.1-5.9m-23.25 32.99c2.12 1.75 3.37 4.72 4.78 7.04.16.25 2.14 3.57 2.44 3.05" style="fill:none;stroke:#38332a;stroke-width:3px" transform="translate(-213.17 -72.38)"/><path d="M294.65 120.29c1.83-2.46 3.94-5.53 6.75-6.87.98-.47 2.72-1.07 3.63-.14 2.88 2.94-1.88 7.48-3.33 9.79-.71 1.14-2.2 3.38-2.2 3.38s1.17-1.11 1.78-1.64c.66-.58 6.05-5.26 7.06-4.12 2.42 2.74.22 7.56-1.68 9.87-.65.8-1.36 1.57-2.14 2.23-.37.3-1.42 1.26-1.18.84M313.95 118c1.18 1.58 2.08 3.49 3.04 5.22.06.11.82 1.48 1.06 1.08m-7.76-13.02c.04-.03 1.02-1.06 1.02-.8m12.05-10.7c1.82 1.51 3 3.73 4.18 5.75 1.25 2.11 2.31 4.33 3.56 6.44.44.75.91 1.5 1.27 2.3.17.38.88 1.17.46 1.17-.38 0-1.38-1.47-1.63-1.73-1.19-1.21-2.57-2.45-4.22-2.98-4.2-1.36-5.93 6.86-4.03 9.45 2.67 3.64 6.55-.81 7.59-3.56.16-.41 1.41-3.12.55-3.12" style="fill:none;stroke:#38332a;stroke-width:3px" transform="translate(-213.17 -72.38)"/><path d="M429.21 95.81c2.66.46 7 14.6 6.82 14.6" style="fill:none;stroke:#38332a;stroke-width:3px" transform="translate(-206.46 -63.93)"/><path d="M424.3 96.1c1.37 0 2.95-1.38 4-2.09 3.16-2.13 6.26-4.59 9.73-6.18 1.93-.88 5.27-1.96 5.91 1.01.73 3.37-9.73 12.45-9.45 12.77.18.21 10.58-7.5 12.1-5.8 3.52 3.93-9.6 16.12-10.61 16.12m15.01-17.9c.87 1.55 2.13 8.19 2.1 8.19m-5.59-17.6c.34.34 1.63 2.45 1.63 2.93m9.6-10.37c1.18-.58 6.4 19.57 6.4 19.57s-2.78-4.58-3.88-5.35c-1.37-.98-2.97.25-3.72 1.42-1.6 2.51-1.44 8.85 3 7.3.46-.15 4.6-2.23 4-3.08m1.43-27.29c2.21 3.86 1.27 10.57 4.14 13.74m1.5 8.91c-1.36.38-.56-.41-.56-.55" style="fill:none;stroke:#38332a;stroke-width:3px" transform="translate(-206.46 -63.93)"/><path d="M190.91 131.88c-1.54-4.27-8.95-6.15-12.83-4.94-6.12 1.9-10.81 8.24-11.47 14.52-1.6 15.27 15.5 15.86 24.76 9.17 1.86-1.34 5.1-3.5 5.91-5.82m11.33-11.16c-3.82 1.24-8.61 6.17-7.62 10.58.91 4.03 6.76 2.63 8.52.08 1.56-2.26.82-5.35-.22-7.68-.19-.41-1.74-3.07-1.3-3.55.2-.23 2.98 3.14 3.13 3.33a33.57 33.57 0 0 0 7.92 7.08c.48.3 2.51 1.96 3.05 1.04m5.34-15.19c-1.4.15-2.5.74-3.55 1.66-3.53 3.08-2.7 10.5 2.38 11.33 1.81.3 6.43-.25 7.02-2.62m-2.34-22.29c1.46 3.31 2.61 6.76 3.94 10.14.93 2.36 1.99 4.69 2.92 7.06.54 1.38 1.19 2.76 1.65 4.17.16.47 1.78 5.8 2.29 5.8.13 0-.18-5.29-.18-5.65 0-3.13.76-10.4 4.61-11.58 3.79-1.15 6.58 5.65 7.88 8.1.2.38 1.54 3.44 2.4 2.48m1.93-5.1c3.18-.54 6.3-3.69 5.68-7.12-.25-1.33-1.93-4.7-3.61-3.24-4 3.49-4.16 18.34 2.49 19.61 1.04.2 10.42-.97 9.32-3.41" style="fill:none;stroke:#38332a;stroke-width:3px"/><path d="M402.63 191.08s-10.62-9.94-6.87-16.63c2.15-3.82 7.36-5.8 11.67-6.13 14.8-1.13 16.39 8.27 16.77 8.33.97.13 3.66-2.32 4.65-2.7 5.3-2 11.75-2.26 15.78 2.37 4.18 4.8 1.1 9.83-2.49 13.94-.93 1.06-4.37 3.01-4.32 3.27.07.43 3.48 1.78 5.87 4.64 3.97 4.74 8.38 11.65 8.25 17.99-.08 4.1-2.55 8.52-6.64 9.78-2.42.76-9.44-4.66-9.46-4.64-.24.27-.45 6.08-1.24 7.5-4.25 7.54-14.33 12.62-22.93 11.03-5.1-.95-8.95-4.72-10.48-9.62a13.05 13.05 0 0 1-.61-5.2c.07-.83.41-2.48.41-2.48s-2.12.17-3.18.17c-2.1 0-4.22-.09-6.33-.2-6.4-.38-14.67-4.76-14.24-12.25.27-4.53 5.63-6.64 9.47-6.63.6 0 4.2.78 4.67.26.3-.34-7.47-3.68-5.36-9.46 1.16-3.17 6.54-9.5 16.61-3.34Z" style="fill:none;stroke:#38332a;stroke-width:4.97px" transform="matrix(1.22765 0 0 1.185 -129.67 -63.43)"/><path d="M404.44 201.05c.65.2.7 1.92.8 2.42.5 2.72.87 5.47 1.27 8.2.23 1.5.56 3 .79 4.5.01.13.35 2.27.33 2.27" style="fill:none;stroke:#38332a;stroke-width:3px" transform="translate(-43.85 -28.43)"/><path d="M406.4 211.2c2.29-1.59 3.97-4 5.84-6.01.48-.52 1-.99 1.5-1.48.08-.1.54-.37.54-.51m-5.71 6.76c.9.19 1.77 1.14 2.53 1.6 1.08.68 2.26 1.16 3.36 1.8.79.46 1.57 1 2.38 1.4.12.07.7.38.55.49m10.75-20.55c-.63-.88-2.35-.96-3.29-1.03-3.3-.27-7.08 1.58-5.89 5.52a4.93 4.93 0 0 0 2.59 3c2.86 1.36 6.22.42 8.81 2.67 2.4 2.08 2.6 6.66-1.15 7.26a7.95 7.95 0 0 1-3.17-.3 6.7 6.7 0 0 1-2.05-.83c-1.48-.97-2.52-2.88-1.05-4.3 2.01-1.94 5.11-2.31 6.08-5.33.73-2.27-.75-5.38-2.69-6.68-.4-.26-1.5-1.16-1.98-1.03m18.1 6.29c.18-.6-1.74-.82-2.02-.85-1.98-.2-4.93.34-4.76 2.94.1 1.57 1.37 2.3 2.86 2.11 2.06-.25 3.87-.89 5.96-.27.88.27 1.91.77 2.18 1.74.38 1.38-.79 2.53-1.94 3.09-2.03.98-5.08 1.29-6.54-.76" style="fill:none;stroke:#38332a;stroke-width:3px" transform="translate(-43.85 -28.43)"/><path d="M317.25 192.3c-1.7 1.42-5.48 1.64-7.57 2.12-5.88 1.34-11.84 3.51-17.67 5.18a79.8 79.8 0 0 1-11.52 2.2l-3.36.23c0-.24 1.7-1.58 1.91-1.81 1.69-1.91 2.83-4.74 4.78-6.37.66-.54 1.13-1.5 1.63-2.2a9.92 9.92 0 0 0 .98-1.39c-.74-.4-4.14 4.52-4.6 5.05-.61.72-6.65 6.7-6.26 7.58.76 1.69 7.3 4.37 8.81 5.22.47.26 4.78 2.25 4.7 2.05" style="fill:none;stroke:#38332a;stroke-width:6.5px"/><path d="M377.68 130.17c-.03-8.6-.76-17.25-.79-25.95 0-3.04.53-6.04.52-9.08 0-1.42 1.1-4.97-.14-4.26-2.94 1.7-6.12 5.61-8.17 8.25-.8 1.03-1.53 2.1-2.33 3.13-.12.15-1.08 1.55-.86 1.5 6.32-1.77 6.15-11.3 10.85-14.02.69-.4 2.49 1.53 2.82 1.81a89.33 89.33 0 0 1 8.2 7.95c1.03 1.12 2.1 2.21 3.17 3.29.21.21 1.93 1.64 1.41 1.55" style="fill:none;stroke:#38332a;stroke-width:7.6px" transform="matrix(.68 0 0 1 99.15 -6.5)"/><path d="M377.68 130.17c-.03-8.6-.76-17.25-.79-25.95 0-3.04.53-6.04.52-9.08 0-1.42 1.1-4.97-.14-4.26-2.94 1.7-6.12 5.61-8.17 8.25-.8 1.03-1.53 2.1-2.33 3.13-.12.15-1.08 1.55-.86 1.5 6.32-1.77 6.15-11.3 10.85-14.02.69-.4 2.49 1.53 2.82 1.81a89.33 89.33 0 0 1 8.2 7.95c1.03 1.12 2.1 2.21 3.17 3.29.21.21 1.93 1.64 1.41 1.55" style="fill:none;stroke:#38332a;stroke-width:7.6px" transform="matrix(-.6651 .14159 -.20822 -.97808 661.37 154.43)"/><path d="M354.72 210.4c-2.75 2.35-9.2 3.5-12.58 5.35-17.88 9.79-36.33 15.62-56.1 20.4-15.43 3.72-30.63 8.67-46.4 10.8-52.82 7.16-111.94.37-156.1-31.44-11.76-8.48-23.9-19.39-29.1-32.84-3.78-9.8-1.06-17.81-1.07-17.81-.54 0-11.87 15.59-11.63 15.72.22.12 5.87-17.86 11.63-15.73 1.83.68 21.07 14.7 20.9 14.7" style="fill:none;stroke:#38332a;stroke-width:6.5px"/><path d="M10.1 219.72c1.36-.78 1.67-2.96 1.73-4.35.18-3.52-.3-7.06-.3-10.58-.01-1.26.2-2.5.19-3.76 0-.12-.1-1 .05-1.06.19-.07.47.53.53.64.55.9.95 1.9 1.4 2.85 1.7 3.65 3.81 7.1 5.57 10.72a52.1 52.1 0 0 0 1.57 3c.17.3.31.64.5.94.02.02.22.4.25.36.16-.18.03-1.05.03-1.29v-3.63c-.01-3.96-.5-8-.19-11.95.06-.71 1.02-3.74.54-4.4M29 212.15c1.5-.7 2.72-1.97 2.91-3.68.07-.58 0-2.5-1-2.3-1.12.24-1.7 2.07-2.03 2.99-.67 1.86-1.07 4.22.18 5.96 1.67 2.3 6.32 2.18 7.54-.6m1.23-8.01c0-.12.29.6.32.67.22.51.45 1.03.7 1.53.57 1.19 2.48 5 4.36 4.23 1.54-.64 1.31-3.16 1.3-4.47v-1.5c0-.23-.12-.9 0-.7.68 1.1 1.1 2.3 1.95 3.33.42.5.9.98 1.45 1.33 1.62 1.04 3.65.65 3.84-1.55.15-1.74-.48-3.45-1.13-5.04-.22-.55-.49-1.72-1.08-2.02m-21.42 26.9c2.04 3.46 3.36 7.31 5.01 10.96.58 1.29 1.13 3.56 2.24 4.5" style="fill:none;stroke:#38332a;stroke-width:3px"/><path d="M25.61 230.47c2.25-2.13 4.3-4.46 7.12-5.89 1.36-.7 3.2-1.09 4.49.02 2.68 2.3-.25 6.94-1.94 8.95-.62.75-1.33 1.39-2.07 2-.05.04-.65.55-.67.53-.03-.03.61-.49.64-.5a78.1 78.1 0 0 1 2.74-1.71c2.36-1.43 6.74-4.65 7.75-.1.91 4.11-2.67 7.28-5.76 9.23-.58.37-3.64 2.36-4.3 1.5m15.18-17.01c1.37 1.33 1.86 4.4 2.48 6.13.25.68.46 1.38.74 2.05l.38 1.13m-7.94-15.01h-.03m15.71-8.49c1.26 1.89 1.9 4.26 2.55 6.42.7 2.28 1.31 4.57 1.9 6.88l.57 2.22c.08.34.65 1 .3 1-.06 0-.64-.97-.7-1.05a12.6 12.6 0 0 0-2.6-2.43c-3.13-2.05-7.18 1.64-5.99 5.02 1.28 3.63 6.41.02 7.82-1.7.23-.28 1.6-2.02 1-2.45m.56-17.46c1.26 2.82 1.95 6.12 2.92 9.06.23.7 1.28 2.65 1.03 3.38m1.55 6.5.05.1" style="fill:none;stroke:#38332a;stroke-width:3px"/><path d="M324.74 18.71c10.03-3.85 19.96-7.69 30.22-10.91 2.44-.77 4.88-1.69 7.26-2.63.65-.27 2.24-1.08 2.99-.67.77.42 1.3 2.65 1.6 3.38a88.25 88.25 0 0 0 4.38 9 46.14 46.14 0 0 1 3.7 8.02c.56 1.7 1.02 3.44 1.55 5.15.6 1.9 1.55 3.71 2.37 5.53.11.25.93 1.34.76 1.64-.4.66-2.05.23-2.71.41-2.12.6-4.16 1.86-6.16 2.75-2.08.93-4.13 1.88-6.22 2.8l-10.87 4.76c-5.3 2.3-10.6 4.6-15.94 6.84-.62.26-4.37 2.26-5.1 1.85-1.06-.61-1.42-6.52-1.6-7.66a175.07 175.07 0 0 0-5.06-21.75c-.64-2.13-1.35-4.28-1.82-6.45-.03-.18-.44-1.86-.58-1.86" style="fill:none;stroke:#38332a;stroke-width:6px" transform="translate(7.56 9.14)"/><path d="M332.71 58.78c7.95 1.84 30.9 3.54 33.5 2.81 2.4-.67 43.27-22.24 42.75-22.72-1.31-1.22-24.82-.8-32.6-.76" style="fill:none;stroke:#38332a;stroke-width:6px" transform="translate(7.56 9.14)"/><path d="M331.18 22.74c1.26 0 30.5-10.2 30.58-10.15.49.33 8.98 19.34 9.12 19.62.16.3-32.75 13.13-32.78 13.1-.08-.07-6.92-22.57-6.92-22.57Z" style="fill:none;stroke:#38332a;stroke-width:2.5px" transform="translate(7.56 9.14)"/><path d="M398.17 7.74c.92 1.1 1.21 3.08 1.6 4.42.88 2.93 1.69 5.86 2.54 8.8.43 1.47 1.04 2.88 1.5 4.34.14.48.32.95.45 1.43.07.25.38.94.2.75M399.34 7.3c2.46 1.98 3.87 5.88 5.6 8.47.43.64 1.29 2.41 2.08 2.69.79.27 1.16-2.34 1.26-2.7.54-1.91 1.1-3.82 1.63-5.73.17-.65.44-2.2.9-2.71.16-.18-.02.49-.02.73a46.09 46.09 0 0 0 .51 6.25c.4 2.87.96 5.77 1.71 8.56.35 1.3 1.14 2.91 1.14 4.26m8.11-6.94c-2.6-3.7-6.96 1.11-5.24 4.25 1.24 2.27 4.55.92 5.63-.76.6-.94.66-2 .58-3.08 0-.09-.23-1.62-.04-1.66.35-.08 1.25 1.36 1.42 1.58.86 1.11 2.31 3.9 3.85 4.21m1.74-3.26c0 .73.75 2.59.44 3.2a8.75 8.75 0 0 1-.34-1.21c-.1-.7-.14-1.44-.13-2.15.03-2.23.94-5.62 3.59-6.04 1.29-.2 2.34.85 3.13 1.73 1.88 2.1 3 4.94 5 6.9m-1.31-8.37c.1.8.7 1.56 1.16 2.2 1.62 2.26 6.55 7.17 8.9 2.96 1.3-2.32-.84-5.64-1.35-7.9m10.2 2.47c-1.06-1.4-2.81-1.14-3.79.29-1.1 1.6-1.4 4.52-.1 6.1 1.33 1.6 3.39.5 4.23-.98.68-1.2.44-2.65 1-3.87.09-.18.55-1.94.7-1.94.25 0 .78 1.96.89 2.22.5 1.3 1.52 5.32 3.2 5.69m.26-17.68c.79 1.86.76 4.29 1.1 6.26.57 3.33 1.41 6.7 2.56 9.89M426.7 36.34c-.1.16.28.78.35.95.43.99.82 2 1.18 3 .97 2.73 1.72 5.53 2.48 8.32.34 1.27.5 2.8 1.31 3.87" style="fill:none;stroke:#38332a;stroke-width:3px" transform="translate(1.2 8.2)"/><path d="M420.69 35.98c.87-.62 1.95-1.04 2.91-1.5 2.87-1.35 9.29-5.3 12.23-2.15 2.2 2.34-1.56 5.86-3.2 7.34-.5.45-1.07.8-1.64 1.15-.28.18-.85.5-.85.5s.6-.27.91-.37c.56-.18 1.13-.33 1.7-.46 2.02-.45 5.38-1.1 6.68 1.1 1.96 3.28-1.27 7.24-3.84 8.89-.92.58-1.94.88-2.95 1.27-.34.12-.69.23-1.02.36-.1.04-.52.2-.47.2m14.93-13.23c.01 3.1.54 6.64 1.22 9.66m-3.32-17.92c.03.05.08.28.04.3m16.76-1.82c.22.72-.02 1.76.02 2.51.08 1.54.3 3.1.56 4.61.27 1.59.59 3.16.9 4.74.2 1.02.42 2.04.6 3.07.17 1.03.3 2.06.5 3.09.03.1.2.73.12.82-.16.19-.19-.45-.27-.69-.16-.52-.38-1.05-.6-1.55a47.19 47.19 0 0 0-2.13-4.05c-1.63-2.78-5.5-5.4-7.84-1.66a5 5 0 0 0-.63 1.78c-.75 4.22 3.28 5.46 6.62 4.44.95-.3 2.92-.8 3.31-1.9" style="fill:none;stroke:#38332a;stroke-width:3px" transform="translate(1.2 8.2)"/></svg>